  0
SECTION
  2
HEADER
  9
$ACADVER
  1
AC1014
  9
$ACADMAINTVER
 70
     9
  9
$DWGCODEPAGE
  3
ANSI_1252
  9
$INSBASE
 10
0.0
 20
0.0
 30
0.0
  9
$EXTMIN
 10
1.000000000000000E+20
 20
1.000000000000000E+20
 30
1.000000000000000E+20
  9
$EXTMAX
 10
-1.000000000000000E+20
 20
-1.000000000000000E+20
 30
-1.000000000000000E+20
  9
$LIMMIN
 10
0.0
 20
0.0
  9
$LIMMAX
 10
12.0
 20
9.0
  9
$ORTHOMODE
 70
     0
  9
$REGENMODE
 70
     1
  9
$FILLMODE
 70
     1
  9
$QTEXTMODE
 70
     0
  9
$MIRRTEXT
 70
     1
  9
$DRAGMODE
 70
     2
  9
$LTSCALE
 40
1.0
  9
$OSMODE
 70
    37
  9
$ATTMODE
 70
     1
  9
$TEXTSIZE
 40
0.2
  9
$TRACEWID
 40
0.05
  9
$TEXTSTYLE
  7
STANDARD
  9
$CLAYER
  8
0
  9
$CELTYPE
  6
BYLAYER
  9
$CECOLOR
 62
   256
  9
$CELTSCALE
 40
1.0
  9
$DELOBJ
 70
     1
  9
$DISPSILH
 70
     0
  9
$DIMSCALE
 40
1.0
  9
$DIMASZ
 40
0.18
  9
$DIMEXO
 40
0.0625
  9
$DIMDLI
 40
0.38
  9
$DIMRND
 40
0.0
  9
$DIMDLE
 40
0.0
  9
$DIMEXE
 40
0.18
  9
$DIMTP
 40
0.0
  9
$DIMTM
 40
0.0
  9
$DIMTXT
 40
0.18
  9
$DIMCEN
 40
0.09
  9
$DIMTSZ
 40
0.0
  9
$DIMTOL
 70
     0
  9
$DIMLIM
 70
     0
  9
$DIMTIH
 70
     1
  9
$DIMTOH
 70
     1
  9
$DIMSE1
 70
     0
  9
$DIMSE2
 70
     0
  9
$DIMTAD
 70
     0
  9
$DIMZIN
 70
     0
  9
$DIMBLK
  1

  9
$DIMASO
 70
     1
  9
$DIMSHO
 70
     1
  9
$DIMPOST
  1

  9
$DIMAPOST
  1

  9
$DIMALT
 70
     0
  9
$DIMALTD
 70
     2
  9
$DIMALTF
 40
25.4
  9
$DIMLFAC
 40
1.0
  9
$DIMTOFL
 70
     0
  9
$DIMTVP
 40
0.0
  9
$DIMTIX
 70
     0
  9
$DIMSOXD
 70
     0
  9
$DIMSAH
 70
     0
  9
$DIMBLK1
  1

  9
$DIMBLK2
  1

  9
$DIMSTYLE
  2
STANDARD
  9
$DIMCLRD
 70
     0
  9
$DIMCLRE
 70
     0
  9
$DIMCLRT
 70
     0
  9
$DIMTFAC
 40
1.0
  9
$DIMGAP
 40
0.09
  9
$DIMJUST
 70
     0
  9
$DIMSD1
 70
     0
  9
$DIMSD2
 70
     0
  9
$DIMTOLJ
 70
     1
  9
$DIMTZIN
 70
     0
  9
$DIMALTZ
 70
     0
  9
$DIMALTTZ
 70
     0
  9
$DIMFIT
 70
     3
  9
$DIMUPT
 70
     0
  9
$DIMUNIT
 70
     2
  9
$DIMDEC
 70
     4
  9
$DIMTDEC
 70
     4
  9
$DIMALTU
 70
     2
  9
$DIMALTTD
 70
     2
  9
$DIMTXSTY
  7
STANDARD
  9
$DIMAUNIT
 70
     0
  9
$LUNITS
 70
     2
  9
$LUPREC
 70
     4
  9
$SKETCHINC
 40
0.1
  9
$FILLETRAD
 40
0.5
  9
$AUNITS
 70
     0
  9
$AUPREC
 70
     0
  9
$MENU
  1
.
  9
$ELEVATION
 40
0.0
  9
$PELEVATION
 40
0.0
  9
$THICKNESS
 40
0.0
  9
$LIMCHECK
 70
     0
  9
$CHAMFERA
 40
0.5
  9
$CHAMFERB
 40
0.5
  9
$CHAMFERC
 40
1.0
  9
$CHAMFERD
 40
0.0
  9
$SKPOLY
 70
     0
  9
$TDCREATE
 40
2456650.018049618
  9
$TDUPDATE
 40
2456650.018049629
  9
$TDINDWG
 40
0.0000000116
  9
$TDUSRTIMER
 40
0.0000000116
  9
$USRTIMER
 70
     1
  9
$ANGBASE
 50
0.0
  9
$ANGDIR
 70
     0
  9
$PDMODE
 70
     0
  9
$PDSIZE
 40
0.0
  9
$PLINEWID
 40
0.0
  9
$COORDS
 70
     1
  9
$SPLFRAME
 70
     0
  9
$SPLINETYPE
 70
     6
  9
$SPLINESEGS
 70
     8
  9
$ATTDIA
 70
     0
  9
$ATTREQ
 70
     1
  9
$HANDLING
 70
     1
  9
$HANDSEED
  5
166
  9
$SURFTAB1
 70
     6
  9
$SURFTAB2
 70
     6
  9
$SURFTYPE
 70
     6
  9
$SURFU
 70
     6
  9
$SURFV
 70
     6
  9
$UCSNAME
  2

  9
$UCSORG
 10
0.0
 20
0.0
 30
0.0
  9
$UCSXDIR
 10
1.0
 20
0.0
 30
0.0
  9
$UCSYDIR
 10
0.0
 20
1.0
 30
0.0
  9
$PUCSNAME
  2

  9
$PUCSORG
 10
0.0
 20
0.0
 30
0.0
  9
$PUCSXDIR
 10
1.0
 20
0.0
 30
0.0
  9
$PUCSYDIR
 10
0.0
 20
1.0
 30
0.0
  9
$USERI1
 70
     0
  9
$USERI2
 70
     0
  9
$USERI3
 70
     0
  9
$USERI4
 70
     0
  9
$USERI5
 70
     0
  9
$USERR1
 40
0.0
  9
$USERR2
 40
0.0
  9
$USERR3
 40
0.0
  9
$USERR4
 40
0.0
  9
$USERR5
 40
0.0
  9
$WORLDVIEW
 70
     1
  9
$SHADEDGE
 70
     3
  9
$SHADEDIF
 70
    70
  9
$TILEMODE
 70
     1
  9
$MAXACTVP
 70
    64
  9
$PINSBASE
 10
0.0
 20
0.0
 30
0.0
  9
$PLIMCHECK
 70
     0
  9
$PEXTMIN
 10
1.000000000000000E+20
 20
1.000000000000000E+20
 30
1.000000000000000E+20
  9
$PEXTMAX
 10
-1.000000000000000E+20
 20
-1.000000000000000E+20
 30
-1.000000000000000E+20
  9
$PLIMMIN
 10
0.0
 20
0.0
  9
$PLIMMAX
 10
12.0
 20
9.0
  9
$UNITMODE
 70
     0
  9
$VISRETAIN
 70
     1
  9
$PLINEGEN
 70
     0
  9
$PSLTSCALE
 70
     1
  9
$TREEDEPTH
 70
  3020
  9
$PICKSTYLE
 70
     1
  9
$CMLSTYLE
  2
STANDARD
  9
$CMLJUST
 70
     0
  9
$CMLSCALE
 40
1.0
  9
$PROXYGRAPHICS
 70
     1
  9
$MEASUREMENT
 70
     0
  0
ENDSEC
  0
SECTION
  2
CLASSES
  0
CLASS
  1
ACDBDICTIONARYWDFLT
  2
AcDbDictionaryWithDefault
  3
ObjectDBX Classes
 90
        0
280
     0
281
     0
  0
CLASS
  1
VISUALSTYLE
  2
AcDbVisualStyle
  3
ObjectDBX Classes
 90
     4095
280
     0
281
     0
  0
CLASS
  1
XRECORD
  2
AcDbXrecord
  3
AutoCAD 2000
 90
        0
280
     0
281
     0
  0
CLASS
  1
LWPOLYLINE
  2
AcDbPolyline
  3
AutoCAD 2000
 90
        0
280
     0
281
     1
  0
CLASS
  1
HATCH
  2
AcDbHatch
  3
AutoCAD 2000
 90
        0
280
     0
281
     1
  0
CLASS
  1
ACDBPLACEHOLDER
  2
AcDbPlaceHolder
  3
ObjectDBX Classes
 90
        0
280
     0
281
     0
  0
CLASS
  1
LAYOUT
  2
AcDbLayout
  3
ObjectDBX Classes
 90
        0
280
     0
281
     0
  0
ENDSEC
  0
SECTION
  2
TABLES
  0
TABLE
  2
VPORT
  5
8
330
0
100
AcDbSymbolTable
 70
     1
  0
VPORT
  5
29
330
8
100
AcDbSymbolTableRecord
100
AcDbViewportTableRecord
  2
*ACTIVE
 70
     0
 10
0.0
 20
0.0
 11
1.0
 21
1.0
 12
0.0
 22
0.0
 13
0.0
 23
0.0
 14
0.5
 24
0.5
 15
0.5
 25
0.5
 16
0.0
 26
0.0
 36
1.0
 17
60.00051157221236
 27
-69.99990781469616
 37
0.0
 40
139.9998156293923
 41
0.8571512941280692
 42
50.0
 43
0.0
 44
0.0
 50
0.0
 51
0.0
 71
     0
 72
   100
 73
     1
 74
     3
 75
     0
 76
     0
 77
     0
 78
     0
  0
ENDTAB
  0
TABLE
  2
LTYPE
  5
5
330
0
100
AcDbSymbolTable
 70
     1
  0
LTYPE
  5
14
330
5
100
AcDbSymbolTableRecord
100
AcDbLinetypeTableRecord
  2
BYBLOCK
 70
     0
  3

 72
    65
 73
     0
 40
0.0
  0
LTYPE
  5
15
330
5
100
AcDbSymbolTableRecord
100
AcDbLinetypeTableRecord
  2
BYLAYER
 70
     0
  3

 72
    65
 73
     0
 40
0.0
  0
LTYPE
  5
16
330
5
100
AcDbSymbolTableRecord
100
AcDbLinetypeTableRecord
  2
CONTINUOUS
 70
     0
  3
Solid line
 72
    65
 73
     0
 40
0.0
  0
ENDTAB
  0
TABLE
  2
LAYER
  5
2
330
0
100
AcDbSymbolTable
 70
     2
  0
LAYER
  5
10
330
2
100
AcDbSymbolTableRecord
100
AcDbLayerTableRecord
  2
0
 70
     0
 62
     7
  6
CONTINUOUS
  0
LAYER
  5
3B
330
2
100
AcDbSymbolTableRecord
100
AcDbLayerTableRecord
  2
LAYER_1
 70
     0
 62
     7
  6
CONTINUOUS
  0
ENDTAB
  0
TABLE
  2
STYLE
  5
3
330
0
100
AcDbSymbolTable
 70
     1
  0
STYLE
  5
11
330
3
100
AcDbSymbolTableRecord
100
AcDbTextStyleTableRecord
  2
STANDARD
 70
     0
 40
0.0
 41
1.0
 50
0.0
 71
     0
 42
0.2
  3
txt
  4

  0
ENDTAB
  0
TABLE
  2
VIEW
  5
6
330
0
100
AcDbSymbolTable
 70
     0
  0
ENDTAB
  0
TABLE
  2
UCS
  5
7
330
0
100
AcDbSymbolTable
 70
     0
  0
ENDTAB
  0
TABLE
  2
APPID
  5
9
330
0
100
AcDbSymbolTable
 70
     1
  0
APPID
  5
12
330
9
100
AcDbSymbolTableRecord
100
AcDbRegAppTableRecord
  2
ACAD
 70
     0
  0
ENDTAB
  0
TABLE
  2
DIMSTYLE
  5
A
330
0
100
AcDbSymbolTable
 70
     1
  0
DIMSTYLE
105
27
330
A
100
AcDbSymbolTableRecord
100
AcDbDimStyleTableRecord
  2
STANDARD
 70
     0
  3

  4

  5

  6

  7

 40
1.0
 41
0.18
 42
0.0625
 43
0.38
 44
0.18
 45
0.0
 46
0.0
 47
0.0
 48
0.0
140
0.18
141
0.09
142
0.0
143
25.4
144
1.0
145
0.0
146
1.0
147
0.09
 71
     0
 72
     0
 73
     1
 74
     1
 75
     0
 76
     0
 77
     0
 78
     0
170
     0
171
     2
172
     0
173
     0
174
     0
175
     0
176
     0
177
     0
178
     0
270
     2
271
     4
272
     4
273
     2
274
     2
340
11
275
     0
280
     0
281
     0
282
     0
283
     1
284
     0
285
     0
286
     0
287
     3
288
     0
  0
ENDTAB
  0
TABLE
  2
BLOCK_RECORD
  5
1
330
0
100
AcDbSymbolTable
 70
     7
  0
BLOCK_RECORD
  5
1F
330
1
100
AcDbSymbolTableRecord
100
AcDbBlockTableRecord
  2
*MODEL_SPACE
  0
BLOCK_RECORD
  5
1B
330
1
100
AcDbSymbolTableRecord
100
AcDbBlockTableRecord
  2
*PAPER_SPACE
  0
BLOCK_RECORD
  5
47
330
1
100
AcDbSymbolTableRecord
100
AcDbBlockTableRecord
  2
BLOCK_2
  0
BLOCK_RECORD
  5
BB
330
1
100
AcDbSymbolTableRecord
100
AcDbBlockTableRecord
  2
BLOCK_3
  0
BLOCK_RECORD
  5
C1
330
1
100
AcDbSymbolTableRecord
100
AcDbBlockTableRecord
  2
BLOCK_4
  0
BLOCK_RECORD
  5
C7
330
1
100
AcDbSymbolTableRecord
100
AcDbBlockTableRecord
  2
BLOCK_5
  0
BLOCK_RECORD
  5
E3
330
1
100
AcDbSymbolTableRecord
100
AcDbBlockTableRecord
  2
BLOCK_6
  0
BLOCK_RECORD
  5
114
330
1
100
AcDbSymbolTableRecord
100
AcDbBlockTableRecord
  2
BLOCK_7
  0
ENDTAB
  0
ENDSEC
  0
SECTION
  2
BLOCKS
  0
BLOCK
  5
20
330
1F
100
AcDbEntity
  8
0
100
AcDbBlockBegin
  2
*MODEL_SPACE
 70
     0
 71
     0
 10
0.0
 20
0.0
 30
0.0
  3
*MODEL_SPACE
  1

  0
ENDBLK
  5
21
330
1F
100
AcDbEntity
  8
0
100
AcDbBlockEnd
  0
BLOCK
  5
1C
330
1B
100
AcDbEntity
 67
     1
  8
0
100
AcDbBlockBegin
  2
*PAPER_SPACE
 70
     0
 71
     0
 10
0.0
 20
0.0
 30
0.0
  3
*PAPER_SPACE
  1

  0
ENDBLK
  5
1D
330
1B
100
AcDbEntity
 67
     1
  8
0
100
AcDbBlockEnd
  0
BLOCK
  5
49
330
47
100
AcDbEntity
  8
0
100
AcDbBlockBegin
  2
BLOCK_2
 70
     0
 71
     0
 10
0.0
 20
0.0
 30
0.0
  3
BLOCK_2
  1

  0
POLYLINE
  5
4B
330
47
100
AcDbEntity
  8
LAYER_1
 62
   250
100
AcDb2dPolyline
 66
     1
 10
0.0
 20
0.0
 30
0.0
  0
VERTEX
  5
4C
330
4B
100
AcDbEntity
  8
LAYER_1
 62
   250
100
AcDbVertex
100
AcDb2dVertex
 10
45.48769275702295
 20
-20.13642414039817
 30
0.0
  0
VERTEX
  5
4D
330
4B
100
AcDbEntity
  8
LAYER_1
 62
   250
100
AcDbVertex
100
AcDb2dVertex
 10
44.94784593835035
 20
-20.13642414039817
 30
0.0
  0
VERTEX
  5
4E
330
4B
100
AcDbEntity
  8
LAYER_1
 62
   250
100
AcDbVertex
100
AcDb2dVertex
 10
44.94784593835035
 20
-19.59640506683768
 30
0.0
  0
VERTEX
  5
4F
330
4B
100
AcDbEntity
  8
LAYER_1
 62
   250
100
AcDbVertex
100
AcDb2dVertex
 10
45.48769275702295
 20
-19.59640506683768
 30
0.0
  0
VERTEX
  5
50
330
4B
100
AcDbEntity
  8
LAYER_1
 62
   250
100
AcDbVertex
100
AcDb2dVertex
 10
45.48769275702295
 20
-20.13642414039817
 30
0.0
  0
SEQEND
  5
51
330
4B
100
AcDbEntity
  8
LAYER_1
  0
POLYLINE
  5
52
330
47
100
AcDbEntity
  8
LAYER_1
 62
   250
100
AcDb2dPolyline
 66
     1
 10
0.0
 20
0.0
 30
0.0
  0
VERTEX
  5
53
330
52
100
AcDbEntity
  8
LAYER_1
 62
   250
100
AcDbVertex
100
AcDb2dVertex
 10
50.56783391091326
 20
-20.13642414039817
 30
0.0
  0
VERTEX
  5
54
330
52
100
AcDbEntity
  8
LAYER_1
 62
   250
100
AcDbVertex
100
AcDb2dVertex
 10
50.02798709224066
 20
-20.13642414039817
 30
0.0
  0
VERTEX
  5
55
330
52
100
AcDbEntity
  8
LAYER_1
 62
   250
100
AcDbVertex
100
AcDb2dVertex
 10
50.02798709224066
 20
-19.59640506683768
 30
0.0
  0
VERTEX
  5
56
330
52
100
AcDbEntity
  8
LAYER_1
 62
   250
100
AcDbVertex
100
AcDb2dVertex
 10
50.56783391091326
 20
-19.59640506683768
 30
0.0
  0
VERTEX
  5
57
330
52
100
AcDbEntity
  8
LAYER_1
 62
   250
100
AcDbVertex
100
AcDb2dVertex
 10
50.56783391091326
 20
-20.13642414039817
 30
0.0
  0
SEQEND
  5
58
330
52
100
AcDbEntity
  8
LAYER_1
  0
POLYLINE
  5
59
330
47
100
AcDbEntity
  8
LAYER_1
 62
   250
100
AcDb2dPolyline
 66
     1
 10
0.0
 20
0.0
 30
0.0
  0
VERTEX
  5
5A
330
59
100
AcDbEntity
  8
LAYER_1
 62
   250
100
AcDbVertex
100
AcDb2dVertex
 10
53.10790448785841
 20
-20.13642414039817
 30
0.0
  0
VERTEX
  5
5B
330
59
100
AcDbEntity
  8
LAYER_1
 62
   250
100
AcDbVertex
100
AcDb2dVertex
 10
52.56805766918581
 20
-20.13642414039817
 30
0.0
  0
VERTEX
  5
5C
330
59
100
AcDbEntity
  8
LAYER_1
 62
   250
100
AcDbVertex
100
AcDb2dVertex
 10
52.56805766918581
 20
-19.59640506683768
 30
0.0
  0
VERTEX
  5
5D
330
59
100
AcDbEntity
  8
LAYER_1
 62
   250
100
AcDbVertex
100
AcDb2dVertex
 10
53.10790448785841
 20
-19.59640506683768
 30
0.0
  0
VERTEX
  5
5E
330
59
100
AcDbEntity
  8
LAYER_1
 62
   250
100
AcDbVertex
100
AcDb2dVertex
 10
53.10790448785841
 20
-20.13642414039817
 30
0.0
  0
SEQEND
  5
5F
330
59
100
AcDbEntity
  8
LAYER_1
  0
POLYLINE
  5
60
330
47
100
AcDbEntity
  8
LAYER_1
 62
   250
100
AcDb2dPolyline
 66
     1
 10
0.0
 20
0.0
 30
0.0
  0
VERTEX
  5
61
330
60
100
AcDbEntity
  8
LAYER_1
 62
   250
100
AcDbVertex
100
AcDb2dVertex
 10
48.0277633339681
 20
-20.13642414039817
 30
0.0
  0
VERTEX
  5
62
330
60
100
AcDbEntity
  8
LAYER_1
 62
   250
100
AcDbVertex
100
AcDb2dVertex
 10
47.48791651529551
 20
-20.13642414039817
 30
0.0
  0
VERTEX
  5
63
330
60
100
AcDbEntity
  8
LAYER_1
 62
   250
100
AcDbVertex
100
AcDb2dVertex
 10
47.48791651529551
 20
-19.59640506683768
 30
0.0
  0
VERTEX
  5
64
330
60
100
AcDbEntity
  8
LAYER_1
 62
   250
100
AcDbVertex
100
AcDb2dVertex
 10
48.0277633339681
 20
-19.59640506683768
 30
0.0
  0
VERTEX
  5
65
330
60
100
AcDbEntity
  8
LAYER_1
 62
   250
100
AcDbVertex
100
AcDb2dVertex
 10
48.0277633339681
 20
-20.13642414039817
 30
0.0
  0
SEQEND
  5
66
330
60
100
AcDbEntity
  8
LAYER_1
  0
POLYLINE
  5
67
330
47
100
AcDbEntity
  8
LAYER_1
 62
   250
100
AcDb2dPolyline
 66
     1
 10
0.0
 20
0.0
 30
0.0
  0
VERTEX
  5
68
330
67
100
AcDbEntity
  8
LAYER_1
 62
   250
100
AcDbVertex
100
AcDb2dVertex
 10
58.18770113197291
 20
-20.13642414039817
 30
0.0
  0
VERTEX
  5
69
330
67
100
AcDbEntity
  8
LAYER_1
 62
   250
100
AcDbVertex
100
AcDb2dVertex
 10
57.64785431330032
 20
-20.13642414039817
 30
0.0
  0
VERTEX
  5
6A
330
67
100
AcDbEntity
  8
LAYER_1
 62
   250
100
AcDbVertex
100
AcDb2dVertex
 10
57.64785431330032
 20
-19.59640506683768
 30
0.0
  0
VERTEX
  5
6B
330
67
100
AcDbEntity
  8
LAYER_1
 62
   250
100
AcDbVertex
100
AcDb2dVertex
 10
58.18770113197291
 20
-19.59640506683768
 30
0.0
  0
VERTEX
  5
6C
330
67
100
AcDbEntity
  8
LAYER_1
 62
   250
100
AcDbVertex
100
AcDb2dVertex
 10
58.18770113197291
 20
-20.13642414039817
 30
0.0
  0
SEQEND
  5
6D
330
67
100
AcDbEntity
  8
LAYER_1
  0
POLYLINE
  5
6E
330
47
100
AcDbEntity
  8
LAYER_1
 62
   250
100
AcDb2dPolyline
 66
     1
 10
0.0
 20
0.0
 30
0.0
  0
VERTEX
  5
6F
330
6E
100
AcDbEntity
  8
LAYER_1
 62
   250
100
AcDbVertex
100
AcDb2dVertex
 10
60.72777170891807
 20
-20.13642414039817
 30
0.0
  0
VERTEX
  5
70
330
6E
100
AcDbEntity
  8
LAYER_1
 62
   250
100
AcDbVertex
100
AcDb2dVertex
 10
60.18792489024548
 20
-20.13642414039817
 30
0.0
  0
VERTEX
  5
71
330
6E
100
AcDbEntity
  8
LAYER_1
 62
   250
100
AcDbVertex
100
AcDb2dVertex
 10
60.18792489024548
 20
-19.59640506683768
 30
0.0
  0
VERTEX
  5
72
330
6E
100
AcDbEntity
  8
LAYER_1
 62
   250
100
AcDbVertex
100
AcDb2dVertex
 10
60.72777170891807
 20
-19.59640506683768
 30
0.0
  0
VERTEX
  5
73
330
6E
100
AcDbEntity
  8
LAYER_1
 62
   250
100
AcDbVertex
100
AcDb2dVertex
 10
60.72777170891807
 20
-20.13642414039817
 30
0.0
  0
SEQEND
  5
74
330
6E
100
AcDbEntity
  8
LAYER_1
  0
POLYLINE
  5
75
330
47
100
AcDbEntity
  8
LAYER_1
 62
   250
100
AcDb2dPolyline
 66
     1
 10
0.0
 20
0.0
 30
0.0
  0
VERTEX
  5
76
330
75
100
AcDbEntity
  8
LAYER_1
 62
   250
100
AcDbVertex
100
AcDb2dVertex
 10
55.64797506480356
 20
-20.13642414039817
 30
0.0
  0
VERTEX
  5
77
330
75
100
AcDbEntity
  8
LAYER_1
 62
   250
100
AcDbVertex
100
AcDb2dVertex
 10
55.10812824613097
 20
-20.13642414039817
 30
0.0
  0
VERTEX
  5
78
330
75
100
AcDbEntity
  8
LAYER_1
 62
   250
100
AcDbVertex
100
AcDb2dVertex
 10
55.10812824613097
 20
-19.59640506683768
 30
0.0
  0
VERTEX
  5
79
330
75
100
AcDbEntity
  8
LAYER_1
 62
   250
100
AcDbVertex
100
AcDb2dVertex
 10
55.64797506480356
 20
-19.59640506683768
 30
0.0
  0
VERTEX
  5
7A
330
75
100
AcDbEntity
  8
LAYER_1
 62
   250
100
AcDbVertex
100
AcDb2dVertex
 10
55.64797506480356
 20
-20.13642414039817
 30
0.0
  0
SEQEND
  5
7B
330
75
100
AcDbEntity
  8
LAYER_1
  0
POLYLINE
  5
7C
330
47
100
AcDbEntity
  8
LAYER_1
 62
   250
100
AcDb2dPolyline
 66
     1
 10
0.0
 20
0.0
 30
0.0
  0
VERTEX
  5
7D
330
7C
100
AcDbEntity
  8
LAYER_1
 62
   250
100
AcDbVertex
100
AcDb2dVertex
 10
65.79551051087971
 20
-20.13642414039817
 30
0.0
  0
VERTEX
  5
7E
330
7C
100
AcDbEntity
  8
LAYER_1
 62
   250
100
AcDbVertex
100
AcDb2dVertex
 10
65.25566369220712
 20
-20.13642414039817
 30
0.0
  0
VERTEX
  5
7F
330
7C
100
AcDbEntity
  8
LAYER_1
 62
   250
100
AcDbVertex
100
AcDb2dVertex
 10
65.25566369220712
 20
-19.59640506683768
 30
0.0
  0
VERTEX
  5
80
330
7C
100
AcDbEntity
  8
LAYER_1
 62
   250
100
AcDbVertex
100
AcDb2dVertex
 10
65.79551051087971
 20
-19.59640506683768
 30
0.0
  0
VERTEX
  5
81
330
7C
100
AcDbEntity
  8
LAYER_1
 62
   250
100
AcDbVertex
100
AcDb2dVertex
 10
65.79551051087971
 20
-20.13642414039817
 30
0.0
  0
SEQEND
  5
82
330
7C
100
AcDbEntity
  8
LAYER_1
  0
POLYLINE
  5
83
330
47
100
AcDbEntity
  8
LAYER_1
 62
   250
100
AcDb2dPolyline
 66
     1
 10
0.0
 20
0.0
 30
0.0
  0
VERTEX
  5
84
330
83
100
AcDbEntity
  8
LAYER_1
 62
   250
100
AcDbVertex
100
AcDb2dVertex
 10
68.33558108782486
 20
-20.13642414039817
 30
0.0
  0
VERTEX
  5
85
330
83
100
AcDbEntity
  8
LAYER_1
 62
   250
100
AcDbVertex
100
AcDb2dVertex
 10
67.79573426915228
 20
-20.13642414039817
 30
0.0
  0
VERTEX
  5
86
330
83
100
AcDbEntity
  8
LAYER_1
 62
   250
100
AcDbVertex
100
AcDb2dVertex
 10
67.79573426915228
 20
-19.59640506683768
 30
0.0
  0
VERTEX
  5
87
330
83
100
AcDbEntity
  8
LAYER_1
 62
   250
100
AcDbVertex
100
AcDb2dVertex
 10
68.33558108782486
 20
-19.59640506683768
 30
0.0
  0
VERTEX
  5
88
330
83
100
AcDbEntity
  8
LAYER_1
 62
   250
100
AcDbVertex
100
AcDb2dVertex
 10
68.33558108782486
 20
-20.13642414039817
 30
0.0
  0
SEQEND
  5
89
330
83
100
AcDbEntity
  8
LAYER_1
  0
POLYLINE
  5
8A
330
47
100
AcDbEntity
  8
LAYER_1
 62
   250
100
AcDb2dPolyline
 66
     1
 10
0.0
 20
0.0
 30
0.0
  0
VERTEX
  5
8B
330
8A
100
AcDbEntity
  8
LAYER_1
 62
   250
100
AcDbVertex
100
AcDb2dVertex
 10
63.25543993393456
 20
-20.13642414039817
 30
0.0
  0
VERTEX
  5
8C
330
8A
100
AcDbEntity
  8
LAYER_1
 62
   250
100
AcDbVertex
100
AcDb2dVertex
 10
62.71559311526197
 20
-20.13642414039817
 30
0.0
  0
VERTEX
  5
8D
330
8A
100
AcDbEntity
  8
LAYER_1
 62
   250
100
AcDbVertex
100
AcDb2dVertex
 10
62.71559311526197
 20
-19.59640506683768
 30
0.0
  0
VERTEX
  5
8E
330
8A
100
AcDbEntity
  8
LAYER_1
 62
   250
100
AcDbVertex
100
AcDb2dVertex
 10
63.25543993393456
 20
-19.59640506683768
 30
0.0
  0
VERTEX
  5
8F
330
8A
100
AcDbEntity
  8
LAYER_1
 62
   250
100
AcDbVertex
100
AcDb2dVertex
 10
63.25543993393456
 20
-20.13642414039817
 30
0.0
  0
SEQEND
  5
90
330
8A
100
AcDbEntity
  8
LAYER_1
  0
POLYLINE
  5
91
330
47
100
AcDbEntity
  8
LAYER_1
 62
   250
100
AcDb2dPolyline
 66
     1
 10
0.0
 20
0.0
 30
0.0
  0
VERTEX
  5
92
330
91
100
AcDbEntity
  8
LAYER_1
 62
   250
100
AcDbVertex
100
AcDb2dVertex
 10
73.41537773193937
 20
-20.13659639528607
 30
0.0
  0
VERTEX
  5
93
330
91
100
AcDbEntity
  8
LAYER_1
 62
   250
100
AcDbVertex
100
AcDb2dVertex
 10
72.87553091326679
 20
-20.13659639528607
 30
0.0
  0
VERTEX
  5
94
330
91
100
AcDbEntity
  8
LAYER_1
 62
   250
100
AcDbVertex
100
AcDb2dVertex
 10
72.87553091326679
 20
-19.59657732172558
 30
0.0
  0
VERTEX
  5
95
330
91
100
AcDbEntity
  8
LAYER_1
 62
   250
100
AcDbVertex
100
AcDb2dVertex
 10
73.41537773193937
 20
-19.59657732172558
 30
0.0
  0
VERTEX
  5
96
330
91
100
AcDbEntity
  8
LAYER_1
 62
   250
100
AcDbVertex
100
AcDb2dVertex
 10
73.41537773193937
 20
-20.13659639528607
 30
0.0
  0
SEQEND
  5
97
330
91
100
AcDbEntity
  8
LAYER_1
  0
POLYLINE
  5
98
330
47
100
AcDbEntity
  8
LAYER_1
 62
   250
100
AcDb2dPolyline
 66
     1
 10
0.0
 20
0.0
 30
0.0
  0
VERTEX
  5
99
330
98
100
AcDbEntity
  8
LAYER_1
 62
   250
100
AcDbVertex
100
AcDb2dVertex
 10
75.95544830888453
 20
-20.13659639528607
 30
0.0
  0
VERTEX
  5
9A
330
98
100
AcDbEntity
  8
LAYER_1
 62
   250
100
AcDbVertex
100
AcDb2dVertex
 10
75.41560149021193
 20
-20.13659639528607
 30
0.0
  0
VERTEX
  5
9B
330
98
100
AcDbEntity
  8
LAYER_1
 62
   250
100
AcDbVertex
100
AcDb2dVertex
 10
75.41560149021193
 20
-19.59657732172558
 30
0.0
  0
VERTEX
  5
9C
330
98
100
AcDbEntity
  8
LAYER_1
 62
   250
100
AcDbVertex
100
AcDb2dVertex
 10
75.95544830888453
 20
-19.59657732172558
 30
0.0
  0
VERTEX
  5
9D
330
98
100
AcDbEntity
  8
LAYER_1
 62
   250
100
AcDbVertex
100
AcDb2dVertex
 10
75.95544830888453
 20
-20.13659639528607
 30
0.0
  0
SEQEND
  5
9E
330
98
100
AcDbEntity
  8
LAYER_1
  0
POLYLINE
  5
9F
330
47
100
AcDbEntity
  8
LAYER_1
 62
   250
100
AcDb2dPolyline
 66
     1
 10
0.0
 20
0.0
 30
0.0
  0
VERTEX
  5
A0
330
9F
100
AcDbEntity
  8
LAYER_1
 62
   250
100
AcDbVertex
100
AcDb2dVertex
 10
70.87565166477002
 20
-20.13659639528607
 30
0.0
  0
VERTEX
  5
A1
330
9F
100
AcDbEntity
  8
LAYER_1
 62
   250
100
AcDbVertex
100
AcDb2dVertex
 10
70.33580484609742
 20
-20.13659639528607
 30
0.0
  0
VERTEX
  5
A2
330
9F
100
AcDbEntity
  8
LAYER_1
 62
   250
100
AcDbVertex
100
AcDb2dVertex
 10
70.33580484609742
 20
-19.59657732172558
 30
0.0
  0
VERTEX
  5
A3
330
9F
100
AcDbEntity
  8
LAYER_1
 62
   250
100
AcDbVertex
100
AcDb2dVertex
 10
70.87565166477002
 20
-19.59657732172558
 30
0.0
  0
VERTEX
  5
A4
330
9F
100
AcDbEntity
  8
LAYER_1
 62
   250
100
AcDbVertex
100
AcDb2dVertex
 10
70.87565166477002
 20
-20.13659639528607
 30
0.0
  0
SEQEND
  5
A5
330
9F
100
AcDbEntity
  8
LAYER_1
  0
POLYLINE
  5
A6
330
47
100
AcDbEntity
  8
LAYER_1
 62
   250
100
AcDb2dPolyline
 66
     1
 10
0.0
 20
0.0
 30
0.0
  0
VERTEX
  5
A7
330
A6
100
AcDbEntity
  8
LAYER_1
 62
   250
100
AcDbVertex
100
AcDb2dVertex
 10
81.03558946277484
 20
-20.13659639528607
 30
0.0
  0
VERTEX
  5
A8
330
A6
100
AcDbEntity
  8
LAYER_1
 62
   250
100
AcDbVertex
100
AcDb2dVertex
 10
80.49574264410224
 20
-20.13659639528607
 30
0.0
  0
VERTEX
  5
A9
330
A6
100
AcDbEntity
  8
LAYER_1
 62
   250
100
AcDbVertex
100
AcDb2dVertex
 10
80.49574264410224
 20
-19.59657732172558
 30
0.0
  0
VERTEX
  5
AA
330
A6
100
AcDbEntity
  8
LAYER_1
 62
   250
100
AcDbVertex
100
AcDb2dVertex
 10
81.03558946277484
 20
-19.59657732172558
 30
0.0
  0
VERTEX
  5
AB
330
A6
100
AcDbEntity
  8
LAYER_1
 62
   250
100
AcDbVertex
100
AcDb2dVertex
 10
81.03558946277484
 20
-20.13659639528607
 30
0.0
  0
SEQEND
  5
AC
330
A6
100
AcDbEntity
  8
LAYER_1
  0
POLYLINE
  5
AD
330
47
100
AcDbEntity
  8
LAYER_1
 62
   250
100
AcDb2dPolyline
 66
     1
 10
0.0
 20
0.0
 30
0.0
  0
VERTEX
  5
AE
330
AD
100
AcDbEntity
  8
LAYER_1
 62
   250
100
AcDbVertex
100
AcDb2dVertex
 10
83.57566003971999
 20
-20.13659639528607
 30
0.0
  0
VERTEX
  5
AF
330
AD
100
AcDbEntity
  8
LAYER_1
 62
   250
100
AcDbVertex
100
AcDb2dVertex
 10
83.03581322104739
 20
-20.13659639528607
 30
0.0
  0
VERTEX
  5
B0
330
AD
100
AcDbEntity
  8
LAYER_1
 62
   250
100
AcDbVertex
100
AcDb2dVertex
 10
83.03581322104739
 20
-19.59657732172558
 30
0.0
  0
VERTEX
  5
B1
330
AD
100
AcDbEntity
  8
LAYER_1
 62
   250
100
AcDbVertex
100
AcDb2dVertex
 10
83.57566003971999
 20
-19.59657732172558
 30
0.0
  0
VERTEX
  5
B2
330
AD
100
AcDbEntity
  8
LAYER_1
 62
   250
100
AcDbVertex
100
AcDb2dVertex
 10
83.57566003971999
 20
-20.13659639528607
 30
0.0
  0
SEQEND
  5
B3
330
AD
100
AcDbEntity
  8
LAYER_1
  0
POLYLINE
  5
B4
330
47
100
AcDbEntity
  8
LAYER_1
 62
   250
100
AcDb2dPolyline
 66
     1
 10
0.0
 20
0.0
 30
0.0
  0
VERTEX
  5
B5
330
B4
100
AcDbEntity
  8
LAYER_1
 62
   250
100
AcDbVertex
100
AcDb2dVertex
 10
78.49551888582968
 20
-20.13659639528607
 30
0.0
  0
VERTEX
  5
B6
330
B4
100
AcDbEntity
  8
LAYER_1
 62
   250
100
AcDbVertex
100
AcDb2dVertex
 10
77.95567206715708
 20
-20.13659639528607
 30
0.0
  0
VERTEX
  5
B7
330
B4
100
AcDbEntity
  8
LAYER_1
 62
   250
100
AcDbVertex
100
AcDb2dVertex
 10
77.95567206715708
 20
-19.59657732172558
 30
0.0
  0
VERTEX
  5
B8
330
B4
100
AcDbEntity
  8
LAYER_1
 62
   250
100
AcDbVertex
100
AcDb2dVertex
 10
78.49551888582968
 20
-19.59657732172558
 30
0.0
  0
VERTEX
  5
B9
330
B4
100
AcDbEntity
  8
LAYER_1
 62
   250
100
AcDbVertex
100
AcDb2dVertex
 10
78.49551888582968
 20
-20.13659639528607
 30
0.0
  0
SEQEND
  5
BA
330
B4
100
AcDbEntity
  8
LAYER_1
  0
ENDBLK
  5
4A
330
47
100
AcDbEntity
  8
0
100
AcDbBlockEnd
  0
BLOCK
  5
BD
330
BB
100
AcDbEntity
  8
0
100
AcDbBlockBegin
  2
BLOCK_3
 70
     0
 71
     0
 10
0.0
 20
0.0
 30
0.0
  3
BLOCK_3
  1

  0
SPLINE
  5
BF
330
BB
100
AcDbEntity
  8
LAYER_1
 62
   250
100
AcDbSpline
210
0.0
220
0.0
230
1.0
 70
    11
 71
     3
 72
    17
 73
    13
 74
     0
 42
0.0000000001
 43
0.0000000001
 40
0.0
 40
0.0
 40
0.0
 40
0.0
 40
1.0
 40
1.0
 40
1.0
 40
2.0
 40
2.0
 40
2.0
 40
3.0
 40
3.0
 40
3.0
 40
4.0
 40
4.0
 40
4.0
 40
4.0
 10
17.741736688839
 20
-81.81693763428055
 30
0.0
 10
17.741736688839
 20
-82.70026069942192
 30
0.0
 10
17.02532861007087
 20
-83.41684103307796
 30
0.0
 10
16.14183329004159
 20
-83.41684103307796
 30
0.0
 10
15.25799346023652
 20
-83.41684103307796
 30
0.0
 10
14.54158538146839
 20
-82.70026069942192
 30
0.0
 10
14.54158538146839
 20
-81.81693763428055
 30
0.0
 10
14.54158538146839
 20
-80.93292554958758
 30
0.0
 10
15.25799346023652
 20
-80.21668972570734
 30
0.0
 10
16.14183329004159
 20
-80.21668972570734
 30
0.0
 10
17.02532861007087
 20
-80.21668972570734
 30
0.0
 10
17.741736688839
 20
-80.93292554958758
 30
0.0
 10
17.741736688839
 20
-81.81693763428055
 30
0.0
  0
SPLINE
  5
C0
330
BB
100
AcDbEntity
  8
LAYER_1
 62
   250
100
AcDbSpline
210
0.0
220
0.0
230
1.0
 70
    11
 71
     3
 72
    17
 73
    13
 74
     0
 42
0.0000000001
 43
0.0000000001
 40
0.0
 40
0.0
 40
0.0
 40
0.0
 40
1.0
 40
1.0
 40
1.0
 40
2.0
 40
2.0
 40
2.0
 40
3.0
 40
3.0
 40
3.0
 40
4.0
 40
4.0
 40
4.0
 40
4.0
 10
17.741736688839
 20
-63.31676267402628
 30
0.0
 10
17.741736688839
 20
-64.20043024894345
 30
0.0
 10
17.02532861007087
 20
-64.91683832771159
 30
0.0
 10
16.14183329004159
 20
-64.91683832771159
 30
0.0
 10
15.25799346023652
 20
-64.91683832771159
 30
0.0
 10
14.54158538146839
 20
-64.20043024894345
 30
0.0
 10
14.54158538146839
 20
-63.31676267402628
 30
0.0
 10
14.54158538146839
 20
-62.43309509910911
 30
0.0
 10
15.25799346023652
 20
-61.71668702034098
 30
0.0
 10
16.14183329004159
 20
-61.71668702034098
 30
0.0
 10
17.02532861007087
 20
-61.71668702034098
 30
0.0
 10
17.741736688839
 20
-62.43309509910911
 30
0.0
 10
17.741736688839
 20
-63.31676267402628
 30
0.0
  0
ENDBLK
  5
BE
330
BB
100
AcDbEntity
  8
0
100
AcDbBlockEnd
  0
BLOCK
  5
C3
330
C1
100
AcDbEntity
  8
0
100
AcDbBlockBegin
  2
BLOCK_4
 70
     0
 71
     0
 10
0.0
 20
0.0
 30
0.0
  3
BLOCK_4
  1

  0
SPLINE
  5
C5
330
C1
100
AcDbEntity
  8
LAYER_1
 62
   250
100
AcDbSpline
210
0.0
220
0.0
230
1.0
 70
    11
 71
     3
 72
    17
 73
    13
 74
     0
 42
0.0000000001
 43
0.0000000001
 40
0.0
 40
0.0
 40
0.0
 40
0.0
 40
1.0
 40
1.0
 40
1.0
 40
2.0
 40
2.0
 40
2.0
 40
3.0
 40
3.0
 40
3.0
 40
4.0
 40
4.0
 40
4.0
 40
4.0
 10
103.2420005910443
 20
-81.81693763428055
 30
0.0
 10
103.2420005910443
 20
-82.70026069942192
 30
0.0
 10
102.5254202573883
 20
-83.41684103307796
 30
0.0
 10
101.6420971922469
 20
-83.41684103307796
 30
0.0
 10
100.7580851075539
 20
-83.41684103307796
 30
0.0
 10
100.0415047738979
 20
-82.70026069942192
 30
0.0
 10
100.0415047738979
 20
-81.81693763428055
 30
0.0
 10
100.0415047738979
 20
-80.93292554958758
 30
0.0
 10
100.7580851075539
 20
-80.21668972570734
 30
0.0
 10
101.6420971922469
 20
-80.21668972570734
 30
0.0
 10
102.5254202573883
 20
-80.21668972570734
 30
0.0
 10
103.2420005910443
 20
-80.93292554958758
 30
0.0
 10
103.2420005910443
 20
-81.81693763428055
 30
0.0
  0
SPLINE
  5
C6
330
C1
100
AcDbEntity
  8
LAYER_1
 62
   250
100
AcDbSpline
210
0.0
220
0.0
230
1.0
 70
    11
 71
     3
 72
    17
 73
    13
 74
     0
 42
0.0000000001
 43
0.0000000001
 40
0.0
 40
0.0
 40
0.0
 40
0.0
 40
1.0
 40
1.0
 40
1.0
 40
2.0
 40
2.0
 40
2.0
 40
3.0
 40
3.0
 40
3.0
 40
4.0
 40
4.0
 40
4.0
 40
4.0
 10
103.2420005910443
 20
-63.31676267402628
 30
0.0
 10
103.2420005910443
 20
-64.20043024894345
 30
0.0
 10
102.5254202573883
 20
-64.91683832771159
 30
0.0
 10
101.6420971922469
 20
-64.91683832771159
 30
0.0
 10
100.7580851075539
 20
-64.91683832771159
 30
0.0
 10
100.0415047738979
 20
-64.20043024894345
 30
0.0
 10
100.0415047738979
 20
-63.31676267402628
 30
0.0
 10
100.0415047738979
 20
-62.43309509910911
 30
0.0
 10
100.7580851075539
 20
-61.71668702034098
 30
0.0
 10
101.6420971922469
 20
-61.71668702034098
 30
0.0
 10
102.5254202573883
 20
-61.71668702034098
 30
0.0
 10
103.2420005910443
 20
-62.43309509910911
 30
0.0
 10
103.2420005910443
 20
-63.31676267402628
 30
0.0
  0
ENDBLK
  5
C4
330
C1
100
AcDbEntity
  8
0
100
AcDbBlockEnd
  0
BLOCK
  5
C9
330
C7
100
AcDbEntity
  8
0
100
AcDbBlockBegin
  2
BLOCK_5
 70
     0
 71
     0
 10
0.0
 20
0.0
 30
0.0
  3
BLOCK_5
  1

  0
SPLINE
  5
CB
330
C7
100
AcDbEntity
  8
LAYER_1
100
AcDbSpline
210
0.0
220
0.0
230
1.0
 70
    11
 71
     3
 72
    47
 73
    43
 74
     0
 42
0.0000000001
 43
0.0000000001
 40
0.0
 40
0.0
 40
0.0
 40
0.0
 40
1.0
 40
1.0
 40
1.0
 40
2.0
 40
2.0
 40
2.0
 40
3.0
 40
3.0
 40
3.0
 40
4.0
 40
4.0
 40
4.0
 40
5.0
 40
5.0
 40
5.0
 40
6.0
 40
6.0
 40
6.0
 40
7.0
 40
7.0
 40
7.0
 40
8.0
 40
8.0
 40
8.0
 40
9.0
 40
9.0
 40
9.0
 40
10.0
 40
10.0
 40
10.0
 40
11.0
 40
11.0
 40
11.0
 40
12.0
 40
12.0
 40
12.0
 40
13.0
 40
13.0
 40
13.0
 40
14.0
 40
14.0
 40
14.0
 40
14.0
 10
70.65757697669105
 20
-23.40943926534967
 30
0.0
 10
70.84361225562098
 20
-23.3713709351242
 30
0.0
 10
71.11026282208721
 20
-23.35018358391273
 30
0.0
 10
71.36382201707319
 20
-23.35018358391273
 30
0.0
 10
71.75725218103241
 20
-23.35018358391273
 30
0.0
 10
72.01150039557
 20
-23.42218612705413
 30
0.0
 10
72.18892293010502
 20
-23.58289993746304
 30
0.0
 10
72.33292801638781
 20
-23.70985178984393
 30
0.0
 10
72.41319879414833
 20
-23.90449981316877
 30
0.0
 10
72.41319879414833
 20
-24.12446930501462
 30
0.0
 10
72.41319879414833
 20
-24.50101848995983
 30
0.0
 10
72.17617606840057
 20
-24.75061582252416
 30
0.0
 10
71.8757635439063
 20
-24.85224620638403
 30
0.0
 10
71.8757635439063
 20
-24.85224620638403
 30
0.0
 10
71.8757635439063
 20
-24.86482081320059
 30
0.0
 10
71.8757635439063
 20
-24.86482081320059
 30
0.0
 10
72.09590529064005
 20
-24.94112972853944
 30
0.0
 10
72.2271635152184
 20
-25.14421824137128
 30
0.0
 10
72.29468743127444
 20
-25.44032439366809
 30
0.0
 10
72.3877050707394
 20
-25.83806092982477
 30
0.0
 10
72.45557349657125
 20
-26.11297973091011
 30
0.0
 10
72.5148291780082
 20
-26.22305060427698
 30
0.0
 10
72.5148291780082
 20
-26.22305060427698
 30
0.0
 10
72.13414587575342
 20
-26.22305060427698
 30
0.0
 10
72.13414587575342
 20
-26.22305060427698
 30
0.0
 10
72.08729254624515
 20
-26.14260757162858
 30
0.0
 10
72.02390274749865
 20
-25.89731661126171
 30
0.0
 10
71.94363196973815
 20
-25.54178252264006
 30
0.0
 10
71.85888256489228
 20
-25.14835235868084
 30
0.0
 10
71.70660924399039
 20
-25.00021315508848
 30
0.0
 10
71.3724347614681
 20
-24.98763854827192
 30
0.0
 10
71.3724347614681
 20
-24.98763854827192
 30
0.0
 10
71.02551341724136
 20
-24.98763854827192
 30
0.0
 10
71.02551341724136
 20
-24.98763854827192
 30
0.0
 10
71.02551341724136
 20
-24.98763854827192
 30
0.0
 10
71.02551341724136
 20
-26.22305060427698
 30
0.0
 10
71.02551341724136
 20
-26.22305060427698
 30
0.0
 10
71.02551341724136
 20
-26.22305060427698
 30
0.0
 10
70.65757697669105
 20
-26.22305060427698
 30
0.0
 10
70.65757697669105
 20
-26.22305060427698
 30
0.0
 10
70.65757697669105
 20
-26.22305060427698
 30
0.0
 10
70.65757697669105
 20
-23.40943926534967
 30
0.0
 10
70.65757697669105
 20
-23.40943926534967
 30
0.0
  0
SPLINE
  5
CC
330
C7
100
AcDbEntity
  8
LAYER_1
100
AcDbSpline
210
0.0
220
0.0
230
1.0
 70
    11
 71
     3
 72
    20
 73
    16
 74
     0
 42
0.0000000001
 43
0.0000000001
 40
0.0
 40
0.0
 40
0.0
 40
0.0
 40
1.0
 40
1.0
 40
1.0
 40
2.0
 40
2.0
 40
2.0
 40
3.0
 40
3.0
 40
3.0
 40
4.0
 40
4.0
 40
4.0
 40
5.0
 40
5.0
 40
5.0
 40
5.0
 10
71.02551341724136
 20
-24.70841337498913
 30
0.0
 10
71.02551341724136
 20
-24.70841337498913
 30
0.0
 10
71.40206260218656
 20
-24.70841337498913
 30
0.0
 10
71.40206260218656
 20
-24.70841337498913
 30
0.0
 10
71.79549276614578
 20
-24.70841337498913
 30
0.0
 10
72.04526235359802
 20
-24.49257800045283
 30
0.0
 10
72.04526235359802
 20
-24.16684400743755
 30
0.0
 10
72.04526235359802
 20
-23.79873531199934
 30
0.0
 10
71.77861178713178
 20
-23.63784924670253
 30
0.0
 10
71.3893157404821
 20
-23.63371512939298
 30
0.0
 10
71.21154869617129
 20
-23.63371512939298
 30
0.0
 10
71.0847690986783
 20
-23.65059610840699
 30
0.0
 10
71.02551341724136
 20
-23.667477087421
 30
0.0
 10
71.02551341724136
 20
-23.667477087421
 30
0.0
 10
71.02551341724136
 20
-24.70841337498913
 30
0.0
 10
71.02551341724136
 20
-24.70841337498913
 30
0.0
  0
HATCH
  5
CD
330
C7
100
AcDbEntity
  8
LAYER_1
 62
   250
100
AcDbHatch
 10
0.0
 20
0.0
 30
0.0
210
0.0
220
0.0
230
1.0
  2
SOLID
 70
     1
 71
     0
 91
        2
 92
        1
 93
        1
 72
     4
 94
        3
 73
     0
 74
     1
 95
       47
 96
       43
 40
0.0
 40
0.0
 40
0.0
 40
0.0
 40
1.0
 40
1.0
 40
1.0
 40
2.0
 40
2.0
 40
2.0
 40
3.0
 40
3.0
 40
3.0
 40
4.0
 40
4.0
 40
4.0
 40
5.0
 40
5.0
 40
5.0
 40
6.0
 40
6.0
 40
6.0
 40
7.0
 40
7.0
 40
7.0
 40
8.0
 40
8.0
 40
8.0
 40
9.0
 40
9.0
 40
9.0
 40
10.0
 40
10.0
 40
10.0
 40
11.0
 40
11.0
 40
11.0
 40
12.0
 40
12.0
 40
12.0
 40
13.0
 40
13.0
 40
13.0
 40
14.0
 40
14.0
 40
14.0
 40
14.0
 10
70.65757697669105
 20
-23.40943926534967
 10
70.84361225562098
 20
-23.3713709351242
 10
71.11026282208721
 20
-23.35018358391273
 10
71.36382201707319
 20
-23.35018358391273
 10
71.75725218103241
 20
-23.35018358391273
 10
72.01150039557
 20
-23.42218612705413
 10
72.18892293010502
 20
-23.58289993746304
 10
72.33292801638781
 20
-23.70985178984393
 10
72.41319879414833
 20
-23.90449981316877
 10
72.41319879414833
 20
-24.12446930501462
 10
72.41319879414833
 20
-24.50101848995983
 10
72.17617606840057
 20
-24.75061582252416
 10
71.8757635439063
 20
-24.85224620638403
 10
71.8757635439063
 20
-24.85224620638403
 10
71.8757635439063
 20
-24.86482081320059
 10
71.8757635439063
 20
-24.86482081320059
 10
72.09590529064005
 20
-24.94112972853944
 10
72.2271635152184
 20
-25.14421824137128
 10
72.29468743127444
 20
-25.44032439366809
 10
72.3877050707394
 20
-25.83806092982477
 10
72.45557349657125
 20
-26.11297973091011
 10
72.5148291780082
 20
-26.22305060427698
 10
72.5148291780082
 20
-26.22305060427698
 10
72.13414587575342
 20
-26.22305060427698
 10
72.13414587575342
 20
-26.22305060427698
 10
72.08729254624515
 20
-26.14260757162858
 10
72.02390274749865
 20
-25.89731661126171
 10
71.94363196973815
 20
-25.54178252264006
 10
71.85888256489228
 20
-25.14835235868084
 10
71.70660924399039
 20
-25.00021315508848
 10
71.3724347614681
 20
-24.98763854827192
 10
71.3724347614681
 20
-24.98763854827192
 10
71.02551341724136
 20
-24.98763854827192
 10
71.02551341724136
 20
-24.98763854827192
 10
71.02551341724136
 20
-24.98763854827192
 10
71.02551341724136
 20
-26.22305060427698
 10
71.02551341724136
 20
-26.22305060427698
 10
71.02551341724136
 20
-26.22305060427698
 10
70.65757697669105
 20
-26.22305060427698
 10
70.65757697669105
 20
-26.22305060427698
 10
70.65757697669105
 20
-26.22305060427698
 10
70.65757697669105
 20
-23.40943926534967
 10
70.65757697669105
 20
-23.40943926534967
 97
        0
 92
        1
 93
        1
 72
     4
 94
        3
 73
     0
 74
     1
 95
       20
 96
       16
 40
0.0
 40
0.0
 40
0.0
 40
0.0
 40
1.0
 40
1.0
 40
1.0
 40
2.0
 40
2.0
 40
2.0
 40
3.0
 40
3.0
 40
3.0
 40
4.0
 40
4.0
 40
4.0
 40
5.0
 40
5.0
 40
5.0
 40
5.0
 10
71.02551341724136
 20
-24.70841337498913
 10
71.02551341724136
 20
-24.70841337498913
 10
71.40206260218656
 20
-24.70841337498913
 10
71.40206260218656
 20
-24.70841337498913
 10
71.79549276614578
 20
-24.70841337498913
 10
72.04526235359802
 20
-24.49257800045283
 10
72.04526235359802
 20
-24.16684400743755
 10
72.04526235359802
 20
-23.79873531199934
 10
71.77861178713178
 20
-23.63784924670253
 10
71.3893157404821
 20
-23.63371512939298
 10
71.21154869617129
 20
-23.63371512939298
 10
71.0847690986783
 20
-23.65059610840699
 10
71.02551341724136
 20
-23.667477087421
 10
71.02551341724136
 20
-23.667477087421
 10
71.02551341724136
 20
-24.70841337498913
 10
71.02551341724136
 20
-24.70841337498913
 97
        0
 75
     2
 76
     1
 98
        0
  0
POLYLINE
  5
CE
330
C7
100
AcDbEntity
  8
LAYER_1
100
AcDb2dPolyline
 66
     1
 10
0.0
 20
0.0
 30
0.0
  0
VERTEX
  5
CF
330
CE
100
AcDbEntity
  8
LAYER_1
100
AcDbVertex
100
AcDb2dVertex
 10
73.30306754502983
 20
-23.3713709351242
 30
0.0
  0
VERTEX
  5
D0
330
CE
100
AcDbEntity
  8
LAYER_1
100
AcDbVertex
100
AcDb2dVertex
 10
73.30306754502983
 20
-26.22305060427698
 30
0.0
  0
VERTEX
  5
D1
330
CE
100
AcDbEntity
  8
LAYER_1
100
AcDbVertex
100
AcDb2dVertex
 10
72.93478659470372
 20
-26.22305060427698
 30
0.0
  0
VERTEX
  5
D2
330
CE
100
AcDbEntity
  8
LAYER_1
100
AcDbVertex
100
AcDb2dVertex
 10
72.93478659470372
 20
-23.3713709351242
 30
0.0
  0
VERTEX
  5
D3
330
CE
100
AcDbEntity
  8
LAYER_1
100
AcDbVertex
100
AcDb2dVertex
 10
73.30306754502983
 20
-23.3713709351242
 30
0.0
  0
SEQEND
  5
D4
330
CE
100
AcDbEntity
  8
LAYER_1
  0
HATCH
  5
D5
330
C7
100
AcDbEntity
  8
LAYER_1
 62
   250
100
AcDbHatch
 10
0.0
 20
0.0
 30
0.0
210
0.0
220
0.0
230
1.0
  2
SOLID
 70
     1
 71
     0
 91
        1
 92
        1
 93
        4
 72
     1
 10
73.30306754502983
 20
-23.3713709351242
 11
73.30306754502983
 21
-26.22305060427698
 72
     1
 10
73.30306754502983
 20
-26.22305060427698
 11
72.93478659470372
 21
-26.22305060427698
 72
     1
 10
72.93478659470372
 20
-26.22305060427698
 11
72.93478659470372
 21
-23.3713709351242
 72
     1
 10
72.93478659470372
 20
-23.3713709351242
 11
73.30306754502983
 21
-23.3713709351242
 97
        0
 75
     2
 76
     1
 98
        0
  0
SPLINE
  5
D6
330
C7
100
AcDbEntity
  8
LAYER_1
100
AcDbSpline
210
0.0
220
0.0
230
1.0
 70
    11
 71
     3
 72
    35
 73
    31
 74
     0
 42
0.0000000001
 43
0.0000000001
 40
0.0
 40
0.0
 40
0.0
 40
0.0
 40
1.0
 40
1.0
 40
1.0
 40
2.0
 40
2.0
 40
2.0
 40
3.0
 40
3.0
 40
3.0
 40
4.0
 40
4.0
 40
4.0
 40
5.0
 40
5.0
 40
5.0
 40
6.0
 40
6.0
 40
6.0
 40
7.0
 40
7.0
 40
7.0
 40
8.0
 40
8.0
 40
8.0
 40
9.0
 40
9.0
 40
9.0
 40
10.0
 40
10.0
 40
10.0
 40
10.0
 10
73.94661180621706
 20
-23.40943926534967
 30
0.0
 10
74.10749787151389
 20
-23.37550505243375
 30
0.0
 10
74.36105706649987
 20
-23.35018358391273
 30
0.0
 10
74.61943939834698
 20
-23.35018358391273
 30
0.0
 10
74.9873758388973
 20
-23.35018358391273
 30
0.0
 10
75.22439856464506
 20
-23.41374563754713
 30
0.0
 10
75.40216560895588
 20
-23.55757846894203
 30
0.0
 10
75.55030481254823
 20
-23.667477087421
 30
0.0
 10
75.63918833470365
 20
-23.83680364222482
 30
0.0
 10
75.63918833470365
 20
-24.06107950626813
 30
0.0
 10
75.63918833470365
 20
-24.33599830735347
 30
0.0
 10
75.45728717308327
 20
-24.57715515041079
 30
0.0
 10
75.15687464858901
 20
-24.68722602377767
 30
0.0
 10
75.15687464858901
 20
-24.68722602377767
 30
0.0
 10
75.15687464858901
 20
-24.69566651328467
 30
0.0
 10
75.15687464858901
 20
-24.69566651328467
 30
0.0
 10
75.4276593323648
 20
-24.76336268422862
 30
0.0
 10
75.74460832609728
 20
-24.98763854827192
 30
0.0
 10
75.74460832609728
 20
-25.41069655294962
 30
0.0
 10
75.74460832609728
 20
-25.65615976820439
 30
0.0
 10
75.64745656932276
 20
-25.84219504713432
 30
0.0
 10
75.50345148303995
 20
-25.98189376121967
 30
0.0
 10
75.30466934240556
 20
-26.16379492284004
 30
0.0
 10
74.98324172158775
 20
-26.248372072798
 30
0.0
 10
74.51780901448711
 20
-26.248372072798
 30
0.0
 10
74.26390530972535
 20
-26.248372072798
 30
0.0
 10
74.0692572864005
 20
-26.23149109378399
 30
0.0
 10
73.94661180621706
 20
-26.21461011476998
 30
0.0
 10
73.94661180621706
 20
-26.21461011476998
 30
0.0
 10
73.94661180621706
 20
-23.40943926534967
 30
0.0
 10
73.94661180621706
 20
-23.40943926534967
 30
0.0
  0
SPLINE
  5
D7
330
C7
100
AcDbEntity
  8
LAYER_1
100
AcDbSpline
210
0.0
220
0.0
230
1.0
 70
    11
 71
     3
 72
    20
 73
    16
 74
     0
 42
0.0000000001
 43
0.0000000001
 40
0.0
 40
0.0
 40
0.0
 40
0.0
 40
1.0
 40
1.0
 40
1.0
 40
2.0
 40
2.0
 40
2.0
 40
3.0
 40
3.0
 40
3.0
 40
4.0
 40
4.0
 40
4.0
 40
5.0
 40
5.0
 40
5.0
 40
5.0
 10
74.31489275654317
 20
-24.57715515041079
 30
0.0
 10
74.31489275654317
 20
-24.57715515041079
 30
0.0
 10
74.64906723906546
 20
-24.57715515041079
 30
0.0
 10
74.64906723906546
 20
-24.57715515041079
 30
0.0
 10
75.03836328571514
 20
-24.57715515041079
 30
0.0
 10
75.26642875729219
 20
-24.37406663757895
 30
0.0
 10
75.26642875729219
 20
-24.0991478364936
 30
0.0
 10
75.26642875729219
 20
-23.76480109908342
 30
0.0
 10
75.01286956230621
 20
-23.63371512939298
 30
0.0
 10
74.64045449467055
 20
-23.63371512939298
 30
0.0
 10
74.47130019475463
 20
-23.63371512939298
 30
0.0
 10
74.37414843798011
 20
-23.64628973620954
 30
0.0
 10
74.31489275654317
 20
-23.659036597914
 30
0.0
 10
74.31489275654317
 20
-23.659036597914
 30
0.0
 10
74.31489275654317
 20
-24.57715515041079
 30
0.0
 10
74.31489275654317
 20
-24.57715515041079
 30
0.0
  0
SPLINE
  5
D8
330
C7
100
AcDbEntity
  8
LAYER_1
100
AcDbSpline
210
0.0
220
0.0
230
1.0
 70
    11
 71
     3
 72
    20
 73
    16
 74
     0
 42
0.0000000001
 43
0.0000000001
 40
0.0
 40
0.0
 40
0.0
 40
0.0
 40
1.0
 40
1.0
 40
1.0
 40
2.0
 40
2.0
 40
2.0
 40
3.0
 40
3.0
 40
3.0
 40
4.0
 40
4.0
 40
4.0
 40
5.0
 40
5.0
 40
5.0
 40
5.0
 10
74.31489275654317
 20
-25.94382543099419
 30
0.0
 10
74.38655078990878
 20
-25.95657229269865
 30
0.0
 10
74.4923152910782
 20
-25.9607064100082
 30
0.0
 10
74.62357351565655
 20
-25.9607064100082
 30
0.0
 10
75.00425681791131
 20
-25.9607064100082
 30
0.0
 10
75.3553122794476
 20
-25.82117995081075
 30
0.0
 10
75.3553122794476
 20
-25.40639018075217
 30
0.0
 10
75.3553122794476
 20
-25.01726638899039
 30
0.0
 10
75.02113779692532
 20
-24.85638032369358
 30
0.0
 10
74.61943939834698
 20
-24.85638032369358
 30
0.0
 10
74.61943939834698
 20
-24.85638032369358
 30
0.0
 10
74.31489275654317
 20
-24.85638032369358
 30
0.0
 10
74.31489275654317
 20
-24.85638032369358
 30
0.0
 10
74.31489275654317
 20
-24.85638032369358
 30
0.0
 10
74.31489275654317
 20
-25.94382543099419
 30
0.0
 10
74.31489275654317
 20
-25.94382543099419
 30
0.0
  0
HATCH
  5
D9
330
C7
100
AcDbEntity
  8
LAYER_1
 62
   250
100
AcDbHatch
 10
0.0
 20
0.0
 30
0.0
210
0.0
220
0.0
230
1.0
  2
SOLID
 70
     1
 71
     0
 91
        3
 92
        1
 93
        1
 72
     4
 94
        3
 73
     0
 74
     1
 95
       35
 96
       31
 40
0.0
 40
0.0
 40
0.0
 40
0.0
 40
1.0
 40
1.0
 40
1.0
 40
2.0
 40
2.0
 40
2.0
 40
3.0
 40
3.0
 40
3.0
 40
4.0
 40
4.0
 40
4.0
 40
5.0
 40
5.0
 40
5.0
 40
6.0
 40
6.0
 40
6.0
 40
7.0
 40
7.0
 40
7.0
 40
8.0
 40
8.0
 40
8.0
 40
9.0
 40
9.0
 40
9.0
 40
10.0
 40
10.0
 40
10.0
 40
10.0
 10
73.94661180621706
 20
-23.40943926534967
 10
74.10749787151389
 20
-23.37550505243375
 10
74.36105706649987
 20
-23.35018358391273
 10
74.61943939834698
 20
-23.35018358391273
 10
74.9873758388973
 20
-23.35018358391273
 10
75.22439856464506
 20
-23.41374563754713
 10
75.40216560895588
 20
-23.55757846894203
 10
75.55030481254823
 20
-23.667477087421
 10
75.63918833470365
 20
-23.83680364222482
 10
75.63918833470365
 20
-24.06107950626813
 10
75.63918833470365
 20
-24.33599830735347
 10
75.45728717308327
 20
-24.57715515041079
 10
75.15687464858901
 20
-24.68722602377767
 10
75.15687464858901
 20
-24.68722602377767
 10
75.15687464858901
 20
-24.69566651328467
 10
75.15687464858901
 20
-24.69566651328467
 10
75.4276593323648
 20
-24.76336268422862
 10
75.74460832609728
 20
-24.98763854827192
 10
75.74460832609728
 20
-25.41069655294962
 10
75.74460832609728
 20
-25.65615976820439
 10
75.64745656932276
 20
-25.84219504713432
 10
75.50345148303995
 20
-25.98189376121967
 10
75.30466934240556
 20
-26.16379492284004
 10
74.98324172158775
 20
-26.248372072798
 10
74.51780901448711
 20
-26.248372072798
 10
74.26390530972535
 20
-26.248372072798
 10
74.0692572864005
 20
-26.23149109378399
 10
73.94661180621706
 20
-26.21461011476998
 10
73.94661180621706
 20
-26.21461011476998
 10
73.94661180621706
 20
-23.40943926534967
 10
73.94661180621706
 20
-23.40943926534967
 97
        0
 92
        1
 93
        1
 72
     4
 94
        3
 73
     0
 74
     1
 95
       20
 96
       16
 40
0.0
 40
0.0
 40
0.0
 40
0.0
 40
1.0
 40
1.0
 40
1.0
 40
2.0
 40
2.0
 40
2.0
 40
3.0
 40
3.0
 40
3.0
 40
4.0
 40
4.0
 40
4.0
 40
5.0
 40
5.0
 40
5.0
 40
5.0
 10
74.31489275654317
 20
-24.57715515041079
 10
74.31489275654317
 20
-24.57715515041079
 10
74.64906723906546
 20
-24.57715515041079
 10
74.64906723906546
 20
-24.57715515041079
 10
75.03836328571514
 20
-24.57715515041079
 10
75.26642875729219
 20
-24.37406663757895
 10
75.26642875729219
 20
-24.0991478364936
 10
75.26642875729219
 20
-23.76480109908342
 10
75.01286956230621
 20
-23.63371512939298
 10
74.64045449467055
 20
-23.63371512939298
 10
74.47130019475463
 20
-23.63371512939298
 10
74.37414843798011
 20
-23.64628973620954
 10
74.31489275654317
 20
-23.659036597914
 10
74.31489275654317
 20
-23.659036597914
 10
74.31489275654317
 20
-24.57715515041079
 10
74.31489275654317
 20
-24.57715515041079
 97
        0
 92
        1
 93
        1
 72
     4
 94
        3
 73
     0
 74
     1
 95
       20
 96
       16
 40
0.0
 40
0.0
 40
0.0
 40
0.0
 40
1.0
 40
1.0
 40
1.0
 40
2.0
 40
2.0
 40
2.0
 40
3.0
 40
3.0
 40
3.0
 40
4.0
 40
4.0
 40
4.0
 40
5.0
 40
5.0
 40
5.0
 40
5.0
 10
74.31489275654317
 20
-25.94382543099419
 10
74.38655078990878
 20
-25.95657229269865
 10
74.4923152910782
 20
-25.9607064100082
 10
74.62357351565655
 20
-25.9607064100082
 10
75.00425681791131
 20
-25.9607064100082
 10
75.3553122794476
 20
-25.82117995081075
 10
75.3553122794476
 20
-25.40639018075217
 10
75.3553122794476
 20
-25.01726638899039
 10
75.02113779692532
 20
-24.85638032369358
 10
74.61943939834698
 20
-24.85638032369358
 10
74.61943939834698
 20
-24.85638032369358
 10
74.31489275654317
 20
-24.85638032369358
 10
74.31489275654317
 20
-24.85638032369358
 10
74.31489275654317
 20
-24.85638032369358
 10
74.31489275654317
 20
-25.94382543099419
 10
74.31489275654317
 20
-25.94382543099419
 97
        0
 75
     2
 76
     1
 98
        0
  0
SPLINE
  5
DA
330
C7
100
AcDbEntity
  8
LAYER_1
100
AcDbSpline
210
0.0
220
0.0
230
1.0
 70
    11
 71
     3
 72
    35
 73
    31
 74
     0
 42
0.0000000001
 43
0.0000000001
 40
0.0
 40
0.0
 40
0.0
 40
0.0
 40
1.0
 40
1.0
 40
1.0
 40
2.0
 40
2.0
 40
2.0
 40
3.0
 40
3.0
 40
3.0
 40
4.0
 40
4.0
 40
4.0
 40
5.0
 40
5.0
 40
5.0
 40
6.0
 40
6.0
 40
6.0
 40
7.0
 40
7.0
 40
7.0
 40
8.0
 40
8.0
 40
8.0
 40
9.0
 40
9.0
 40
9.0
 40
10.0
 40
10.0
 40
10.0
 40
10.0
 10
76.24104691301956
 20
-23.40943926534967
 30
0.0
 10
76.40193297831637
 20
-23.37550505243375
 30
0.0
 10
76.65549217330235
 20
-23.35018358391273
 30
0.0
 10
76.91387450514947
 20
-23.35018358391273
 30
0.0
 10
77.28181094569977
 20
-23.35018358391273
 30
0.0
 10
77.51883367144754
 20
-23.41374563754713
 30
0.0
 10
77.69660071575836
 20
-23.55757846894203
 30
0.0
 10
77.84473991935072
 20
-23.667477087421
 30
0.0
 10
77.93362344150613
 20
-23.83680364222482
 30
0.0
 10
77.93362344150613
 20
-24.06107950626813
 30
0.0
 10
77.93362344150613
 20
-24.33599830735347
 30
0.0
 10
77.75172227988575
 20
-24.57715515041079
 30
0.0
 10
77.45130975539149
 20
-24.68722602377767
 30
0.0
 10
77.45130975539149
 20
-24.68722602377767
 30
0.0
 10
77.45130975539149
 20
-24.69566651328467
 30
0.0
 10
77.45130975539149
 20
-24.69566651328467
 30
0.0
 10
77.72209443916728
 20
-24.76336268422862
 30
0.0
 10
78.03904343289976
 20
-24.98763854827192
 30
0.0
 10
78.03904343289976
 20
-25.41069655294962
 30
0.0
 10
78.03904343289976
 20
-25.65615976820439
 30
0.0
 10
77.94189167612524
 20
-25.84219504713432
 30
0.0
 10
77.79788658984243
 20
-25.98189376121967
 30
0.0
 10
77.59910444920806
 20
-26.16379492284004
 30
0.0
 10
77.27767682839023
 20
-26.248372072798
 30
0.0
 10
76.81224412128961
 20
-26.248372072798
 30
0.0
 10
76.55834041652783
 20
-26.248372072798
 30
0.0
 10
76.363692393203
 20
-26.23149109378399
 30
0.0
 10
76.24104691301956
 20
-26.21461011476998
 30
0.0
 10
76.24104691301956
 20
-26.21461011476998
 30
0.0
 10
76.24104691301956
 20
-23.40943926534967
 30
0.0
 10
76.24104691301956
 20
-23.40943926534967
 30
0.0
  0
SPLINE
  5
DB
330
C7
100
AcDbEntity
  8
LAYER_1
100
AcDbSpline
210
0.0
220
0.0
230
1.0
 70
    11
 71
     3
 72
    20
 73
    16
 74
     0
 42
0.0000000001
 43
0.0000000001
 40
0.0
 40
0.0
 40
0.0
 40
0.0
 40
1.0
 40
1.0
 40
1.0
 40
2.0
 40
2.0
 40
2.0
 40
3.0
 40
3.0
 40
3.0
 40
4.0
 40
4.0
 40
4.0
 40
5.0
 40
5.0
 40
5.0
 40
5.0
 10
76.60932786334565
 20
-24.57715515041079
 30
0.0
 10
76.60932786334565
 20
-24.57715515041079
 30
0.0
 10
76.94350234586794
 20
-24.57715515041079
 30
0.0
 10
76.94350234586794
 20
-24.57715515041079
 30
0.0
 10
77.33279839251762
 20
-24.57715515041079
 30
0.0
 10
77.56086386409467
 20
-24.37406663757895
 30
0.0
 10
77.56086386409467
 20
-24.0991478364936
 30
0.0
 10
77.56086386409467
 20
-23.76480109908342
 30
0.0
 10
77.3073046691087
 20
-23.63371512939298
 30
0.0
 10
76.93488960147303
 20
-23.63371512939298
 30
0.0
 10
76.76573530155711
 20
-23.63371512939298
 30
0.0
 10
76.6685835447826
 20
-23.64628973620954
 30
0.0
 10
76.60932786334565
 20
-23.659036597914
 30
0.0
 10
76.60932786334565
 20
-23.659036597914
 30
0.0
 10
76.60932786334565
 20
-24.57715515041079
 30
0.0
 10
76.60932786334565
 20
-24.57715515041079
 30
0.0
  0
SPLINE
  5
DC
330
C7
100
AcDbEntity
  8
LAYER_1
100
AcDbSpline
210
0.0
220
0.0
230
1.0
 70
    11
 71
     3
 72
    20
 73
    16
 74
     0
 42
0.0000000001
 43
0.0000000001
 40
0.0
 40
0.0
 40
0.0
 40
0.0
 40
1.0
 40
1.0
 40
1.0
 40
2.0
 40
2.0
 40
2.0
 40
3.0
 40
3.0
 40
3.0
 40
4.0
 40
4.0
 40
4.0
 40
5.0
 40
5.0
 40
5.0
 40
5.0
 10
76.60932786334565
 20
-25.94382543099419
 30
0.0
 10
76.68098589671126
 20
-25.95657229269865
 30
0.0
 10
76.78675039788068
 20
-25.9607064100082
 30
0.0
 10
76.91800862245903
 20
-25.9607064100082
 30
0.0
 10
77.2986919247138
 20
-25.9607064100082
 30
0.0
 10
77.64974738625008
 20
-25.82117995081075
 30
0.0
 10
77.64974738625008
 20
-25.40639018075217
 30
0.0
 10
77.64974738625008
 20
-25.01726638899039
 30
0.0
 10
77.3155729037278
 20
-24.85638032369358
 30
0.0
 10
76.91387450514947
 20
-24.85638032369358
 30
0.0
 10
76.91387450514947
 20
-24.85638032369358
 30
0.0
 10
76.60932786334565
 20
-24.85638032369358
 30
0.0
 10
76.60932786334565
 20
-24.85638032369358
 30
0.0
 10
76.60932786334565
 20
-24.85638032369358
 30
0.0
 10
76.60932786334565
 20
-25.94382543099419
 30
0.0
 10
76.60932786334565
 20
-25.94382543099419
 30
0.0
  0
HATCH
  5
DD
330
C7
100
AcDbEntity
  8
LAYER_1
 62
   250
100
AcDbHatch
 10
0.0
 20
0.0
 30
0.0
210
0.0
220
0.0
230
1.0
  2
SOLID
 70
     1
 71
     0
 91
        3
 92
        1
 93
        1
 72
     4
 94
        3
 73
     0
 74
     1
 95
       35
 96
       31
 40
0.0
 40
0.0
 40
0.0
 40
0.0
 40
1.0
 40
1.0
 40
1.0
 40
2.0
 40
2.0
 40
2.0
 40
3.0
 40
3.0
 40
3.0
 40
4.0
 40
4.0
 40
4.0
 40
5.0
 40
5.0
 40
5.0
 40
6.0
 40
6.0
 40
6.0
 40
7.0
 40
7.0
 40
7.0
 40
8.0
 40
8.0
 40
8.0
 40
9.0
 40
9.0
 40
9.0
 40
10.0
 40
10.0
 40
10.0
 40
10.0
 10
76.24104691301956
 20
-23.40943926534967
 10
76.40193297831637
 20
-23.37550505243375
 10
76.65549217330235
 20
-23.35018358391273
 10
76.91387450514947
 20
-23.35018358391273
 10
77.28181094569977
 20
-23.35018358391273
 10
77.51883367144754
 20
-23.41374563754713
 10
77.69660071575836
 20
-23.55757846894203
 10
77.84473991935072
 20
-23.667477087421
 10
77.93362344150613
 20
-23.83680364222482
 10
77.93362344150613
 20
-24.06107950626813
 10
77.93362344150613
 20
-24.33599830735347
 10
77.75172227988575
 20
-24.57715515041079
 10
77.45130975539149
 20
-24.68722602377767
 10
77.45130975539149
 20
-24.68722602377767
 10
77.45130975539149
 20
-24.69566651328467
 10
77.45130975539149
 20
-24.69566651328467
 10
77.72209443916728
 20
-24.76336268422862
 10
78.03904343289976
 20
-24.98763854827192
 10
78.03904343289976
 20
-25.41069655294962
 10
78.03904343289976
 20
-25.65615976820439
 10
77.94189167612524
 20
-25.84219504713432
 10
77.79788658984243
 20
-25.98189376121967
 10
77.59910444920806
 20
-26.16379492284004
 10
77.27767682839023
 20
-26.248372072798
 10
76.81224412128961
 20
-26.248372072798
 10
76.55834041652783
 20
-26.248372072798
 10
76.363692393203
 20
-26.23149109378399
 10
76.24104691301956
 20
-26.21461011476998
 10
76.24104691301956
 20
-26.21461011476998
 10
76.24104691301956
 20
-23.40943926534967
 10
76.24104691301956
 20
-23.40943926534967
 97
        0
 92
        1
 93
        1
 72
     4
 94
        3
 73
     0
 74
     1
 95
       20
 96
       16
 40
0.0
 40
0.0
 40
0.0
 40
0.0
 40
1.0
 40
1.0
 40
1.0
 40
2.0
 40
2.0
 40
2.0
 40
3.0
 40
3.0
 40
3.0
 40
4.0
 40
4.0
 40
4.0
 40
5.0
 40
5.0
 40
5.0
 40
5.0
 10
76.60932786334565
 20
-24.57715515041079
 10
76.60932786334565
 20
-24.57715515041079
 10
76.94350234586794
 20
-24.57715515041079
 10
76.94350234586794
 20
-24.57715515041079
 10
77.33279839251762
 20
-24.57715515041079
 10
77.56086386409467
 20
-24.37406663757895
 10
77.56086386409467
 20
-24.0991478364936
 10
77.56086386409467
 20
-23.76480109908342
 10
77.3073046691087
 20
-23.63371512939298
 10
76.93488960147303
 20
-23.63371512939298
 10
76.76573530155711
 20
-23.63371512939298
 10
76.6685835447826
 20
-23.64628973620954
 10
76.60932786334565
 20
-23.659036597914
 10
76.60932786334565
 20
-23.659036597914
 10
76.60932786334565
 20
-24.57715515041079
 10
76.60932786334565
 20
-24.57715515041079
 97
        0
 92
        1
 93
        1
 72
     4
 94
        3
 73
     0
 74
     1
 95
       20
 96
       16
 40
0.0
 40
0.0
 40
0.0
 40
0.0
 40
1.0
 40
1.0
 40
1.0
 40
2.0
 40
2.0
 40
2.0
 40
3.0
 40
3.0
 40
3.0
 40
4.0
 40
4.0
 40
4.0
 40
5.0
 40
5.0
 40
5.0
 40
5.0
 10
76.60932786334565
 20
-25.94382543099419
 10
76.68098589671126
 20
-25.95657229269865
 10
76.78675039788068
 20
-25.9607064100082
 10
76.91800862245903
 20
-25.9607064100082
 10
77.2986919247138
 20
-25.9607064100082
 10
77.64974738625008
 20
-25.82117995081075
 10
77.64974738625008
 20
-25.40639018075217
 10
77.64974738625008
 20
-25.01726638899039
 10
77.3155729037278
 20
-24.85638032369358
 10
76.91387450514947
 20
-24.85638032369358
 10
76.91387450514947
 20
-24.85638032369358
 10
76.60932786334565
 20
-24.85638032369358
 10
76.60932786334565
 20
-24.85638032369358
 10
76.60932786334565
 20
-24.85638032369358
 10
76.60932786334565
 20
-25.94382543099419
 10
76.60932786334565
 20
-25.94382543099419
 97
        0
 75
     2
 76
     1
 98
        0
  0
SPLINE
  5
DE
330
C7
100
AcDbEntity
  8
LAYER_1
100
AcDbSpline
210
0.0
220
0.0
230
1.0
 70
    11
 71
     3
 72
    17
 73
    13
 74
     0
 42
0.0000000001
 43
0.0000000001
 40
0.0
 40
0.0
 40
0.0
 40
0.0
 40
1.0
 40
1.0
 40
1.0
 40
2.0
 40
2.0
 40
2.0
 40
3.0
 40
3.0
 40
3.0
 40
4.0
 40
4.0
 40
4.0
 40
4.0
 10
80.97254417380414
 20
-24.76766905642607
 30
0.0
 10
80.97254417380414
 20
-25.74917740766935
 30
0.0
 10
80.37585324212517
 20
-26.26955942400947
 30
0.0
 10
79.64824859564366
 20
-26.26955942400947
 30
0.0
 10
78.89515022575324
 20
-26.26955942400947
 30
0.0
 10
78.36632771990612
 20
-25.68578760892286
 30
0.0
 10
78.36632771990612
 20
-24.82261836566556
 30
0.0
 10
78.36632771990612
 20
-23.91707441998533
 30
0.0
 10
78.92891218378126
 20
-23.32486211539171
 30
0.0
 10
79.6906232980666
 20
-23.32486211539171
 30
0.0
 10
80.46921539136594
 20
-23.32486211539171
 30
0.0
 10
80.97254417380414
 20
-23.92138079218278
 30
0.0
 10
80.97254417380414
 20
-24.76766905642607
 30
0.0
  0
SPLINE
  5
DF
330
C7
100
AcDbEntity
  8
LAYER_1
100
AcDbSpline
210
0.0
220
0.0
230
1.0
 70
    11
 71
     3
 72
    17
 73
    13
 74
     0
 42
0.0000000001
 43
0.0000000001
 40
0.0
 40
0.0
 40
0.0
 40
0.0
 40
1.0
 40
1.0
 40
1.0
 40
2.0
 40
2.0
 40
2.0
 40
3.0
 40
3.0
 40
3.0
 40
4.0
 40
4.0
 40
4.0
 40
4.0
 10
78.75975788386535
 20
-24.81417787615855
 30
0.0
 10
78.75975788386535
 20
-25.42344341465408
 30
0.0
 10
79.08979824907807
 20
-25.96914689951521
 30
0.0
 10
79.66926369196723
 20
-25.96914689951521
 30
0.0
 10
80.25320776194174
 20
-25.96914689951521
 30
0.0
 10
80.58324812715446
 20
-25.43188390416108
 30
0.0
 10
80.58324812715446
 20
-24.78455003544008
 30
0.0
 10
80.58324812715446
 20
-24.21748694447959
 30
0.0
 10
80.28731422974556
 20
-23.62527463988597
 30
0.0
 10
79.67339780927678
 20
-23.62527463988597
 30
0.0
 10
79.06430452566916
 20
-23.62527463988597
 30
0.0
 10
78.75975788386535
 20
-24.18785910376112
 30
0.0
 10
78.75975788386535
 20
-24.81417787615855
 30
0.0
  0
HATCH
  5
E0
330
C7
100
AcDbEntity
  8
LAYER_1
 62
   250
100
AcDbHatch
 10
0.0
 20
0.0
 30
0.0
210
0.0
220
0.0
230
1.0
  2
SOLID
 70
     1
 71
     0
 91
        2
 92
        1
 93
        1
 72
     4
 94
        3
 73
     0
 74
     1
 95
       17
 96
       13
 40
0.0
 40
0.0
 40
0.0
 40
0.0
 40
1.0
 40
1.0
 40
1.0
 40
2.0
 40
2.0
 40
2.0
 40
3.0
 40
3.0
 40
3.0
 40
4.0
 40
4.0
 40
4.0
 40
4.0
 10
80.97254417380414
 20
-24.76766905642607
 10
80.97254417380414
 20
-25.74917740766935
 10
80.37585324212517
 20
-26.26955942400947
 10
79.64824859564366
 20
-26.26955942400947
 10
78.89515022575324
 20
-26.26955942400947
 10
78.36632771990612
 20
-25.68578760892286
 10
78.36632771990612
 20
-24.82261836566556
 10
78.36632771990612
 20
-23.91707441998533
 10
78.92891218378126
 20
-23.32486211539171
 10
79.6906232980666
 20
-23.32486211539171
 10
80.46921539136594
 20
-23.32486211539171
 10
80.97254417380414
 20
-23.92138079218278
 10
80.97254417380414
 20
-24.76766905642607
 97
        0
 92
        1
 93
        1
 72
     4
 94
        3
 73
     0
 74
     1
 95
       17
 96
       13
 40
0.0
 40
0.0
 40
0.0
 40
0.0
 40
1.0
 40
1.0
 40
1.0
 40
2.0
 40
2.0
 40
2.0
 40
3.0
 40
3.0
 40
3.0
 40
4.0
 40
4.0
 40
4.0
 40
4.0
 10
78.75975788386535
 20
-24.81417787615855
 10
78.75975788386535
 20
-25.42344341465408
 10
79.08979824907807
 20
-25.96914689951521
 10
79.66926369196723
 20
-25.96914689951521
 10
80.25320776194174
 20
-25.96914689951521
 10
80.58324812715446
 20
-25.43188390416108
 10
80.58324812715446
 20
-24.78455003544008
 10
80.58324812715446
 20
-24.21748694447959
 10
80.28731422974556
 20
-23.62527463988597
 10
79.67339780927678
 20
-23.62527463988597
 10
79.06430452566916
 20
-23.62527463988597
 10
78.75975788386535
 20
-24.18785910376112
 10
78.75975788386535
 20
-24.81417787615855
 97
        0
 75
     2
 76
     1
 98
        0
  0
SPLINE
  5
E1
330
C7
100
AcDbEntity
  8
LAYER_1
100
AcDbSpline
210
0.0
220
0.0
230
1.0
 70
    11
 71
     3
 72
    53
 73
    49
 74
     0
 42
0.0000000001
 43
0.0000000001
 40
0.0
 40
0.0
 40
0.0
 40
0.0
 40
1.0
 40
1.0
 40
1.0
 40
2.0
 40
2.0
 40
2.0
 40
3.0
 40
3.0
 40
3.0
 40
4.0
 40
4.0
 40
4.0
 40
5.0
 40
5.0
 40
5.0
 40
6.0
 40
6.0
 40
6.0
 40
7.0
 40
7.0
 40
7.0
 40
8.0
 40
8.0
 40
8.0
 40
9.0
 40
9.0
 40
9.0
 40
10.0
 40
10.0
 40
10.0
 40
11.0
 40
11.0
 40
11.0
 40
12.0
 40
12.0
 40
12.0
 40
13.0
 40
13.0
 40
13.0
 40
14.0
 40
14.0
 40
14.0
 40
15.0
 40
15.0
 40
15.0
 40
16.0
 40
16.0
 40
16.0
 40
16.0
 10
81.4524462914882
 20
-26.22305060427698
 30
0.0
 10
81.4524462914882
 20
-26.22305060427698
 30
0.0
 10
81.4524462914882
 20
-23.3713709351242
 30
0.0
 10
81.4524462914882
 20
-23.3713709351242
 30
0.0
 10
81.4524462914882
 20
-23.3713709351242
 30
0.0
 10
81.85414469006653
 20
-23.3713709351242
 30
0.0
 10
81.85414469006653
 20
-23.3713709351242
 30
0.0
 10
81.85414469006653
 20
-23.3713709351242
 30
0.0
 10
82.76812912525376
 20
-24.81417787615855
 30
0.0
 10
82.76812912525376
 20
-24.81417787615855
 30
0.0
 10
82.97965812759261
 20
-25.14835235868084
 30
0.0
 10
83.14467831019898
 20
-25.44876488317509
 30
0.0
 10
83.28007065208688
 20
-25.74073691816235
 30
0.0
 10
83.28007065208688
 20
-25.74073691816235
 30
0.0
 10
83.28868339648179
 20
-25.7364305459649
 30
0.0
 10
83.28868339648179
 20
-25.7364305459649
 30
0.0
 10
83.25457692867796
 20
-25.35574724371013
 30
0.0
 10
83.24596418428305
 20
-25.00882589948339
 30
0.0
 10
83.24596418428305
 20
-24.56440828870633
 30
0.0
 10
83.24596418428305
 20
-24.56440828870633
 30
0.0
 10
83.24596418428305
 20
-23.3713709351242
 30
0.0
 10
83.24596418428305
 20
-23.3713709351242
 30
0.0
 10
83.24596418428305
 20
-23.3713709351242
 30
0.0
 10
83.5932300382856
 20
-23.3713709351242
 30
0.0
 10
83.5932300382856
 20
-23.3713709351242
 30
0.0
 10
83.5932300382856
 20
-23.3713709351242
 30
0.0
 10
83.5932300382856
 20
-26.22305060427698
 30
0.0
 10
83.5932300382856
 20
-26.22305060427698
 30
0.0
 10
83.5932300382856
 20
-26.22305060427698
 30
0.0
 10
83.22081497064994
 20
-26.22305060427698
 30
0.0
 10
83.22081497064994
 20
-26.22305060427698
 30
0.0
 10
83.22081497064994
 20
-26.22305060427698
 30
0.0
 10
82.3154432798576
 20
-24.77610954593307
 30
0.0
 10
82.3154432798576
 20
-24.77610954593307
 30
0.0
 10
82.11666113922321
 20
-24.4586437875369
 30
0.0
 10
81.92614723320793
 20
-24.13290979452163
 30
0.0
 10
81.78248665670093
 20
-23.82405678052036
 30
0.0
 10
81.78248665670093
 20
-23.82405678052036
 30
0.0
 10
81.76939528522068
 20
-23.82836315271781
 30
0.0
 10
81.76939528522068
 20
-23.82836315271781
 30
0.0
 10
81.79075489132003
 20
-24.18785910376112
 30
0.0
 10
81.79902312593914
 20
-24.53064633067831
 30
0.0
 10
81.79902312593914
 20
-25.00451952728594
 30
0.0
 10
81.79902312593914
 20
-25.00451952728594
 30
0.0
 10
81.79902312593914
 20
-26.22305060427698
 30
0.0
 10
81.79902312593914
 20
-26.22305060427698
 30
0.0
 10
81.79902312593914
 20
-26.22305060427698
 30
0.0
 10
81.4524462914882
 20
-26.22305060427698
 30
0.0
 10
81.4524462914882
 20
-26.22305060427698
 30
0.0
  0
HATCH
  5
E2
330
C7
100
AcDbEntity
  8
LAYER_1
 62
   250
100
AcDbHatch
 10
0.0
 20
0.0
 30
0.0
210
0.0
220
0.0
230
1.0
  2
SOLID
 70
     1
 71
     0
 91
        1
 92
        1
 93
        1
 72
     4
 94
        3
 73
     0
 74
     1
 95
       53
 96
       49
 40
0.0
 40
0.0
 40
0.0
 40
0.0
 40
1.0
 40
1.0
 40
1.0
 40
2.0
 40
2.0
 40
2.0
 40
3.0
 40
3.0
 40
3.0
 40
4.0
 40
4.0
 40
4.0
 40
5.0
 40
5.0
 40
5.0
 40
6.0
 40
6.0
 40
6.0
 40
7.0
 40
7.0
 40
7.0
 40
8.0
 40
8.0
 40
8.0
 40
9.0
 40
9.0
 40
9.0
 40
10.0
 40
10.0
 40
10.0
 40
11.0
 40
11.0
 40
11.0
 40
12.0
 40
12.0
 40
12.0
 40
13.0
 40
13.0
 40
13.0
 40
14.0
 40
14.0
 40
14.0
 40
15.0
 40
15.0
 40
15.0
 40
16.0
 40
16.0
 40
16.0
 40
16.0
 10
81.4524462914882
 20
-26.22305060427698
 10
81.4524462914882
 20
-26.22305060427698
 10
81.4524462914882
 20
-23.3713709351242
 10
81.4524462914882
 20
-23.3713709351242
 10
81.4524462914882
 20
-23.3713709351242
 10
81.85414469006653
 20
-23.3713709351242
 10
81.85414469006653
 20
-23.3713709351242
 10
81.85414469006653
 20
-23.3713709351242
 10
82.76812912525376
 20
-24.81417787615855
 10
82.76812912525376
 20
-24.81417787615855
 10
82.97965812759261
 20
-25.14835235868084
 10
83.14467831019898
 20
-25.44876488317509
 10
83.28007065208688
 20
-25.74073691816235
 10
83.28007065208688
 20
-25.74073691816235
 10
83.28868339648179
 20
-25.7364305459649
 10
83.28868339648179
 20
-25.7364305459649
 10
83.25457692867796
 20
-25.35574724371013
 10
83.24596418428305
 20
-25.00882589948339
 10
83.24596418428305
 20
-24.56440828870633
 10
83.24596418428305
 20
-24.56440828870633
 10
83.24596418428305
 20
-23.3713709351242
 10
83.24596418428305
 20
-23.3713709351242
 10
83.24596418428305
 20
-23.3713709351242
 10
83.5932300382856
 20
-23.3713709351242
 10
83.5932300382856
 20
-23.3713709351242
 10
83.5932300382856
 20
-23.3713709351242
 10
83.5932300382856
 20
-26.22305060427698
 10
83.5932300382856
 20
-26.22305060427698
 10
83.5932300382856
 20
-26.22305060427698
 10
83.22081497064994
 20
-26.22305060427698
 10
83.22081497064994
 20
-26.22305060427698
 10
83.22081497064994
 20
-26.22305060427698
 10
82.3154432798576
 20
-24.77610954593307
 10
82.3154432798576
 20
-24.77610954593307
 10
82.11666113922321
 20
-24.4586437875369
 10
81.92614723320793
 20
-24.13290979452163
 10
81.78248665670093
 20
-23.82405678052036
 10
81.78248665670093
 20
-23.82405678052036
 10
81.76939528522068
 20
-23.82836315271781
 10
81.76939528522068
 20
-23.82836315271781
 10
81.79075489132003
 20
-24.18785910376112
 10
81.79902312593914
 20
-24.53064633067831
 10
81.79902312593914
 20
-25.00451952728594
 10
81.79902312593914
 20
-25.00451952728594
 10
81.79902312593914
 20
-26.22305060427698
 10
81.79902312593914
 20
-26.22305060427698
 10
81.79902312593914
 20
-26.22305060427698
 10
81.4524462914882
 20
-26.22305060427698
 10
81.4524462914882
 20
-26.22305060427698
 97
        0
 75
     2
 76
     1
 98
        0
  0
ENDBLK
  5
CA
330
C7
100
AcDbEntity
  8
0
100
AcDbBlockEnd
  0
BLOCK
  5
E5
330
E3
100
AcDbEntity
  8
0
100
AcDbBlockBegin
  2
BLOCK_6
 70
     0
 71
     0
 10
0.0
 20
0.0
 30
0.0
  3
BLOCK_6
  1

  0
SPLINE
  5
E7
330
E3
100
AcDbEntity
  8
LAYER_1
100
AcDbSpline
210
0.0
220
0.0
230
1.0
 70
    11
 71
     3
 72
    17
 73
    13
 74
     0
 42
0.0000000001
 43
0.0000000001
 40
0.0
 40
0.0
 40
0.0
 40
0.0
 40
1.0
 40
1.0
 40
1.0
 40
2.0
 40
2.0
 40
2.0
 40
3.0
 40
3.0
 40
3.0
 40
4.0
 40
4.0
 40
4.0
 40
4.0
 10
18.06109725100205
 20
-72.27539488382986
 30
0.0
 10
18.06109725100205
 20
-73.25655872529734
 30
0.0
 10
17.46440631932309
 20
-73.77711299652536
 30
0.0
 10
16.73680167284158
 20
-73.77711299652536
 30
0.0
 10
15.98370330295115
 20
-73.77711299652536
 30
0.0
 10
15.45470854221614
 20
-73.19316892655085
 30
0.0
 10
15.45470854221614
 20
-72.33017193818145
 30
0.0
 10
15.45470854221614
 20
-71.42445573761331
 30
0.0
 10
16.01746526097918
 20
-70.8325879427955
 30
0.0
 10
16.77900412037661
 20
-70.8325879427955
 30
0.0
 10
17.55759621367595
 20
-70.8325879427955
 30
0.0
 10
18.06109725100205
 20
-71.42893436469866
 30
0.0
 10
18.06109725100205
 20
-72.27539488382986
 30
0.0
  0
SPLINE
  5
E8
330
E3
100
AcDbEntity
  8
LAYER_1
100
AcDbSpline
210
0.0
220
0.0
230
1.0
 70
    11
 71
     3
 72
    17
 73
    13
 74
     0
 42
0.0000000001
 43
0.0000000001
 40
0.0
 40
0.0
 40
0.0
 40
0.0
 40
1.0
 40
1.0
 40
1.0
 40
2.0
 40
2.0
 40
2.0
 40
3.0
 40
3.0
 40
3.0
 40
4.0
 40
4.0
 40
4.0
 40
4.0
 10
15.84831096106326
 20
-72.32155919378654
 30
0.0
 10
15.84831096106326
 20
-72.93099698716996
 30
0.0
 10
16.17817907138809
 20
-73.4767004720311
 30
0.0
 10
16.75798902405304
 20
-73.4767004720311
 30
0.0
 10
17.34176083913965
 20
-73.4767004720311
 30
0.0
 10
17.67180120435238
 20
-72.93960973156487
 30
0.0
 10
17.67180120435238
 20
-72.29193135306807
 30
0.0
 10
17.67180120435238
 20
-71.72486826210758
 30
0.0
 10
17.37569505205557
 20
-71.13300046728976
 30
0.0
 10
16.76212314136259
 20
-71.13300046728976
 30
0.0
 10
16.15285760286707
 20
-71.13300046728976
 30
0.0
 10
15.84831096106326
 20
-71.6952404213891
 30
0.0
 10
15.84831096106326
 20
-72.32155919378654
 30
0.0
  0
HATCH
  5
E9
330
E3
100
AcDbEntity
  8
LAYER_1
 62
   250
100
AcDbHatch
 10
0.0
 20
0.0
 30
0.0
210
0.0
220
0.0
230
1.0
  2
SOLID
 70
     1
 71
     0
 91
        2
 92
        1
 93
        1
 72
     4
 94
        3
 73
     0
 74
     1
 95
       17
 96
       13
 40
0.0
 40
0.0
 40
0.0
 40
0.0
 40
1.0
 40
1.0
 40
1.0
 40
2.0
 40
2.0
 40
2.0
 40
3.0
 40
3.0
 40
3.0
 40
4.0
 40
4.0
 40
4.0
 40
4.0
 10
18.06109725100205
 20
-72.27539488382986
 10
18.06109725100205
 20
-73.25655872529734
 10
17.46440631932309
 20
-73.77711299652536
 10
16.73680167284158
 20
-73.77711299652536
 10
15.98370330295115
 20
-73.77711299652536
 10
15.45470854221614
 20
-73.19316892655085
 10
15.45470854221614
 20
-72.33017193818145
 10
15.45470854221614
 20
-71.42445573761331
 10
16.01746526097918
 20
-70.8325879427955
 10
16.77900412037661
 20
-70.8325879427955
 10
17.55759621367595
 20
-70.8325879427955
 10
18.06109725100205
 20
-71.42893436469866
 10
18.06109725100205
 20
-72.27539488382986
 97
        0
 92
        1
 93
        1
 72
     4
 94
        3
 73
     0
 74
     1
 95
       17
 96
       13
 40
0.0
 40
0.0
 40
0.0
 40
0.0
 40
1.0
 40
1.0
 40
1.0
 40
2.0
 40
2.0
 40
2.0
 40
3.0
 40
3.0
 40
3.0
 40
4.0
 40
4.0
 40
4.0
 40
4.0
 10
15.84831096106326
 20
-72.32155919378654
 10
15.84831096106326
 20
-72.93099698716996
 10
16.17817907138809
 20
-73.4767004720311
 10
16.75798902405304
 20
-73.4767004720311
 10
17.34176083913965
 20
-73.4767004720311
 10
17.67180120435238
 20
-72.93960973156487
 10
17.67180120435238
 20
-72.29193135306807
 10
17.67180120435238
 20
-71.72486826210758
 10
17.37569505205557
 20
-71.13300046728976
 10
16.76212314136259
 20
-71.13300046728976
 10
16.15285760286707
 20
-71.13300046728976
 10
15.84831096106326
 20
-71.6952404213891
 10
15.84831096106326
 20
-72.32155919378654
 97
        0
 75
     2
 76
     1
 98
        0
  0
SPLINE
  5
EA
330
E3
100
AcDbEntity
  8
LAYER_1
100
AcDbSpline
210
0.0
220
0.0
230
1.0
 70
    11
 71
     3
 72
    32
 73
    28
 74
     0
 42
0.0000000001
 43
0.0000000001
 40
0.0
 40
0.0
 40
0.0
 40
0.0
 40
1.0
 40
1.0
 40
1.0
 40
2.0
 40
2.0
 40
2.0
 40
3.0
 40
3.0
 40
3.0
 40
4.0
 40
4.0
 40
4.0
 40
5.0
 40
5.0
 40
5.0
 40
6.0
 40
6.0
 40
6.0
 40
7.0
 40
7.0
 40
7.0
 40
8.0
 40
8.0
 40
8.0
 40
9.0
 40
9.0
 40
9.0
 40
9.0
 10
18.54082711379822
 20
-70.91251421078022
 30
0.0
 10
18.71842190322114
 20
-70.88288637006174
 30
0.0
 10
18.95113825677145
 20
-70.85773715642863
 30
0.0
 10
19.24741666395616
 20
-70.85773715642863
 30
0.0
 10
19.61121898719691
 20
-70.85773715642863
 30
0.0
 10
19.87786955366315
 20
-70.94214205149868
 30
0.0
 10
20.04702385357907
 20
-71.09475988217639
 30
0.0
 10
20.20360354667842
 20
-71.23015222406428
 30
0.0
 10
20.29662118614339
 20
-71.43754710909357
 30
0.0
 10
20.29662118614339
 20
-71.69110630407955
 30
0.0
 10
20.29662118614339
 20
-71.94948863592668
 30
0.0
 10
20.22048452569244
 20
-72.15240489387062
 30
0.0
 10
20.07665169429754
 20
-72.30054409746297
 30
0.0
 10
19.8820036709727
 20
-72.50759447271648
 30
0.0
 10
19.56471016746443
 20
-72.6137034836617
 30
0.0
 10
19.20504196153323
 20
-72.6137034836617
 30
0.0
 10
19.09497108816635
 20
-72.6137034836617
 30
0.0
 10
18.99351295919438
 20
-72.60956936635213
 30
0.0
 10
18.90893580923642
 20
-72.58820976025278
 30
0.0
 10
18.90893580923642
 20
-72.58820976025278
 30
0.0
 10
18.90893580923642
 20
-73.73060417679287
 30
0.0
 10
18.90893580923642
 20
-73.73060417679287
 30
0.0
 10
18.90893580923642
 20
-73.73060417679287
 30
0.0
 10
18.54082711379822
 20
-73.73060417679287
 30
0.0
 10
18.54082711379822
 20
-73.73060417679287
 30
0.0
 10
18.54082711379822
 20
-73.73060417679287
 30
0.0
 10
18.54082711379822
 20
-70.91251421078022
 30
0.0
 10
18.54082711379822
 20
-70.91251421078022
 30
0.0
  0
SPLINE
  5
EB
330
E3
100
AcDbEntity
  8
LAYER_1
100
AcDbSpline
210
0.0
220
0.0
230
1.0
 70
    11
 71
     3
 72
    20
 73
    16
 74
     0
 42
0.0000000001
 43
0.0000000001
 40
0.0
 40
0.0
 40
0.0
 40
0.0
 40
1.0
 40
1.0
 40
1.0
 40
2.0
 40
2.0
 40
2.0
 40
3.0
 40
3.0
 40
3.0
 40
4.0
 40
4.0
 40
4.0
 40
5.0
 40
5.0
 40
5.0
 40
5.0
 10
18.90893580923642
 20
-72.28779723575852
 30
0.0
 10
18.98920658699693
 20
-72.30915684185788
 30
0.0
 10
19.0908369708568
 20
-72.317425076477
 30
0.0
 10
19.21348245104024
 20
-72.317425076477
 30
0.0
 10
19.65772780692939
 20
-72.317425076477
 30
0.0
 10
19.92851249070518
 20
-72.10176195682858
 30
0.0
 10
19.92851249070518
 20
-71.70833179286936
 30
0.0
 10
19.92851249070518
 20
-71.33143809814835
 30
0.0
 10
19.66203417912685
 20
-71.14953693652798
 30
0.0
 10
19.25585715346316
 20
-71.14953693652798
 30
0.0
 10
19.09497108816635
 20
-71.14953693652798
 30
0.0
 10
18.97232560798292
 20
-71.16262830800822
 30
0.0
 10
18.90893580923642
 20
-71.17916477724644
 30
0.0
 10
18.90893580923642
 20
-71.17916477724644
 30
0.0
 10
18.90893580923642
 20
-72.28779723575852
 30
0.0
 10
18.90893580923642
 20
-72.28779723575852
 30
0.0
  0
HATCH
  5
EC
330
E3
100
AcDbEntity
  8
LAYER_1
 62
   250
100
AcDbHatch
 10
0.0
 20
0.0
 30
0.0
210
0.0
220
0.0
230
1.0
  2
SOLID
 70
     1
 71
     0
 91
        2
 92
        1
 93
        1
 72
     4
 94
        3
 73
     0
 74
     1
 95
       32
 96
       28
 40
0.0
 40
0.0
 40
0.0
 40
0.0
 40
1.0
 40
1.0
 40
1.0
 40
2.0
 40
2.0
 40
2.0
 40
3.0
 40
3.0
 40
3.0
 40
4.0
 40
4.0
 40
4.0
 40
5.0
 40
5.0
 40
5.0
 40
6.0
 40
6.0
 40
6.0
 40
7.0
 40
7.0
 40
7.0
 40
8.0
 40
8.0
 40
8.0
 40
9.0
 40
9.0
 40
9.0
 40
9.0
 10
18.54082711379822
 20
-70.91251421078022
 10
18.71842190322114
 20
-70.88288637006174
 10
18.95113825677145
 20
-70.85773715642863
 10
19.24741666395616
 20
-70.85773715642863
 10
19.61121898719691
 20
-70.85773715642863
 10
19.87786955366315
 20
-70.94214205149868
 10
20.04702385357907
 20
-71.09475988217639
 10
20.20360354667842
 20
-71.23015222406428
 10
20.29662118614339
 20
-71.43754710909357
 10
20.29662118614339
 20
-71.69110630407955
 10
20.29662118614339
 20
-71.94948863592668
 10
20.22048452569244
 20
-72.15240489387062
 10
20.07665169429754
 20
-72.30054409746297
 10
19.8820036709727
 20
-72.50759447271648
 10
19.56471016746443
 20
-72.6137034836617
 10
19.20504196153323
 20
-72.6137034836617
 10
19.09497108816635
 20
-72.6137034836617
 10
18.99351295919438
 20
-72.60956936635213
 10
18.90893580923642
 20
-72.58820976025278
 10
18.90893580923642
 20
-72.58820976025278
 10
18.90893580923642
 20
-73.73060417679287
 10
18.90893580923642
 20
-73.73060417679287
 10
18.90893580923642
 20
-73.73060417679287
 10
18.54082711379822
 20
-73.73060417679287
 10
18.54082711379822
 20
-73.73060417679287
 10
18.54082711379822
 20
-73.73060417679287
 10
18.54082711379822
 20
-70.91251421078022
 10
18.54082711379822
 20
-70.91251421078022
 97
        0
 92
        1
 93
        1
 72
     4
 94
        3
 73
     0
 74
     1
 95
       20
 96
       16
 40
0.0
 40
0.0
 40
0.0
 40
0.0
 40
1.0
 40
1.0
 40
1.0
 40
2.0
 40
2.0
 40
2.0
 40
3.0
 40
3.0
 40
3.0
 40
4.0
 40
4.0
 40
4.0
 40
5.0
 40
5.0
 40
5.0
 40
5.0
 10
18.90893580923642
 20
-72.28779723575852
 10
18.98920658699693
 20
-72.30915684185788
 10
19.0908369708568
 20
-72.317425076477
 10
19.21348245104024
 20
-72.317425076477
 10
19.65772780692939
 20
-72.317425076477
 10
19.92851249070518
 20
-72.10176195682858
 10
19.92851249070518
 20
-71.70833179286936
 10
19.92851249070518
 20
-71.33143809814835
 10
19.66203417912685
 20
-71.14953693652798
 10
19.25585715346316
 20
-71.14953693652798
 10
19.09497108816635
 20
-71.14953693652798
 10
18.97232560798292
 20
-71.16262830800822
 10
18.90893580923642
 20
-71.17916477724644
 10
18.90893580923642
 20
-71.17916477724644
 10
18.90893580923642
 20
-72.28779723575852
 10
18.90893580923642
 20
-72.28779723575852
 97
        0
 75
     2
 76
     1
 98
        0
  0
SPLINE
  5
ED
330
E3
100
AcDbEntity
  8
LAYER_1
100
AcDbSpline
210
0.0
220
0.0
230
1.0
 70
    11
 71
     3
 72
    35
 73
    31
 74
     0
 42
0.0000000001
 43
0.0000000001
 40
0.0
 40
0.0
 40
0.0
 40
0.0
 40
1.0
 40
1.0
 40
1.0
 40
2.0
 40
2.0
 40
2.0
 40
3.0
 40
3.0
 40
3.0
 40
4.0
 40
4.0
 40
4.0
 40
5.0
 40
5.0
 40
5.0
 40
6.0
 40
6.0
 40
6.0
 40
7.0
 40
7.0
 40
7.0
 40
8.0
 40
8.0
 40
8.0
 40
9.0
 40
9.0
 40
9.0
 40
10.0
 40
10.0
 40
10.0
 40
10.0
 10
20.79288751817777
 20
-70.91699283786556
 30
0.0
 10
20.95360132858668
 20
-70.88288637006174
 30
0.0
 10
21.20750503334846
 20
-70.85773715642863
 30
0.0
 10
21.46554285541979
 20
-70.85773715642863
 30
0.0
 10
21.833651550858
 20
-70.85773715642863
 30
0.0
 10
22.07067427660576
 20
-70.92147146495091
 30
0.0
 10
22.24826906602869
 20
-71.06513204145791
 30
0.0
 10
22.39640826962104
 20
-71.1750306599369
 30
0.0
 10
22.48529179177645
 20
-71.34452946962861
 30
0.0
 10
22.48529179177645
 20
-71.56846082389612
 30
0.0
 10
22.48529179177645
 20
-71.84337962498145
 30
0.0
 10
22.30339063015607
 20
-72.08453646803878
 30
0.0
 10
22.00297810566181
 20
-72.19477959629356
 30
0.0
 10
22.00297810566181
 20
-72.19477959629356
 30
0.0
 10
22.00297810566181
 20
-72.20304783091265
 30
0.0
 10
22.00297810566181
 20
-72.20304783091265
 30
0.0
 10
22.2737627894376
 20
-72.2709162567445
 30
0.0
 10
22.59105629294588
 20
-72.4951921207878
 30
0.0
 10
22.59105629294588
 20
-72.9182501254655
 30
0.0
 10
22.59105629294588
 20
-73.16354108583238
 30
0.0
 10
22.49373228128346
 20
-73.34957636476231
 30
0.0
 10
22.34989944988856
 20
-73.48944733373555
 30
0.0
 10
22.15094505436627
 20
-73.67134849535593
 30
0.0
 10
21.82951743354844
 20
-73.7560979002018
 30
0.0
 10
21.36408472644782
 20
-73.7560979002018
 30
0.0
 10
21.11018102168604
 20
-73.7560979002018
 30
0.0
 10
20.91553299836121
 20
-73.73887241141198
 30
0.0
 10
20.79288751817777
 20
-73.72233594217376
 30
0.0
 10
20.79288751817777
 20
-73.72233594217376
 30
0.0
 10
20.79288751817777
 20
-70.91699283786556
 30
0.0
 10
20.79288751817777
 20
-70.91699283786556
 30
0.0
  0
SPLINE
  5
EE
330
E3
100
AcDbEntity
  8
LAYER_1
100
AcDbSpline
210
0.0
220
0.0
230
1.0
 70
    11
 71
     3
 72
    20
 73
    16
 74
     0
 42
0.0000000001
 43
0.0000000001
 40
0.0
 40
0.0
 40
0.0
 40
0.0
 40
1.0
 40
1.0
 40
1.0
 40
2.0
 40
2.0
 40
2.0
 40
3.0
 40
3.0
 40
3.0
 40
4.0
 40
4.0
 40
4.0
 40
5.0
 40
5.0
 40
5.0
 40
5.0
 10
21.16099621361598
 20
-72.08453646803878
 30
0.0
 10
21.16099621361598
 20
-72.08453646803878
 30
0.0
 10
21.49517069613826
 20
-72.08453646803878
 30
0.0
 10
21.49517069613826
 20
-72.08453646803878
 30
0.0
 10
21.88446674278793
 20
-72.08453646803878
 30
0.0
 10
22.11287672414079
 20
-71.88162021009484
 30
0.0
 10
22.11287672414079
 20
-71.60670140900949
 30
0.0
 10
22.11287672414079
 20
-71.27218241671142
 30
0.0
 10
21.85914527426691
 20
-71.14126870190887
 30
0.0
 10
21.48673020663125
 20
-71.14126870190887
 30
0.0
 10
21.31757590671534
 20
-71.14126870190887
 30
0.0
 10
21.22025189505292
 20
-71.15367105383753
 30
0.0
 10
21.16099621361598
 20
-71.16676242531778
 30
0.0
 10
21.16099621361598
 20
-71.16676242531778
 30
0.0
 10
21.16099621361598
 20
-72.08453646803878
 30
0.0
 10
21.16099621361598
 20
-72.08453646803878
 30
0.0
  0
SPLINE
  5
EF
330
E3
100
AcDbEntity
  8
LAYER_1
100
AcDbSpline
210
0.0
220
0.0
230
1.0
 70
    11
 71
     3
 72
    20
 73
    16
 74
     0
 42
0.0000000001
 43
0.0000000001
 40
0.0
 40
0.0
 40
0.0
 40
0.0
 40
1.0
 40
1.0
 40
1.0
 40
2.0
 40
2.0
 40
2.0
 40
3.0
 40
3.0
 40
3.0
 40
4.0
 40
4.0
 40
4.0
 40
5.0
 40
5.0
 40
5.0
 40
5.0
 10
21.16099621361598
 20
-73.45155125839797
 30
0.0
 10
21.23282650186948
 20
-73.46395361032664
 30
0.0
 10
21.3385910030389
 20
-73.46808772763619
 30
0.0
 10
21.46984922761724
 20
-73.46808772763619
 30
0.0
 10
21.85053252987201
 20
-73.46808772763619
 30
0.0
 10
22.2017602462962
 20
-73.32890577821453
 30
0.0
 10
22.2017602462962
 20
-72.91411600815596
 30
0.0
 10
22.2017602462962
 20
-72.52481996150628
 30
0.0
 10
21.86758576377392
 20
-72.36393389620947
 30
0.0
 10
21.46554285541979
 20
-72.36393389620947
 30
0.0
 10
21.46554285541979
 20
-72.36393389620947
 30
0.0
 10
21.16099621361598
 20
-72.36393389620947
 30
0.0
 10
21.16099621361598
 20
-72.36393389620947
 30
0.0
 10
21.16099621361598
 20
-72.36393389620947
 30
0.0
 10
21.16099621361598
 20
-73.45155125839797
 30
0.0
 10
21.16099621361598
 20
-73.45155125839797
 30
0.0
  0
HATCH
  5
F0
330
E3
100
AcDbEntity
  8
LAYER_1
 62
   250
100
AcDbHatch
 10
0.0
 20
0.0
 30
0.0
210
0.0
220
0.0
230
1.0
  2
SOLID
 70
     1
 71
     0
 91
        3
 92
        1
 93
        1
 72
     4
 94
        3
 73
     0
 74
     1
 95
       35
 96
       31
 40
0.0
 40
0.0
 40
0.0
 40
0.0
 40
1.0
 40
1.0
 40
1.0
 40
2.0
 40
2.0
 40
2.0
 40
3.0
 40
3.0
 40
3.0
 40
4.0
 40
4.0
 40
4.0
 40
5.0
 40
5.0
 40
5.0
 40
6.0
 40
6.0
 40
6.0
 40
7.0
 40
7.0
 40
7.0
 40
8.0
 40
8.0
 40
8.0
 40
9.0
 40
9.0
 40
9.0
 40
10.0
 40
10.0
 40
10.0
 40
10.0
 10
20.79288751817777
 20
-70.91699283786556
 10
20.95360132858668
 20
-70.88288637006174
 10
21.20750503334846
 20
-70.85773715642863
 10
21.46554285541979
 20
-70.85773715642863
 10
21.833651550858
 20
-70.85773715642863
 10
22.07067427660576
 20
-70.92147146495091
 10
22.24826906602869
 20
-71.06513204145791
 10
22.39640826962104
 20
-71.1750306599369
 10
22.48529179177645
 20
-71.34452946962861
 10
22.48529179177645
 20
-71.56846082389612
 10
22.48529179177645
 20
-71.84337962498145
 10
22.30339063015607
 20
-72.08453646803878
 10
22.00297810566181
 20
-72.19477959629356
 10
22.00297810566181
 20
-72.19477959629356
 10
22.00297810566181
 20
-72.20304783091265
 10
22.00297810566181
 20
-72.20304783091265
 10
22.2737627894376
 20
-72.2709162567445
 10
22.59105629294588
 20
-72.4951921207878
 10
22.59105629294588
 20
-72.9182501254655
 10
22.59105629294588
 20
-73.16354108583238
 10
22.49373228128346
 20
-73.34957636476231
 10
22.34989944988856
 20
-73.48944733373555
 10
22.15094505436627
 20
-73.67134849535593
 10
21.82951743354844
 20
-73.7560979002018
 10
21.36408472644782
 20
-73.7560979002018
 10
21.11018102168604
 20
-73.7560979002018
 10
20.91553299836121
 20
-73.73887241141198
 10
20.79288751817777
 20
-73.72233594217376
 10
20.79288751817777
 20
-73.72233594217376
 10
20.79288751817777
 20
-70.91699283786556
 10
20.79288751817777
 20
-70.91699283786556
 97
        0
 92
        1
 93
        1
 72
     4
 94
        3
 73
     0
 74
     1
 95
       20
 96
       16
 40
0.0
 40
0.0
 40
0.0
 40
0.0
 40
1.0
 40
1.0
 40
1.0
 40
2.0
 40
2.0
 40
2.0
 40
3.0
 40
3.0
 40
3.0
 40
4.0
 40
4.0
 40
4.0
 40
5.0
 40
5.0
 40
5.0
 40
5.0
 10
21.16099621361598
 20
-72.08453646803878
 10
21.16099621361598
 20
-72.08453646803878
 10
21.49517069613826
 20
-72.08453646803878
 10
21.49517069613826
 20
-72.08453646803878
 10
21.88446674278793
 20
-72.08453646803878
 10
22.11287672414079
 20
-71.88162021009484
 10
22.11287672414079
 20
-71.60670140900949
 10
22.11287672414079
 20
-71.27218241671142
 10
21.85914527426691
 20
-71.14126870190887
 10
21.48673020663125
 20
-71.14126870190887
 10
21.31757590671534
 20
-71.14126870190887
 10
21.22025189505292
 20
-71.15367105383753
 10
21.16099621361598
 20
-71.16676242531778
 10
21.16099621361598
 20
-71.16676242531778
 10
21.16099621361598
 20
-72.08453646803878
 10
21.16099621361598
 20
-72.08453646803878
 97
        0
 92
        1
 93
        1
 72
     4
 94
        3
 73
     0
 74
     1
 95
       20
 96
       16
 40
0.0
 40
0.0
 40
0.0
 40
0.0
 40
1.0
 40
1.0
 40
1.0
 40
2.0
 40
2.0
 40
2.0
 40
3.0
 40
3.0
 40
3.0
 40
4.0
 40
4.0
 40
4.0
 40
5.0
 40
5.0
 40
5.0
 40
5.0
 10
21.16099621361598
 20
-73.45155125839797
 10
21.23282650186948
 20
-73.46395361032664
 10
21.3385910030389
 20
-73.46808772763619
 10
21.46984922761724
 20
-73.46808772763619
 10
21.85053252987201
 20
-73.46808772763619
 10
22.2017602462962
 20
-73.32890577821453
 10
22.2017602462962
 20
-72.91411600815596
 10
22.2017602462962
 20
-72.52481996150628
 10
21.86758576377392
 20
-72.36393389620947
 10
21.46554285541979
 20
-72.36393389620947
 10
21.46554285541979
 20
-72.36393389620947
 10
21.16099621361598
 20
-72.36393389620947
 10
21.16099621361598
 20
-72.36393389620947
 10
21.16099621361598
 20
-72.36393389620947
 10
21.16099621361598
 20
-73.45155125839797
 10
21.16099621361598
 20
-73.45155125839797
 97
        0
 75
     2
 76
     1
 98
        0
  0
SPLINE
  5
F1
330
E3
100
AcDbEntity
  8
LAYER_1
100
AcDbSpline
210
0.0
220
0.0
230
1.0
 70
    11
 71
     3
 72
    35
 73
    31
 74
     0
 42
0.0000000001
 43
0.0000000001
 40
0.0
 40
0.0
 40
0.0
 40
0.0
 40
1.0
 40
1.0
 40
1.0
 40
2.0
 40
2.0
 40
2.0
 40
3.0
 40
3.0
 40
3.0
 40
4.0
 40
4.0
 40
4.0
 40
5.0
 40
5.0
 40
5.0
 40
6.0
 40
6.0
 40
6.0
 40
7.0
 40
7.0
 40
7.0
 40
8.0
 40
8.0
 40
8.0
 40
9.0
 40
9.0
 40
9.0
 40
10.0
 40
10.0
 40
10.0
 40
10.0
 10
22.92230244237389
 20
-73.03262737102983
 30
0.0
 10
22.92230244237389
 20
-72.68536151702729
 30
0.0
 10
23.12952507251529
 20
-72.44007055666043
 30
0.0
 10
23.46800592723502
 20
-72.29606547037763
 30
0.0
 10
23.46800592723502
 20
-72.29606547037763
 30
0.0
 10
23.46387180992547
 20
-72.28366311844896
 30
0.0
 10
23.46387180992547
 20
-72.28366311844896
 30
0.0
 10
23.15915291323376
 20
-72.13965803216617
 30
0.0
 10
23.02806694354332
 20
-71.9026353064184
 30
0.0
 10
23.02806694354332
 20
-71.66561258067064
 30
0.0
 10
23.02806694354332
 20
-71.23015222406428
 30
0.0
 10
23.39617563898152
 20
-70.93387381687957
 30
0.0
 10
23.87848932509616
 20
-70.93387381687957
 30
0.0
 10
24.41161820314073
 20
-70.93387381687957
 30
0.0
 10
24.67809651471907
 20
-71.26804829940185
 30
0.0
 10
24.67809651471907
 20
-71.61083552631905
 30
0.0
 10
24.67809651471907
 20
-71.84337962498145
 30
0.0
 10
24.56389152404263
 20
-72.09314921243369
 30
0.0
 10
24.2254106693229
 20
-72.2540352777305
 30
0.0
 10
24.2254106693229
 20
-72.2540352777305
 30
0.0
 10
24.2254106693229
 20
-72.26643762965915
 30
0.0
 10
24.2254106693229
 20
-72.26643762965915
 30
0.0
 10
24.56819789624009
 20
-72.40217448132285
 30
0.0
 10
24.77972689857894
 20
-72.64333132438016
 30
0.0
 10
24.77972689857894
 20
-72.97750580690244
 30
0.0
 10
24.77972689857894
 20
-73.45568537570753
 30
0.0
 10
24.3692435007178
 20
-73.77711299652536
 30
0.0
 10
23.84455511218023
 20
-73.77711299652536
 30
0.0
 10
23.26922378660063
 20
-73.77711299652536
 30
0.0
 10
22.92230244237389
 20
-73.43432576960817
 30
0.0
 10
22.92230244237389
 20
-73.03262737102983
 30
0.0
  0
SPLINE
  5
F2
330
E3
100
AcDbEntity
  8
LAYER_1
100
AcDbSpline
210
0.0
220
0.0
230
1.0
 70
    11
 71
     3
 72
    17
 73
    13
 74
     0
 42
0.0000000001
 43
0.0000000001
 40
0.0
 40
0.0
 40
0.0
 40
0.0
 40
1.0
 40
1.0
 40
1.0
 40
2.0
 40
2.0
 40
2.0
 40
3.0
 40
3.0
 40
3.0
 40
4.0
 40
4.0
 40
4.0
 40
4.0
 10
24.40317771363372
 20
-73.01540188224003
 30
0.0
 10
24.40317771363372
 20
-72.68122739971774
 30
0.0
 10
24.17046136008341
 20
-72.52068584419672
 30
0.0
 10
23.79804629244775
 20
-72.4145768332515
 30
0.0
 10
23.47661867162993
 20
-72.50759447271648
 30
0.0
 10
23.30298574462866
 20
-72.71946798483111
 30
0.0
 10
23.30298574462866
 20
-72.981639924212
 30
0.0
 10
23.2904111378121
 20
-73.2610373523827
 30
0.0
 10
23.50194014015095
 20
-73.50632831274956
 30
0.0
 10
23.85316785657514
 20
-73.50632831274956
 30
0.0
 10
24.18734233909742
 20
-73.50632831274956
 30
0.0
 10
24.40317771363372
 20
-73.29927793749607
 30
0.0
 10
24.40317771363372
 20
-73.01540188224003
 30
0.0
  0
SPLINE
  5
F3
330
E3
100
AcDbEntity
  8
LAYER_1
100
AcDbSpline
210
0.0
220
0.0
230
1.0
 70
    11
 71
     3
 72
    17
 73
    13
 74
     0
 42
0.0000000001
 43
0.0000000001
 40
0.0
 40
0.0
 40
0.0
 40
0.0
 40
1.0
 40
1.0
 40
1.0
 40
2.0
 40
2.0
 40
2.0
 40
3.0
 40
3.0
 40
3.0
 40
4.0
 40
4.0
 40
4.0
 40
4.0
 10
23.37929465996751
 20
-71.64046336703751
 30
0.0
 10
23.37929465996751
 20
-71.91572667789866
 30
0.0
 10
23.5865172901089
 20
-72.06352137171521
 30
0.0
 10
23.90381079361718
 20
-72.14827077656106
 30
0.0
 10
24.14083351936494
 20
-72.06799999880056
 30
0.0
 10
24.32273468098532
 20
-71.89850118910884
 30
0.0
 10
24.32273468098532
 20
-71.64907611143242
 30
0.0
 10
24.32273468098532
 20
-71.42893436469866
 30
0.0
 10
24.19164871129487
 20
-71.20052438334581
 30
0.0
 10
23.85730197388469
 20
-71.20052438334581
 30
0.0
 10
23.54844895988343
 20
-71.20052438334581
 30
0.0
 10
23.37929465996751
 20
-71.40378515106555
 30
0.0
 10
23.37929465996751
 20
-71.64046336703751
 30
0.0
  0
HATCH
  5
F4
330
E3
100
AcDbEntity
  8
LAYER_1
 62
   250
100
AcDbHatch
 10
0.0
 20
0.0
 30
0.0
210
0.0
220
0.0
230
1.0
  2
SOLID
 70
     1
 71
     0
 91
        3
 92
        1
 93
        1
 72
     4
 94
        3
 73
     0
 74
     1
 95
       35
 96
       31
 40
0.0
 40
0.0
 40
0.0
 40
0.0
 40
1.0
 40
1.0
 40
1.0
 40
2.0
 40
2.0
 40
2.0
 40
3.0
 40
3.0
 40
3.0
 40
4.0
 40
4.0
 40
4.0
 40
5.0
 40
5.0
 40
5.0
 40
6.0
 40
6.0
 40
6.0
 40
7.0
 40
7.0
 40
7.0
 40
8.0
 40
8.0
 40
8.0
 40
9.0
 40
9.0
 40
9.0
 40
10.0
 40
10.0
 40
10.0
 40
10.0
 10
22.92230244237389
 20
-73.03262737102983
 10
22.92230244237389
 20
-72.68536151702729
 10
23.12952507251529
 20
-72.44007055666043
 10
23.46800592723502
 20
-72.29606547037763
 10
23.46800592723502
 20
-72.29606547037763
 10
23.46387180992547
 20
-72.28366311844896
 10
23.46387180992547
 20
-72.28366311844896
 10
23.15915291323376
 20
-72.13965803216617
 10
23.02806694354332
 20
-71.9026353064184
 10
23.02806694354332
 20
-71.66561258067064
 10
23.02806694354332
 20
-71.23015222406428
 10
23.39617563898152
 20
-70.93387381687957
 10
23.87848932509616
 20
-70.93387381687957
 10
24.41161820314073
 20
-70.93387381687957
 10
24.67809651471907
 20
-71.26804829940185
 10
24.67809651471907
 20
-71.61083552631905
 10
24.67809651471907
 20
-71.84337962498145
 10
24.56389152404263
 20
-72.09314921243369
 10
24.2254106693229
 20
-72.2540352777305
 10
24.2254106693229
 20
-72.2540352777305
 10
24.2254106693229
 20
-72.26643762965915
 10
24.2254106693229
 20
-72.26643762965915
 10
24.56819789624009
 20
-72.40217448132285
 10
24.77972689857894
 20
-72.64333132438016
 10
24.77972689857894
 20
-72.97750580690244
 10
24.77972689857894
 20
-73.45568537570753
 10
24.3692435007178
 20
-73.77711299652536
 10
23.84455511218023
 20
-73.77711299652536
 10
23.26922378660063
 20
-73.77711299652536
 10
22.92230244237389
 20
-73.43432576960817
 10
22.92230244237389
 20
-73.03262737102983
 97
        0
 92
        1
 93
        1
 72
     4
 94
        3
 73
     0
 74
     1
 95
       17
 96
       13
 40
0.0
 40
0.0
 40
0.0
 40
0.0
 40
1.0
 40
1.0
 40
1.0
 40
2.0
 40
2.0
 40
2.0
 40
3.0
 40
3.0
 40
3.0
 40
4.0
 40
4.0
 40
4.0
 40
4.0
 10
24.40317771363372
 20
-73.01540188224003
 10
24.40317771363372
 20
-72.68122739971774
 10
24.17046136008341
 20
-72.52068584419672
 10
23.79804629244775
 20
-72.4145768332515
 10
23.47661867162993
 20
-72.50759447271648
 10
23.30298574462866
 20
-72.71946798483111
 10
23.30298574462866
 20
-72.981639924212
 10
23.2904111378121
 20
-73.2610373523827
 10
23.50194014015095
 20
-73.50632831274956
 10
23.85316785657514
 20
-73.50632831274956
 10
24.18734233909742
 20
-73.50632831274956
 10
24.40317771363372
 20
-73.29927793749607
 10
24.40317771363372
 20
-73.01540188224003
 97
        0
 92
        1
 93
        1
 72
     4
 94
        3
 73
     0
 74
     1
 95
       17
 96
       13
 40
0.0
 40
0.0
 40
0.0
 40
0.0
 40
1.0
 40
1.0
 40
1.0
 40
2.0
 40
2.0
 40
2.0
 40
3.0
 40
3.0
 40
3.0
 40
4.0
 40
4.0
 40
4.0
 40
4.0
 10
23.37929465996751
 20
-71.64046336703751
 10
23.37929465996751
 20
-71.91572667789866
 10
23.5865172901089
 20
-72.06352137171521
 10
23.90381079361718
 20
-72.14827077656106
 10
24.14083351936494
 20
-72.06799999880056
 10
24.32273468098532
 20
-71.89850118910884
 10
24.32273468098532
 20
-71.64907611143242
 10
24.32273468098532
 20
-71.42893436469866
 10
24.19164871129487
 20
-71.20052438334581
 10
23.85730197388469
 20
-71.20052438334581
 10
23.54844895988343
 20
-71.20052438334581
 10
23.37929465996751
 20
-71.40378515106555
 10
23.37929465996751
 20
-71.64046336703751
 97
        0
 75
     2
 76
     1
 98
        0
  0
SPLINE
  5
F5
330
E3
100
AcDbEntity
  8
LAYER_1
100
AcDbSpline
210
0.0
220
0.0
230
1.0
 70
    11
 71
     3
 72
    38
 73
    34
 74
     0
 42
0.0000000001
 43
0.0000000001
 40
0.0
 40
0.0
 40
0.0
 40
0.0
 40
1.0
 40
1.0
 40
1.0
 40
2.0
 40
2.0
 40
2.0
 40
3.0
 40
3.0
 40
3.0
 40
4.0
 40
4.0
 40
4.0
 40
5.0
 40
5.0
 40
5.0
 40
6.0
 40
6.0
 40
6.0
 40
7.0
 40
7.0
 40
7.0
 40
8.0
 40
8.0
 40
8.0
 40
9.0
 40
9.0
 40
9.0
 40
10.0
 40
10.0
 40
10.0
 40
11.0
 40
11.0
 40
11.0
 40
11.0
 10
26.69744056554831
 20
-71.24255457599294
 30
0.0
 10
26.62130390509736
 20
-71.2384204586834
 30
0.0
 10
26.52397989343494
 20
-71.24255457599294
 30
0.0
 10
26.41821539226551
 20
-71.25978006478275
 30
0.0
 10
25.83427132229101
 20
-71.35693182155727
 30
0.0
 10
25.52541830828974
 20
-71.78412394354451
 30
0.0
 10
25.46202850954325
 20
-72.23680978894069
 30
0.0
 10
25.46202850954325
 20
-72.23680978894069
 30
0.0
 10
25.47460311635981
 20
-72.23680978894069
 30
0.0
 10
25.47460311635981
 20
-72.23680978894069
 30
0.0
 10
25.60586134093815
 20
-72.06352137171521
 30
0.0
 10
25.83427132229101
 20
-71.91986079520821
 30
0.0
 10
26.13899021898272
 20
-71.91986079520821
 30
0.0
 10
26.62543802240691
 20
-71.91986079520821
 30
0.0
 10
26.9682252493241
 20
-72.2709162567445
 30
0.0
 10
26.9682252493241
 20
-72.80800699721073
 30
0.0
 10
26.9682252493241
 20
-73.31168028942473
 30
0.0
 10
26.62543802240691
 20
-73.77711299652536
 30
0.0
 10
26.05424081413686
 20
-73.77711299652536
 30
0.0
 10
25.4661626268528
 20
-73.77711299652536
 30
0.0
 10
25.08117295240058
 20
-73.31994852404384
 30
0.0
 10
25.08117295240058
 20
-72.60509073926679
 30
0.0
 10
25.08117295240058
 20
-72.06352137171521
 30
0.0
 10
25.27582097572542
 20
-71.63632924972796
 30
0.0
 10
25.54660565950121
 20
-71.36554456595218
 30
0.0
 10
25.77501564085407
 20
-71.14126870190887
 30
0.0
 10
26.07973453754578
 20
-71.00139773293563
 30
0.0
 10
26.42665588177252
 20
-70.95936754028848
 30
0.0
 10
26.53672675513939
 20
-70.94214205149868
 30
0.0
 10
26.62974439460436
 20
-70.93800793418913
 30
0.0
 10
26.69744056554831
 20
-70.93800793418913
 30
0.0
 10
26.69744056554831
 20
-70.93800793418913
 30
0.0
 10
26.69744056554831
 20
-71.24255457599294
 30
0.0
 10
26.69744056554831
 20
-71.24255457599294
 30
0.0
  0
SPLINE
  5
F6
330
E3
100
AcDbEntity
  8
LAYER_1
100
AcDbSpline
210
0.0
220
0.0
230
1.0
 70
    11
 71
     3
 72
    20
 73
    16
 74
     0
 42
0.0000000001
 43
0.0000000001
 40
0.0
 40
0.0
 40
0.0
 40
0.0
 40
1.0
 40
1.0
 40
1.0
 40
2.0
 40
2.0
 40
2.0
 40
3.0
 40
3.0
 40
3.0
 40
4.0
 40
4.0
 40
4.0
 40
5.0
 40
5.0
 40
5.0
 40
5.0
 10
26.59167606437888
 20
-72.82936660331009
 30
0.0
 10
26.59167606437888
 20
-72.43593643935087
 30
0.0
 10
26.36740020033558
 20
-72.1989137136031
 30
0.0
 10
26.02478522830629
 20
-72.1989137136031
 30
0.0
 10
25.80050936426298
 20
-72.1989137136031
 30
0.0
 10
25.59311447923369
 20
-72.33878468257635
 30
0.0
 10
25.49165635026172
 20
-72.53722231343494
 30
0.0
 10
25.4661626268528
 20
-72.57994152563367
 30
0.0
 10
25.44928164783879
 20
-72.63471857998526
 30
0.0
 10
25.44928164783879
 20
-72.70258700581711
 30
0.0
 10
25.45772213734579
 20
-73.15527285121327
 30
0.0
 10
25.66511702237509
 20
-73.48944733373555
 30
0.0
 10
26.05424081413686
 20
-73.48944733373555
 30
0.0
 10
26.37584068984258
 20
-73.48944733373555
 30
0.0
 10
26.59167606437888
 20
-73.22279676726932
 30
0.0
 10
26.59167606437888
 20
-72.82936660331009
 30
0.0
  0
HATCH
  5
F7
330
E3
100
AcDbEntity
  8
LAYER_1
 62
   250
100
AcDbHatch
 10
0.0
 20
0.0
 30
0.0
210
0.0
220
0.0
230
1.0
  2
SOLID
 70
     1
 71
     0
 91
        2
 92
        1
 93
        1
 72
     4
 94
        3
 73
     0
 74
     1
 95
       38
 96
       34
 40
0.0
 40
0.0
 40
0.0
 40
0.0
 40
1.0
 40
1.0
 40
1.0
 40
2.0
 40
2.0
 40
2.0
 40
3.0
 40
3.0
 40
3.0
 40
4.0
 40
4.0
 40
4.0
 40
5.0
 40
5.0
 40
5.0
 40
6.0
 40
6.0
 40
6.0
 40
7.0
 40
7.0
 40
7.0
 40
8.0
 40
8.0
 40
8.0
 40
9.0
 40
9.0
 40
9.0
 40
10.0
 40
10.0
 40
10.0
 40
11.0
 40
11.0
 40
11.0
 40
11.0
 10
26.69744056554831
 20
-71.24255457599294
 10
26.62130390509736
 20
-71.2384204586834
 10
26.52397989343494
 20
-71.24255457599294
 10
26.41821539226551
 20
-71.25978006478275
 10
25.83427132229101
 20
-71.35693182155727
 10
25.52541830828974
 20
-71.78412394354451
 10
25.46202850954325
 20
-72.23680978894069
 10
25.46202850954325
 20
-72.23680978894069
 10
25.47460311635981
 20
-72.23680978894069
 10
25.47460311635981
 20
-72.23680978894069
 10
25.60586134093815
 20
-72.06352137171521
 10
25.83427132229101
 20
-71.91986079520821
 10
26.13899021898272
 20
-71.91986079520821
 10
26.62543802240691
 20
-71.91986079520821
 10
26.9682252493241
 20
-72.2709162567445
 10
26.9682252493241
 20
-72.80800699721073
 10
26.9682252493241
 20
-73.31168028942473
 10
26.62543802240691
 20
-73.77711299652536
 10
26.05424081413686
 20
-73.77711299652536
 10
25.4661626268528
 20
-73.77711299652536
 10
25.08117295240058
 20
-73.31994852404384
 10
25.08117295240058
 20
-72.60509073926679
 10
25.08117295240058
 20
-72.06352137171521
 10
25.27582097572542
 20
-71.63632924972796
 10
25.54660565950121
 20
-71.36554456595218
 10
25.77501564085407
 20
-71.14126870190887
 10
26.07973453754578
 20
-71.00139773293563
 10
26.42665588177252
 20
-70.95936754028848
 10
26.53672675513939
 20
-70.94214205149868
 10
26.62974439460436
 20
-70.93800793418913
 10
26.69744056554831
 20
-70.93800793418913
 10
26.69744056554831
 20
-70.93800793418913
 10
26.69744056554831
 20
-71.24255457599294
 10
26.69744056554831
 20
-71.24255457599294
 97
        0
 92
        1
 93
        1
 72
     4
 94
        3
 73
     0
 74
     1
 95
       20
 96
       16
 40
0.0
 40
0.0
 40
0.0
 40
0.0
 40
1.0
 40
1.0
 40
1.0
 40
2.0
 40
2.0
 40
2.0
 40
3.0
 40
3.0
 40
3.0
 40
4.0
 40
4.0
 40
4.0
 40
5.0
 40
5.0
 40
5.0
 40
5.0
 10
26.59167606437888
 20
-72.82936660331009
 10
26.59167606437888
 20
-72.43593643935087
 10
26.36740020033558
 20
-72.1989137136031
 10
26.02478522830629
 20
-72.1989137136031
 10
25.80050936426298
 20
-72.1989137136031
 10
25.59311447923369
 20
-72.33878468257635
 10
25.49165635026172
 20
-72.53722231343494
 10
25.4661626268528
 20
-72.57994152563367
 10
25.44928164783879
 20
-72.63471857998526
 10
25.44928164783879
 20
-72.70258700581711
 10
25.45772213734579
 20
-73.15527285121327
 10
25.66511702237509
 20
-73.48944733373555
 10
26.05424081413686
 20
-73.48944733373555
 10
26.37584068984258
 20
-73.48944733373555
 10
26.59167606437888
 20
-73.22279676726932
 10
26.59167606437888
 20
-72.82936660331009
 97
        0
 75
     2
 76
     1
 98
        0
  0
SPLINE
  5
F8
330
E3
100
AcDbEntity
  8
LAYER_1
100
AcDbSpline
210
0.0
220
0.0
230
1.0
 70
    11
 71
     3
 72
    47
 73
    43
 74
     0
 42
0.0000000001
 43
0.0000000001
 40
0.0
 40
0.0
 40
0.0
 40
0.0
 40
1.0
 40
1.0
 40
1.0
 40
2.0
 40
2.0
 40
2.0
 40
3.0
 40
3.0
 40
3.0
 40
4.0
 40
4.0
 40
4.0
 40
5.0
 40
5.0
 40
5.0
 40
6.0
 40
6.0
 40
6.0
 40
7.0
 40
7.0
 40
7.0
 40
8.0
 40
8.0
 40
8.0
 40
9.0
 40
9.0
 40
9.0
 40
10.0
 40
10.0
 40
10.0
 40
11.0
 40
11.0
 40
11.0
 40
12.0
 40
12.0
 40
12.0
 40
13.0
 40
13.0
 40
13.0
 40
14.0
 40
14.0
 40
14.0
 40
14.0
 10
27.29929914386421
 20
-73.73060417679287
 30
0.0
 10
27.29929914386421
 20
-73.73060417679287
 30
0.0
 10
27.29929914386421
 20
-73.50219419544001
 30
0.0
 10
27.29929914386421
 20
-73.50219419544001
 30
0.0
 10
27.29929914386421
 20
-73.50219419544001
 30
0.0
 10
27.59127117885147
 20
-73.21866264995977
 30
0.0
 10
27.59127117885147
 20
-73.21866264995977
 30
0.0
 10
28.29355435681196
 20
-72.5503136849152
 30
0.0
 10
28.61102011520813
 20
-72.19477959629356
 30
0.0
 10
28.61515423251768
 20
-71.77998982623497
 30
0.0
 10
28.61515423251768
 20
-71.50093690784007
 30
0.0
 10
28.47976189062979
 20
-71.24255457599294
 30
0.0
 10
28.06945074765655
 20
-71.24255457599294
 30
0.0
 10
27.81985341509223
 20
-71.24255457599294
 30
0.0
 10
27.61245853006293
 20
-71.36967868326172
 30
0.0
 10
27.48550667768205
 20
-71.47544318443116
 30
0.0
 10
27.48550667768205
 20
-71.47544318443116
 30
0.0
 10
27.36699531480816
 20
-71.21292673527446
 30
0.0
 10
27.36699531480816
 20
-71.21292673527446
 30
0.0
 10
27.55750922082344
 20
-71.05238517975346
 30
0.0
 10
27.82829390459923
 20
-70.93387381687957
 30
0.0
 10
28.14558740810751
 20
-70.93387381687957
 30
0.0
 10
28.73797196758902
 20
-70.93387381687957
 30
0.0
 10
28.98756930015334
 20
-71.34005084254326
 30
0.0
 10
28.98756930015334
 20
-71.73382551627827
 30
0.0
 10
28.98756930015334
 20
-72.24128841602604
 30
0.0
 10
28.61946060471513
 20
-72.65159955899927
 30
0.0
 10
28.03982290693808
 20
-73.21039441534066
 30
0.0
 10
28.03982290693808
 20
-73.21039441534066
 30
0.0
 10
27.81985341509223
 20
-73.4133106732846
 30
0.0
 10
27.81985341509223
 20
-73.4133106732846
 30
0.0
 10
27.81985341509223
 20
-73.4133106732846
 30
0.0
 10
27.81985341509223
 20
-73.42192341767951
 30
0.0
 10
27.81985341509223
 20
-73.42192341767951
 30
0.0
 10
27.81985341509223
 20
-73.42192341767951
 30
0.0
 10
29.05526547109729
 20
-73.42192341767951
 30
0.0
 10
29.05526547109729
 20
-73.42192341767951
 30
0.0
 10
29.05526547109729
 20
-73.42192341767951
 30
0.0
 10
29.05526547109729
 20
-73.73060417679287
 30
0.0
 10
29.05526547109729
 20
-73.73060417679287
 30
0.0
 10
29.05526547109729
 20
-73.73060417679287
 30
0.0
 10
27.29929914386421
 20
-73.73060417679287
 30
0.0
 10
27.29929914386421
 20
-73.73060417679287
 30
0.0
  0
HATCH
  5
F9
330
E3
100
AcDbEntity
  8
LAYER_1
 62
   250
100
AcDbHatch
 10
0.0
 20
0.0
 30
0.0
210
0.0
220
0.0
230
1.0
  2
SOLID
 70
     1
 71
     0
 91
        1
 92
        1
 93
        1
 72
     4
 94
        3
 73
     0
 74
     1
 95
       47
 96
       43
 40
0.0
 40
0.0
 40
0.0
 40
0.0
 40
1.0
 40
1.0
 40
1.0
 40
2.0
 40
2.0
 40
2.0
 40
3.0
 40
3.0
 40
3.0
 40
4.0
 40
4.0
 40
4.0
 40
5.0
 40
5.0
 40
5.0
 40
6.0
 40
6.0
 40
6.0
 40
7.0
 40
7.0
 40
7.0
 40
8.0
 40
8.0
 40
8.0
 40
9.0
 40
9.0
 40
9.0
 40
10.0
 40
10.0
 40
10.0
 40
11.0
 40
11.0
 40
11.0
 40
12.0
 40
12.0
 40
12.0
 40
13.0
 40
13.0
 40
13.0
 40
14.0
 40
14.0
 40
14.0
 40
14.0
 10
27.29929914386421
 20
-73.73060417679287
 10
27.29929914386421
 20
-73.73060417679287
 10
27.29929914386421
 20
-73.50219419544001
 10
27.29929914386421
 20
-73.50219419544001
 10
27.29929914386421
 20
-73.50219419544001
 10
27.59127117885147
 20
-73.21866264995977
 10
27.59127117885147
 20
-73.21866264995977
 10
28.29355435681196
 20
-72.5503136849152
 10
28.61102011520813
 20
-72.19477959629356
 10
28.61515423251768
 20
-71.77998982623497
 10
28.61515423251768
 20
-71.50093690784007
 10
28.47976189062979
 20
-71.24255457599294
 10
28.06945074765655
 20
-71.24255457599294
 10
27.81985341509223
 20
-71.24255457599294
 10
27.61245853006293
 20
-71.36967868326172
 10
27.48550667768205
 20
-71.47544318443116
 10
27.48550667768205
 20
-71.47544318443116
 10
27.36699531480816
 20
-71.21292673527446
 10
27.36699531480816
 20
-71.21292673527446
 10
27.55750922082344
 20
-71.05238517975346
 10
27.82829390459923
 20
-70.93387381687957
 10
28.14558740810751
 20
-70.93387381687957
 10
28.73797196758902
 20
-70.93387381687957
 10
28.98756930015334
 20
-71.34005084254326
 10
28.98756930015334
 20
-71.73382551627827
 10
28.98756930015334
 20
-72.24128841602604
 10
28.61946060471513
 20
-72.65159955899927
 10
28.03982290693808
 20
-73.21039441534066
 10
28.03982290693808
 20
-73.21039441534066
 10
27.81985341509223
 20
-73.4133106732846
 10
27.81985341509223
 20
-73.4133106732846
 10
27.81985341509223
 20
-73.4133106732846
 10
27.81985341509223
 20
-73.42192341767951
 10
27.81985341509223
 20
-73.42192341767951
 10
27.81985341509223
 20
-73.42192341767951
 10
29.05526547109729
 20
-73.42192341767951
 10
29.05526547109729
 20
-73.42192341767951
 10
29.05526547109729
 20
-73.42192341767951
 10
29.05526547109729
 20
-73.73060417679287
 10
29.05526547109729
 20
-73.73060417679287
 10
29.05526547109729
 20
-73.73060417679287
 10
27.29929914386421
 20
-73.73060417679287
 10
27.29929914386421
 20
-73.73060417679287
 97
        0
 75
     2
 76
     1
 98
        0
  0
POLYLINE
  5
FA
330
E3
100
AcDbEntity
  8
LAYER_1
100
AcDb2dPolyline
 66
     1
 10
0.0
 20
0.0
 30
0.0
  0
VERTEX
  5
FB
330
FA
100
AcDbEntity
  8
LAYER_1
100
AcDbVertex
100
AcDb2dVertex
 10
30.14374410772528
 20
-71.1922561487267
 30
0.0
  0
VERTEX
  5
FC
330
FA
100
AcDbEntity
  8
LAYER_1
100
AcDbVertex
100
AcDb2dVertex
 10
29.27626849227053
 20
-71.1922561487267
 30
0.0
  0
VERTEX
  5
FD
330
FA
100
AcDbEntity
  8
LAYER_1
100
AcDbVertex
100
AcDb2dVertex
 10
29.27626849227053
 20
-70.8787522527522
 30
0.0
  0
VERTEX
  5
FE
330
FA
100
AcDbEntity
  8
LAYER_1
100
AcDbVertex
100
AcDb2dVertex
 10
31.38759665323735
 20
-70.8787522527522
 30
0.0
  0
VERTEX
  5
FF
330
FA
100
AcDbEntity
  8
LAYER_1
100
AcDbVertex
100
AcDb2dVertex
 10
31.38759665323735
 20
-71.1922561487267
 30
0.0
  0
VERTEX
  5
100
330
FA
100
AcDbEntity
  8
LAYER_1
100
AcDbVertex
100
AcDb2dVertex
 10
30.51598692047304
 20
-71.1922561487267
 30
0.0
  0
VERTEX
  5
101
330
FA
100
AcDbEntity
  8
LAYER_1
100
AcDbVertex
100
AcDb2dVertex
 10
30.51598692047304
 20
-73.73060417679287
 30
0.0
  0
VERTEX
  5
102
330
FA
100
AcDbEntity
  8
LAYER_1
100
AcDbVertex
100
AcDb2dVertex
 10
30.14374410772528
 20
-73.73060417679287
 30
0.0
  0
VERTEX
  5
103
330
FA
100
AcDbEntity
  8
LAYER_1
100
AcDbVertex
100
AcDb2dVertex
 10
30.14374410772528
 20
-71.1922561487267
 30
0.0
  0
SEQEND
  5
104
330
FA
100
AcDbEntity
  8
LAYER_1
  0
HATCH
  5
105
330
E3
100
AcDbEntity
  8
LAYER_1
 62
   250
100
AcDbHatch
 10
0.0
 20
0.0
 30
0.0
210
0.0
220
0.0
230
1.0
  2
SOLID
 70
     1
 71
     0
 91
        1
 92
        1
 93
        8
 72
     1
 10
30.14374410772528
 20
-71.1922561487267
 11
29.27626849227053
 21
-71.1922561487267
 72
     1
 10
29.27626849227053
 20
-71.1922561487267
 11
29.27626849227053
 21
-70.8787522527522
 72
     1
 10
29.27626849227053
 20
-70.8787522527522
 11
31.38759665323735
 21
-70.8787522527522
 72
     1
 10
31.38759665323735
 20
-70.8787522527522
 11
31.38759665323735
 21
-71.1922561487267
 72
     1
 10
31.38759665323735
 20
-71.1922561487267
 11
30.51598692047304
 21
-71.1922561487267
 72
     1
 10
30.51598692047304
 20
-71.1922561487267
 11
30.51598692047304
 21
-73.73060417679287
 72
     1
 10
30.51598692047304
 20
-73.73060417679287
 11
30.14374410772528
 21
-73.73060417679287
 72
     1
 10
30.14374410772528
 20
-73.73060417679287
 11
30.14374410772528
 21
-71.1922561487267
 97
        0
 75
     2
 76
     1
 98
        0
  0
SPLINE
  5
106
330
E3
100
AcDbEntity
  8
LAYER_1
100
AcDbSpline
210
0.0
220
0.0
230
1.0
 70
    11
 71
     3
 72
    50
 73
    46
 74
     0
 42
0.0000000001
 43
0.0000000001
 40
0.0
 40
0.0
 40
0.0
 40
0.0
 40
1.0
 40
1.0
 40
1.0
 40
2.0
 40
2.0
 40
2.0
 40
3.0
 40
3.0
 40
3.0
 40
4.0
 40
4.0
 40
4.0
 40
5.0
 40
5.0
 40
5.0
 40
6.0
 40
6.0
 40
6.0
 40
7.0
 40
7.0
 40
7.0
 40
8.0
 40
8.0
 40
8.0
 40
9.0
 40
9.0
 40
9.0
 40
10.0
 40
10.0
 40
10.0
 40
11.0
 40
11.0
 40
11.0
 40
12.0
 40
12.0
 40
12.0
 40
13.0
 40
13.0
 40
13.0
 40
14.0
 40
14.0
 40
14.0
 40
15.0
 40
15.0
 40
15.0
 40
15.0
 10
33.21677130782711
 20
-71.29354202281077
 30
0.0
 10
33.21677130782711
 20
-71.29354202281077
 30
0.0
 10
32.16739453075198
 20
-71.29354202281077
 30
0.0
 10
32.16739453075198
 20
-71.29354202281077
 30
0.0
 10
32.16739453075198
 20
-71.29354202281077
 30
0.0
 10
32.06163002958255
 20
-72.00013157296871
 30
0.0
 10
32.06163002958255
 20
-72.00013157296871
 30
0.0
 10
32.12501982832905
 20
-71.99151882857382
 30
0.0
 10
32.18427550976599
 20
-71.98325059395471
 30
0.0
 10
32.28590589362586
 20
-71.98325059395471
 30
0.0
 10
32.49743489596471
 20
-71.98325059395471
 30
0.0
 10
32.70896389830356
 20
-72.02975941368719
 30
0.0
 10
32.87829045310738
 20
-72.13138979754706
 30
0.0
 10
33.09395357275577
 20
-72.2540352777305
 30
0.0
 10
33.2717206170666
 20
-72.49105800347826
 30
0.0
 10
33.2717206170666
 20
-72.8376348379292
 30
0.0
 10
33.2717206170666
 20
-73.37507008817123
 30
0.0
 10
32.84435624019145
 20
-73.77711299652536
 30
0.0
 10
32.24783756340039
 20
-73.77711299652536
 30
0.0
 10
31.94742503890613
 20
-73.77711299652536
 30
0.0
 10
31.69352133414435
 20
-73.6927081014553
 30
0.0
 10
31.56243536445391
 20
-73.60795869660943
 30
0.0
 10
31.56243536445391
 20
-73.60795869660943
 30
0.0
 10
31.65545300391887
 20
-73.32442715112919
 30
0.0
 10
31.65545300391887
 20
-73.32442715112919
 30
0.0
 10
31.7696579945953
 20
-73.39229557696103
 30
0.0
 10
31.99393385863861
 20
-73.4767004720311
 30
0.0
 10
32.24353119120293
 20
-73.4767004720311
 30
0.0
 10
32.59475890762712
 20
-73.4767004720311
 30
0.0
 10
32.89517143212139
 20
-73.24829049067823
 30
0.0
 10
32.89517143212139
 20
-72.88035405012792
 30
0.0
 10
32.89086505992393
 20
-72.52481996150628
 30
0.0
 10
32.65401458906407
 20
-72.2709162567445
 30
0.0
 10
32.10400473200549
 20
-72.2709162567445
 30
0.0
 10
31.94742503890613
 20
-72.2709162567445
 30
0.0
 10
31.82477955872269
 20
-72.28779723575852
 30
0.0
 10
31.72314917486282
 20
-72.30054409746297
 30
0.0
 10
31.72314917486282
 20
-72.30054409746297
 30
0.0
 10
31.90091621917364
 20
-70.98038263661205
 30
0.0
 10
31.90091621917364
 20
-70.98038263661205
 30
0.0
 10
31.90091621917364
 20
-70.98038263661205
 30
0.0
 10
33.21677130782711
 20
-70.98038263661205
 30
0.0
 10
33.21677130782711
 20
-70.98038263661205
 30
0.0
 10
33.21677130782711
 20
-70.98038263661205
 30
0.0
 10
33.21677130782711
 20
-71.29354202281077
 30
0.0
 10
33.21677130782711
 20
-71.29354202281077
 30
0.0
  0
HATCH
  5
107
330
E3
100
AcDbEntity
  8
LAYER_1
 62
   250
100
AcDbHatch
 10
0.0
 20
0.0
 30
0.0
210
0.0
220
0.0
230
1.0
  2
SOLID
 70
     1
 71
     0
 91
        1
 92
        1
 93
        1
 72
     4
 94
        3
 73
     0
 74
     1
 95
       50
 96
       46
 40
0.0
 40
0.0
 40
0.0
 40
0.0
 40
1.0
 40
1.0
 40
1.0
 40
2.0
 40
2.0
 40
2.0
 40
3.0
 40
3.0
 40
3.0
 40
4.0
 40
4.0
 40
4.0
 40
5.0
 40
5.0
 40
5.0
 40
6.0
 40
6.0
 40
6.0
 40
7.0
 40
7.0
 40
7.0
 40
8.0
 40
8.0
 40
8.0
 40
9.0
 40
9.0
 40
9.0
 40
10.0
 40
10.0
 40
10.0
 40
11.0
 40
11.0
 40
11.0
 40
12.0
 40
12.0
 40
12.0
 40
13.0
 40
13.0
 40
13.0
 40
14.0
 40
14.0
 40
14.0
 40
15.0
 40
15.0
 40
15.0
 40
15.0
 10
33.21677130782711
 20
-71.29354202281077
 10
33.21677130782711
 20
-71.29354202281077
 10
32.16739453075198
 20
-71.29354202281077
 10
32.16739453075198
 20
-71.29354202281077
 10
32.16739453075198
 20
-71.29354202281077
 10
32.06163002958255
 20
-72.00013157296871
 10
32.06163002958255
 20
-72.00013157296871
 10
32.12501982832905
 20
-71.99151882857382
 10
32.18427550976599
 20
-71.98325059395471
 10
32.28590589362586
 20
-71.98325059395471
 10
32.49743489596471
 20
-71.98325059395471
 10
32.70896389830356
 20
-72.02975941368719
 10
32.87829045310738
 20
-72.13138979754706
 10
33.09395357275577
 20
-72.2540352777305
 10
33.2717206170666
 20
-72.49105800347826
 10
33.2717206170666
 20
-72.8376348379292
 10
33.2717206170666
 20
-73.37507008817123
 10
32.84435624019145
 20
-73.77711299652536
 10
32.24783756340039
 20
-73.77711299652536
 10
31.94742503890613
 20
-73.77711299652536
 10
31.69352133414435
 20
-73.6927081014553
 10
31.56243536445391
 20
-73.60795869660943
 10
31.56243536445391
 20
-73.60795869660943
 10
31.65545300391887
 20
-73.32442715112919
 10
31.65545300391887
 20
-73.32442715112919
 10
31.7696579945953
 20
-73.39229557696103
 10
31.99393385863861
 20
-73.4767004720311
 10
32.24353119120293
 20
-73.4767004720311
 10
32.59475890762712
 20
-73.4767004720311
 10
32.89517143212139
 20
-73.24829049067823
 10
32.89517143212139
 20
-72.88035405012792
 10
32.89086505992393
 20
-72.52481996150628
 10
32.65401458906407
 20
-72.2709162567445
 10
32.10400473200549
 20
-72.2709162567445
 10
31.94742503890613
 20
-72.2709162567445
 10
31.82477955872269
 20
-72.28779723575852
 10
31.72314917486282
 20
-72.30054409746297
 10
31.72314917486282
 20
-72.30054409746297
 10
31.90091621917364
 20
-70.98038263661205
 10
31.90091621917364
 20
-70.98038263661205
 10
31.90091621917364
 20
-70.98038263661205
 10
33.21677130782711
 20
-70.98038263661205
 10
33.21677130782711
 20
-70.98038263661205
 10
33.21677130782711
 20
-70.98038263661205
 10
33.21677130782711
 20
-71.29354202281077
 10
33.21677130782711
 20
-71.29354202281077
 97
        0
 75
     2
 76
     1
 98
        0
  0
POLYLINE
  5
108
330
E3
100
AcDbEntity
  8
LAYER_1
100
AcDb2dPolyline
 66
     1
 10
0.0
 20
0.0
 30
0.0
  0
VERTEX
  5
109
330
108
100
AcDbEntity
  8
LAYER_1
100
AcDbVertex
100
AcDb2dVertex
 10
34.55484727701943
 20
-71.32730398083879
 30
0.0
  0
VERTEX
  5
10A
330
108
100
AcDbEntity
  8
LAYER_1
100
AcDbVertex
100
AcDb2dVertex
 10
34.54640678751242
 20
-71.32730398083879
 30
0.0
  0
VERTEX
  5
10B
330
108
100
AcDbEntity
  8
LAYER_1
100
AcDbVertex
100
AcDb2dVertex
 10
34.06822721870734
 20
-71.58568631268592
 30
0.0
  0
VERTEX
  5
10C
330
108
100
AcDbEntity
  8
LAYER_1
100
AcDbVertex
100
AcDb2dVertex
 10
33.99622467556594
 20
-71.30181025742988
 30
0.0
  0
VERTEX
  5
10D
330
108
100
AcDbEntity
  8
LAYER_1
100
AcDbVertex
100
AcDb2dVertex
 10
34.59704972455446
 20
-70.98038263661205
 30
0.0
  0
VERTEX
  5
10E
330
108
100
AcDbEntity
  8
LAYER_1
100
AcDbVertex
100
AcDb2dVertex
 10
34.91451548295063
 20
-70.98038263661205
 30
0.0
  0
VERTEX
  5
10F
330
108
100
AcDbEntity
  8
LAYER_1
100
AcDbVertex
100
AcDb2dVertex
 10
34.91451548295063
 20
-73.73060417679287
 30
0.0
  0
VERTEX
  5
110
330
108
100
AcDbEntity
  8
LAYER_1
100
AcDbVertex
100
AcDb2dVertex
 10
34.55484727701943
 20
-73.73060417679287
 30
0.0
  0
VERTEX
  5
111
330
108
100
AcDbEntity
  8
LAYER_1
100
AcDbVertex
100
AcDb2dVertex
 10
34.55484727701943
 20
-71.32730398083879
 30
0.0
  0
SEQEND
  5
112
330
108
100
AcDbEntity
  8
LAYER_1
  0
HATCH
  5
113
330
E3
100
AcDbEntity
  8
LAYER_1
 62
   250
100
AcDbHatch
 10
0.0
 20
0.0
 30
0.0
210
0.0
220
0.0
230
1.0
  2
SOLID
 70
     1
 71
     0
 91
        1
 92
        1
 93
        8
 72
     1
 10
34.55484727701943
 20
-71.32730398083879
 11
34.54640678751242
 21
-71.32730398083879
 72
     1
 10
34.54640678751242
 20
-71.32730398083879
 11
34.06822721870734
 21
-71.58568631268592
 72
     1
 10
34.06822721870734
 20
-71.58568631268592
 11
33.99622467556594
 21
-71.30181025742988
 72
     1
 10
33.99622467556594
 20
-71.30181025742988
 11
34.59704972455446
 21
-70.98038263661205
 72
     1
 10
34.59704972455446
 20
-70.98038263661205
 11
34.91451548295063
 21
-70.98038263661205
 72
     1
 10
34.91451548295063
 20
-70.98038263661205
 11
34.91451548295063
 21
-73.73060417679287
 72
     1
 10
34.91451548295063
 20
-73.73060417679287
 11
34.55484727701943
 21
-73.73060417679287
 72
     1
 10
34.55484727701943
 20
-73.73060417679287
 11
34.55484727701943
 21
-71.32730398083879
 97
        0
 75
     2
 76
     1
 98
        0
  0
ENDBLK
  5
E6
330
E3
100
AcDbEntity
  8
0
100
AcDbBlockEnd
  0
BLOCK
  5
116
330
114
100
AcDbEntity
  8
0
100
AcDbBlockBegin
  2
BLOCK_7
 70
     0
 71
     0
 10
0.0
 20
0.0
 30
0.0
  3
BLOCK_7
  1

  0
SPLINE
  5
118
330
114
100
AcDbEntity
  8
LAYER_1
100
AcDbSpline
210
0.0
220
0.0
230
1.0
 70
    11
 71
     3
 72
    17
 73
    13
 74
     0
 42
0.0000000001
 43
0.0000000001
 40
0.0
 40
0.0
 40
0.0
 40
0.0
 40
1.0
 40
1.0
 40
1.0
 40
2.0
 40
2.0
 40
2.0
 40
3.0
 40
3.0
 40
3.0
 40
4.0
 40
4.0
 40
4.0
 40
4.0
 10
88.26409357853005
 20
-72.27539488382986
 30
0.0
 10
88.26409357853005
 20
-73.25655872529734
 30
0.0
 10
87.66740264685109
 20
-73.77711299652536
 30
0.0
 10
86.93979800036958
 20
-73.77711299652536
 30
0.0
 10
86.18669963047915
 20
-73.77711299652536
 30
0.0
 10
85.65753261485624
 20
-73.19316892655085
 30
0.0
 10
85.65753261485624
 20
-72.33017193818145
 30
0.0
 10
85.65753261485624
 20
-71.42445573761331
 30
0.0
 10
86.22046158850718
 20
-70.8325879427955
 30
0.0
 10
86.98182819301671
 20
-70.8325879427955
 30
0.0
 10
87.76042028631605
 20
-70.8325879427955
 30
0.0
 10
88.26409357853005
 20
-71.42893436469866
 30
0.0
 10
88.26409357853005
 20
-72.27539488382986
 30
0.0
  0
SPLINE
  5
119
330
114
100
AcDbEntity
  8
LAYER_1
100
AcDbSpline
210
0.0
220
0.0
230
1.0
 70
    11
 71
     3
 72
    17
 73
    13
 74
     0
 42
0.0000000001
 43
0.0000000001
 40
0.0
 40
0.0
 40
0.0
 40
0.0
 40
1.0
 40
1.0
 40
1.0
 40
2.0
 40
2.0
 40
2.0
 40
3.0
 40
3.0
 40
3.0
 40
4.0
 40
4.0
 40
4.0
 40
4.0
 10
86.05096277881546
 20
-72.32155919378654
 30
0.0
 10
86.05096277881546
 20
-72.93099698716996
 30
0.0
 10
86.3810031440282
 20
-73.4767004720311
 30
0.0
 10
86.96081309669314
 20
-73.4767004720311
 30
0.0
 10
87.54475716666765
 20
-73.4767004720311
 30
0.0
 10
87.87479753188038
 20
-72.93960973156487
 30
0.0
 10
87.87479753188038
 20
-72.29193135306807
 30
0.0
 10
87.87479753188038
 20
-71.72486826210758
 30
0.0
 10
87.57851912469567
 20
-71.13300046728976
 30
0.0
 10
86.96494721400269
 20
-71.13300046728976
 30
0.0
 10
86.35550942061927
 20
-71.13300046728976
 30
0.0
 10
86.05096277881546
 20
-71.6952404213891
 30
0.0
 10
86.05096277881546
 20
-72.32155919378654
 30
0.0
  0
HATCH
  5
11A
330
114
100
AcDbEntity
  8
LAYER_1
 62
   250
100
AcDbHatch
 10
0.0
 20
0.0
 30
0.0
210
0.0
220
0.0
230
1.0
  2
SOLID
 70
     1
 71
     0
 91
        2
 92
        1
 93
        1
 72
     4
 94
        3
 73
     0
 74
     1
 95
       17
 96
       13
 40
0.0
 40
0.0
 40
0.0
 40
0.0
 40
1.0
 40
1.0
 40
1.0
 40
2.0
 40
2.0
 40
2.0
 40
3.0
 40
3.0
 40
3.0
 40
4.0
 40
4.0
 40
4.0
 40
4.0
 10
88.26409357853005
 20
-72.27539488382986
 10
88.26409357853005
 20
-73.25655872529734
 10
87.66740264685109
 20
-73.77711299652536
 10
86.93979800036958
 20
-73.77711299652536
 10
86.18669963047915
 20
-73.77711299652536
 10
85.65753261485624
 20
-73.19316892655085
 10
85.65753261485624
 20
-72.33017193818145
 10
85.65753261485624
 20
-71.42445573761331
 10
86.22046158850718
 20
-70.8325879427955
 10
86.98182819301671
 20
-70.8325879427955
 10
87.76042028631605
 20
-70.8325879427955
 10
88.26409357853005
 20
-71.42893436469866
 10
88.26409357853005
 20
-72.27539488382986
 97
        0
 92
        1
 93
        1
 72
     4
 94
        3
 73
     0
 74
     1
 95
       17
 96
       13
 40
0.0
 40
0.0
 40
0.0
 40
0.0
 40
1.0
 40
1.0
 40
1.0
 40
2.0
 40
2.0
 40
2.0
 40
3.0
 40
3.0
 40
3.0
 40
4.0
 40
4.0
 40
4.0
 40
4.0
 10
86.05096277881546
 20
-72.32155919378654
 10
86.05096277881546
 20
-72.93099698716996
 10
86.3810031440282
 20
-73.4767004720311
 10
86.96081309669314
 20
-73.4767004720311
 10
87.54475716666765
 20
-73.4767004720311
 10
87.87479753188038
 20
-72.93960973156487
 10
87.87479753188038
 20
-72.29193135306807
 10
87.87479753188038
 20
-71.72486826210758
 10
87.57851912469567
 20
-71.13300046728976
 10
86.96494721400269
 20
-71.13300046728976
 10
86.35550942061927
 20
-71.13300046728976
 10
86.05096277881546
 20
-71.6952404213891
 10
86.05096277881546
 20
-72.32155919378654
 97
        0
 75
     2
 76
     1
 98
        0
  0
SPLINE
  5
11B
330
114
100
AcDbEntity
  8
LAYER_1
100
AcDbSpline
210
0.0
220
0.0
230
1.0
 70
    11
 71
     3
 72
    32
 73
    28
 74
     0
 42
0.0000000001
 43
0.0000000001
 40
0.0
 40
0.0
 40
0.0
 40
0.0
 40
1.0
 40
1.0
 40
1.0
 40
2.0
 40
2.0
 40
2.0
 40
3.0
 40
3.0
 40
3.0
 40
4.0
 40
4.0
 40
4.0
 40
5.0
 40
5.0
 40
5.0
 40
6.0
 40
6.0
 40
6.0
 40
7.0
 40
7.0
 40
7.0
 40
8.0
 40
8.0
 40
8.0
 40
9.0
 40
9.0
 40
9.0
 40
9.0
 10
88.74365118643831
 20
-70.91251421078022
 30
0.0
 10
88.92141823074914
 20
-70.88288637006174
 30
0.0
 10
89.15396232941156
 20
-70.85773715642863
 30
0.0
 10
89.45024073659626
 20
-70.85773715642863
 30
0.0
 10
89.81404305983702
 20
-70.85773715642863
 30
0.0
 10
90.08069362630324
 20
-70.94214205149868
 30
0.0
 10
90.24984792621918
 20
-71.09475988217639
 30
0.0
 10
90.40625536443063
 20
-71.23015222406428
 30
0.0
 10
90.4992730038956
 20
-71.43754710909357
 30
0.0
 10
90.4992730038956
 20
-71.69110630407955
 30
0.0
 10
90.4992730038956
 20
-71.94948863592668
 30
0.0
 10
90.42348085322044
 20
-72.15240489387062
 30
0.0
 10
90.27947576693764
 20
-72.30054409746297
 30
0.0
 10
90.0848277436128
 20
-72.50759447271648
 30
0.0
 10
89.76753424010454
 20
-72.6137034836617
 30
0.0
 10
89.40786603417334
 20
-72.6137034836617
 30
0.0
 10
89.29762290591856
 20
-72.6137034836617
 30
0.0
 10
89.19633703183449
 20
-72.60956936635213
 30
0.0
 10
89.11158762698862
 20
-72.58820976025278
 30
0.0
 10
89.11158762698862
 20
-72.58820976025278
 30
0.0
 10
89.11158762698862
 20
-73.73060417679287
 30
0.0
 10
89.11158762698862
 20
-73.73060417679287
 30
0.0
 10
89.11158762698862
 20
-73.73060417679287
 30
0.0
 10
88.74365118643831
 20
-73.73060417679287
 30
0.0
 10
88.74365118643831
 20
-73.73060417679287
 30
0.0
 10
88.74365118643831
 20
-73.73060417679287
 30
0.0
 10
88.74365118643831
 20
-70.91251421078022
 30
0.0
 10
88.74365118643831
 20
-70.91251421078022
 30
0.0
  0
SPLINE
  5
11C
330
114
100
AcDbEntity
  8
LAYER_1
100
AcDbSpline
210
0.0
220
0.0
230
1.0
 70
    11
 71
     3
 72
    20
 73
    16
 74
     0
 42
0.0000000001
 43
0.0000000001
 40
0.0
 40
0.0
 40
0.0
 40
0.0
 40
1.0
 40
1.0
 40
1.0
 40
2.0
 40
2.0
 40
2.0
 40
3.0
 40
3.0
 40
3.0
 40
4.0
 40
4.0
 40
4.0
 40
5.0
 40
5.0
 40
5.0
 40
5.0
 10
89.11158762698862
 20
-72.28779723575852
 30
0.0
 10
89.19220291452493
 20
-72.30915684185788
 30
0.0
 10
89.293488788609
 20
-72.317425076477
 30
0.0
 10
89.41613426879243
 20
-72.317425076477
 30
0.0
 10
89.8605518795695
 20
-72.317425076477
 30
0.0
 10
90.13133656334529
 20
-72.10176195682858
 30
0.0
 10
90.13133656334529
 20
-71.70833179286936
 30
0.0
 10
90.13133656334529
 20
-71.33143809814835
 30
0.0
 10
89.86468599687905
 20
-71.14953693652798
 30
0.0
 10
89.45885348099117
 20
-71.14953693652798
 30
0.0
 10
89.29762290591856
 20
-71.14953693652798
 30
0.0
 10
89.17497742573512
 20
-71.16262830800822
 30
0.0
 10
89.11158762698862
 20
-71.17916477724644
 30
0.0
 10
89.11158762698862
 20
-71.17916477724644
 30
0.0
 10
89.11158762698862
 20
-72.28779723575852
 30
0.0
 10
89.11158762698862
 20
-72.28779723575852
 30
0.0
  0
HATCH
  5
11D
330
114
100
AcDbEntity
  8
LAYER_1
 62
   250
100
AcDbHatch
 10
0.0
 20
0.0
 30
0.0
210
0.0
220
0.0
230
1.0
  2
SOLID
 70
     1
 71
     0
 91
        2
 92
        1
 93
        1
 72
     4
 94
        3
 73
     0
 74
     1
 95
       32
 96
       28
 40
0.0
 40
0.0
 40
0.0
 40
0.0
 40
1.0
 40
1.0
 40
1.0
 40
2.0
 40
2.0
 40
2.0
 40
3.0
 40
3.0
 40
3.0
 40
4.0
 40
4.0
 40
4.0
 40
5.0
 40
5.0
 40
5.0
 40
6.0
 40
6.0
 40
6.0
 40
7.0
 40
7.0
 40
7.0
 40
8.0
 40
8.0
 40
8.0
 40
9.0
 40
9.0
 40
9.0
 40
9.0
 10
88.74365118643831
 20
-70.91251421078022
 10
88.92141823074914
 20
-70.88288637006174
 10
89.15396232941156
 20
-70.85773715642863
 10
89.45024073659626
 20
-70.85773715642863
 10
89.81404305983702
 20
-70.85773715642863
 10
90.08069362630324
 20
-70.94214205149868
 10
90.24984792621918
 20
-71.09475988217639
 10
90.40625536443063
 20
-71.23015222406428
 10
90.4992730038956
 20
-71.43754710909357
 10
90.4992730038956
 20
-71.69110630407955
 10
90.4992730038956
 20
-71.94948863592668
 10
90.42348085322044
 20
-72.15240489387062
 10
90.27947576693764
 20
-72.30054409746297
 10
90.0848277436128
 20
-72.50759447271648
 10
89.76753424010454
 20
-72.6137034836617
 10
89.40786603417334
 20
-72.6137034836617
 10
89.29762290591856
 20
-72.6137034836617
 10
89.19633703183449
 20
-72.60956936635213
 10
89.11158762698862
 20
-72.58820976025278
 10
89.11158762698862
 20
-72.58820976025278
 10
89.11158762698862
 20
-73.73060417679287
 10
89.11158762698862
 20
-73.73060417679287
 10
89.11158762698862
 20
-73.73060417679287
 10
88.74365118643831
 20
-73.73060417679287
 10
88.74365118643831
 20
-73.73060417679287
 10
88.74365118643831
 20
-73.73060417679287
 10
88.74365118643831
 20
-70.91251421078022
 10
88.74365118643831
 20
-70.91251421078022
 97
        0
 92
        1
 93
        1
 72
     4
 94
        3
 73
     0
 74
     1
 95
       20
 96
       16
 40
0.0
 40
0.0
 40
0.0
 40
0.0
 40
1.0
 40
1.0
 40
1.0
 40
2.0
 40
2.0
 40
2.0
 40
3.0
 40
3.0
 40
3.0
 40
4.0
 40
4.0
 40
4.0
 40
5.0
 40
5.0
 40
5.0
 40
5.0
 10
89.11158762698862
 20
-72.28779723575852
 10
89.19220291452493
 20
-72.30915684185788
 10
89.293488788609
 20
-72.317425076477
 10
89.41613426879243
 20
-72.317425076477
 10
89.8605518795695
 20
-72.317425076477
 10
90.13133656334529
 20
-72.10176195682858
 10
90.13133656334529
 20
-71.70833179286936
 10
90.13133656334529
 20
-71.33143809814835
 10
89.86468599687905
 20
-71.14953693652798
 10
89.45885348099117
 20
-71.14953693652798
 10
89.29762290591856
 20
-71.14953693652798
 10
89.17497742573512
 20
-71.16262830800822
 10
89.11158762698862
 20
-71.17916477724644
 10
89.11158762698862
 20
-71.17916477724644
 10
89.11158762698862
 20
-72.28779723575852
 10
89.11158762698862
 20
-72.28779723575852
 97
        0
 75
     2
 76
     1
 98
        0
  0
SPLINE
  5
11E
330
114
100
AcDbEntity
  8
LAYER_1
100
AcDbSpline
210
0.0
220
0.0
230
1.0
 70
    11
 71
     3
 72
    35
 73
    31
 74
     0
 42
0.0000000001
 43
0.0000000001
 40
0.0
 40
0.0
 40
0.0
 40
0.0
 40
1.0
 40
1.0
 40
1.0
 40
2.0
 40
2.0
 40
2.0
 40
3.0
 40
3.0
 40
3.0
 40
4.0
 40
4.0
 40
4.0
 40
5.0
 40
5.0
 40
5.0
 40
6.0
 40
6.0
 40
6.0
 40
7.0
 40
7.0
 40
7.0
 40
8.0
 40
8.0
 40
8.0
 40
9.0
 40
9.0
 40
9.0
 40
10.0
 40
10.0
 40
10.0
 40
10.0
 10
90.99571159081788
 20
-70.91699283786556
 30
0.0
 10
91.15659765611468
 20
-70.88288637006174
 30
0.0
 10
91.41015685110067
 20
-70.85773715642863
 30
0.0
 10
91.6685391829478
 20
-70.85773715642863
 30
0.0
 10
92.0364756234981
 20
-70.85773715642863
 30
0.0
 10
92.27349834924587
 20
-70.92147146495091
 30
0.0
 10
92.45126539355668
 20
-71.06513204145791
 30
0.0
 10
92.59940459714905
 20
-71.1750306599369
 30
0.0
 10
92.68828811930445
 20
-71.34452946962861
 30
0.0
 10
92.68828811930445
 20
-71.56846082389612
 30
0.0
 10
92.68828811930445
 20
-71.84337962498145
 30
0.0
 10
92.50638695768407
 20
-72.08453646803878
 30
0.0
 10
92.20597443318981
 20
-72.19477959629356
 30
0.0
 10
92.20597443318981
 20
-72.19477959629356
 30
0.0
 10
92.20597443318981
 20
-72.20304783091265
 30
0.0
 10
92.20597443318981
 20
-72.20304783091265
 30
0.0
 10
92.47675911696561
 20
-72.2709162567445
 30
0.0
 10
92.79370811069808
 20
-72.4951921207878
 30
0.0
 10
92.79370811069808
 20
-72.9182501254655
 30
0.0
 10
92.79370811069808
 20
-73.16354108583238
 30
0.0
 10
92.69655635392355
 20
-73.34957636476231
 30
0.0
 10
92.55255126764077
 20
-73.48944733373555
 30
0.0
 10
92.35376912700637
 20
-73.67134849535593
 30
0.0
 10
92.03234150618854
 20
-73.7560979002018
 30
0.0
 10
91.56690879908793
 20
-73.7560979002018
 30
0.0
 10
91.31300509432614
 20
-73.7560979002018
 30
0.0
 10
91.11835707100131
 20
-73.73887241141198
 30
0.0
 10
90.99571159081788
 20
-73.72233594217376
 30
0.0
 10
90.99571159081788
 20
-73.72233594217376
 30
0.0
 10
90.99571159081788
 20
-70.91699283786556
 30
0.0
 10
90.99571159081788
 20
-70.91699283786556
 30
0.0
  0
SPLINE
  5
11F
330
114
100
AcDbEntity
  8
LAYER_1
100
AcDbSpline
210
0.0
220
0.0
230
1.0
 70
    11
 71
     3
 72
    20
 73
    16
 74
     0
 42
0.0000000001
 43
0.0000000001
 40
0.0
 40
0.0
 40
0.0
 40
0.0
 40
1.0
 40
1.0
 40
1.0
 40
2.0
 40
2.0
 40
2.0
 40
3.0
 40
3.0
 40
3.0
 40
4.0
 40
4.0
 40
4.0
 40
5.0
 40
5.0
 40
5.0
 40
5.0
 10
91.36399254114397
 20
-72.08453646803878
 30
0.0
 10
91.36399254114397
 20
-72.08453646803878
 30
0.0
 10
91.69816702366626
 20
-72.08453646803878
 30
0.0
 10
91.69816702366626
 20
-72.08453646803878
 30
0.0
 10
92.08746307031593
 20
-72.08453646803878
 30
0.0
 10
92.315528541893
 20
-71.88162021009484
 30
0.0
 10
92.315528541893
 20
-71.60670140900949
 30
0.0
 10
92.315528541893
 20
-71.27218241671142
 30
0.0
 10
92.06196934690702
 20
-71.14126870190887
 30
0.0
 10
91.68955427927136
 20
-71.14126870190887
 30
0.0
 10
91.52039997935545
 20
-71.14126870190887
 30
0.0
 10
91.42324822258092
 20
-71.15367105383753
 30
0.0
 10
91.36399254114397
 20
-71.16676242531778
 30
0.0
 10
91.36399254114397
 20
-71.16676242531778
 30
0.0
 10
91.36399254114397
 20
-72.08453646803878
 30
0.0
 10
91.36399254114397
 20
-72.08453646803878
 30
0.0
  0
SPLINE
  5
120
330
114
100
AcDbEntity
  8
LAYER_1
100
AcDbSpline
210
0.0
220
0.0
230
1.0
 70
    11
 71
     3
 72
    20
 73
    16
 74
     0
 42
0.0000000001
 43
0.0000000001
 40
0.0
 40
0.0
 40
0.0
 40
0.0
 40
1.0
 40
1.0
 40
1.0
 40
2.0
 40
2.0
 40
2.0
 40
3.0
 40
3.0
 40
3.0
 40
4.0
 40
4.0
 40
4.0
 40
5.0
 40
5.0
 40
5.0
 40
5.0
 10
91.36399254114397
 20
-73.45155125839797
 30
0.0
 10
91.43565057450958
 20
-73.46395361032664
 30
0.0
 10
91.54141507567901
 20
-73.46808772763619
 30
0.0
 10
91.67267330025734
 20
-73.46808772763619
 30
0.0
 10
92.05335660251211
 20
-73.46808772763619
 30
0.0
 10
92.4044120640484
 20
-73.32890577821453
 30
0.0
 10
92.4044120640484
 20
-72.91411600815596
 30
0.0
 10
92.4044120640484
 20
-72.52481996150628
 30
0.0
 10
92.07023758152613
 20
-72.36393389620947
 30
0.0
 10
91.6685391829478
 20
-72.36393389620947
 30
0.0
 10
91.6685391829478
 20
-72.36393389620947
 30
0.0
 10
91.36399254114397
 20
-72.36393389620947
 30
0.0
 10
91.36399254114397
 20
-72.36393389620947
 30
0.0
 10
91.36399254114397
 20
-72.36393389620947
 30
0.0
 10
91.36399254114397
 20
-73.45155125839797
 30
0.0
 10
91.36399254114397
 20
-73.45155125839797
 30
0.0
  0
HATCH
  5
121
330
114
100
AcDbEntity
  8
LAYER_1
 62
   250
100
AcDbHatch
 10
0.0
 20
0.0
 30
0.0
210
0.0
220
0.0
230
1.0
  2
SOLID
 70
     1
 71
     0
 91
        3
 92
        1
 93
        1
 72
     4
 94
        3
 73
     0
 74
     1
 95
       35
 96
       31
 40
0.0
 40
0.0
 40
0.0
 40
0.0
 40
1.0
 40
1.0
 40
1.0
 40
2.0
 40
2.0
 40
2.0
 40
3.0
 40
3.0
 40
3.0
 40
4.0
 40
4.0
 40
4.0
 40
5.0
 40
5.0
 40
5.0
 40
6.0
 40
6.0
 40
6.0
 40
7.0
 40
7.0
 40
7.0
 40
8.0
 40
8.0
 40
8.0
 40
9.0
 40
9.0
 40
9.0
 40
10.0
 40
10.0
 40
10.0
 40
10.0
 10
90.99571159081788
 20
-70.91699283786556
 10
91.15659765611468
 20
-70.88288637006174
 10
91.41015685110067
 20
-70.85773715642863
 10
91.6685391829478
 20
-70.85773715642863
 10
92.0364756234981
 20
-70.85773715642863
 10
92.27349834924587
 20
-70.92147146495091
 10
92.45126539355668
 20
-71.06513204145791
 10
92.59940459714905
 20
-71.1750306599369
 10
92.68828811930445
 20
-71.34452946962861
 10
92.68828811930445
 20
-71.56846082389612
 10
92.68828811930445
 20
-71.84337962498145
 10
92.50638695768407
 20
-72.08453646803878
 10
92.20597443318981
 20
-72.19477959629356
 10
92.20597443318981
 20
-72.19477959629356
 10
92.20597443318981
 20
-72.20304783091265
 10
92.20597443318981
 20
-72.20304783091265
 10
92.47675911696561
 20
-72.2709162567445
 10
92.79370811069808
 20
-72.4951921207878
 10
92.79370811069808
 20
-72.9182501254655
 10
92.79370811069808
 20
-73.16354108583238
 10
92.69655635392355
 20
-73.34957636476231
 10
92.55255126764077
 20
-73.48944733373555
 10
92.35376912700637
 20
-73.67134849535593
 10
92.03234150618854
 20
-73.7560979002018
 10
91.56690879908793
 20
-73.7560979002018
 10
91.31300509432614
 20
-73.7560979002018
 10
91.11835707100131
 20
-73.73887241141198
 10
90.99571159081788
 20
-73.72233594217376
 10
90.99571159081788
 20
-73.72233594217376
 10
90.99571159081788
 20
-70.91699283786556
 10
90.99571159081788
 20
-70.91699283786556
 97
        0
 92
        1
 93
        1
 72
     4
 94
        3
 73
     0
 74
     1
 95
       20
 96
       16
 40
0.0
 40
0.0
 40
0.0
 40
0.0
 40
1.0
 40
1.0
 40
1.0
 40
2.0
 40
2.0
 40
2.0
 40
3.0
 40
3.0
 40
3.0
 40
4.0
 40
4.0
 40
4.0
 40
5.0
 40
5.0
 40
5.0
 40
5.0
 10
91.36399254114397
 20
-72.08453646803878
 10
91.36399254114397
 20
-72.08453646803878
 10
91.69816702366626
 20
-72.08453646803878
 10
91.69816702366626
 20
-72.08453646803878
 10
92.08746307031593
 20
-72.08453646803878
 10
92.315528541893
 20
-71.88162021009484
 10
92.315528541893
 20
-71.60670140900949
 10
92.315528541893
 20
-71.27218241671142
 10
92.06196934690702
 20
-71.14126870190887
 10
91.68955427927136
 20
-71.14126870190887
 10
91.52039997935545
 20
-71.14126870190887
 10
91.42324822258092
 20
-71.15367105383753
 10
91.36399254114397
 20
-71.16676242531778
 10
91.36399254114397
 20
-71.16676242531778
 10
91.36399254114397
 20
-72.08453646803878
 10
91.36399254114397
 20
-72.08453646803878
 97
        0
 92
        1
 93
        1
 72
     4
 94
        3
 73
     0
 74
     1
 95
       20
 96
       16
 40
0.0
 40
0.0
 40
0.0
 40
0.0
 40
1.0
 40
1.0
 40
1.0
 40
2.0
 40
2.0
 40
2.0
 40
3.0
 40
3.0
 40
3.0
 40
4.0
 40
4.0
 40
4.0
 40
5.0
 40
5.0
 40
5.0
 40
5.0
 10
91.36399254114397
 20
-73.45155125839797
 10
91.43565057450958
 20
-73.46395361032664
 10
91.54141507567901
 20
-73.46808772763619
 10
91.67267330025734
 20
-73.46808772763619
 10
92.05335660251211
 20
-73.46808772763619
 10
92.4044120640484
 20
-73.32890577821453
 10
92.4044120640484
 20
-72.91411600815596
 10
92.4044120640484
 20
-72.52481996150628
 10
92.07023758152613
 20
-72.36393389620947
 10
91.6685391829478
 20
-72.36393389620947
 10
91.6685391829478
 20
-72.36393389620947
 10
91.36399254114397
 20
-72.36393389620947
 10
91.36399254114397
 20
-72.36393389620947
 10
91.36399254114397
 20
-72.36393389620947
 10
91.36399254114397
 20
-73.45155125839797
 10
91.36399254114397
 20
-73.45155125839797
 97
        0
 75
     2
 76
     1
 98
        0
  0
SPLINE
  5
122
330
114
100
AcDbEntity
  8
LAYER_1
100
AcDbSpline
210
0.0
220
0.0
230
1.0
 70
    11
 71
     3
 72
    35
 73
    31
 74
     0
 42
0.0000000001
 43
0.0000000001
 40
0.0
 40
0.0
 40
0.0
 40
0.0
 40
1.0
 40
1.0
 40
1.0
 40
2.0
 40
2.0
 40
2.0
 40
3.0
 40
3.0
 40
3.0
 40
4.0
 40
4.0
 40
4.0
 40
5.0
 40
5.0
 40
5.0
 40
6.0
 40
6.0
 40
6.0
 40
7.0
 40
7.0
 40
7.0
 40
8.0
 40
8.0
 40
8.0
 40
9.0
 40
9.0
 40
9.0
 40
10.0
 40
10.0
 40
10.0
 40
10.0
 10
93.12512651501399
 20
-73.03262737102983
 30
0.0
 10
93.12512651501399
 20
-72.68536151702729
 30
0.0
 10
93.33252140004329
 20
-72.44007055666043
 30
0.0
 10
93.67082999987512
 20
-72.29606547037763
 30
0.0
 10
93.67082999987512
 20
-72.29606547037763
 30
0.0
 10
93.66669588256558
 20
-72.28366311844896
 30
0.0
 10
93.66669588256558
 20
-72.28366311844896
 30
0.0
 10
93.36214924076175
 20
-72.13965803216617
 30
0.0
 10
93.23089101618342
 20
-71.9026353064184
 30
0.0
 10
93.23089101618342
 20
-71.66561258067064
 30
0.0
 10
93.23089101618342
 20
-71.23015222406428
 30
0.0
 10
93.59917196650952
 20
-70.93387381687957
 30
0.0
 10
94.08148565262415
 20
-70.93387381687957
 30
0.0
 10
94.61444227578083
 20
-70.93387381687957
 30
0.0
 10
94.88074833247127
 20
-71.26804829940185
 30
0.0
 10
94.88074833247127
 20
-71.61083552631905
 30
0.0
 10
94.88074833247127
 20
-71.84337962498145
 30
0.0
 10
94.76671559668274
 20
-72.09314921243369
 30
0.0
 10
94.42806248707511
 20
-72.2540352777305
 30
0.0
 10
94.42806248707511
 20
-72.2540352777305
 30
0.0
 10
94.42806248707511
 20
-72.26643762965915
 30
0.0
 10
94.42806248707511
 20
-72.26643762965915
 30
0.0
 10
94.77119422376809
 20
-72.40217448132285
 30
0.0
 10
94.98272322610694
 20
-72.64333132438016
 30
0.0
 10
94.98272322610694
 20
-72.97750580690244
 30
0.0
 10
94.98272322610694
 20
-73.45568537570753
 30
0.0
 10
94.5720675733579
 20
-73.77711299652536
 30
0.0
 10
94.04737918482034
 20
-73.77711299652536
 30
0.0
 10
93.47204785924073
 20
-73.77711299652536
 30
0.0
 10
93.12512651501399
 20
-73.43432576960817
 30
0.0
 10
93.12512651501399
 20
-73.03262737102983
 30
0.0
  0
SPLINE
  5
123
330
114
100
AcDbEntity
  8
LAYER_1
100
AcDbSpline
210
0.0
220
0.0
230
1.0
 70
    11
 71
     3
 72
    17
 73
    13
 74
     0
 42
0.0000000001
 43
0.0000000001
 40
0.0
 40
0.0
 40
0.0
 40
0.0
 40
1.0
 40
1.0
 40
1.0
 40
2.0
 40
2.0
 40
2.0
 40
3.0
 40
3.0
 40
3.0
 40
4.0
 40
4.0
 40
4.0
 40
4.0
 10
94.60582953138592
 20
-73.01540188224003
 30
0.0
 10
94.60582953138592
 20
-72.68122739971774
 30
0.0
 10
94.3732854327235
 20
-72.52068584419672
 30
0.0
 10
94.00087036508785
 20
-72.4145768332515
 30
0.0
 10
93.67944274427003
 20
-72.50759447271648
 30
0.0
 10
93.50580981726876
 20
-72.71946798483111
 30
0.0
 10
93.50580981726876
 20
-72.981639924212
 30
0.0
 10
93.4930629555643
 20
-73.2610373523827
 30
0.0
 10
93.70459195790315
 20
-73.50632831274956
 30
0.0
 10
94.05599192921524
 20
-73.50632831274956
 30
0.0
 10
94.39016641173752
 20
-73.50632831274956
 30
0.0
 10
94.60582953138592
 20
-73.29927793749607
 30
0.0
 10
94.60582953138592
 20
-73.01540188224003
 30
0.0
  0
SPLINE
  5
124
330
114
100
AcDbEntity
  8
LAYER_1
100
AcDbSpline
210
0.0
220
0.0
230
1.0
 70
    11
 71
     3
 72
    17
 73
    13
 74
     0
 42
0.0000000001
 43
0.0000000001
 40
0.0
 40
0.0
 40
0.0
 40
0.0
 40
1.0
 40
1.0
 40
1.0
 40
2.0
 40
2.0
 40
2.0
 40
3.0
 40
3.0
 40
3.0
 40
4.0
 40
4.0
 40
4.0
 40
4.0
 10
93.58194647771971
 20
-71.64046336703751
 30
0.0
 10
93.58194647771971
 20
-71.91572667789866
 30
0.0
 10
93.78934136274901
 20
-72.06352137171521
 30
0.0
 10
94.10663486625728
 20
-72.14827077656106
 30
0.0
 10
94.34365759200504
 20
-72.06799999880056
 30
0.0
 10
94.52555875362542
 20
-71.89850118910884
 30
0.0
 10
94.52555875362542
 20
-71.64907611143242
 30
0.0
 10
94.52555875362542
 20
-71.42893436469866
 30
0.0
 10
94.39430052904709
 20
-71.20052438334581
 30
0.0
 10
94.0601260465248
 20
-71.20052438334581
 30
0.0
 10
93.75144528741143
 20
-71.20052438334581
 30
0.0
 10
93.58194647771971
 20
-71.40378515106555
 30
0.0
 10
93.58194647771971
 20
-71.64046336703751
 30
0.0
  0
HATCH
  5
125
330
114
100
AcDbEntity
  8
LAYER_1
 62
   250
100
AcDbHatch
 10
0.0
 20
0.0
 30
0.0
210
0.0
220
0.0
230
1.0
  2
SOLID
 70
     1
 71
     0
 91
        3
 92
        1
 93
        1
 72
     4
 94
        3
 73
     0
 74
     1
 95
       35
 96
       31
 40
0.0
 40
0.0
 40
0.0
 40
0.0
 40
1.0
 40
1.0
 40
1.0
 40
2.0
 40
2.0
 40
2.0
 40
3.0
 40
3.0
 40
3.0
 40
4.0
 40
4.0
 40
4.0
 40
5.0
 40
5.0
 40
5.0
 40
6.0
 40
6.0
 40
6.0
 40
7.0
 40
7.0
 40
7.0
 40
8.0
 40
8.0
 40
8.0
 40
9.0
 40
9.0
 40
9.0
 40
10.0
 40
10.0
 40
10.0
 40
10.0
 10
93.12512651501399
 20
-73.03262737102983
 10
93.12512651501399
 20
-72.68536151702729
 10
93.33252140004329
 20
-72.44007055666043
 10
93.67082999987512
 20
-72.29606547037763
 10
93.67082999987512
 20
-72.29606547037763
 10
93.66669588256558
 20
-72.28366311844896
 10
93.66669588256558
 20
-72.28366311844896
 10
93.36214924076175
 20
-72.13965803216617
 10
93.23089101618342
 20
-71.9026353064184
 10
93.23089101618342
 20
-71.66561258067064
 10
93.23089101618342
 20
-71.23015222406428
 10
93.59917196650952
 20
-70.93387381687957
 10
94.08148565262415
 20
-70.93387381687957
 10
94.61444227578083
 20
-70.93387381687957
 10
94.88074833247127
 20
-71.26804829940185
 10
94.88074833247127
 20
-71.61083552631905
 10
94.88074833247127
 20
-71.84337962498145
 10
94.76671559668274
 20
-72.09314921243369
 10
94.42806248707511
 20
-72.2540352777305
 10
94.42806248707511
 20
-72.2540352777305
 10
94.42806248707511
 20
-72.26643762965915
 10
94.42806248707511
 20
-72.26643762965915
 10
94.77119422376809
 20
-72.40217448132285
 10
94.98272322610694
 20
-72.64333132438016
 10
94.98272322610694
 20
-72.97750580690244
 10
94.98272322610694
 20
-73.45568537570753
 10
94.5720675733579
 20
-73.77711299652536
 10
94.04737918482034
 20
-73.77711299652536
 10
93.47204785924073
 20
-73.77711299652536
 10
93.12512651501399
 20
-73.43432576960817
 10
93.12512651501399
 20
-73.03262737102983
 97
        0
 92
        1
 93
        1
 72
     4
 94
        3
 73
     0
 74
     1
 95
       17
 96
       13
 40
0.0
 40
0.0
 40
0.0
 40
0.0
 40
1.0
 40
1.0
 40
1.0
 40
2.0
 40
2.0
 40
2.0
 40
3.0
 40
3.0
 40
3.0
 40
4.0
 40
4.0
 40
4.0
 40
4.0
 10
94.60582953138592
 20
-73.01540188224003
 10
94.60582953138592
 20
-72.68122739971774
 10
94.3732854327235
 20
-72.52068584419672
 10
94.00087036508785
 20
-72.4145768332515
 10
93.67944274427003
 20
-72.50759447271648
 10
93.50580981726876
 20
-72.71946798483111
 10
93.50580981726876
 20
-72.981639924212
 10
93.4930629555643
 20
-73.2610373523827
 10
93.70459195790315
 20
-73.50632831274956
 10
94.05599192921524
 20
-73.50632831274956
 10
94.39016641173752
 20
-73.50632831274956
 10
94.60582953138592
 20
-73.29927793749607
 10
94.60582953138592
 20
-73.01540188224003
 97
        0
 92
        1
 93
        1
 72
     4
 94
        3
 73
     0
 74
     1
 95
       17
 96
       13
 40
0.0
 40
0.0
 40
0.0
 40
0.0
 40
1.0
 40
1.0
 40
1.0
 40
2.0
 40
2.0
 40
2.0
 40
3.0
 40
3.0
 40
3.0
 40
4.0
 40
4.0
 40
4.0
 40
4.0
 10
93.58194647771971
 20
-71.64046336703751
 10
93.58194647771971
 20
-71.91572667789866
 10
93.78934136274901
 20
-72.06352137171521
 10
94.10663486625728
 20
-72.14827077656106
 10
94.34365759200504
 20
-72.06799999880056
 10
94.52555875362542
 20
-71.89850118910884
 10
94.52555875362542
 20
-71.64907611143242
 10
94.52555875362542
 20
-71.42893436469866
 10
94.39430052904709
 20
-71.20052438334581
 10
94.0601260465248
 20
-71.20052438334581
 10
93.75144528741143
 20
-71.20052438334581
 10
93.58194647771971
 20
-71.40378515106555
 10
93.58194647771971
 20
-71.64046336703751
 97
        0
 75
     2
 76
     1
 98
        0
  0
SPLINE
  5
126
330
114
100
AcDbEntity
  8
LAYER_1
100
AcDbSpline
210
0.0
220
0.0
230
1.0
 70
    11
 71
     3
 72
    38
 73
    34
 74
     0
 42
0.0000000001
 43
0.0000000001
 40
0.0
 40
0.0
 40
0.0
 40
0.0
 40
1.0
 40
1.0
 40
1.0
 40
2.0
 40
2.0
 40
2.0
 40
3.0
 40
3.0
 40
3.0
 40
4.0
 40
4.0
 40
4.0
 40
5.0
 40
5.0
 40
5.0
 40
6.0
 40
6.0
 40
6.0
 40
7.0
 40
7.0
 40
7.0
 40
8.0
 40
8.0
 40
8.0
 40
9.0
 40
9.0
 40
9.0
 40
10.0
 40
10.0
 40
10.0
 40
11.0
 40
11.0
 40
11.0
 40
11.0
 10
96.90026463818842
 20
-71.24255457599294
 30
0.0
 10
96.82412797773746
 20
-71.2384204586834
 30
0.0
 10
96.72663171118714
 20
-71.24255457599294
 30
0.0
 10
96.62121171979352
 20
-71.25978006478275
 30
0.0
 10
96.03692314004321
 20
-71.35693182155727
 30
0.0
 10
95.72824238092984
 20
-71.78412394354451
 30
0.0
 10
95.66485258218334
 20
-72.23680978894069
 30
0.0
 10
95.66485258218334
 20
-72.23680978894069
 30
0.0
 10
95.67725493411201
 20
-72.23680978894069
 30
0.0
 10
95.67725493411201
 20
-72.23680978894069
 30
0.0
 10
95.80885766846615
 20
-72.06352137171521
 30
0.0
 10
96.03692314004321
 20
-71.91986079520821
 30
0.0
 10
96.34181429162282
 20
-71.91986079520821
 30
0.0
 10
96.82826209504701
 20
-71.91986079520821
 30
0.0
 10
97.1710493219642
 20
-72.2709162567445
 30
0.0
 10
97.1710493219642
 20
-72.80800699721073
 30
0.0
 10
97.1710493219642
 20
-73.31168028942473
 30
0.0
 10
96.82826209504701
 20
-73.77711299652536
 30
0.0
 10
96.25706488677696
 20
-73.77711299652536
 30
0.0
 10
95.6689866994929
 20
-73.77711299652536
 30
0.0
 10
95.28382477015279
 20
-73.31994852404384
 30
0.0
 10
95.28382477015279
 20
-72.60509073926679
 30
0.0
 10
95.28382477015279
 20
-72.06352137171521
 30
0.0
 10
95.47881730325342
 20
-71.63632924972796
 30
0.0
 10
95.74960198702921
 20
-71.36554456595218
 30
0.0
 10
95.97766745860628
 20
-71.14126870190887
 30
0.0
 10
96.28255861018589
 20
-71.00139773293563
 30
0.0
 10
96.62947995441262
 20
-70.95936754028848
 30
0.0
 10
96.7397230826674
 20
-70.94214205149868
 30
0.0
 10
96.83274072213236
 20
-70.93800793418913
 30
0.0
 10
96.90026463818842
 20
-70.93800793418913
 30
0.0
 10
96.90026463818842
 20
-70.93800793418913
 30
0.0
 10
96.90026463818842
 20
-71.24255457599294
 30
0.0
 10
96.90026463818842
 20
-71.24255457599294
 30
0.0
  0
SPLINE
  5
127
330
114
100
AcDbEntity
  8
LAYER_1
100
AcDbSpline
210
0.0
220
0.0
230
1.0
 70
    11
 71
     3
 72
    20
 73
    16
 74
     0
 42
0.0000000001
 43
0.0000000001
 40
0.0
 40
0.0
 40
0.0
 40
0.0
 40
1.0
 40
1.0
 40
1.0
 40
2.0
 40
2.0
 40
2.0
 40
3.0
 40
3.0
 40
3.0
 40
4.0
 40
4.0
 40
4.0
 40
5.0
 40
5.0
 40
5.0
 40
5.0
 10
96.79450013701899
 20
-72.82936660331009
 30
0.0
 10
96.79450013701899
 20
-72.43593643935087
 30
0.0
 10
96.57022427297568
 20
-72.1989137136031
 30
0.0
 10
96.22778155583428
 20
-72.1989137136031
 30
0.0
 10
96.00316118201519
 20
-72.1989137136031
 30
0.0
 10
95.79576629698589
 20
-72.33878468257635
 30
0.0
 10
95.69448042290182
 20
-72.53722231343494
 30
0.0
 10
95.6689866994929
 20
-72.57994152563367
 30
0.0
 10
95.65210572047889
 20
-72.63471857998526
 30
0.0
 10
95.65210572047889
 20
-72.70258700581711
 30
0.0
 10
95.6607184648738
 20
-73.15527285121327
 30
0.0
 10
95.86811334990308
 20
-73.48944733373555
 30
0.0
 10
96.25706488677696
 20
-73.48944733373555
 30
0.0
 10
96.57849250759479
 20
-73.48944733373555
 30
0.0
 10
96.79450013701899
 20
-73.22279676726932
 30
0.0
 10
96.79450013701899
 20
-72.82936660331009
 30
0.0
  0
HATCH
  5
128
330
114
100
AcDbEntity
  8
LAYER_1
 62
   250
100
AcDbHatch
 10
0.0
 20
0.0
 30
0.0
210
0.0
220
0.0
230
1.0
  2
SOLID
 70
     1
 71
     0
 91
        2
 92
        1
 93
        1
 72
     4
 94
        3
 73
     0
 74
     1
 95
       38
 96
       34
 40
0.0
 40
0.0
 40
0.0
 40
0.0
 40
1.0
 40
1.0
 40
1.0
 40
2.0
 40
2.0
 40
2.0
 40
3.0
 40
3.0
 40
3.0
 40
4.0
 40
4.0
 40
4.0
 40
5.0
 40
5.0
 40
5.0
 40
6.0
 40
6.0
 40
6.0
 40
7.0
 40
7.0
 40
7.0
 40
8.0
 40
8.0
 40
8.0
 40
9.0
 40
9.0
 40
9.0
 40
10.0
 40
10.0
 40
10.0
 40
11.0
 40
11.0
 40
11.0
 40
11.0
 10
96.90026463818842
 20
-71.24255457599294
 10
96.82412797773746
 20
-71.2384204586834
 10
96.72663171118714
 20
-71.24255457599294
 10
96.62121171979352
 20
-71.25978006478275
 10
96.03692314004321
 20
-71.35693182155727
 10
95.72824238092984
 20
-71.78412394354451
 10
95.66485258218334
 20
-72.23680978894069
 10
95.66485258218334
 20
-72.23680978894069
 10
95.67725493411201
 20
-72.23680978894069
 10
95.67725493411201
 20
-72.23680978894069
 10
95.80885766846615
 20
-72.06352137171521
 10
96.03692314004321
 20
-71.91986079520821
 10
96.34181429162282
 20
-71.91986079520821
 10
96.82826209504701
 20
-71.91986079520821
 10
97.1710493219642
 20
-72.2709162567445
 10
97.1710493219642
 20
-72.80800699721073
 10
97.1710493219642
 20
-73.31168028942473
 10
96.82826209504701
 20
-73.77711299652536
 10
96.25706488677696
 20
-73.77711299652536
 10
95.6689866994929
 20
-73.77711299652536
 10
95.28382477015279
 20
-73.31994852404384
 10
95.28382477015279
 20
-72.60509073926679
 10
95.28382477015279
 20
-72.06352137171521
 10
95.47881730325342
 20
-71.63632924972796
 10
95.74960198702921
 20
-71.36554456595218
 10
95.97766745860628
 20
-71.14126870190887
 10
96.28255861018589
 20
-71.00139773293563
 10
96.62947995441262
 20
-70.95936754028848
 10
96.7397230826674
 20
-70.94214205149868
 10
96.83274072213236
 20
-70.93800793418913
 10
96.90026463818842
 20
-70.93800793418913
 10
96.90026463818842
 20
-70.93800793418913
 10
96.90026463818842
 20
-71.24255457599294
 10
96.90026463818842
 20
-71.24255457599294
 97
        0
 92
        1
 93
        1
 72
     4
 94
        3
 73
     0
 74
     1
 95
       20
 96
       16
 40
0.0
 40
0.0
 40
0.0
 40
0.0
 40
1.0
 40
1.0
 40
1.0
 40
2.0
 40
2.0
 40
2.0
 40
3.0
 40
3.0
 40
3.0
 40
4.0
 40
4.0
 40
4.0
 40
5.0
 40
5.0
 40
5.0
 40
5.0
 10
96.79450013701899
 20
-72.82936660331009
 10
96.79450013701899
 20
-72.43593643935087
 10
96.57022427297568
 20
-72.1989137136031
 10
96.22778155583428
 20
-72.1989137136031
 10
96.00316118201519
 20
-72.1989137136031
 10
95.79576629698589
 20
-72.33878468257635
 10
95.69448042290182
 20
-72.53722231343494
 10
95.6689866994929
 20
-72.57994152563367
 10
95.65210572047889
 20
-72.63471857998526
 10
95.65210572047889
 20
-72.70258700581711
 10
95.6607184648738
 20
-73.15527285121327
 10
95.86811334990308
 20
-73.48944733373555
 10
96.25706488677696
 20
-73.48944733373555
 10
96.57849250759479
 20
-73.48944733373555
 10
96.79450013701899
 20
-73.22279676726932
 10
96.79450013701899
 20
-72.82936660331009
 97
        0
 75
     2
 76
     1
 98
        0
  0
SPLINE
  5
129
330
114
100
AcDbEntity
  8
LAYER_1
100
AcDbSpline
210
0.0
220
0.0
230
1.0
 70
    11
 71
     3
 72
    47
 73
    43
 74
     0
 42
0.0000000001
 43
0.0000000001
 40
0.0
 40
0.0
 40
0.0
 40
0.0
 40
1.0
 40
1.0
 40
1.0
 40
2.0
 40
2.0
 40
2.0
 40
3.0
 40
3.0
 40
3.0
 40
4.0
 40
4.0
 40
4.0
 40
5.0
 40
5.0
 40
5.0
 40
6.0
 40
6.0
 40
6.0
 40
7.0
 40
7.0
 40
7.0
 40
8.0
 40
8.0
 40
8.0
 40
9.0
 40
9.0
 40
9.0
 40
10.0
 40
10.0
 40
10.0
 40
11.0
 40
11.0
 40
11.0
 40
12.0
 40
12.0
 40
12.0
 40
13.0
 40
13.0
 40
13.0
 40
14.0
 40
14.0
 40
14.0
 40
14.0
 10
97.50212321650432
 20
-73.73060417679287
 30
0.0
 10
97.50212321650432
 20
-73.73060417679287
 30
0.0
 10
97.50212321650432
 20
-73.50219419544001
 30
0.0
 10
97.50212321650432
 20
-73.50219419544001
 30
0.0
 10
97.50212321650432
 20
-73.50219419544001
 30
0.0
 10
97.79392299660367
 20
-73.21866264995977
 30
0.0
 10
97.79392299660367
 20
-73.21866264995977
 30
0.0
 10
98.49637842945207
 20
-72.5503136849152
 30
0.0
 10
98.81367193296033
 20
-72.19477959629356
 30
0.0
 10
98.8178060502699
 20
-71.77998982623497
 30
0.0
 10
98.8178060502699
 20
-71.50093690784007
 30
0.0
 10
98.68275821815779
 20
-71.24255457599294
 30
0.0
 10
98.27210256540876
 20
-71.24255457599294
 30
0.0
 10
98.02267748773232
 20
-71.24255457599294
 30
0.0
 10
97.81528260270304
 20
-71.36967868326172
 30
0.0
 10
97.68850300521005
 20
-71.47544318443116
 30
0.0
 10
97.68850300521005
 20
-71.47544318443116
 30
0.0
 10
97.56999164233616
 20
-71.21292673527446
 30
0.0
 10
97.56999164233616
 20
-71.21292673527446
 30
0.0
 10
97.76016103857565
 20
-71.05238517975346
 30
0.0
 10
98.03094572235143
 20
-70.93387381687957
 30
0.0
 10
98.3485837356355
 20
-70.93387381687957
 30
0.0
 10
98.94079604022912
 20
-70.93387381687957
 30
0.0
 10
99.19056562768134
 20
-71.34005084254326
 30
0.0
 10
99.19056562768134
 20
-71.73382551627827
 30
0.0
 10
99.19056562768134
 20
-72.24128841602604
 30
0.0
 10
98.82228467735524
 20
-72.65159955899927
 30
0.0
 10
98.24247472469028
 20
-73.21039441534066
 30
0.0
 10
98.24247472469028
 20
-73.21039441534066
 30
0.0
 10
98.02267748773232
 20
-73.4133106732846
 30
0.0
 10
98.02267748773232
 20
-73.4133106732846
 30
0.0
 10
98.02267748773232
 20
-73.4133106732846
 30
0.0
 10
98.02267748773232
 20
-73.42192341767951
 30
0.0
 10
98.02267748773232
 20
-73.42192341767951
 30
0.0
 10
98.02267748773232
 20
-73.42192341767951
 30
0.0
 10
99.2580895437374
 20
-73.42192341767951
 30
0.0
 10
99.2580895437374
 20
-73.42192341767951
 30
0.0
 10
99.2580895437374
 20
-73.42192341767951
 30
0.0
 10
99.2580895437374
 20
-73.73060417679287
 30
0.0
 10
99.2580895437374
 20
-73.73060417679287
 30
0.0
 10
99.2580895437374
 20
-73.73060417679287
 30
0.0
 10
97.50212321650432
 20
-73.73060417679287
 30
0.0
 10
97.50212321650432
 20
-73.73060417679287
 30
0.0
  0
HATCH
  5
12A
330
114
100
AcDbEntity
  8
LAYER_1
 62
   250
100
AcDbHatch
 10
0.0
 20
0.0
 30
0.0
210
0.0
220
0.0
230
1.0
  2
SOLID
 70
     1
 71
     0
 91
        1
 92
        1
 93
        1
 72
     4
 94
        3
 73
     0
 74
     1
 95
       47
 96
       43
 40
0.0
 40
0.0
 40
0.0
 40
0.0
 40
1.0
 40
1.0
 40
1.0
 40
2.0
 40
2.0
 40
2.0
 40
3.0
 40
3.0
 40
3.0
 40
4.0
 40
4.0
 40
4.0
 40
5.0
 40
5.0
 40
5.0
 40
6.0
 40
6.0
 40
6.0
 40
7.0
 40
7.0
 40
7.0
 40
8.0
 40
8.0
 40
8.0
 40
9.0
 40
9.0
 40
9.0
 40
10.0
 40
10.0
 40
10.0
 40
11.0
 40
11.0
 40
11.0
 40
12.0
 40
12.0
 40
12.0
 40
13.0
 40
13.0
 40
13.0
 40
14.0
 40
14.0
 40
14.0
 40
14.0
 10
97.50212321650432
 20
-73.73060417679287
 10
97.50212321650432
 20
-73.73060417679287
 10
97.50212321650432
 20
-73.50219419544001
 10
97.50212321650432
 20
-73.50219419544001
 10
97.50212321650432
 20
-73.50219419544001
 10
97.79392299660367
 20
-73.21866264995977
 10
97.79392299660367
 20
-73.21866264995977
 10
98.49637842945207
 20
-72.5503136849152
 10
98.81367193296033
 20
-72.19477959629356
 10
98.8178060502699
 20
-71.77998982623497
 10
98.8178060502699
 20
-71.50093690784007
 10
98.68275821815779
 20
-71.24255457599294
 10
98.27210256540876
 20
-71.24255457599294
 10
98.02267748773232
 20
-71.24255457599294
 10
97.81528260270304
 20
-71.36967868326172
 10
97.68850300521005
 20
-71.47544318443116
 10
97.68850300521005
 20
-71.47544318443116
 10
97.56999164233616
 20
-71.21292673527446
 10
97.56999164233616
 20
-71.21292673527446
 10
97.76016103857565
 20
-71.05238517975346
 10
98.03094572235143
 20
-70.93387381687957
 10
98.3485837356355
 20
-70.93387381687957
 10
98.94079604022912
 20
-70.93387381687957
 10
99.19056562768134
 20
-71.34005084254326
 10
99.19056562768134
 20
-71.73382551627827
 10
99.19056562768134
 20
-72.24128841602604
 10
98.82228467735524
 20
-72.65159955899927
 10
98.24247472469028
 20
-73.21039441534066
 10
98.24247472469028
 20
-73.21039441534066
 10
98.02267748773232
 20
-73.4133106732846
 10
98.02267748773232
 20
-73.4133106732846
 10
98.02267748773232
 20
-73.4133106732846
 10
98.02267748773232
 20
-73.42192341767951
 10
98.02267748773232
 20
-73.42192341767951
 10
98.02267748773232
 20
-73.42192341767951
 10
99.2580895437374
 20
-73.42192341767951
 10
99.2580895437374
 20
-73.42192341767951
 10
99.2580895437374
 20
-73.42192341767951
 10
99.2580895437374
 20
-73.73060417679287
 10
99.2580895437374
 20
-73.73060417679287
 10
99.2580895437374
 20
-73.73060417679287
 10
97.50212321650432
 20
-73.73060417679287
 10
97.50212321650432
 20
-73.73060417679287
 97
        0
 75
     2
 76
     1
 98
        0
  0
POLYLINE
  5
12B
330
114
100
AcDbEntity
  8
LAYER_1
100
AcDb2dPolyline
 66
     1
 10
0.0
 20
0.0
 30
0.0
  0
VERTEX
  5
12C
330
12B
100
AcDbEntity
  8
LAYER_1
100
AcDbVertex
100
AcDb2dVertex
 10
100.3467404352533
 20
-71.1922561487267
 30
0.0
  0
VERTEX
  5
12D
330
12B
100
AcDbEntity
  8
LAYER_1
100
AcDbVertex
100
AcDb2dVertex
 10
99.47926481979853
 20
-71.1922561487267
 30
0.0
  0
VERTEX
  5
12E
330
12B
100
AcDbEntity
  8
LAYER_1
100
AcDbVertex
100
AcDb2dVertex
 10
99.47926481979853
 20
-70.8787522527522
 30
0.0
  0
VERTEX
  5
12F
330
12B
100
AcDbEntity
  8
LAYER_1
100
AcDbVertex
100
AcDb2dVertex
 10
101.5904207258775
 20
-70.8787522527522
 30
0.0
  0
VERTEX
  5
130
330
12B
100
AcDbEntity
  8
LAYER_1
100
AcDbVertex
100
AcDb2dVertex
 10
101.5904207258775
 20
-71.1922561487267
 30
0.0
  0
VERTEX
  5
131
330
12B
100
AcDbEntity
  8
LAYER_1
100
AcDbVertex
100
AcDb2dVertex
 10
100.7188109931132
 20
-71.1922561487267
 30
0.0
  0
VERTEX
  5
132
330
12B
100
AcDbEntity
  8
LAYER_1
100
AcDbVertex
100
AcDb2dVertex
 10
100.7188109931132
 20
-73.73060417679287
 30
0.0
  0
VERTEX
  5
133
330
12B
100
AcDbEntity
  8
LAYER_1
100
AcDbVertex
100
AcDb2dVertex
 10
100.3467404352533
 20
-73.73060417679287
 30
0.0
  0
VERTEX
  5
134
330
12B
100
AcDbEntity
  8
LAYER_1
100
AcDbVertex
100
AcDb2dVertex
 10
100.3467404352533
 20
-71.1922561487267
 30
0.0
  0
SEQEND
  5
135
330
12B
100
AcDbEntity
  8
LAYER_1
  0
HATCH
  5
136
330
114
100
AcDbEntity
  8
LAYER_1
 62
   250
100
AcDbHatch
 10
0.0
 20
0.0
 30
0.0
210
0.0
220
0.0
230
1.0
  2
SOLID
 70
     1
 71
     0
 91
        1
 92
        1
 93
        8
 72
     1
 10
100.3467404352533
 20
-71.1922561487267
 11
99.47926481979853
 21
-71.1922561487267
 72
     1
 10
99.47926481979853
 20
-71.1922561487267
 11
99.47926481979853
 21
-70.8787522527522
 72
     1
 10
99.47926481979853
 20
-70.8787522527522
 11
101.5904207258775
 21
-70.8787522527522
 72
     1
 10
101.5904207258775
 20
-70.8787522527522
 11
101.5904207258775
 21
-71.1922561487267
 72
     1
 10
101.5904207258775
 20
-71.1922561487267
 11
100.7188109931132
 21
-71.1922561487267
 72
     1
 10
100.7188109931132
 20
-71.1922561487267
 11
100.7188109931132
 21
-73.73060417679287
 72
     1
 10
100.7188109931132
 20
-73.73060417679287
 11
100.3467404352533
 21
-73.73060417679287
 72
     1
 10
100.3467404352533
 20
-73.73060417679287
 11
100.3467404352533
 21
-71.1922561487267
 97
        0
 75
     2
 76
     1
 98
        0
  0
SPLINE
  5
137
330
114
100
AcDbEntity
  8
LAYER_1
100
AcDbSpline
210
0.0
220
0.0
230
1.0
 70
    11
 71
     3
 72
    50
 73
    46
 74
     0
 42
0.0000000001
 43
0.0000000001
 40
0.0
 40
0.0
 40
0.0
 40
0.0
 40
1.0
 40
1.0
 40
1.0
 40
2.0
 40
2.0
 40
2.0
 40
3.0
 40
3.0
 40
3.0
 40
4.0
 40
4.0
 40
4.0
 40
5.0
 40
5.0
 40
5.0
 40
6.0
 40
6.0
 40
6.0
 40
7.0
 40
7.0
 40
7.0
 40
8.0
 40
8.0
 40
8.0
 40
9.0
 40
9.0
 40
9.0
 40
10.0
 40
10.0
 40
10.0
 40
11.0
 40
11.0
 40
11.0
 40
12.0
 40
12.0
 40
12.0
 40
13.0
 40
13.0
 40
13.0
 40
14.0
 40
14.0
 40
14.0
 40
15.0
 40
15.0
 40
15.0
 40
15.0
 10
103.4197676353551
 20
-71.29354202281077
 30
0.0
 10
103.4197676353551
 20
-71.29354202281077
 30
0.0
 10
102.37039085828
 20
-71.29354202281077
 30
0.0
 10
102.37039085828
 20
-71.29354202281077
 30
0.0
 10
102.37039085828
 20
-71.29354202281077
 30
0.0
 10
102.2642818473348
 20
-72.00013157296871
 30
0.0
 10
102.2642818473348
 20
-72.00013157296871
 30
0.0
 10
102.3276716460813
 20
-71.99151882857382
 30
0.0
 10
102.3869273275182
 20
-71.98325059395471
 30
0.0
 10
102.4889022211539
 20
-71.98325059395471
 30
0.0
 10
102.7004312234927
 20
-71.98325059395471
 30
0.0
 10
102.9119602258316
 20
-72.02975941368719
 30
0.0
 10
103.0811145257475
 20
-72.13138979754706
 30
0.0
 10
103.2967776453959
 20
-72.2540352777305
 30
0.0
 10
103.4745446897067
 20
-72.49105800347826
 30
0.0
 10
103.4745446897067
 20
-72.8376348379292
 30
0.0
 10
103.4745446897067
 20
-73.37507008817123
 30
0.0
 10
103.0470080579437
 20
-73.77711299652536
 30
0.0
 10
102.4506616360405
 20
-73.77711299652536
 30
0.0
 10
102.1502491115462
 20
-73.77711299652536
 30
0.0
 10
101.8963454067844
 20
-73.6927081014553
 30
0.0
 10
101.7654316919819
 20
-73.60795869660943
 30
0.0
 10
101.7654316919819
 20
-73.60795869660943
 30
0.0
 10
101.8584493314469
 20
-73.32442715112919
 30
0.0
 10
101.8584493314469
 20
-73.32442715112919
 30
0.0
 10
101.9724820672354
 20
-73.39229557696103
 30
0.0
 10
102.1967579312787
 20
-73.4767004720311
 30
0.0
 10
102.4461830089551
 20
-73.4767004720311
 30
0.0
 10
102.7975829802672
 20
-73.4767004720311
 30
0.0
 10
103.0979955047615
 20
-73.24829049067823
 30
0.0
 10
103.0979955047615
 20
-72.88035405012792
 30
0.0
 10
103.0938613874519
 20
-72.52481996150628
 30
0.0
 10
102.8568386617042
 20
-72.2709162567445
 30
0.0
 10
102.3070010595335
 20
-72.2709162567445
 30
0.0
 10
102.1502491115462
 20
-72.2709162567445
 30
0.0
 10
102.0276036313628
 20
-72.28779723575852
 30
0.0
 10
101.9259732475029
 20
-72.30054409746297
 30
0.0
 10
101.9259732475029
 20
-72.30054409746297
 30
0.0
 10
102.1037402918138
 20
-70.98038263661205
 30
0.0
 10
102.1037402918138
 20
-70.98038263661205
 30
0.0
 10
102.1037402918138
 20
-70.98038263661205
 30
0.0
 10
103.4197676353551
 20
-70.98038263661205
 30
0.0
 10
103.4197676353551
 20
-70.98038263661205
 30
0.0
 10
103.4197676353551
 20
-70.98038263661205
 30
0.0
 10
103.4197676353551
 20
-71.29354202281077
 30
0.0
 10
103.4197676353551
 20
-71.29354202281077
 30
0.0
  0
HATCH
  5
138
330
114
100
AcDbEntity
  8
LAYER_1
 62
   250
100
AcDbHatch
 10
0.0
 20
0.0
 30
0.0
210
0.0
220
0.0
230
1.0
  2
SOLID
 70
     1
 71
     0
 91
        1
 92
        1
 93
        1
 72
     4
 94
        3
 73
     0
 74
     1
 95
       50
 96
       46
 40
0.0
 40
0.0
 40
0.0
 40
0.0
 40
1.0
 40
1.0
 40
1.0
 40
2.0
 40
2.0
 40
2.0
 40
3.0
 40
3.0
 40
3.0
 40
4.0
 40
4.0
 40
4.0
 40
5.0
 40
5.0
 40
5.0
 40
6.0
 40
6.0
 40
6.0
 40
7.0
 40
7.0
 40
7.0
 40
8.0
 40
8.0
 40
8.0
 40
9.0
 40
9.0
 40
9.0
 40
10.0
 40
10.0
 40
10.0
 40
11.0
 40
11.0
 40
11.0
 40
12.0
 40
12.0
 40
12.0
 40
13.0
 40
13.0
 40
13.0
 40
14.0
 40
14.0
 40
14.0
 40
15.0
 40
15.0
 40
15.0
 40
15.0
 10
103.4197676353551
 20
-71.29354202281077
 10
103.4197676353551
 20
-71.29354202281077
 10
102.37039085828
 20
-71.29354202281077
 10
102.37039085828
 20
-71.29354202281077
 10
102.37039085828
 20
-71.29354202281077
 10
102.2642818473348
 20
-72.00013157296871
 10
102.2642818473348
 20
-72.00013157296871
 10
102.3276716460813
 20
-71.99151882857382
 10
102.3869273275182
 20
-71.98325059395471
 10
102.4889022211539
 20
-71.98325059395471
 10
102.7004312234927
 20
-71.98325059395471
 10
102.9119602258316
 20
-72.02975941368719
 10
103.0811145257475
 20
-72.13138979754706
 10
103.2967776453959
 20
-72.2540352777305
 10
103.4745446897067
 20
-72.49105800347826
 10
103.4745446897067
 20
-72.8376348379292
 10
103.4745446897067
 20
-73.37507008817123
 10
103.0470080579437
 20
-73.77711299652536
 10
102.4506616360405
 20
-73.77711299652536
 10
102.1502491115462
 20
-73.77711299652536
 10
101.8963454067844
 20
-73.6927081014553
 10
101.7654316919819
 20
-73.60795869660943
 10
101.7654316919819
 20
-73.60795869660943
 10
101.8584493314469
 20
-73.32442715112919
 10
101.8584493314469
 20
-73.32442715112919
 10
101.9724820672354
 20
-73.39229557696103
 10
102.1967579312787
 20
-73.4767004720311
 10
102.4461830089551
 20
-73.4767004720311
 10
102.7975829802672
 20
-73.4767004720311
 10
103.0979955047615
 20
-73.24829049067823
 10
103.0979955047615
 20
-72.88035405012792
 10
103.0938613874519
 20
-72.52481996150628
 10
102.8568386617042
 20
-72.2709162567445
 10
102.3070010595335
 20
-72.2709162567445
 10
102.1502491115462
 20
-72.2709162567445
 10
102.0276036313628
 20
-72.28779723575852
 10
101.9259732475029
 20
-72.30054409746297
 10
101.9259732475029
 20
-72.30054409746297
 10
102.1037402918138
 20
-70.98038263661205
 10
102.1037402918138
 20
-70.98038263661205
 10
102.1037402918138
 20
-70.98038263661205
 10
103.4197676353551
 20
-70.98038263661205
 10
103.4197676353551
 20
-70.98038263661205
 10
103.4197676353551
 20
-70.98038263661205
 10
103.4197676353551
 20
-71.29354202281077
 10
103.4197676353551
 20
-71.29354202281077
 97
        0
 75
     2
 76
     1
 98
        0
  0
POLYLINE
  5
139
330
114
100
AcDbEntity
  8
LAYER_1
100
AcDb2dPolyline
 66
     1
 10
0.0
 20
0.0
 30
0.0
  0
VERTEX
  5
13A
330
139
100
AcDbEntity
  8
LAYER_1
100
AcDbVertex
100
AcDb2dVertex
 10
104.7578436045474
 20
-71.32730398083879
 30
0.0
  0
VERTEX
  5
13B
330
139
100
AcDbEntity
  8
LAYER_1
100
AcDbVertex
100
AcDb2dVertex
 10
104.7492308601525
 20
-71.32730398083879
 30
0.0
  0
VERTEX
  5
13C
330
139
100
AcDbEntity
  8
LAYER_1
100
AcDbVertex
100
AcDb2dVertex
 10
104.2710512913474
 20
-71.58568631268592
 30
0.0
  0
VERTEX
  5
13D
330
139
100
AcDbEntity
  8
LAYER_1
100
AcDbVertex
100
AcDb2dVertex
 10
104.199048748206
 20
-71.30181025742988
 30
0.0
  0
VERTEX
  5
13E
330
139
100
AcDbEntity
  8
LAYER_1
100
AcDbVertex
100
AcDb2dVertex
 10
104.7998737971946
 20
-70.98038263661205
 30
0.0
  0
VERTEX
  5
13F
330
139
100
AcDbEntity
  8
LAYER_1
100
AcDbVertex
100
AcDb2dVertex
 10
105.1175118104786
 20
-70.98038263661205
 30
0.0
  0
VERTEX
  5
140
330
139
100
AcDbEntity
  8
LAYER_1
100
AcDbVertex
100
AcDb2dVertex
 10
105.1175118104786
 20
-73.73060417679287
 30
0.0
  0
VERTEX
  5
141
330
139
100
AcDbEntity
  8
LAYER_1
100
AcDbVertex
100
AcDb2dVertex
 10
104.7578436045474
 20
-73.73060417679287
 30
0.0
  0
VERTEX
  5
142
330
139
100
AcDbEntity
  8
LAYER_1
100
AcDbVertex
100
AcDb2dVertex
 10
104.7578436045474
 20
-71.32730398083879
 30
0.0
  0
SEQEND
  5
143
330
139
100
AcDbEntity
  8
LAYER_1
  0
HATCH
  5
144
330
114
100
AcDbEntity
  8
LAYER_1
 62
   250
100
AcDbHatch
 10
0.0
 20
0.0
 30
0.0
210
0.0
220
0.0
230
1.0
  2
SOLID
 70
     1
 71
     0
 91
        1
 92
        1
 93
        8
 72
     1
 10
104.7578436045474
 20
-71.32730398083879
 11
104.7492308601525
 21
-71.32730398083879
 72
     1
 10
104.7492308601525
 20
-71.32730398083879
 11
104.2710512913474
 21
-71.58568631268592
 72
     1
 10
104.2710512913474
 20
-71.58568631268592
 11
104.199048748206
 21
-71.30181025742988
 72
     1
 10
104.199048748206
 20
-71.30181025742988
 11
104.7998737971946
 21
-70.98038263661205
 72
     1
 10
104.7998737971946
 20
-70.98038263661205
 11
105.1175118104786
 21
-70.98038263661205
 72
     1
 10
105.1175118104786
 20
-70.98038263661205
 11
105.1175118104786
 21
-73.73060417679287
 72
     1
 10
105.1175118104786
 20
-73.73060417679287
 11
104.7578436045474
 21
-73.73060417679287
 72
     1
 10
104.7578436045474
 20
-73.73060417679287
 11
104.7578436045474
 21
-71.32730398083879
 97
        0
 75
     2
 76
     1
 98
        0
  0
ENDBLK
  5
117
330
114
100
AcDbEntity
  8
0
100
AcDbBlockEnd
  0
ENDSEC
  0
SECTION
  2
ENTITIES
  0
POLYLINE
  5
3C
330
1F
100
AcDbEntity
  8
LAYER_1
 62
   250
100
AcDb2dPolyline
 66
     1
 10
0.0
 20
0.0
 30
0.0
  0
VERTEX
  5
3D
330
3C
100
AcDbEntity
  8
LAYER_1
 62
   250
100
AcDbVertex
100
AcDb2dVertex
 10
106.6416230586009
 20
-124.8165807905036
 30
0.0
  0
VERTEX
  5
3E
330
3C
100
AcDbEntity
  8
LAYER_1
 62
   250
100
AcDbVertex
100
AcDb2dVertex
 10
11.64167434370414
 20
-124.8165807905036
 30
0.0
  0
VERTEX
  5
3F
330
3C
100
AcDbEntity
  8
LAYER_1
 62
   250
100
AcDbVertex
100
AcDb2dVertex
 10
11.64167434370414
 20
-14.81667643744163
 30
0.0
  0
VERTEX
  5
40
330
3C
100
AcDbEntity
  8
LAYER_1
 62
   250
100
AcDbVertex
100
AcDb2dVertex
 10
106.6416230586009
 20
-14.81667643744163
 30
0.0
  0
VERTEX
  5
41
330
3C
100
AcDbEntity
  8
LAYER_1
 62
   250
100
AcDbVertex
100
AcDb2dVertex
 10
106.6416230586009
 20
-124.8165807905036
 30
0.0
  0
SEQEND
  5
42
330
3C
100
AcDbEntity
  8
LAYER_1
  0
SPLINE
  5
43
330
1F
100
AcDbEntity
  8
LAYER_1
 62
   250
100
AcDbSpline
210
0.0
220
0.0
230
1.0
 70
    11
 71
     3
 72
    17
 73
    13
 74
     0
 42
0.0000000001
 43
0.0000000001
 40
0.0
 40
0.0
 40
0.0
 40
0.0
 40
1.0
 40
1.0
 40
1.0
 40
2.0
 40
2.0
 40
2.0
 40
3.0
 40
3.0
 40
3.0
 40
4.0
 40
4.0
 40
4.0
 40
4.0
 10
18.14188479342625
 20
-19.86667298594977
 30
0.0
 10
18.14188479342625
 20
-21.10931974724655
 30
0.0
 10
17.13453820899825
 20
-22.11666633167455
 30
0.0
 10
15.89189144770147
 20
-22.11666633167455
 30
0.0
 10
14.6489001766289
 20
-22.11666633167455
 30
0.0
 10
13.6415535922009
 20
-21.10931974724655
 30
0.0
 10
13.6415535922009
 20
-19.86667298594977
 30
0.0
 10
13.6415535922009
 20
-18.62402622465299
 30
0.0
 10
14.6489001766289
 20
-17.61667964022499
 30
0.0
 10
15.89189144770147
 20
-17.61667964022499
 30
0.0
 10
17.13453820899825
 20
-17.61667964022499
 30
0.0
 10
18.14188479342625
 20
-18.62402622465299
 30
0.0
 10
18.14188479342625
 20
-19.86667298594977
 30
0.0
  0
SPLINE
  5
44
330
1F
100
AcDbEntity
  8
LAYER_1
 62
   250
100
AcDbSpline
210
0.0
220
0.0
230
1.0
 70
    11
 71
     3
 72
    17
 73
    13
 74
     0
 42
0.0000000001
 43
0.0000000001
 40
0.0
 40
0.0
 40
0.0
 40
0.0
 40
1.0
 40
1.0
 40
1.0
 40
2.0
 40
2.0
 40
2.0
 40
3.0
 40
3.0
 40
3.0
 40
4.0
 40
4.0
 40
4.0
 40
4.0
 10
104.6420883198799
 20
-19.86667298594977
 30
0.0
 10
104.6420883198799
 20
-21.10931974724655
 30
0.0
 10
103.6347417354519
 20
-22.11666633167455
 30
0.0
 10
102.3917504643793
 20
-22.11666633167455
 30
0.0
 10
101.1487591933068
 20
-22.11666633167455
 30
0.0
 10
100.1414126088788
 20
-21.10931974724655
 30
0.0
 10
100.1414126088788
 20
-19.86667298594977
 30
0.0
 10
100.1414126088788
 20
-18.62402622465299
 30
0.0
 10
101.1487591933068
 20
-17.61667964022499
 30
0.0
 10
102.3917504643793
 20
-17.61667964022499
 30
0.0
 10
103.6347417354519
 20
-17.61667964022499
 30
0.0
 10
104.6420883198799
 20
-18.62402622465299
 30
0.0
 10
104.6420883198799
 20
-19.86667298594977
 30
0.0
  0
SPLINE
  5
45
330
1F
100
AcDbEntity
  8
LAYER_1
 62
   250
100
AcDbSpline
210
0.0
220
0.0
230
1.0
 70
    11
 71
     3
 72
    17
 73
    13
 74
     0
 42
0.0000000001
 43
0.0000000001
 40
0.0
 40
0.0
 40
0.0
 40
0.0
 40
1.0
 40
1.0
 40
1.0
 40
2.0
 40
2.0
 40
2.0
 40
3.0
 40
3.0
 40
3.0
 40
4.0
 40
4.0
 40
4.0
 40
4.0
 10
18.14188479342625
 20
-110.5669674440224
 30
0.0
 10
18.14188479342625
 20
-111.8092696955434
 30
0.0
 10
17.13453820899825
 20
-112.8166162799714
 30
0.0
 10
15.89189144770147
 20
-112.8166162799714
 30
0.0
 10
14.6489001766289
 20
-112.8166162799714
 30
0.0
 10
13.6415535922009
 20
-111.8092696955434
 30
0.0
 10
13.6415535922009
 20
-110.5669674440224
 30
0.0
 10
13.6415535922009
 20
-109.3239761729499
 30
0.0
 10
14.6489001766289
 20
-108.3166295885218
 30
0.0
 10
15.89189144770147
 20
-108.3166295885218
 30
0.0
 10
17.13453820899825
 20
-108.3166295885218
 30
0.0
 10
18.14188479342625
 20
-109.3239761729499
 30
0.0
 10
18.14188479342625
 20
-110.5669674440224
 30
0.0
  0
SPLINE
  5
46
330
1F
100
AcDbEntity
  8
LAYER_1
 62
   250
100
AcDbSpline
210
0.0
220
0.0
230
1.0
 70
    11
 71
     3
 72
    17
 73
    13
 74
     0
 42
0.0000000001
 43
0.0000000001
 40
0.0
 40
0.0
 40
0.0
 40
0.0
 40
1.0
 40
1.0
 40
1.0
 40
2.0
 40
2.0
 40
2.0
 40
3.0
 40
3.0
 40
3.0
 40
4.0
 40
4.0
 40
4.0
 40
4.0
 10
104.6420883198799
 20
-110.5669674440224
 30
0.0
 10
104.6420883198799
 20
-111.8092696955434
 30
0.0
 10
103.6347417354519
 20
-112.8166162799714
 30
0.0
 10
102.3917504643793
 20
-112.8166162799714
 30
0.0
 10
101.1487591933068
 20
-112.8166162799714
 30
0.0
 10
100.1414126088788
 20
-111.8092696955434
 30
0.0
 10
100.1414126088788
 20
-110.5669674440224
 30
0.0
 10
100.1414126088788
 20
-109.3239761729499
 30
0.0
 10
101.1487591933068
 20
-108.3166295885218
 30
0.0
 10
102.3917504643793
 20
-108.3166295885218
 30
0.0
 10
103.6347417354519
 20
-108.3166295885218
 30
0.0
 10
104.6420883198799
 20
-109.3239761729499
 30
0.0
 10
104.6420883198799
 20
-110.5669674440224
 30
0.0
  0
INSERT
  5
48
330
1F
100
AcDbEntity
  8
LAYER_1
100
AcDbBlockReference
  2
BLOCK_2
 10
0.0
 20
0.0
 30
0.0
  0
INSERT
  5
BC
330
1F
100
AcDbEntity
  8
LAYER_1
100
AcDbBlockReference
  2
BLOCK_3
 10
0.0
 20
0.0
 30
0.0
  0
INSERT
  5
C2
330
1F
100
AcDbEntity
  8
LAYER_1
100
AcDbBlockReference
  2
BLOCK_4
 10
0.0
 20
0.0
 30
0.0
  0
INSERT
  5
C8
330
1F
100
AcDbEntity
  8
LAYER_1
100
AcDbBlockReference
  2
BLOCK_5
 10
0.0
 20
0.0
 30
0.0
  0
INSERT
  5
E4
330
1F
100
AcDbEntity
  8
LAYER_1
100
AcDbBlockReference
  2
BLOCK_6
 10
0.0
 20
0.0
 30
0.0
  0
INSERT
  5
115
330
1F
100
AcDbEntity
  8
LAYER_1
100
AcDbBlockReference
  2
BLOCK_7
 10
0.0
 20
0.0
 30
0.0
  0
ENDSEC
  0
SECTION
  2
OBJECTS
  0
DICTIONARY
  5
C
330
0
100
AcDbDictionary
  3
ACAD_GROUP
350
D
  3
ACAD_LAYOUT
350
1A
  3
ACAD_MLINESTYLE
350
17
  3
ACAD_PLOTSETTINGS
350
19
  3
ACAD_TABLESTYLE
350
165
  3
ACAD_VISUALSTYLE
350
2A
  3
ACDBHEADERROUNDTRIPXREC
350
145
  0
DICTIONARY
  5
D
102
{ACAD_REACTORS
330
C
102
}
330
C
100
AcDbDictionary
  0
DICTIONARY
  5
1A
102
{ACAD_REACTORS
330
C
102
}
330
C
100
AcDbDictionary
  0
DICTIONARY
  5
17
102
{ACAD_REACTORS
330
C
102
}
330
C
100
AcDbDictionary
  3
STANDARD
350
18
  0
DICTIONARY
  5
19
102
{ACAD_REACTORS
330
C
102
}
330
C
100
AcDbDictionary
  0
DICTIONARY
  5
165
102
{ACAD_REACTORS
330
C
102
}
330
C
100
AcDbDictionary
  0
DICTIONARY
  5
2A
102
{ACAD_REACTORS
330
C
102
}
330
C
100
AcDbDictionary
  3
2DWIREFRAME
350
2F
  3
3D_HIDDEN
350
31
  3
3DWIREFRAME
350
30
  3
BASIC
350
32
  3
BRIGHTEN
350
36
  3
COLORCHANGE
350
3A
  3
CONCEPTUAL
350
34
  3
DIM
350
35
  3
FACEPATTERN
350
39
  3
FLAT
350
2B
  3
FLATWITHEDGES
350
2C
  3
GOURAUD
350
2D
  3
GOURAUDWITHEDGES
350
2E
  3
LINEPATTERN
350
38
  3
REALISTIC
350
33
  3
THICKEN
350
37
  0
DICTIONARY
  5
145
102
{ACAD_REACTORS
330
C
102
}
330
C
100
AcDbDictionary
  3
CEPSNTYPE
350
14E
  3
DIMSTYLEDATA
350
164
  3
FINGERPRINTGUID
350
14F
  3
HYPERLINKBASE
350
148
  3
INSUNITS
350
14D
  3
LAYOUTDICT
350
14A
  3
LWETCUNION
350
14C
  3
PLOTSETDICT
350
14B
  3
PSVPSCALE
350
151
  3
PUCSBASE
350
154
  3
PUCSORGBACK
350
15A
  3
PUCSORGBOTTOM
350
156
  3
PUCSORGFRONT
350
159
  3
PUCSORGLEFT
350
157
  3
PUCSORGRIGHT
350
158
  3
PUCSORGTOP
350
155
  3
PUCSORTHOREF
350
152
  3
PUCSORTHOVIEW
350
153
  3
STYLESHEET
350
149
  3
TSTACKALIGN
350
146
  3
TSTACKSIZE
350
147
  3
UCSBASE
350
15D
  3
UCSORGBACK
350
163
  3
UCSORGBOTTOM
350
15F
  3
UCSORGFRONT
350
162
  3
UCSORGLEFT
350
160
  3
UCSORGRIGHT
350
161
  3
UCSORGTOP
350
15E
  3
UCSORTHOREF
350
15B
  3
UCSORTHOVIEW
350
15C
  3
VERSIONGUID
350
150
  0
MLINESTYLE
  5
18
102
{ACAD_REACTORS
330
17
102
}
330
17
100
AcDbMlineStyle
  2
Standard
 70
     0
  3

 62
   256
 51
90.0
 52
90.0
 71
     2
 49
0.5
 62
   256
  6
BYLAYER
 49
-0.5
 62
   256
  6
BYLAYER
  0
VISUALSTYLE
  5
2F
102
{ACAD_REACTORS
330
2A
102
}
330
2A
100
AcDbVisualStyle
  2
2dWireframe
 70
     4
 71
     0
 72
     2
 73
     0
 90
        0
 40
-0.6
 41
-30.0
 62
     5
 63
     7
 74
     1
 91
        4
 64
     7
 65
   257
 75
     1
175
     1
 42
1.0
 92
        0
 66
   257
 43
1.0
 76
     1
 77
     6
 78
     2
 67
     7
 79
     5
170
     0
171
     0
290
     0
174
     0
 93
        1
 44
0.0
173
     0
291
     0
 45
0.0
1001
ACAD
1000
AcDbSavedByObjectVersion
1070
     0
  0
VISUALSTYLE
  5
31
102
{ACAD_REACTORS
330
2A
102
}
330
2A
100
AcDbVisualStyle
  2
3D Hidden
 70
     6
 71
     1
 72
     2
 73
     2
 90
        0
 40
-0.6
 41
-30.0
 62
     5
 63
     7
 74
     2
 91
        2
 64
     7
 65
   257
 75
     2
175
     1
 42
40.0
 92
        0
 66
   257
 43
1.0
 76
     1
 77
     6
 78
     2
 67
     7
 79
     3
170
     0
171
     0
290
     0
174
     0
 93
        1
 44
0.0
173
     0
291
     0
 45
0.0
1001
ACAD
1000
AcDbSavedByObjectVersion
1070
     0
  0
VISUALSTYLE
  5
30
102
{ACAD_REACTORS
330
2A
102
}
330
2A
100
AcDbVisualStyle
  2
3dWireframe
 70
     5
 71
     0
 72
     2
 73
     0
 90
        0
 40
-0.6
 41
-30.0
 62
     5
 63
     7
 74
     1
 91
        4
 64
     7
 65
   257
 75
     1
175
     1
 42
1.0
 92
        0
 66
   257
 43
1.0
 76
     1
 77
     6
 78
     2
 67
     7
 79
     5
170
     0
171
     0
290
     0
174
     0
 93
        1
 44
0.0
173
     0
291
     0
 45
0.0
1001
ACAD
1000
AcDbSavedByObjectVersion
1070
     0
  0
VISUALSTYLE
  5
32
102
{ACAD_REACTORS
330
2A
102
}
330
2A
100
AcDbVisualStyle
  2
Basic
 70
     7
 71
     1
 72
     0
 73
     1
 90
        0
 40
-0.6
 41
-30.0
 62
     5
 63
     7
 74
     0
 91
        4
 64
     7
 65
   257
 75
     1
175
     1
 42
1.0
 92
        8
 66
     7
 43
1.0
 76
     1
 77
     6
 78
     2
 67
     7
 79
     5
170
     0
171
     0
290
     0
174
     0
 93
        1
 44
0.0
173
     0
291
     1
 45
0.0
1001
ACAD
1000
AcDbSavedByObjectVersion
1070
     0
  0
VISUALSTYLE
  5
36
102
{ACAD_REACTORS
330
2A
102
}
330
2A
100
AcDbVisualStyle
  2
Brighten
 70
    12
 71
     2
 72
     2
 73
     0
 90
        0
 40
-0.6
 41
-30.0
 62
     5
 63
     7
 74
     1
 91
        4
 64
     7
 65
   257
 75
     1
175
     1
 42
1.0
 92
        8
 66
     7
 43
1.0
 76
     1
 77
     6
 78
     2
 67
     7
 79
     5
170
     0
171
     0
290
     0
174
     0
 93
        1
 44
50.0
173
     0
291
     1
 45
0.0
1001
ACAD
1000
AcDbSavedByObjectVersion
1070
     0
  0
VISUALSTYLE
  5
3A
102
{ACAD_REACTORS
330
2A
102
}
330
2A
100
AcDbVisualStyle
  2
ColorChange
 70
    16
 71
     2
 72
     2
 73
     3
 90
        0
 40
-0.6
 41
-30.0
 62
     5
 63
     8
 74
     1
 91
        4
 64
     7
 65
   257
 75
     1
175
     1
 42
1.0
 92
        8
 66
     8
 43
1.0
 76
     1
 77
     6
 78
     2
 67
     7
 79
     5
170
     0
171
     0
290
     0
174
     0
 93
        1
 44
0.0
173
     0
291
     1
 45
0.0
1001
ACAD
1000
AcDbSavedByObjectVersion
1070
     0
  0
VISUALSTYLE
  5
34
102
{ACAD_REACTORS
330
2A
102
}
330
2A
100
AcDbVisualStyle
  2
Conceptual
 70
     9
 71
     3
 72
     2
 73
     0
 90
        0
 40
-0.6
 41
-30.0
 62
     5
 63
     7
 74
     2
 91
        2
 64
     7
 65
   257
 75
     1
175
     1
 42
40.0
 92
        8
 66
     7
 43
1.0
 76
     1
 77
     6
 78
     2
 67
     7
 79
     3
170
     0
171
     0
290
     0
174
     0
 93
        1
 44
0.0
173
     0
291
     0
 45
0.0
1001
ACAD
1000
AcDbSavedByObjectVersion
1070
     0
  0
VISUALSTYLE
  5
35
102
{ACAD_REACTORS
330
2A
102
}
330
2A
100
AcDbVisualStyle
  2
Dim
 70
    11
 71
     2
 72
     2
 73
     0
 90
        0
 40
-0.6
 41
-30.0
 62
     5
 63
     7
 74
     1
 91
        4
 64
     7
 65
   257
 75
     1
175
     1
 42
1.0
 92
        8
 66
     7
 43
1.0
 76
     1
 77
     6
 78
     2
 67
     7
 79
     5
170
     0
171
     0
290
     0
174
     0
 93
        1
 44
-50.0
173
     0
291
     1
 45
0.0
1001
ACAD
1000
AcDbSavedByObjectVersion
1070
     0
  0
VISUALSTYLE
  5
39
102
{ACAD_REACTORS
330
2A
102
}
330
2A
100
AcDbVisualStyle
  2
Facepattern
 70
    15
 71
     2
 72
     2
 73
     0
 90
        0
 40
-0.6
 41
-30.0
 62
     5
 63
     7
 74
     1
 91
        4
 64
     7
 65
   257
 75
     1
175
     1
 42
1.0
 92
        8
 66
     7
 43
1.0
 76
     1
 77
     6
 78
     2
 67
     7
 79
     5
170
     0
171
     0
290
     0
174
     0
 93
        1
 44
0.0
173
     0
291
     1
 45
0.0
1001
ACAD
1000
AcDbSavedByObjectVersion
1070
     0
  0
VISUALSTYLE
  5
2B
102
{ACAD_REACTORS
330
2A
102
}
330
2A
100
AcDbVisualStyle
  2
Flat
 70
     0
 71
     2
 72
     1
 73
     1
 90
        2
 40
-0.6
 41
30.0
 62
     5
 63
     7
 74
     0
 91
        4
 64
     7
 65
   257
 75
     1
175
     1
 42
1.0
 92
        8
 66
     7
 43
1.0
 76
     1
 77
     6
 78
     2
 67
     7
 79
     5
170
     0
171
     0
290
     0
174
     0
 93
       13
 44
0.0
173
     0
291
     1
 45
0.0
1001
ACAD
1000
AcDbSavedByObjectVersion
1070
     0
  0
VISUALSTYLE
  5
2C
102
{ACAD_REACTORS
330
2A
102
}
330
2A
100
AcDbVisualStyle
  2
FlatWithEdges
 70
     1
 71
     2
 72
     1
 73
     1
 90
        2
 40
-0.6
 41
30.0
 62
     5
 63
     7
 74
     1
 91
        4
 64
     7
 65
   257
 75
     1
175
     1
 42
1.0
 92
        0
 66
   257
 43
1.0
 76
     1
 77
     6
 78
     2
 67
     7
 79
     5
170
     0
171
     0
290
     0
174
     0
 93
       13
 44
0.0
173
     0
291
     1
 45
0.0
1001
ACAD
1000
AcDbSavedByObjectVersion
1070
     0
  0
VISUALSTYLE
  5
2D
102
{ACAD_REACTORS
330
2A
102
}
330
2A
100
AcDbVisualStyle
  2
Gouraud
 70
     2
 71
     2
 72
     2
 73
     1
 90
        2
 40
-0.6
 41
30.0
 62
     5
 63
     7
 74
     0
 91
        4
 64
     7
 65
   257
 75
     1
175
     1
 42
1.0
 92
        0
 66
     7
 43
1.0
 76
     1
 77
     6
 78
     2
 67
     7
 79
     5
170
     0
171
     0
290
     0
174
     0
 93
       13
 44
0.0
173
     0
291
     1
 45
0.0
1001
ACAD
1000
AcDbSavedByObjectVersion
1070
     0
  0
VISUALSTYLE
  5
2E
102
{ACAD_REACTORS
330
2A
102
}
330
2A
100
AcDbVisualStyle
  2
GouraudWithEdges
 70
     3
 71
     2
 72
     2
 73
     1
 90
        2
 40
-0.6
 41
30.0
 62
     5
 63
     7
 74
     1
 91
        4
 64
     7
 65
   257
 75
     1
175
     1
 42
1.0
 92
        0
 66
   257
 43
1.0
 76
     1
 77
     6
 78
     2
 67
     7
 79
     5
170
     0
171
     0
290
     0
174
     0
 93
       13
 44
0.0
173
     0
291
     1
 45
0.0
1001
ACAD
1000
AcDbSavedByObjectVersion
1070
     0
  0
VISUALSTYLE
  5
38
102
{ACAD_REACTORS
330
2A
102
}
330
2A
100
AcDbVisualStyle
  2
Linepattern
 70
    14
 71
     2
 72
     2
 73
     0
 90
        0
 40
-0.6
 41
-30.0
 62
     5
 63
     7
 74
     1
 91
        4
 64
     7
 65
   257
 75
     7
175
     7
 42
1.0
 92
        8
 66
     7
 43
1.0
 76
     1
 77
     6
 78
     2
 67
     7
 79
     5
170
     0
171
     0
290
     0
174
     0
 93
        1
 44
0.0
173
     0
291
     1
 45
0.0
1001
ACAD
1000
AcDbSavedByObjectVersion
1070
     0
  0
VISUALSTYLE
  5
33
102
{ACAD_REACTORS
330
2A
102
}
330
2A
100
AcDbVisualStyle
  2
Realistic
 70
     8
 71
     2
 72
     2
 73
     0
 90
        0
 40
-0.6
 41
-30.0
 62
     5
 63
     7
 74
     1
 91
        0
 64
     7
 65
   257
 75
     1
175
     1
 42
1.0
 92
        8
 66
     8
 43
1.0
 76
     1
 77
     6
 78
     2
 67
     7
 79
     5
170
     0
171
     0
290
     0
174
     0
 93
       13
 44
0.0
173
     0
291
     0
 45
0.0
1001
ACAD
1000
AcDbSavedByObjectVersion
1070
     0
  0
VISUALSTYLE
  5
37
102
{ACAD_REACTORS
330
2A
102
}
330
2A
100
AcDbVisualStyle
  2
Thicken
 70
    13
 71
     2
 72
     2
 73
     0
 90
        0
 40
-0.6
 41
-30.0
 62
     5
 63
     7
 74
     1
 91
        4
 64
     7
 65
   257
 75
     1
175
     1
 42
1.0
 92
       12
 66
     7
 43
1.0
 76
     1
 77
     6
 78
     2
 67
     7
 79
     5
170
     0
171
     0
290
     0
174
     0
 93
        1
 44
0.0
173
     0
291
     1
 45
0.0
1001
ACAD
1000
AcDbSavedByObjectVersion
1070
     0
  0
XRECORD
  5
14E
102
{ACAD_REACTORS
330
145
102
}
330
145
100
AcDbXrecord
 90
        0
  0
XRECORD
  5
164
102
{ACAD_REACTORS
330
145
102
}
330
145
100
AcDbXrecord
1000
DSTYLE
1002
{
1070
   340
340
11
1002
}
  0
XRECORD
  5
14F
102
{ACAD_REACTORS
330
145
102
}
330
145
100
AcDbXrecord
  1
{40F7C2CB-CB67-4DCD-A36B-199CBB6959B5}
  0
XRECORD
  5
148
102
{ACAD_REACTORS
330
145
102
}
330
145
100
AcDbXrecord
  1

  0
XRECORD
  5
14D
102
{ACAD_REACTORS
330
145
102
}
330
145
100
AcDbXrecord
 90
        1
  0
XRECORD
  5
14A
102
{ACAD_REACTORS
330
145
102
}
330
145
100
AcDbXrecord
340
1A
  0
XRECORD
  5
14C
102
{ACAD_REACTORS
330
145
102
}
330
145
100
AcDbXrecord
 90
    10269
  0
XRECORD
  5
14B
102
{ACAD_REACTORS
330
145
102
}
330
145
100
AcDbXrecord
340
19
  0
XRECORD
  5
151
102
{ACAD_REACTORS
330
145
102
}
330
145
100
AcDbXrecord
 40
0.0
  0
XRECORD
  5
154
102
{ACAD_REACTORS
330
145
102
}
330
145
100
AcDbXrecord
340
0
  0
XRECORD
  5
15A
102
{ACAD_REACTORS
330
145
102
}
330
145
100
AcDbXrecord
 10
0.0
 20
0.0
 30
0.0
  0
XRECORD
  5
156
102
{ACAD_REACTORS
330
145
102
}
330
145
100
AcDbXrecord
 10
0.0
 20
0.0
 30
0.0
  0
XRECORD
  5
159
102
{ACAD_REACTORS
330
145
102
}
330
145
100
AcDbXrecord
 10
0.0
 20
0.0
 30
0.0
  0
XRECORD
  5
157
102
{ACAD_REACTORS
330
145
102
}
330
145
100
AcDbXrecord
 10
0.0
 20
0.0
 30
0.0
  0
XRECORD
  5
158
102
{ACAD_REACTORS
330
145
102
}
330
145
100
AcDbXrecord
 10
0.0
 20
0.0
 30
0.0
  0
XRECORD
  5
155
102
{ACAD_REACTORS
330
145
102
}
330
145
100
AcDbXrecord
 10
0.0
 20
0.0
 30
0.0
  0
XRECORD
  5
152
102
{ACAD_REACTORS
330
145
102
}
330
145
100
AcDbXrecord
340
0
  0
XRECORD
  5
153
102
{ACAD_REACTORS
330
145
102
}
330
145
100
AcDbXrecord
 70
     0
  0
XRECORD
  5
149
102
{ACAD_REACTORS
330
145
102
}
330
145
100
AcDbXrecord
  1

  0
XRECORD
  5
146
102
{ACAD_REACTORS
330
145
102
}
330
145
100
AcDbXrecord
 90
        1
  0
XRECORD
  5
147
102
{ACAD_REACTORS
330
145
102
}
330
145
100
AcDbXrecord
 90
       70
  0
XRECORD
  5
15D
102
{ACAD_REACTORS
330
145
102
}
330
145
100
AcDbXrecord
340
0
  0
XRECORD
  5
163
102
{ACAD_REACTORS
330
145
102
}
330
145
100
AcDbXrecord
 10
0.0
 20
0.0
 30
0.0
  0
XRECORD
  5
15F
102
{ACAD_REACTORS
330
145
102
}
330
145
100
AcDbXrecord
 10
0.0
 20
0.0
 30
0.0
  0
XRECORD
  5
162
102
{ACAD_REACTORS
330
145
102
}
330
145
100
AcDbXrecord
 10
0.0
 20
0.0
 30
0.0
  0
XRECORD
  5
160
102
{ACAD_REACTORS
330
145
102
}
330
145
100
AcDbXrecord
 10
0.0
 20
0.0
 30
0.0
  0
XRECORD
  5
161
102
{ACAD_REACTORS
330
145
102
}
330
145
100
AcDbXrecord
 10
0.0
 20
0.0
 30
0.0
  0
XRECORD
  5
15E
102
{ACAD_REACTORS
330
145
102
}
330
145
100
AcDbXrecord
 10
0.0
 20
0.0
 30
0.0
  0
XRECORD
  5
15B
102
{ACAD_REACTORS
330
145
102
}
330
145
100
AcDbXrecord
340
0
  0
XRECORD
  5
15C
102
{ACAD_REACTORS
330
145
102
}
330
145
100
AcDbXrecord
 70
     0
  0
XRECORD
  5
150
102
{ACAD_REACTORS
330
145
102
}
330
145
100
AcDbXrecord
  1
{FAEB1C32-E019-11D5-929B-00C0DF256EC4}
  0
ENDSEC
  0
EOF
