%FSLAX25Y25*%
%MOIN*%
G70*
G01*
G75*
%ADD10R,0.07284X0.09252*%
%ADD11R,0.03543X0.02756*%
%ADD12R,0.03543X0.03150*%
%ADD13R,0.09449X0.03937*%
%ADD14R,0.05906X0.03937*%
%ADD15O,0.08661X0.02362*%
%ADD16R,0.03150X0.03543*%
%ADD17O,0.06299X0.01378*%
%ADD18O,0.09055X0.03347*%
%ADD19R,0.09449X0.12992*%
%ADD20R,0.09449X0.03937*%
%ADD21R,0.03937X0.09449*%
%ADD22R,0.03937X0.05906*%
%ADD23R,0.04331X0.06693*%
%ADD24R,0.06693X0.04331*%
%ADD25R,0.24410X0.22835*%
%ADD26R,0.11811X0.06299*%
%ADD27R,0.02362X0.04331*%
%ADD28C,0.01500*%
%ADD29C,0.00800*%
%ADD30C,0.03000*%
%ADD31C,0.01000*%
%ADD32C,0.02500*%
%ADD33C,0.02000*%
%ADD34C,0.15000*%
%ADD35C,0.05906*%
%ADD36R,0.05906X0.05906*%
%ADD37R,0.05906X0.05906*%
%ADD38C,0.05000*%
%ADD39C,0.02500*%
D10*
X133200Y407485D02*
D03*
Y393115D02*
D03*
D11*
X236700Y267553D02*
D03*
Y261647D02*
D03*
X237095Y303336D02*
D03*
Y297430D02*
D03*
D12*
X207795Y267439D02*
D03*
Y261927D02*
D03*
X241700Y261844D02*
D03*
Y267356D02*
D03*
X207895Y305539D02*
D03*
Y300027D02*
D03*
X242295Y297627D02*
D03*
Y303139D02*
D03*
X253488Y297544D02*
D03*
Y303056D02*
D03*
X258300Y297544D02*
D03*
Y303056D02*
D03*
D13*
X131007Y361300D02*
D03*
X144393D02*
D03*
X131007Y377800D02*
D03*
X144393D02*
D03*
X159147Y377224D02*
D03*
X172533D02*
D03*
D14*
X238300Y407369D02*
D03*
Y416031D02*
D03*
X112900Y303531D02*
D03*
Y294869D02*
D03*
X155340Y345894D02*
D03*
Y354555D02*
D03*
X144200Y410831D02*
D03*
Y402169D02*
D03*
D15*
X298251Y347000D02*
D03*
Y342000D02*
D03*
Y337000D02*
D03*
Y332000D02*
D03*
X317149Y347000D02*
D03*
Y342000D02*
D03*
Y337000D02*
D03*
Y332000D02*
D03*
X298251Y377000D02*
D03*
Y372000D02*
D03*
Y367000D02*
D03*
Y362000D02*
D03*
X317149Y377000D02*
D03*
Y372000D02*
D03*
Y367000D02*
D03*
Y362000D02*
D03*
X298251Y287000D02*
D03*
Y282000D02*
D03*
Y277000D02*
D03*
Y272000D02*
D03*
X317149Y287000D02*
D03*
Y282000D02*
D03*
Y277000D02*
D03*
Y272000D02*
D03*
X298251Y317000D02*
D03*
Y312000D02*
D03*
Y307000D02*
D03*
Y302000D02*
D03*
X317149Y317000D02*
D03*
Y312000D02*
D03*
Y307000D02*
D03*
Y302000D02*
D03*
D16*
X311444Y354000D02*
D03*
X316956D02*
D03*
X311444Y384000D02*
D03*
X316956D02*
D03*
X311444Y294000D02*
D03*
X316956D02*
D03*
X311444Y324000D02*
D03*
X316956D02*
D03*
X252232Y328100D02*
D03*
X257744D02*
D03*
X252332Y323000D02*
D03*
X257844D02*
D03*
X228856Y390100D02*
D03*
X223344D02*
D03*
X253844Y390100D02*
D03*
X259356D02*
D03*
D17*
X249497Y316739D02*
D03*
Y314179D02*
D03*
Y311620D02*
D03*
Y309061D02*
D03*
X263080Y316739D02*
D03*
Y314179D02*
D03*
Y311620D02*
D03*
Y309061D02*
D03*
D18*
X223088Y381100D02*
D03*
Y376100D02*
D03*
Y371100D02*
D03*
Y366100D02*
D03*
Y361100D02*
D03*
Y356100D02*
D03*
Y351100D02*
D03*
Y346100D02*
D03*
Y341100D02*
D03*
Y336100D02*
D03*
X259112Y381100D02*
D03*
Y376100D02*
D03*
Y371100D02*
D03*
Y366100D02*
D03*
Y361100D02*
D03*
Y356100D02*
D03*
Y351100D02*
D03*
Y346100D02*
D03*
Y341100D02*
D03*
Y336100D02*
D03*
D19*
X184817Y282300D02*
D03*
D20*
X161983Y273245D02*
D03*
Y282300D02*
D03*
Y291355D02*
D03*
D21*
X138400Y279107D02*
D03*
Y292493D02*
D03*
X126505Y337110D02*
D03*
Y323724D02*
D03*
D22*
X159569Y259300D02*
D03*
X168231D02*
D03*
X178577Y259150D02*
D03*
X187239D02*
D03*
X113277Y288050D02*
D03*
X121939D02*
D03*
X170671Y339224D02*
D03*
X162009D02*
D03*
D23*
X152715Y259800D02*
D03*
X142085D02*
D03*
X152715Y268800D02*
D03*
X142085D02*
D03*
X172155Y364724D02*
D03*
X161525D02*
D03*
D24*
X150900Y294115D02*
D03*
Y283485D02*
D03*
X121505Y303602D02*
D03*
Y314232D02*
D03*
X130005Y303602D02*
D03*
Y314232D02*
D03*
X112700Y325415D02*
D03*
Y314785D02*
D03*
X187023Y339215D02*
D03*
Y349845D02*
D03*
X178323Y339215D02*
D03*
Y349845D02*
D03*
D25*
X170352Y313917D02*
D03*
D26*
X142005Y304862D02*
D03*
Y322972D02*
D03*
D27*
X170580Y356449D02*
D03*
X166840D02*
D03*
X163100D02*
D03*
Y347000D02*
D03*
X170580D02*
D03*
D34*
X115500Y418100D02*
D03*
Y267000D02*
D03*
X321000Y418100D02*
D03*
D35*
X307800Y402400D02*
D03*
Y392400D02*
D03*
X297800Y402400D02*
D03*
Y392400D02*
D03*
X287800Y402400D02*
D03*
Y392400D02*
D03*
X277800Y402400D02*
D03*
Y392400D02*
D03*
X267800Y402400D02*
D03*
X217500Y261700D02*
D03*
X227500Y271700D02*
D03*
X217500D02*
D03*
X227500Y281700D02*
D03*
X217500D02*
D03*
X271900Y423000D02*
D03*
X261900D02*
D03*
X251900D02*
D03*
X241900D02*
D03*
X231900D02*
D03*
X221900D02*
D03*
X211900D02*
D03*
X201900D02*
D03*
X191900D02*
D03*
X181900D02*
D03*
X171900D02*
D03*
X161900D02*
D03*
X151900D02*
D03*
X141900D02*
D03*
X131900D02*
D03*
X217500Y299900D02*
D03*
X227500Y309900D02*
D03*
X217500D02*
D03*
X227500Y319900D02*
D03*
X217500D02*
D03*
X328700Y364500D02*
D03*
Y334500D02*
D03*
Y304500D02*
D03*
Y274500D02*
D03*
D36*
X267800Y392400D02*
D03*
X281900Y423000D02*
D03*
D37*
X227500Y261700D02*
D03*
Y299900D02*
D03*
X328700Y374500D02*
D03*
Y344500D02*
D03*
Y314500D02*
D03*
Y284500D02*
D03*
M02*
