M48
;Layer_Color=9474304
;FILE_FORMAT=2:5
INCH,LZ
;TYPE=PLATED
T1F00S00C0.01500
T2F00S00C0.02800
T3F00S00C0.03543
T4F00S00C0.12000
%
T01
X0107295Y0019295
X0103539Y0053539
X01067Y00762
X0108343Y0087657
X017495Y008765
X0175132Y0070468
X018465Y006805
X019225Y007625
X019185Y004625
X018465Y003805
X0175132Y0039932
X017515Y002765
X019305Y001645
X0145251Y0009827
X0141795Y0041805
X01458Y00498
X017505Y005755
X017495Y009905
X018465Y009815
X019205Y010605
X018025Y011015
X0155243Y0104957
X0155443Y0099357
X01706Y01313
X0111343Y0121957
T02
X00353Y00058
X00352Y00141
X00289Y00245
X00215Y00297
X00204Y0057
X00122Y00571
X00372Y00624
X00504Y00249
X0086695Y0013483
X0084195Y0040583
X00871Y00556
X0087Y00686
X00935Y00978
X01378Y01502
X005Y01501
X00549Y01318
X00548Y01127
X00367Y00993
X00111Y01123
X00101Y01353
T03
X0117Y00097
Y00197
Y00297
X0127
Y00197
Y00097
Y00479
Y00579
Y00679
X0117
Y00579
Y00479
X020025Y005255
Y006255
Y008255
Y003255
Y002255
Y009255
Y011255
Y012255
X01903Y01422
X01803
X01703
X01603
X01503
Y01522
X01603
X01703
X01803
X01903
X01814Y0171
X01714
X01614
X01514
X01414
X01314
X01214
X01114
X01014
X00914
X00814
X00714
X00614
X00514
X00414
X00314
T04
X0015Y0015
X02Y017
X0015
M30
