%FSLAX25Y25*%
%MOIN*%
G70*
G01*
G75*
G04 Layer_Physical_Order=1*
G04 Layer_Color=255*
%ADD10R,0.07284X0.09252*%
%ADD11R,0.03543X0.02756*%
%ADD12R,0.03543X0.03150*%
%ADD13R,0.09449X0.03937*%
%ADD14R,0.05906X0.03937*%
%ADD15O,0.08661X0.02362*%
%ADD16R,0.03150X0.03543*%
%ADD17O,0.06299X0.01378*%
%ADD18O,0.09055X0.03347*%
%ADD19R,0.09449X0.12992*%
%ADD20R,0.09449X0.03937*%
%ADD21R,0.03937X0.09449*%
%ADD22R,0.03937X0.05906*%
%ADD23R,0.04331X0.06693*%
%ADD24R,0.06693X0.04331*%
%ADD25R,0.24410X0.22835*%
%ADD26R,0.11811X0.06299*%
%ADD27R,0.02362X0.04331*%
%ADD28C,0.01500*%
%ADD29C,0.00800*%
%ADD30C,0.03000*%
%ADD31C,0.01000*%
%ADD32C,0.02500*%
%ADD33C,0.02000*%
%ADD34C,0.15000*%
%ADD35C,0.05906*%
%ADD36R,0.05906X0.05906*%
%ADD37R,0.05906X0.05906*%
%ADD38C,0.05000*%
%ADD39C,0.02500*%
G36*
X191500Y323400D02*
Y320854D01*
X191001Y320821D01*
X190910Y321514D01*
X190557Y322365D01*
X189996Y323096D01*
X189265Y323657D01*
X189000Y323767D01*
Y320600D01*
Y317433D01*
X189265Y317543D01*
X189996Y318104D01*
X190557Y318835D01*
X190910Y319686D01*
X191001Y320379D01*
X191500Y320346D01*
Y308612D01*
X191010Y308514D01*
X191010D01*
X190657Y309365D01*
X190096Y310096D01*
X189365Y310657D01*
X189100Y310767D01*
Y307600D01*
Y304433D01*
X189365Y304543D01*
X190096Y305104D01*
X190657Y305835D01*
X191010Y306686D01*
X191010D01*
X191500Y306588D01*
Y303500D01*
X185400Y298900D01*
X157600D01*
Y301500D01*
X168852D01*
Y313917D01*
Y326334D01*
X157600D01*
Y328100D01*
X186800D01*
X191500Y323400D01*
D02*
G37*
%LPC*%
G36*
X183556Y312417D02*
X171852D01*
Y301500D01*
X183556D01*
Y312417D01*
D02*
G37*
G36*
X186100Y310767D02*
X185835Y310657D01*
X185104Y310096D01*
X184543Y309365D01*
X184190Y308514D01*
X184070Y307600D01*
X184190Y306686D01*
X184543Y305835D01*
X185104Y305104D01*
X185835Y304543D01*
X186100Y304433D01*
Y307600D01*
Y310767D01*
D02*
G37*
G36*
X183556Y326334D02*
X171852D01*
Y315417D01*
X183556D01*
Y319917D01*
X184055Y319950D01*
X184090Y319686D01*
X184443Y318835D01*
X185004Y318104D01*
X185735Y317543D01*
X186000Y317433D01*
Y320600D01*
Y323767D01*
X185735Y323657D01*
X185004Y323096D01*
X184443Y322365D01*
X184090Y321514D01*
X184055Y321250D01*
X183556Y321283D01*
Y326334D01*
D02*
G37*
%LPD*%
D10*
X133200Y407485D02*
D03*
Y393115D02*
D03*
D11*
X236700Y267553D02*
D03*
Y261647D02*
D03*
X237095Y303336D02*
D03*
Y297430D02*
D03*
D12*
X207795Y267439D02*
D03*
Y261927D02*
D03*
X241700Y261844D02*
D03*
Y267356D02*
D03*
X207895Y305539D02*
D03*
Y300027D02*
D03*
X242295Y297627D02*
D03*
Y303139D02*
D03*
X253488Y297544D02*
D03*
Y303056D02*
D03*
X258300Y297544D02*
D03*
Y303056D02*
D03*
D13*
X131007Y361300D02*
D03*
X144393D02*
D03*
X131007Y377800D02*
D03*
X144393D02*
D03*
X159147Y377224D02*
D03*
X172533D02*
D03*
D14*
X238300Y407369D02*
D03*
Y416031D02*
D03*
X112900Y303531D02*
D03*
Y294869D02*
D03*
X155340Y345894D02*
D03*
Y354555D02*
D03*
X144200Y410831D02*
D03*
Y402169D02*
D03*
D15*
X298251Y347000D02*
D03*
Y342000D02*
D03*
Y337000D02*
D03*
Y332000D02*
D03*
X317149Y347000D02*
D03*
Y342000D02*
D03*
Y337000D02*
D03*
Y332000D02*
D03*
X298251Y377000D02*
D03*
Y372000D02*
D03*
Y367000D02*
D03*
Y362000D02*
D03*
X317149Y377000D02*
D03*
Y372000D02*
D03*
Y367000D02*
D03*
Y362000D02*
D03*
X298251Y287000D02*
D03*
Y282000D02*
D03*
Y277000D02*
D03*
Y272000D02*
D03*
X317149Y287000D02*
D03*
Y282000D02*
D03*
Y277000D02*
D03*
Y272000D02*
D03*
X298251Y317000D02*
D03*
Y312000D02*
D03*
Y307000D02*
D03*
Y302000D02*
D03*
X317149Y317000D02*
D03*
Y312000D02*
D03*
Y307000D02*
D03*
Y302000D02*
D03*
D16*
X311444Y354000D02*
D03*
X316956D02*
D03*
X311444Y384000D02*
D03*
X316956D02*
D03*
X311444Y294000D02*
D03*
X316956D02*
D03*
X311444Y324000D02*
D03*
X316956D02*
D03*
X252232Y328100D02*
D03*
X257744D02*
D03*
X252332Y323000D02*
D03*
X257844D02*
D03*
X228856Y390100D02*
D03*
X223344D02*
D03*
X253844Y390100D02*
D03*
X259356D02*
D03*
D17*
X249497Y316739D02*
D03*
Y314179D02*
D03*
Y311620D02*
D03*
Y309061D02*
D03*
X263080Y316739D02*
D03*
Y314179D02*
D03*
Y311620D02*
D03*
Y309061D02*
D03*
D18*
X223088Y381100D02*
D03*
Y376100D02*
D03*
Y371100D02*
D03*
Y366100D02*
D03*
Y361100D02*
D03*
Y356100D02*
D03*
Y351100D02*
D03*
Y346100D02*
D03*
Y341100D02*
D03*
Y336100D02*
D03*
X259112Y381100D02*
D03*
Y376100D02*
D03*
Y371100D02*
D03*
Y366100D02*
D03*
Y361100D02*
D03*
Y356100D02*
D03*
Y351100D02*
D03*
Y346100D02*
D03*
Y341100D02*
D03*
Y336100D02*
D03*
D19*
X184817Y282300D02*
D03*
D20*
X161983Y273245D02*
D03*
Y282300D02*
D03*
Y291355D02*
D03*
D21*
X138400Y279107D02*
D03*
Y292493D02*
D03*
X126505Y337110D02*
D03*
Y323724D02*
D03*
D22*
X159569Y259300D02*
D03*
X168231D02*
D03*
X178577Y259150D02*
D03*
X187239D02*
D03*
X113277Y288050D02*
D03*
X121939D02*
D03*
X170671Y339224D02*
D03*
X162009D02*
D03*
D23*
X152715Y259800D02*
D03*
X142085D02*
D03*
X152715Y268800D02*
D03*
X142085D02*
D03*
X172155Y364724D02*
D03*
X161525D02*
D03*
D24*
X150900Y294115D02*
D03*
Y283485D02*
D03*
X121505Y303602D02*
D03*
Y314232D02*
D03*
X130005Y303602D02*
D03*
Y314232D02*
D03*
X112700Y325415D02*
D03*
Y314785D02*
D03*
X187023Y339215D02*
D03*
Y349845D02*
D03*
X178323Y339215D02*
D03*
Y349845D02*
D03*
D25*
X170352Y313917D02*
D03*
D26*
X142005Y304862D02*
D03*
Y322972D02*
D03*
D27*
X170580Y356449D02*
D03*
X166840D02*
D03*
X163100D02*
D03*
Y347000D02*
D03*
X170580D02*
D03*
D28*
X304400Y254500D02*
X308519Y258619D01*
X161100Y254500D02*
X304400D01*
X159569Y256031D02*
X161100Y254500D01*
X278700Y257300D02*
X283600Y262200D01*
X202100Y257300D02*
X278700D01*
X198373Y261027D02*
X202100Y257300D01*
X236700Y267553D02*
X244353D01*
X246300Y269500D01*
Y301800D01*
X108003Y335403D02*
X122800Y350200D01*
X121505Y303531D02*
X129934D01*
X112900D02*
X121505D01*
Y303602D01*
Y302595D02*
Y303531D01*
Y302595D02*
X124600Y299500D01*
X153500D01*
X155600Y297400D01*
X178428Y259300D02*
X178577Y259150D01*
X168231Y259300D02*
X178428D01*
X153215D02*
X159569D01*
X152715Y259800D02*
X153215Y259300D01*
X152715Y259800D02*
Y268800D01*
X157538D01*
X161983Y273245D01*
X162009Y339224D02*
X163100Y340315D01*
Y347000D01*
X155340Y345894D02*
X161994D01*
X163100Y347000D01*
X170580Y339315D02*
X170671Y339224D01*
X170580Y339315D02*
Y347000D01*
X163100Y356449D02*
Y358984D01*
X164080Y359965D01*
X170580D01*
X171340Y365539D02*
Y370224D01*
X172533Y371417D01*
Y377224D01*
X170580Y356449D02*
Y359965D01*
X172155Y361539D01*
Y364724D01*
X228856Y390100D02*
X233100D01*
X249600Y390100D02*
X253844D01*
X317149Y372000D02*
X322100D01*
X324600Y374500D01*
X328700D01*
X323900Y364500D02*
X328700D01*
X321400Y367000D02*
X323900Y364500D01*
X317149Y367000D02*
X321400D01*
X317149Y342000D02*
X322000D01*
X324500Y344500D01*
X328700D01*
X317149Y337000D02*
X321000D01*
X323500Y334500D01*
X328700D01*
X317149Y312000D02*
X321900D01*
X324400Y314500D01*
X328700D01*
X317149Y307000D02*
X321200D01*
X323700Y304500D01*
X328700D01*
X317149Y282000D02*
X320500D01*
X323000Y284500D01*
X328700D01*
X317149Y277000D02*
X321700D01*
X324200Y274500D01*
X328700D01*
X223344Y381356D02*
Y390100D01*
X259356Y381344D02*
Y390100D01*
X257744Y328100D02*
X257844Y328000D01*
X155400Y383800D02*
X169800D01*
X172533Y381067D01*
Y377224D02*
Y381067D01*
X140674Y303531D02*
X142005Y304862D01*
X112900Y288428D02*
Y294869D01*
Y288428D02*
X113277Y288050D01*
X129934Y303531D02*
X130005Y303602D01*
X130800Y377800D02*
X131007D01*
X125700Y372700D02*
X130800Y377800D01*
X130695Y341300D02*
X131800D01*
X126505Y337110D02*
X130695Y341300D01*
X131500Y351300D02*
X137200D01*
X130400Y350200D02*
X131500Y351300D01*
X122800Y350200D02*
X130400D01*
X109569Y303531D02*
X112900D01*
X108003Y305097D02*
X109569Y303531D01*
X108003Y305097D02*
Y335403D01*
X196100Y297400D02*
X198373Y295127D01*
X129934Y303531D02*
X140674D01*
X155600Y297400D02*
X196100D01*
X303100Y386000D02*
X308519Y380581D01*
X259356Y390100D02*
X263456Y386000D01*
X255756Y393700D02*
X259356Y390100D01*
X223344Y390100D02*
X226944Y393700D01*
X252400Y333444D02*
X257744Y328100D01*
X252400Y333444D02*
Y383600D01*
X242300Y393700D02*
X252400Y383600D01*
X226944Y393700D02*
X242300D01*
X255756D01*
X241895Y261827D02*
X245751D01*
X242295Y293805D02*
Y297627D01*
X316956Y287193D02*
Y294000D01*
Y287193D02*
X317149Y287000D01*
X308519Y258619D02*
Y302437D01*
X316956Y294000D01*
X311444Y291656D02*
Y294000D01*
Y291656D02*
X313100Y290000D01*
X317900Y272000D02*
X321500Y268400D01*
X317149Y272000D02*
X317900D01*
X317149Y301351D02*
Y302000D01*
Y301351D02*
X320300Y298200D01*
X317149Y317000D02*
Y323807D01*
X316956Y324000D02*
X317149Y323807D01*
X308519Y302437D02*
Y332437D01*
X311444Y321656D02*
X313100Y320000D01*
X311444Y321656D02*
Y324000D01*
X308519Y332437D02*
X316956Y324000D01*
X318600Y328200D02*
X320700D01*
X317149Y329651D02*
X318600Y328200D01*
X317149Y329651D02*
Y332000D01*
Y347000D02*
Y353807D01*
X308519Y362437D02*
X316956Y354000D01*
X317149Y353807D01*
X308519Y332437D02*
Y362437D01*
Y380581D01*
X312700Y350100D02*
X313100D01*
X311444Y351356D02*
X312700Y350100D01*
X311444Y351356D02*
Y354000D01*
X319000Y358000D02*
X320500D01*
X317149Y359851D02*
X319000Y358000D01*
X317149Y359851D02*
Y362000D01*
Y377000D02*
Y383807D01*
X309288Y387100D02*
X309310Y387122D01*
X313834D01*
X304200Y387100D02*
X309288D01*
X303100Y386000D02*
X304200Y387100D01*
X313834Y387122D02*
X316956Y384000D01*
X317149Y383807D01*
X312400Y380200D02*
X313900D01*
X311444Y381156D02*
X312400Y380200D01*
X311444Y381156D02*
Y384000D01*
X249000Y319600D02*
X252332Y322932D01*
X252232Y328100D02*
X252332Y328000D01*
Y322932D02*
Y323000D01*
Y328000D01*
X263456Y386000D02*
X303100D01*
X159569Y256031D02*
Y259300D01*
X253488Y297544D02*
X258300D01*
X249444D02*
X253488D01*
X249400Y297500D02*
X249444Y297544D01*
X253488Y303056D02*
X258300D01*
X283600Y262200D02*
Y295870D01*
X258300Y303056D02*
X258444Y303200D01*
X276270D01*
X283600Y295870D01*
X237095Y303336D02*
X242098D01*
X242295Y303139D01*
X196100Y297400D02*
X198600Y299900D01*
X207768D01*
X207895Y300027D01*
X217373D01*
X217500Y299900D01*
X207795Y267439D02*
Y271295D01*
X204039Y305539D02*
X207895D01*
X207795Y261927D02*
X217273D01*
X200646D02*
X207795D01*
X198373Y264200D02*
X200646Y261927D01*
X198373Y261027D02*
Y264200D01*
Y295127D01*
X244900Y303200D02*
X246300Y301800D01*
X242356Y303200D02*
X244900D01*
X242295Y303139D02*
X242356Y303200D01*
X187023Y339215D02*
X196185D01*
X207200Y328200D01*
X236000D01*
X239300Y324900D01*
X155300Y354595D02*
Y364700D01*
X161501D01*
X161525Y364724D01*
X155300Y373377D02*
X159147Y377224D01*
X155300Y364700D02*
Y373377D01*
X166840Y353360D02*
Y356449D01*
Y353360D02*
X169685Y350515D01*
X186352D02*
X187023Y349845D01*
X187068Y349800D02*
X194000D01*
X169685Y350515D02*
X186352D01*
X178323Y339215D02*
X187023D01*
X170671Y339224D02*
X178323D01*
D29*
X267600Y336100D02*
X270800Y332900D01*
Y320200D02*
Y332900D01*
X267339Y316739D02*
X270800Y320200D01*
X264600Y341100D02*
X272200Y333500D01*
Y310900D02*
Y333500D01*
X270361Y309061D02*
X272200Y310900D01*
X259112Y336100D02*
X267600D01*
X259112Y341100D02*
X264600D01*
X263080Y309061D02*
X270361D01*
X199400Y391700D02*
X201900Y394200D01*
Y423000D01*
X191900Y394000D02*
X194400Y391500D01*
X191900Y394000D02*
Y423000D01*
X181900Y398900D02*
Y423000D01*
Y398900D02*
X189400Y391400D01*
X171900Y403100D02*
Y423000D01*
Y403100D02*
X184400Y390600D01*
X161900Y405700D02*
Y423000D01*
Y405700D02*
X179400Y388200D01*
X211900Y398100D02*
Y423000D01*
X204400Y390600D02*
X211900Y398100D01*
X209400Y389300D02*
X221900Y401800D01*
Y423000D01*
X231900Y405700D02*
Y423000D01*
X214400Y380312D02*
Y388200D01*
X231900Y405700D01*
X187195Y259194D02*
X187239Y259150D01*
X214400Y380312D02*
X218612Y376100D01*
X223088D01*
X184400Y374800D02*
Y390600D01*
Y374800D02*
X213100Y346100D01*
X223088D01*
X179400Y374200D02*
Y388200D01*
Y374200D02*
X212500Y341100D01*
X223088D01*
X189400Y376400D02*
Y391400D01*
Y376400D02*
X214700Y351100D01*
X223088D01*
X194400Y377100D02*
Y391500D01*
Y377100D02*
X215400Y356100D01*
X223088D01*
X199400Y376700D02*
Y391700D01*
Y376700D02*
X215000Y361100D01*
X223088D01*
X209400Y378800D02*
Y389300D01*
Y378800D02*
X217100Y371100D01*
X223088D01*
X204400Y377800D02*
Y390600D01*
Y377800D02*
X216100Y366100D01*
X223088D01*
X238300Y407369D02*
X238300Y407369D01*
X150431Y402169D02*
X150500Y402100D01*
X259112Y371100D02*
X279100D01*
X285000Y377000D01*
X298251D01*
X305300D01*
X298251Y347000D02*
X304200D01*
X298251Y317000D02*
X304000D01*
X306700Y314300D01*
X298251Y287000D02*
X303800D01*
X298251Y367000D02*
X304300D01*
X300800Y337000D02*
X303400Y339600D01*
X298251Y337000D02*
X300800D01*
X303400Y339600D02*
X303582Y339418D01*
Y322418D02*
Y339418D01*
X298251Y307000D02*
X301000D01*
X303500Y309500D01*
X303582Y309418D01*
Y291882D02*
Y309418D01*
X259112Y366100D02*
X284200D01*
X290100Y372000D01*
X298251D01*
X259112Y361100D02*
X285400D01*
X291300Y367000D01*
X298251D01*
X279300Y356100D02*
X293400Y342000D01*
X298251D01*
X289900Y315400D02*
X293300Y312000D01*
X298251D01*
X288100Y286500D02*
Y333000D01*
Y286500D02*
X292600Y282000D01*
X298251D01*
X259112Y356100D02*
X279300D01*
X277200Y351100D02*
X289900Y338400D01*
Y315400D02*
Y338400D01*
X303800Y287000D02*
X306700Y289900D01*
Y314300D01*
X304200Y347000D02*
X306350Y349150D01*
X304000Y317000D02*
X305832Y318832D01*
X304200Y347000D02*
X305832Y345368D01*
X306350Y349150D02*
Y351625D01*
X306769Y352044D01*
X303400Y351000D02*
X305369Y352969D01*
X305300Y377000D02*
X306769Y375531D01*
X304300Y367000D02*
X305369Y365931D01*
X301000Y277000D02*
X303600Y279600D01*
X298251Y277000D02*
X301000D01*
X305832Y318832D02*
Y345368D01*
X305369Y352969D02*
Y365931D01*
X306769Y352044D02*
Y375531D01*
X263080Y316739D02*
X267339D01*
X259112Y351100D02*
X277200D01*
X259112Y346100D02*
X275000D01*
X288100Y333000D01*
D30*
X112700Y336069D02*
X123131Y346500D01*
X112700Y325415D02*
Y336069D01*
X123131Y346500D02*
X139100D01*
X104600Y336500D02*
X121600Y353500D01*
X116862Y298938D02*
X121685Y294115D01*
X109602Y298938D02*
X116862D01*
X104600Y303940D02*
X109602Y298938D01*
X121685Y294115D02*
X136778D01*
X104600Y303940D02*
Y336500D01*
X187195Y259194D02*
Y265483D01*
X131900Y416100D02*
Y423000D01*
Y416100D02*
X133200Y414800D01*
Y407485D02*
Y414800D01*
Y393115D02*
X139085D01*
X144393Y387807D01*
Y377800D02*
Y387807D01*
Y361300D02*
Y377800D01*
X112700Y325415D02*
X124814D01*
X127257Y322972D02*
X142005D01*
X124814Y325415D02*
X126505Y323724D01*
X127257Y322972D01*
X271900Y423000D02*
X277600Y417300D01*
X307600Y403500D02*
X308700Y402400D01*
X261900Y423000D02*
X271200Y413700D01*
X251900Y423000D02*
X264800Y410100D01*
X272800D01*
X277800Y405100D01*
Y402400D02*
Y405100D01*
X271200Y413700D02*
X280600D01*
X287800Y406500D01*
Y402400D02*
Y406500D01*
X277600Y417300D02*
X288100D01*
X297800Y407600D01*
Y402400D02*
Y407600D01*
X281900Y423000D02*
X293800D01*
X307600Y409200D01*
Y403500D02*
Y409200D01*
X139100Y346500D02*
X144393Y351793D01*
Y361300D01*
X112700Y309100D02*
Y314785D01*
X120800Y314937D02*
Y320100D01*
Y314937D02*
X121505Y314232D01*
X130173Y314400D02*
X137700D01*
X130005Y314232D02*
X130173Y314400D01*
X122000Y281700D02*
Y287989D01*
X150900Y276900D02*
Y283485D01*
X156600Y282300D02*
X161983D01*
X155415Y283485D02*
X156600Y282300D01*
X150900Y283485D02*
X155415D01*
X129400Y276500D02*
X135793D01*
X138400Y279107D01*
X135800Y257800D02*
X137800Y259800D01*
X142085D01*
X138400Y268800D02*
X142085D01*
X135700Y266100D02*
X138400Y268800D01*
X140022Y294115D02*
X150900D01*
X138400Y292493D02*
X140022Y294115D01*
X150900D02*
X152385D01*
X155145Y291355D01*
X161983D01*
X139386Y356800D02*
X144393Y351793D01*
X131800Y356800D02*
X139386D01*
X128500Y353500D02*
X131800Y356800D01*
X121600Y353500D02*
X128500D01*
X136778Y294115D02*
X138400Y292493D01*
D31*
X171340Y365539D02*
X172155Y364724D01*
X259112Y381100D02*
X259356Y381344D01*
X249497Y311620D02*
X252282D01*
X259909Y314179D02*
X263080D01*
X257844Y316244D02*
X259909Y314179D01*
X257844Y316244D02*
Y323000D01*
Y328000D01*
X263100Y311600D02*
X268388D01*
X255900Y314300D02*
X257844Y316244D01*
X249617Y314300D02*
X255900D01*
X249497Y314179D02*
X249617Y314300D01*
X241039Y316739D02*
X249497D01*
X259112Y376100D02*
X265900D01*
X215800Y336100D02*
X223088D01*
X252282Y311620D02*
X253996Y309906D01*
Y303564D02*
Y309906D01*
X240147Y315847D02*
X241039Y316739D01*
X223447Y315847D02*
X240147D01*
X217500Y309900D02*
X223447Y315847D01*
X227500Y299900D02*
X231400D01*
X233870Y297430D01*
X237095D01*
X227500Y261700D02*
X236600D01*
X232393Y309061D02*
X249497D01*
X222100Y275700D02*
Y303300D01*
X218100Y271700D02*
X222100Y275700D01*
X217500Y271700D02*
X218100D01*
X229179Y305847D02*
X232393Y309061D01*
X222100Y303300D02*
X224647Y305847D01*
X229179D01*
D32*
X184695Y282423D02*
Y292583D01*
X141900Y416800D02*
Y423000D01*
Y416800D02*
X144200Y414500D01*
Y410831D02*
Y414500D01*
X141900Y423000D02*
X151900D01*
X238300Y402200D02*
Y407369D01*
X238300Y416031D02*
Y419400D01*
X241900Y423000D01*
X144200Y402169D02*
X150431D01*
D33*
X122500Y361300D02*
X131007D01*
D34*
X115500Y418100D02*
D03*
Y267000D02*
D03*
X321000Y418100D02*
D03*
D35*
X307800Y402400D02*
D03*
Y392400D02*
D03*
X297800Y402400D02*
D03*
Y392400D02*
D03*
X287800Y402400D02*
D03*
Y392400D02*
D03*
X277800Y402400D02*
D03*
Y392400D02*
D03*
X267800Y402400D02*
D03*
X217500Y261700D02*
D03*
X227500Y271700D02*
D03*
X217500D02*
D03*
X227500Y281700D02*
D03*
X217500D02*
D03*
X271900Y423000D02*
D03*
X261900D02*
D03*
X251900D02*
D03*
X241900D02*
D03*
X231900D02*
D03*
X221900D02*
D03*
X211900D02*
D03*
X201900D02*
D03*
X191900D02*
D03*
X181900D02*
D03*
X171900D02*
D03*
X161900D02*
D03*
X151900D02*
D03*
X141900D02*
D03*
X131900D02*
D03*
X217500Y299900D02*
D03*
X227500Y309900D02*
D03*
X217500D02*
D03*
X227500Y319900D02*
D03*
X217500D02*
D03*
X328700Y364500D02*
D03*
Y334500D02*
D03*
Y304500D02*
D03*
Y274500D02*
D03*
D36*
X267800Y392400D02*
D03*
X281900Y423000D02*
D03*
D37*
X227500Y261700D02*
D03*
Y299900D02*
D03*
X328700Y374500D02*
D03*
Y344500D02*
D03*
Y314500D02*
D03*
Y284500D02*
D03*
D38*
X184695Y292583D02*
D03*
X150900Y276900D02*
D03*
X187195Y265483D02*
D03*
X137700Y314400D02*
D03*
X187500Y320600D02*
D03*
X150500Y402100D02*
D03*
X238300Y402200D02*
D03*
X155400Y383800D02*
D03*
X187600Y307600D02*
D03*
X137200Y351300D02*
D03*
X120800Y320100D02*
D03*
X112700Y309100D02*
D03*
X122000Y281700D02*
D03*
X129400Y276500D02*
D03*
X135700Y266100D02*
D03*
X135800Y257800D02*
D03*
X125700Y372700D02*
D03*
X131800Y341300D02*
D03*
X122500Y361300D02*
D03*
X155300Y364700D02*
D03*
X194000Y349800D02*
D03*
D39*
X249400Y297500D02*
D03*
X265900Y376100D02*
D03*
X215800Y336100D02*
D03*
X303400Y351000D02*
D03*
Y339600D02*
D03*
X303582Y322418D02*
D03*
X303500Y309500D02*
D03*
X233100Y390100D02*
D03*
X249600D02*
D03*
X245751Y261827D02*
D03*
X242295Y293805D02*
D03*
X303582Y291882D02*
D03*
X303600Y279600D02*
D03*
X321500Y268400D02*
D03*
X313100Y290000D02*
D03*
X320300Y298200D02*
D03*
X313100Y320000D02*
D03*
X320700Y328200D02*
D03*
X313100Y350100D02*
D03*
X320500Y358000D02*
D03*
X313900Y380200D02*
D03*
X249000Y319600D02*
D03*
X268388Y311600D02*
D03*
X207795Y271295D02*
D03*
X204039Y305539D02*
D03*
X246300Y301800D02*
D03*
X239300Y324900D02*
D03*
M02*
