M48
;Layer_Color=9474304
;FILE_FORMAT=2:5
INCH,LZ
;TYPE=PLATED
T1F00S00C0.01500
T2F00S00C0.02800
T3F00S00C0.03543
T4F00S00C0.12000
%
T01
X0207795Y0271295
X0204039Y0305539
X02158Y03361
X02393Y03249
X0249Y03196
X02463Y03018
X02494Y02975
X0242295Y0293805
X0245751Y0261827
X0268388Y03116
X03035Y03095
X0303582Y0322418
X03131Y032
X03207Y03282
X03034Y03396
X0303582Y0291882
X03131Y029
X03203Y02982
X03215Y02684
X03036Y02796
X03034Y0351
X03131Y03501
X03205Y0358
X03139Y03802
X02659Y03761
X02496Y03901
X02331
T02
X01358Y02578
X01357Y02661
X01294Y02765
X0122Y02817
X01509Y02769
X01377Y03144
X01208Y03201
X01127Y03091
X01876Y03076
X01875Y03206
X0184695Y0292583
X0187195Y0265483
X0194Y03498
X02383Y04022
X01505Y04021
X01554Y03838
X01553Y03647
X01372Y03513
X01318Y03413
X01225Y03613
X01257Y03727
T03
X02175Y02617
X02275
Y02717
X02175
Y02817
X02275
Y02999
X02175
Y03099
X02275
Y03199
X02175
X03287Y03145
Y03045
Y02845
Y02745
Y03345
Y03445
Y03645
Y03745
X03078Y03924
Y04024
X02978
Y03924
X02878
Y04024
X02778
Y03924
X02678
Y04024
X02719Y0423
X02819
X02619
X02519
X02419
X02319
X02219
X02119
X02019
X01919
X01819
X01719
X01619
X01519
X01419
X01319
T04
X01155Y0267
X0321Y04181
X01155
M30
