%FSLAX25Y25*%
%MOIN*%
G70*
G01*
G75*
G04 Layer_Physical_Order=2*
G04 Layer_Color=16711680*
%ADD10R,0.07284X0.09252*%
%ADD11R,0.03543X0.02756*%
%ADD12R,0.03543X0.03150*%
%ADD13R,0.09449X0.03937*%
%ADD14R,0.05906X0.03937*%
%ADD15O,0.08661X0.02362*%
%ADD16R,0.03150X0.03543*%
%ADD17O,0.06299X0.01378*%
%ADD18O,0.09055X0.03347*%
%ADD19R,0.09449X0.12992*%
%ADD20R,0.09449X0.03937*%
%ADD21R,0.03937X0.09449*%
%ADD22R,0.03937X0.05906*%
%ADD23R,0.04331X0.06693*%
%ADD24R,0.06693X0.04331*%
%ADD25R,0.24410X0.22835*%
%ADD26R,0.11811X0.06299*%
%ADD27R,0.02362X0.04331*%
%ADD28C,0.01500*%
%ADD29C,0.00800*%
%ADD30C,0.03000*%
%ADD31C,0.01000*%
%ADD32C,0.02500*%
%ADD33C,0.02000*%
%ADD34C,0.15000*%
%ADD35C,0.05906*%
%ADD36R,0.05906X0.05906*%
%ADD37R,0.05906X0.05906*%
%ADD38C,0.05000*%
%ADD39C,0.02500*%
G36*
X334278Y253739D02*
X102222D01*
Y431378D01*
X334278D01*
Y253739D01*
D02*
G37*
%LPC*%
G36*
X247900Y299204D02*
X247778Y299122D01*
X247696Y299000D01*
X247900D01*
Y299204D01*
D02*
G37*
G36*
X250900D02*
Y299000D01*
X251104D01*
X251022Y299122D01*
X250900Y299204D01*
D02*
G37*
G36*
X318800Y299904D02*
X318678Y299822D01*
X318596Y299700D01*
X318800D01*
Y299904D01*
D02*
G37*
G36*
X231053Y303453D02*
X223947D01*
Y296347D01*
X231053D01*
Y303453D01*
D02*
G37*
G36*
X318800Y296700D02*
X318596D01*
X318678Y296578D01*
X318800Y296496D01*
Y296700D01*
D02*
G37*
G36*
X322004D02*
X321800D01*
Y296496D01*
X321922Y296578D01*
X322004Y296700D01*
D02*
G37*
G36*
X321800Y299904D02*
Y299700D01*
X322004D01*
X321922Y299822D01*
X321800Y299904D01*
D02*
G37*
G36*
X186100Y306100D02*
X184433D01*
X184543Y305835D01*
X185104Y305104D01*
X185835Y304543D01*
X186100Y304433D01*
Y306100D01*
D02*
G37*
G36*
X190767D02*
X189100D01*
Y304433D01*
X189365Y304543D01*
X190096Y305104D01*
X190657Y305835D01*
X190767Y306100D01*
D02*
G37*
G36*
X111200Y307600D02*
X109533D01*
X109643Y307335D01*
X110204Y306604D01*
X110935Y306043D01*
X111200Y305933D01*
Y307600D01*
D02*
G37*
G36*
X328700Y308083D02*
X327773Y307961D01*
X326908Y307603D01*
X326166Y307034D01*
X325597Y306292D01*
X325239Y305427D01*
X325117Y304500D01*
X325239Y303573D01*
X325597Y302708D01*
X326166Y301966D01*
X326908Y301397D01*
X327773Y301039D01*
X328700Y300917D01*
X329627Y301039D01*
X330492Y301397D01*
X331234Y301966D01*
X331803Y302708D01*
X332161Y303573D01*
X332283Y304500D01*
X332161Y305427D01*
X331803Y306292D01*
X331234Y307034D01*
X330492Y307603D01*
X329627Y307961D01*
X328700Y308083D01*
D02*
G37*
G36*
X202539Y304039D02*
X202335D01*
X202417Y303917D01*
X202539Y303835D01*
Y304039D01*
D02*
G37*
G36*
X205743D02*
X205539D01*
Y303835D01*
X205661Y303917D01*
X205743Y304039D01*
D02*
G37*
G36*
X314600Y291704D02*
Y291500D01*
X314804D01*
X314722Y291622D01*
X314600Y291704D01*
D02*
G37*
G36*
X240795Y292305D02*
X240591D01*
X240673Y292183D01*
X240795Y292102D01*
Y292305D01*
D02*
G37*
G36*
X243999D02*
X243795D01*
Y292102D01*
X243917Y292183D01*
X243999Y292305D01*
D02*
G37*
G36*
X183195Y291083D02*
X181528D01*
X181638Y290818D01*
X182199Y290087D01*
X182930Y289526D01*
X183195Y289416D01*
Y291083D01*
D02*
G37*
G36*
X187862D02*
X186195D01*
Y289416D01*
X186460Y289526D01*
X187191Y290087D01*
X187752Y290818D01*
X187862Y291083D01*
D02*
G37*
G36*
X311600Y291704D02*
X311478Y291622D01*
X311396Y291500D01*
X311600D01*
Y291704D01*
D02*
G37*
G36*
X183195Y295750D02*
X182930Y295640D01*
X182199Y295079D01*
X181638Y294348D01*
X181528Y294083D01*
X183195D01*
Y295750D01*
D02*
G37*
G36*
X247900Y296000D02*
X247696D01*
X247778Y295878D01*
X247900Y295796D01*
Y296000D01*
D02*
G37*
G36*
X251104D02*
X250900D01*
Y295796D01*
X251022Y295878D01*
X251104Y296000D01*
D02*
G37*
G36*
X217500Y303483D02*
X216573Y303361D01*
X215708Y303003D01*
X214966Y302434D01*
X214397Y301692D01*
X214039Y300827D01*
X213917Y299900D01*
X214039Y298973D01*
X214397Y298108D01*
X214966Y297366D01*
X215708Y296797D01*
X216573Y296439D01*
X217500Y296317D01*
X218427Y296439D01*
X219292Y296797D01*
X220034Y297366D01*
X220603Y298108D01*
X220961Y298973D01*
X221083Y299900D01*
X220961Y300827D01*
X220603Y301692D01*
X220034Y302434D01*
X219292Y303003D01*
X218427Y303361D01*
X217500Y303483D01*
D02*
G37*
G36*
X186195Y295750D02*
Y294083D01*
X187862D01*
X187752Y294348D01*
X187191Y295079D01*
X186460Y295640D01*
X186195Y295750D01*
D02*
G37*
G36*
X240795Y295509D02*
X240673Y295427D01*
X240591Y295305D01*
X240795D01*
Y295509D01*
D02*
G37*
G36*
X243795D02*
Y295305D01*
X243999D01*
X243917Y295427D01*
X243795Y295509D01*
D02*
G37*
G36*
X115867Y307600D02*
X114200D01*
Y305933D01*
X114465Y306043D01*
X115196Y306604D01*
X115757Y307335D01*
X115867Y307600D01*
D02*
G37*
G36*
X229000Y313557D02*
Y311400D01*
X231157D01*
X230953Y311893D01*
X230319Y312719D01*
X229493Y313353D01*
X229000Y313557D01*
D02*
G37*
G36*
X266888Y313304D02*
X266766Y313222D01*
X266684Y313100D01*
X266888D01*
Y313304D01*
D02*
G37*
G36*
X269888D02*
Y313100D01*
X270092D01*
X270010Y313222D01*
X269888Y313304D01*
D02*
G37*
G36*
X136200Y312900D02*
X134533D01*
X134643Y312635D01*
X135204Y311904D01*
X135935Y311343D01*
X136200Y311233D01*
Y312900D01*
D02*
G37*
G36*
X140867D02*
X139200D01*
Y311233D01*
X139465Y311343D01*
X140196Y311904D01*
X140757Y312635D01*
X140867Y312900D01*
D02*
G37*
G36*
X226000Y313557D02*
X225507Y313353D01*
X224681Y312719D01*
X224047Y311893D01*
X223843Y311400D01*
X226000D01*
Y313557D01*
D02*
G37*
G36*
X136200Y317567D02*
X135935Y317457D01*
X135204Y316896D01*
X134643Y316165D01*
X134533Y315900D01*
X136200D01*
Y317567D01*
D02*
G37*
G36*
X227500Y323483D02*
X226573Y323361D01*
X225708Y323003D01*
X224966Y322434D01*
X224397Y321692D01*
X224039Y320827D01*
X223917Y319900D01*
X224039Y318973D01*
X224397Y318108D01*
X224966Y317366D01*
X225708Y316797D01*
X226573Y316439D01*
X227500Y316317D01*
X228427Y316439D01*
X229292Y316797D01*
X230034Y317366D01*
X230603Y318108D01*
X230961Y318973D01*
X231083Y319900D01*
X230961Y320827D01*
X230603Y321692D01*
X230034Y322434D01*
X229292Y323003D01*
X228427Y323361D01*
X227500Y323483D01*
D02*
G37*
G36*
X119300Y318600D02*
X117633D01*
X117743Y318335D01*
X118304Y317604D01*
X119035Y317043D01*
X119300Y316933D01*
Y318600D01*
D02*
G37*
G36*
X123967D02*
X122300D01*
Y316933D01*
X122565Y317043D01*
X123296Y317604D01*
X123857Y318335D01*
X123967Y318600D01*
D02*
G37*
G36*
X139200Y317567D02*
Y315900D01*
X140867D01*
X140757Y316165D01*
X140196Y316896D01*
X139465Y317457D01*
X139200Y317567D01*
D02*
G37*
G36*
X216000Y318400D02*
X213843D01*
X214047Y317907D01*
X214681Y317081D01*
X215507Y316447D01*
X216000Y316243D01*
Y318400D01*
D02*
G37*
G36*
X221157D02*
X219000D01*
Y316243D01*
X219493Y316447D01*
X220319Y317081D01*
X220953Y317907D01*
X221157Y318400D01*
D02*
G37*
G36*
X202539Y307243D02*
X202417Y307161D01*
X202335Y307039D01*
X202539D01*
Y307243D01*
D02*
G37*
G36*
X205539D02*
Y307039D01*
X205743D01*
X205661Y307161D01*
X205539Y307243D01*
D02*
G37*
G36*
X303582Y324304D02*
X302860Y324161D01*
X302248Y323752D01*
X301839Y323140D01*
X301696Y322418D01*
X301839Y321696D01*
X302248Y321084D01*
X302562Y320874D01*
Y311098D01*
X302166Y310834D01*
X301757Y310222D01*
X301614Y309500D01*
X301757Y308778D01*
X302166Y308166D01*
X302778Y307757D01*
X303500Y307614D01*
X304222Y307757D01*
X304834Y308166D01*
X305243Y308778D01*
X305386Y309500D01*
X305243Y310222D01*
X304834Y310834D01*
X304602Y310989D01*
Y320874D01*
X304916Y321084D01*
X305325Y321696D01*
X305468Y322418D01*
X305325Y323140D01*
X304916Y323752D01*
X304304Y324161D01*
X303582Y324304D01*
D02*
G37*
G36*
X226000Y308400D02*
X223843D01*
X224047Y307907D01*
X224681Y307081D01*
X225507Y306447D01*
X226000Y306243D01*
Y308400D01*
D02*
G37*
G36*
X231157D02*
X229000D01*
Y306243D01*
X229493Y306447D01*
X230319Y307081D01*
X230953Y307907D01*
X231157Y308400D01*
D02*
G37*
G36*
X217500Y313483D02*
X216573Y313361D01*
X215708Y313003D01*
X214966Y312434D01*
X214397Y311692D01*
X214039Y310827D01*
X213917Y309900D01*
X214039Y308973D01*
X214397Y308108D01*
X214966Y307366D01*
X215708Y306797D01*
X216573Y306439D01*
X217500Y306317D01*
X218427Y306439D01*
X219292Y306797D01*
X220034Y307366D01*
X220603Y308108D01*
X220961Y308973D01*
X221083Y309900D01*
X220961Y310827D01*
X220603Y311692D01*
X220034Y312434D01*
X219292Y313003D01*
X218427Y313361D01*
X217500Y313483D01*
D02*
G37*
G36*
X186100Y310767D02*
X185835Y310657D01*
X185104Y310096D01*
X184543Y309365D01*
X184433Y309100D01*
X186100D01*
Y310767D01*
D02*
G37*
G36*
X111200Y312267D02*
X110935Y312157D01*
X110204Y311596D01*
X109643Y310865D01*
X109533Y310600D01*
X111200D01*
Y312267D01*
D02*
G37*
G36*
X114200D02*
Y310600D01*
X115867D01*
X115757Y310865D01*
X115196Y311596D01*
X114465Y312157D01*
X114200Y312267D01*
D02*
G37*
G36*
X332253Y318053D02*
X325147D01*
Y310947D01*
X332253D01*
Y318053D01*
D02*
G37*
G36*
X189100Y310767D02*
Y309100D01*
X190767D01*
X190657Y309365D01*
X190096Y310096D01*
X189365Y310657D01*
X189100Y310767D01*
D02*
G37*
G36*
X266888Y310100D02*
X266684D01*
X266766Y309978D01*
X266888Y309896D01*
Y310100D01*
D02*
G37*
G36*
X270092D02*
X269888D01*
Y309896D01*
X270010Y309978D01*
X270092Y310100D01*
D02*
G37*
G36*
X314804Y288500D02*
X314600D01*
Y288296D01*
X314722Y288378D01*
X314804Y288500D01*
D02*
G37*
G36*
X323204Y266900D02*
X323000D01*
Y266696D01*
X323122Y266778D01*
X323204Y266900D01*
D02*
G37*
G36*
X185695Y268650D02*
X185430Y268540D01*
X184698Y267979D01*
X184137Y267248D01*
X184028Y266983D01*
X185695D01*
Y268650D01*
D02*
G37*
G36*
X188695D02*
Y266983D01*
X190362D01*
X190252Y267248D01*
X189691Y267979D01*
X188960Y268540D01*
X188695Y268650D01*
D02*
G37*
G36*
X244251Y263531D02*
X244128Y263449D01*
X244047Y263327D01*
X244251D01*
Y263531D01*
D02*
G37*
G36*
X247251D02*
Y263327D01*
X247454D01*
X247373Y263449D01*
X247251Y263531D01*
D02*
G37*
G36*
X320000Y266900D02*
X319796D01*
X319878Y266778D01*
X320000Y266696D01*
Y266900D01*
D02*
G37*
G36*
X134200Y269267D02*
X133935Y269157D01*
X133204Y268596D01*
X132643Y267865D01*
X132533Y267600D01*
X134200D01*
Y269267D01*
D02*
G37*
G36*
X217500Y275283D02*
X216573Y275161D01*
X215708Y274803D01*
X214966Y274234D01*
X214397Y273492D01*
X214039Y272627D01*
X213917Y271700D01*
X214039Y270773D01*
X214397Y269908D01*
X214966Y269166D01*
X215708Y268597D01*
X216573Y268239D01*
X217500Y268117D01*
X218427Y268239D01*
X219292Y268597D01*
X220034Y269166D01*
X220603Y269908D01*
X220961Y270773D01*
X221083Y271700D01*
X220961Y272627D01*
X220603Y273492D01*
X220034Y274234D01*
X219292Y274803D01*
X218427Y275161D01*
X217500Y275283D01*
D02*
G37*
G36*
X206295Y269795D02*
X206091D01*
X206173Y269673D01*
X206295Y269591D01*
Y269795D01*
D02*
G37*
G36*
X209499D02*
X209295D01*
Y269591D01*
X209417Y269673D01*
X209499Y269795D01*
D02*
G37*
G36*
X137200Y269267D02*
Y267600D01*
X138867D01*
X138757Y267865D01*
X138196Y268596D01*
X137465Y269157D01*
X137200Y269267D01*
D02*
G37*
G36*
X226000Y270200D02*
X223843D01*
X224047Y269707D01*
X224681Y268881D01*
X225507Y268247D01*
X226000Y268043D01*
Y270200D01*
D02*
G37*
G36*
X231157D02*
X229000D01*
Y268043D01*
X229493Y268247D01*
X230319Y268881D01*
X230953Y269707D01*
X231157Y270200D01*
D02*
G37*
G36*
X231053Y265253D02*
X223947D01*
Y258147D01*
X231053D01*
Y265253D01*
D02*
G37*
G36*
X115500Y275139D02*
X113912Y274983D01*
X112385Y274520D01*
X110978Y273767D01*
X109745Y272755D01*
X108732Y271522D01*
X107980Y270115D01*
X107517Y268588D01*
X107361Y267000D01*
X107517Y265412D01*
X107980Y263885D01*
X108732Y262478D01*
X109745Y261245D01*
X110978Y260232D01*
X112385Y259480D01*
X113912Y259017D01*
X115500Y258861D01*
X117088Y259017D01*
X118615Y259480D01*
X120022Y260232D01*
X121255Y261245D01*
X122267Y262478D01*
X123020Y263885D01*
X123483Y265412D01*
X123639Y267000D01*
X123483Y268588D01*
X123020Y270115D01*
X122267Y271522D01*
X121255Y272755D01*
X120022Y273767D01*
X118615Y274520D01*
X117088Y274983D01*
X115500Y275139D01*
D02*
G37*
G36*
X134300Y260967D02*
X134035Y260857D01*
X133304Y260296D01*
X132743Y259565D01*
X132633Y259300D01*
X134300D01*
Y260967D01*
D02*
G37*
G36*
Y256300D02*
X132633D01*
X132743Y256035D01*
X133304Y255304D01*
X134035Y254743D01*
X134300Y254633D01*
Y256300D01*
D02*
G37*
G36*
X138967D02*
X137300D01*
Y254633D01*
X137565Y254743D01*
X138296Y255304D01*
X138857Y256035D01*
X138967Y256300D01*
D02*
G37*
G36*
X217500Y265283D02*
X216573Y265161D01*
X215708Y264803D01*
X214966Y264234D01*
X214397Y263492D01*
X214039Y262627D01*
X213917Y261700D01*
X214039Y260773D01*
X214397Y259908D01*
X214966Y259166D01*
X215708Y258597D01*
X216573Y258239D01*
X217500Y258117D01*
X218427Y258239D01*
X219292Y258597D01*
X220034Y259166D01*
X220603Y259908D01*
X220961Y260773D01*
X221083Y261700D01*
X220961Y262627D01*
X220603Y263492D01*
X220034Y264234D01*
X219292Y264803D01*
X218427Y265161D01*
X217500Y265283D01*
D02*
G37*
G36*
X137300Y260967D02*
Y259300D01*
X138967D01*
X138857Y259565D01*
X138296Y260296D01*
X137565Y260857D01*
X137300Y260967D01*
D02*
G37*
G36*
X190362Y263983D02*
X188695D01*
Y262316D01*
X188960Y262426D01*
X189691Y262987D01*
X190252Y263718D01*
X190362Y263983D01*
D02*
G37*
G36*
X134200Y264600D02*
X132533D01*
X132643Y264335D01*
X133204Y263604D01*
X133935Y263043D01*
X134200Y262933D01*
Y264600D01*
D02*
G37*
G36*
X138867D02*
X137200D01*
Y262933D01*
X137465Y263043D01*
X138196Y263604D01*
X138757Y264335D01*
X138867Y264600D01*
D02*
G37*
G36*
X244251Y260327D02*
X244047D01*
X244128Y260205D01*
X244251Y260123D01*
Y260327D01*
D02*
G37*
G36*
X247454D02*
X247251D01*
Y260123D01*
X247373Y260205D01*
X247454Y260327D01*
D02*
G37*
G36*
X185695Y263983D02*
X184028D01*
X184137Y263718D01*
X184698Y262987D01*
X185430Y262426D01*
X185695Y262316D01*
Y263983D01*
D02*
G37*
G36*
X320000Y270104D02*
X319878Y270022D01*
X319796Y269900D01*
X320000D01*
Y270104D01*
D02*
G37*
G36*
X149400Y280067D02*
X149135Y279957D01*
X148404Y279396D01*
X147843Y278665D01*
X147733Y278400D01*
X149400D01*
Y280067D01*
D02*
G37*
G36*
X152400D02*
Y278400D01*
X154067D01*
X153957Y278665D01*
X153396Y279396D01*
X152665Y279957D01*
X152400Y280067D01*
D02*
G37*
G36*
X120500Y280200D02*
X118833D01*
X118943Y279935D01*
X119504Y279204D01*
X120235Y278643D01*
X120500Y278533D01*
Y280200D01*
D02*
G37*
G36*
X216000D02*
X213843D01*
X214047Y279707D01*
X214681Y278881D01*
X215507Y278247D01*
X216000Y278043D01*
Y280200D01*
D02*
G37*
G36*
X221157D02*
X219000D01*
Y278043D01*
X219493Y278247D01*
X220319Y278881D01*
X220953Y279707D01*
X221157Y280200D01*
D02*
G37*
G36*
X227500Y285283D02*
X226573Y285161D01*
X225708Y284803D01*
X224966Y284234D01*
X224397Y283492D01*
X224039Y282627D01*
X223917Y281700D01*
X224039Y280773D01*
X224397Y279908D01*
X224966Y279166D01*
X225708Y278597D01*
X226573Y278239D01*
X227500Y278117D01*
X228427Y278239D01*
X229292Y278597D01*
X230034Y279166D01*
X230603Y279908D01*
X230961Y280773D01*
X231083Y281700D01*
X230961Y282627D01*
X230603Y283492D01*
X230034Y284234D01*
X229292Y284803D01*
X228427Y285161D01*
X227500Y285283D01*
D02*
G37*
G36*
X125167Y280200D02*
X123500D01*
Y278533D01*
X123765Y278643D01*
X124496Y279204D01*
X125057Y279935D01*
X125167Y280200D01*
D02*
G37*
G36*
X216000Y285357D02*
X215507Y285153D01*
X214681Y284519D01*
X214047Y283693D01*
X213843Y283200D01*
X216000D01*
Y285357D01*
D02*
G37*
G36*
X219000D02*
Y283200D01*
X221157D01*
X220953Y283693D01*
X220319Y284519D01*
X219493Y285153D01*
X219000Y285357D01*
D02*
G37*
G36*
X311600Y288500D02*
X311396D01*
X311478Y288378D01*
X311600Y288296D01*
Y288500D01*
D02*
G37*
G36*
X332253Y288053D02*
X325147D01*
Y280947D01*
X332253D01*
Y288053D01*
D02*
G37*
G36*
X120500Y284867D02*
X120235Y284757D01*
X119504Y284196D01*
X118943Y283465D01*
X118833Y283200D01*
X120500D01*
Y284867D01*
D02*
G37*
G36*
X123500D02*
Y283200D01*
X125167D01*
X125057Y283465D01*
X124496Y284196D01*
X123765Y284757D01*
X123500Y284867D01*
D02*
G37*
G36*
X209295Y272998D02*
Y272795D01*
X209499D01*
X209417Y272917D01*
X209295Y272998D01*
D02*
G37*
G36*
X226000Y275357D02*
X225507Y275153D01*
X224681Y274519D01*
X224047Y273693D01*
X223843Y273200D01*
X226000D01*
Y275357D01*
D02*
G37*
G36*
X229000D02*
Y273200D01*
X231157D01*
X230953Y273693D01*
X230319Y274519D01*
X229493Y275153D01*
X229000Y275357D01*
D02*
G37*
G36*
X323000Y270104D02*
Y269900D01*
X323204D01*
X323122Y270022D01*
X323000Y270104D01*
D02*
G37*
G36*
X328700Y278083D02*
X327773Y277961D01*
X326908Y277603D01*
X326166Y277034D01*
X325597Y276292D01*
X325239Y275427D01*
X325117Y274500D01*
X325239Y273573D01*
X325597Y272708D01*
X326166Y271966D01*
X326908Y271397D01*
X327773Y271039D01*
X328700Y270917D01*
X329627Y271039D01*
X330492Y271397D01*
X331234Y271966D01*
X331803Y272708D01*
X332161Y273573D01*
X332283Y274500D01*
X332161Y275427D01*
X331803Y276292D01*
X331234Y277034D01*
X330492Y277603D01*
X329627Y277961D01*
X328700Y278083D01*
D02*
G37*
G36*
X206295Y272998D02*
X206173Y272917D01*
X206091Y272795D01*
X206295D01*
Y272998D01*
D02*
G37*
G36*
X127900Y275000D02*
X126233D01*
X126343Y274735D01*
X126904Y274004D01*
X127635Y273443D01*
X127900Y273333D01*
Y275000D01*
D02*
G37*
G36*
X303582Y293768D02*
X302860Y293624D01*
X302248Y293216D01*
X301839Y292604D01*
X301696Y291882D01*
X301839Y291160D01*
X302248Y290548D01*
X302562Y290338D01*
Y281132D01*
X302266Y280934D01*
X301857Y280322D01*
X301714Y279600D01*
X301857Y278878D01*
X302266Y278266D01*
X302878Y277857D01*
X303600Y277714D01*
X304322Y277857D01*
X304934Y278266D01*
X305343Y278878D01*
X305486Y279600D01*
X305343Y280322D01*
X304934Y280934D01*
X304602Y281156D01*
Y290338D01*
X304916Y290548D01*
X305325Y291160D01*
X305468Y291882D01*
X305325Y292604D01*
X304916Y293216D01*
X304304Y293624D01*
X303582Y293768D01*
D02*
G37*
G36*
X127900Y279667D02*
X127635Y279557D01*
X126904Y278996D01*
X126343Y278265D01*
X126233Y278000D01*
X127900D01*
Y279667D01*
D02*
G37*
G36*
X130900D02*
Y278000D01*
X132567D01*
X132457Y278265D01*
X131896Y278996D01*
X131165Y279557D01*
X130900Y279667D01*
D02*
G37*
G36*
X132567Y275000D02*
X130900D01*
Y273333D01*
X131165Y273443D01*
X131896Y274004D01*
X132457Y274735D01*
X132567Y275000D01*
D02*
G37*
G36*
X149400Y275400D02*
X147733D01*
X147843Y275135D01*
X148404Y274404D01*
X149135Y273843D01*
X149400Y273733D01*
Y275400D01*
D02*
G37*
G36*
X154067D02*
X152400D01*
Y273733D01*
X152665Y273843D01*
X153396Y274404D01*
X153957Y275135D01*
X154067Y275400D01*
D02*
G37*
G36*
X307800Y395983D02*
X306873Y395861D01*
X306008Y395503D01*
X305266Y394934D01*
X304697Y394192D01*
X304339Y393327D01*
X304217Y392400D01*
X304339Y391473D01*
X304697Y390608D01*
X305266Y389866D01*
X306008Y389297D01*
X306873Y388939D01*
X307800Y388817D01*
X308727Y388939D01*
X309592Y389297D01*
X310334Y389866D01*
X310903Y390608D01*
X311261Y391473D01*
X311383Y392400D01*
X311261Y393327D01*
X310903Y394192D01*
X310334Y394934D01*
X309592Y395503D01*
X308727Y395861D01*
X307800Y395983D01*
D02*
G37*
G36*
X271353Y395953D02*
X264247D01*
Y388847D01*
X271353D01*
Y395953D01*
D02*
G37*
G36*
X231600Y391804D02*
X231478Y391722D01*
X231396Y391600D01*
X231600D01*
Y391804D01*
D02*
G37*
G36*
X277800Y395983D02*
X276873Y395861D01*
X276008Y395503D01*
X275266Y394934D01*
X274697Y394192D01*
X274339Y393327D01*
X274217Y392400D01*
X274339Y391473D01*
X274697Y390608D01*
X275266Y389866D01*
X276008Y389297D01*
X276873Y388939D01*
X277800Y388817D01*
X278727Y388939D01*
X279592Y389297D01*
X280334Y389866D01*
X280903Y390608D01*
X281261Y391473D01*
X281383Y392400D01*
X281261Y393327D01*
X280903Y394192D01*
X280334Y394934D01*
X279592Y395503D01*
X278727Y395861D01*
X277800Y395983D01*
D02*
G37*
G36*
X287800D02*
X286873Y395861D01*
X286008Y395503D01*
X285266Y394934D01*
X284697Y394192D01*
X284339Y393327D01*
X284217Y392400D01*
X284339Y391473D01*
X284697Y390608D01*
X285266Y389866D01*
X286008Y389297D01*
X286873Y388939D01*
X287800Y388817D01*
X288727Y388939D01*
X289592Y389297D01*
X290334Y389866D01*
X290903Y390608D01*
X291261Y391473D01*
X291383Y392400D01*
X291261Y393327D01*
X290903Y394192D01*
X290334Y394934D01*
X289592Y395503D01*
X288727Y395861D01*
X287800Y395983D01*
D02*
G37*
G36*
X297800D02*
X296873Y395861D01*
X296008Y395503D01*
X295266Y394934D01*
X294697Y394192D01*
X294339Y393327D01*
X294217Y392400D01*
X294339Y391473D01*
X294697Y390608D01*
X295266Y389866D01*
X296008Y389297D01*
X296873Y388939D01*
X297800Y388817D01*
X298727Y388939D01*
X299592Y389297D01*
X300334Y389866D01*
X300903Y390608D01*
X301261Y391473D01*
X301383Y392400D01*
X301261Y393327D01*
X300903Y394192D01*
X300334Y394934D01*
X299592Y395503D01*
X298727Y395861D01*
X297800Y395983D01*
D02*
G37*
G36*
X234600Y391804D02*
Y391600D01*
X234804D01*
X234722Y391722D01*
X234600Y391804D01*
D02*
G37*
G36*
X277800Y405983D02*
X276873Y405861D01*
X276008Y405503D01*
X275266Y404934D01*
X274697Y404192D01*
X274339Y403327D01*
X274217Y402400D01*
X274339Y401473D01*
X274697Y400608D01*
X275266Y399866D01*
X276008Y399297D01*
X276873Y398939D01*
X277800Y398817D01*
X278727Y398939D01*
X279592Y399297D01*
X280334Y399866D01*
X280903Y400608D01*
X281261Y401473D01*
X281383Y402400D01*
X281261Y403327D01*
X280903Y404192D01*
X280334Y404934D01*
X279592Y405503D01*
X278727Y405861D01*
X277800Y405983D01*
D02*
G37*
G36*
X287800D02*
X286873Y405861D01*
X286008Y405503D01*
X285266Y404934D01*
X284697Y404192D01*
X284339Y403327D01*
X284217Y402400D01*
X284339Y401473D01*
X284697Y400608D01*
X285266Y399866D01*
X286008Y399297D01*
X286873Y398939D01*
X287800Y398817D01*
X288727Y398939D01*
X289592Y399297D01*
X290334Y399866D01*
X290903Y400608D01*
X291261Y401473D01*
X291383Y402400D01*
X291261Y403327D01*
X290903Y404192D01*
X290334Y404934D01*
X289592Y405503D01*
X288727Y405861D01*
X287800Y405983D01*
D02*
G37*
G36*
X297800D02*
X296873Y405861D01*
X296008Y405503D01*
X295266Y404934D01*
X294697Y404192D01*
X294339Y403327D01*
X294217Y402400D01*
X294339Y401473D01*
X294697Y400608D01*
X295266Y399866D01*
X296008Y399297D01*
X296873Y398939D01*
X297800Y398817D01*
X298727Y398939D01*
X299592Y399297D01*
X300334Y399866D01*
X300903Y400608D01*
X301261Y401473D01*
X301383Y402400D01*
X301261Y403327D01*
X300903Y404192D01*
X300334Y404934D01*
X299592Y405503D01*
X298727Y405861D01*
X297800Y405983D01*
D02*
G37*
G36*
X248100Y391804D02*
X247978Y391722D01*
X247896Y391600D01*
X248100D01*
Y391804D01*
D02*
G37*
G36*
X251100D02*
Y391600D01*
X251304D01*
X251222Y391722D01*
X251100Y391804D01*
D02*
G37*
G36*
X267800Y405983D02*
X266873Y405861D01*
X266008Y405503D01*
X265266Y404934D01*
X264697Y404192D01*
X264339Y403327D01*
X264217Y402400D01*
X264339Y401473D01*
X264697Y400608D01*
X265266Y399866D01*
X266008Y399297D01*
X266873Y398939D01*
X267800Y398817D01*
X268727Y398939D01*
X269592Y399297D01*
X270334Y399866D01*
X270903Y400608D01*
X271261Y401473D01*
X271383Y402400D01*
X271261Y403327D01*
X270903Y404192D01*
X270334Y404934D01*
X269592Y405503D01*
X268727Y405861D01*
X267800Y405983D01*
D02*
G37*
G36*
X251304Y388600D02*
X251100D01*
Y388396D01*
X251222Y388478D01*
X251304Y388600D01*
D02*
G37*
G36*
X267604Y374600D02*
X267400D01*
Y374396D01*
X267522Y374478D01*
X267604Y374600D01*
D02*
G37*
G36*
X264400Y377804D02*
X264278Y377722D01*
X264196Y377600D01*
X264400D01*
Y377804D01*
D02*
G37*
G36*
X267400D02*
Y377600D01*
X267604D01*
X267522Y377722D01*
X267400Y377804D01*
D02*
G37*
G36*
X124200Y375867D02*
X123935Y375757D01*
X123204Y375196D01*
X122643Y374465D01*
X122533Y374200D01*
X124200D01*
Y375867D01*
D02*
G37*
G36*
X127200D02*
Y374200D01*
X128867D01*
X128757Y374465D01*
X128196Y375196D01*
X127465Y375757D01*
X127200Y375867D01*
D02*
G37*
G36*
X264400Y374600D02*
X264196D01*
X264278Y374478D01*
X264400Y374396D01*
Y374600D01*
D02*
G37*
G36*
X312400Y378700D02*
X312196D01*
X312278Y378578D01*
X312400Y378496D01*
Y378700D01*
D02*
G37*
G36*
X231600Y388600D02*
X231396D01*
X231478Y388478D01*
X231600Y388396D01*
Y388600D01*
D02*
G37*
G36*
X234804D02*
X234600D01*
Y388396D01*
X234722Y388478D01*
X234804Y388600D01*
D02*
G37*
G36*
X248100D02*
X247896D01*
X247978Y388478D01*
X248100Y388396D01*
Y388600D01*
D02*
G37*
G36*
X315604Y378700D02*
X315400D01*
Y378496D01*
X315522Y378578D01*
X315604Y378700D01*
D02*
G37*
G36*
X312400Y381904D02*
X312278Y381822D01*
X312196Y381700D01*
X312400D01*
Y381904D01*
D02*
G37*
G36*
X315400D02*
Y381700D01*
X315604D01*
X315522Y381822D01*
X315400Y381904D01*
D02*
G37*
G36*
X191900Y426583D02*
X190973Y426461D01*
X190108Y426103D01*
X189366Y425534D01*
X188797Y424792D01*
X188439Y423927D01*
X188317Y423000D01*
X188439Y422073D01*
X188797Y421208D01*
X189366Y420466D01*
X190108Y419897D01*
X190973Y419539D01*
X191900Y419417D01*
X192827Y419539D01*
X193692Y419897D01*
X194434Y420466D01*
X195003Y421208D01*
X195361Y422073D01*
X195483Y423000D01*
X195361Y423927D01*
X195003Y424792D01*
X194434Y425534D01*
X193692Y426103D01*
X192827Y426461D01*
X191900Y426583D01*
D02*
G37*
G36*
X201900D02*
X200973Y426461D01*
X200108Y426103D01*
X199366Y425534D01*
X198797Y424792D01*
X198439Y423927D01*
X198317Y423000D01*
X198439Y422073D01*
X198797Y421208D01*
X199366Y420466D01*
X200108Y419897D01*
X200973Y419539D01*
X201900Y419417D01*
X202827Y419539D01*
X203692Y419897D01*
X204434Y420466D01*
X205003Y421208D01*
X205361Y422073D01*
X205483Y423000D01*
X205361Y423927D01*
X205003Y424792D01*
X204434Y425534D01*
X203692Y426103D01*
X202827Y426461D01*
X201900Y426583D01*
D02*
G37*
G36*
X211900D02*
X210973Y426461D01*
X210108Y426103D01*
X209366Y425534D01*
X208797Y424792D01*
X208439Y423927D01*
X208317Y423000D01*
X208439Y422073D01*
X208797Y421208D01*
X209366Y420466D01*
X210108Y419897D01*
X210973Y419539D01*
X211900Y419417D01*
X212827Y419539D01*
X213692Y419897D01*
X214434Y420466D01*
X215003Y421208D01*
X215361Y422073D01*
X215483Y423000D01*
X215361Y423927D01*
X215003Y424792D01*
X214434Y425534D01*
X213692Y426103D01*
X212827Y426461D01*
X211900Y426583D01*
D02*
G37*
G36*
X161900D02*
X160973Y426461D01*
X160108Y426103D01*
X159366Y425534D01*
X158797Y424792D01*
X158439Y423927D01*
X158317Y423000D01*
X158439Y422073D01*
X158797Y421208D01*
X159366Y420466D01*
X160108Y419897D01*
X160973Y419539D01*
X161900Y419417D01*
X162827Y419539D01*
X163692Y419897D01*
X164434Y420466D01*
X165003Y421208D01*
X165361Y422073D01*
X165483Y423000D01*
X165361Y423927D01*
X165003Y424792D01*
X164434Y425534D01*
X163692Y426103D01*
X162827Y426461D01*
X161900Y426583D01*
D02*
G37*
G36*
X171900D02*
X170973Y426461D01*
X170108Y426103D01*
X169366Y425534D01*
X168797Y424792D01*
X168439Y423927D01*
X168317Y423000D01*
X168439Y422073D01*
X168797Y421208D01*
X169366Y420466D01*
X170108Y419897D01*
X170973Y419539D01*
X171900Y419417D01*
X172827Y419539D01*
X173692Y419897D01*
X174434Y420466D01*
X175003Y421208D01*
X175361Y422073D01*
X175483Y423000D01*
X175361Y423927D01*
X175003Y424792D01*
X174434Y425534D01*
X173692Y426103D01*
X172827Y426461D01*
X171900Y426583D01*
D02*
G37*
G36*
X181900D02*
X180973Y426461D01*
X180108Y426103D01*
X179366Y425534D01*
X178797Y424792D01*
X178439Y423927D01*
X178317Y423000D01*
X178439Y422073D01*
X178797Y421208D01*
X179366Y420466D01*
X180108Y419897D01*
X180973Y419539D01*
X181900Y419417D01*
X182827Y419539D01*
X183692Y419897D01*
X184434Y420466D01*
X185003Y421208D01*
X185361Y422073D01*
X185483Y423000D01*
X185361Y423927D01*
X185003Y424792D01*
X184434Y425534D01*
X183692Y426103D01*
X182827Y426461D01*
X181900Y426583D01*
D02*
G37*
G36*
X221900D02*
X220973Y426461D01*
X220108Y426103D01*
X219366Y425534D01*
X218797Y424792D01*
X218439Y423927D01*
X218317Y423000D01*
X218439Y422073D01*
X218797Y421208D01*
X219366Y420466D01*
X220108Y419897D01*
X220973Y419539D01*
X221900Y419417D01*
X222827Y419539D01*
X223692Y419897D01*
X224434Y420466D01*
X225003Y421208D01*
X225361Y422073D01*
X225483Y423000D01*
X225361Y423927D01*
X225003Y424792D01*
X224434Y425534D01*
X223692Y426103D01*
X222827Y426461D01*
X221900Y426583D01*
D02*
G37*
G36*
X261900D02*
X260973Y426461D01*
X260108Y426103D01*
X259366Y425534D01*
X258797Y424792D01*
X258439Y423927D01*
X258317Y423000D01*
X258439Y422073D01*
X258797Y421208D01*
X259366Y420466D01*
X260108Y419897D01*
X260973Y419539D01*
X261900Y419417D01*
X262827Y419539D01*
X263692Y419897D01*
X264434Y420466D01*
X265003Y421208D01*
X265361Y422073D01*
X265483Y423000D01*
X265361Y423927D01*
X265003Y424792D01*
X264434Y425534D01*
X263692Y426103D01*
X262827Y426461D01*
X261900Y426583D01*
D02*
G37*
G36*
X271900D02*
X270973Y426461D01*
X270108Y426103D01*
X269366Y425534D01*
X268797Y424792D01*
X268439Y423927D01*
X268317Y423000D01*
X268439Y422073D01*
X268797Y421208D01*
X269366Y420466D01*
X270108Y419897D01*
X270973Y419539D01*
X271900Y419417D01*
X272827Y419539D01*
X273692Y419897D01*
X274434Y420466D01*
X275003Y421208D01*
X275361Y422073D01*
X275483Y423000D01*
X275361Y423927D01*
X275003Y424792D01*
X274434Y425534D01*
X273692Y426103D01*
X272827Y426461D01*
X271900Y426583D01*
D02*
G37*
G36*
X285453Y426553D02*
X278347D01*
Y419447D01*
X285453D01*
Y426553D01*
D02*
G37*
G36*
X231900Y426583D02*
X230973Y426461D01*
X230108Y426103D01*
X229366Y425534D01*
X228797Y424792D01*
X228439Y423927D01*
X228317Y423000D01*
X228439Y422073D01*
X228797Y421208D01*
X229366Y420466D01*
X230108Y419897D01*
X230973Y419539D01*
X231900Y419417D01*
X232827Y419539D01*
X233692Y419897D01*
X234434Y420466D01*
X235003Y421208D01*
X235361Y422073D01*
X235483Y423000D01*
X235361Y423927D01*
X235003Y424792D01*
X234434Y425534D01*
X233692Y426103D01*
X232827Y426461D01*
X231900Y426583D01*
D02*
G37*
G36*
X241900D02*
X240973Y426461D01*
X240108Y426103D01*
X239366Y425534D01*
X238797Y424792D01*
X238439Y423927D01*
X238317Y423000D01*
X238439Y422073D01*
X238797Y421208D01*
X239366Y420466D01*
X240108Y419897D01*
X240973Y419539D01*
X241900Y419417D01*
X242827Y419539D01*
X243692Y419897D01*
X244434Y420466D01*
X245003Y421208D01*
X245361Y422073D01*
X245483Y423000D01*
X245361Y423927D01*
X245003Y424792D01*
X244434Y425534D01*
X243692Y426103D01*
X242827Y426461D01*
X241900Y426583D01*
D02*
G37*
G36*
X251900D02*
X250973Y426461D01*
X250108Y426103D01*
X249366Y425534D01*
X248797Y424792D01*
X248439Y423927D01*
X248317Y423000D01*
X248439Y422073D01*
X248797Y421208D01*
X249366Y420466D01*
X250108Y419897D01*
X250973Y419539D01*
X251900Y419417D01*
X252827Y419539D01*
X253692Y419897D01*
X254434Y420466D01*
X255003Y421208D01*
X255361Y422073D01*
X255483Y423000D01*
X255361Y423927D01*
X255003Y424792D01*
X254434Y425534D01*
X253692Y426103D01*
X252827Y426461D01*
X251900Y426583D01*
D02*
G37*
G36*
X151900D02*
X150973Y426461D01*
X150108Y426103D01*
X149366Y425534D01*
X148797Y424792D01*
X148439Y423927D01*
X148317Y423000D01*
X148439Y422073D01*
X148797Y421208D01*
X149366Y420466D01*
X150108Y419897D01*
X150973Y419539D01*
X151900Y419417D01*
X152827Y419539D01*
X153692Y419897D01*
X154434Y420466D01*
X155003Y421208D01*
X155361Y422073D01*
X155483Y423000D01*
X155361Y423927D01*
X155003Y424792D01*
X154434Y425534D01*
X153692Y426103D01*
X152827Y426461D01*
X151900Y426583D01*
D02*
G37*
G36*
X236800Y400700D02*
X235133D01*
X235243Y400435D01*
X235804Y399704D01*
X236535Y399143D01*
X236800Y399033D01*
Y400700D01*
D02*
G37*
G36*
X241467D02*
X239800D01*
Y399033D01*
X240065Y399143D01*
X240796Y399704D01*
X241357Y400435D01*
X241467Y400700D01*
D02*
G37*
G36*
X149000Y405267D02*
X148735Y405157D01*
X148004Y404596D01*
X147443Y403865D01*
X147333Y403600D01*
X149000D01*
Y405267D01*
D02*
G37*
G36*
X307800Y405983D02*
X306873Y405861D01*
X306008Y405503D01*
X305266Y404934D01*
X304697Y404192D01*
X304339Y403327D01*
X304217Y402400D01*
X304339Y401473D01*
X304697Y400608D01*
X305266Y399866D01*
X306008Y399297D01*
X306873Y398939D01*
X307800Y398817D01*
X308727Y398939D01*
X309592Y399297D01*
X310334Y399866D01*
X310903Y400608D01*
X311261Y401473D01*
X311383Y402400D01*
X311261Y403327D01*
X310903Y404192D01*
X310334Y404934D01*
X309592Y405503D01*
X308727Y405861D01*
X307800Y405983D01*
D02*
G37*
G36*
X149000Y400600D02*
X147333D01*
X147443Y400335D01*
X148004Y399604D01*
X148735Y399043D01*
X149000Y398933D01*
Y400600D01*
D02*
G37*
G36*
X153667D02*
X152000D01*
Y398933D01*
X152265Y399043D01*
X152996Y399604D01*
X153557Y400335D01*
X153667Y400600D01*
D02*
G37*
G36*
X152000Y405267D02*
Y403600D01*
X153667D01*
X153557Y403865D01*
X152996Y404596D01*
X152265Y405157D01*
X152000Y405267D01*
D02*
G37*
G36*
X321000Y426239D02*
X319412Y426083D01*
X317885Y425620D01*
X316478Y424867D01*
X315245Y423855D01*
X314232Y422622D01*
X313480Y421215D01*
X313017Y419688D01*
X312861Y418100D01*
X313017Y416512D01*
X313480Y414985D01*
X314232Y413578D01*
X315245Y412345D01*
X316478Y411333D01*
X317885Y410580D01*
X319412Y410117D01*
X321000Y409961D01*
X322588Y410117D01*
X324115Y410580D01*
X325522Y411333D01*
X326755Y412345D01*
X327767Y413578D01*
X328520Y414985D01*
X328983Y416512D01*
X329139Y418100D01*
X328983Y419688D01*
X328520Y421215D01*
X327767Y422622D01*
X326755Y423855D01*
X325522Y424867D01*
X324115Y425620D01*
X322588Y426083D01*
X321000Y426239D01*
D02*
G37*
G36*
X131900Y426583D02*
X130973Y426461D01*
X130108Y426103D01*
X129366Y425534D01*
X128797Y424792D01*
X128439Y423927D01*
X128317Y423000D01*
X128439Y422073D01*
X128797Y421208D01*
X129366Y420466D01*
X130108Y419897D01*
X130973Y419539D01*
X131900Y419417D01*
X132827Y419539D01*
X133692Y419897D01*
X134434Y420466D01*
X135003Y421208D01*
X135361Y422073D01*
X135483Y423000D01*
X135361Y423927D01*
X135003Y424792D01*
X134434Y425534D01*
X133692Y426103D01*
X132827Y426461D01*
X131900Y426583D01*
D02*
G37*
G36*
X141900D02*
X140973Y426461D01*
X140108Y426103D01*
X139366Y425534D01*
X138797Y424792D01*
X138439Y423927D01*
X138317Y423000D01*
X138439Y422073D01*
X138797Y421208D01*
X139366Y420466D01*
X140108Y419897D01*
X140973Y419539D01*
X141900Y419417D01*
X142827Y419539D01*
X143692Y419897D01*
X144434Y420466D01*
X145003Y421208D01*
X145361Y422073D01*
X145483Y423000D01*
X145361Y423927D01*
X145003Y424792D01*
X144434Y425534D01*
X143692Y426103D01*
X142827Y426461D01*
X141900Y426583D01*
D02*
G37*
G36*
X236800Y405367D02*
X236535Y405257D01*
X235804Y404696D01*
X235243Y403965D01*
X235133Y403700D01*
X236800D01*
Y405367D01*
D02*
G37*
G36*
X239800D02*
Y403700D01*
X241467D01*
X241357Y403965D01*
X240796Y404696D01*
X240065Y405257D01*
X239800Y405367D01*
D02*
G37*
G36*
X115500Y426239D02*
X113912Y426083D01*
X112385Y425620D01*
X110978Y424867D01*
X109745Y423855D01*
X108732Y422622D01*
X107980Y421215D01*
X107517Y419688D01*
X107361Y418100D01*
X107517Y416512D01*
X107980Y414985D01*
X108732Y413578D01*
X109745Y412345D01*
X110978Y411333D01*
X112385Y410580D01*
X113912Y410117D01*
X115500Y409961D01*
X117088Y410117D01*
X118615Y410580D01*
X120022Y411333D01*
X121255Y412345D01*
X122267Y413578D01*
X123020Y414985D01*
X123483Y416512D01*
X123639Y418100D01*
X123483Y419688D01*
X123020Y421215D01*
X122267Y422622D01*
X121255Y423855D01*
X120022Y424867D01*
X118615Y425620D01*
X117088Y426083D01*
X115500Y426239D01*
D02*
G37*
G36*
X322200Y329904D02*
Y329700D01*
X322404D01*
X322322Y329822D01*
X322200Y329904D01*
D02*
G37*
G36*
X328700Y338083D02*
X327773Y337961D01*
X326908Y337603D01*
X326166Y337034D01*
X325597Y336292D01*
X325239Y335427D01*
X325117Y334500D01*
X325239Y333573D01*
X325597Y332708D01*
X326166Y331966D01*
X326908Y331397D01*
X327773Y331039D01*
X328700Y330917D01*
X329627Y331039D01*
X330492Y331397D01*
X331234Y331966D01*
X331803Y332708D01*
X332161Y333573D01*
X332283Y334500D01*
X332161Y335427D01*
X331803Y336292D01*
X331234Y337034D01*
X330492Y337603D01*
X329627Y337961D01*
X328700Y338083D01*
D02*
G37*
G36*
X214300Y334600D02*
X214096D01*
X214178Y334478D01*
X214300Y334396D01*
Y334600D01*
D02*
G37*
G36*
X319200Y326700D02*
X318996D01*
X319078Y326578D01*
X319200Y326496D01*
Y326700D01*
D02*
G37*
G36*
X322404D02*
X322200D01*
Y326496D01*
X322322Y326578D01*
X322404Y326700D01*
D02*
G37*
G36*
X319200Y329904D02*
X319078Y329822D01*
X318996Y329700D01*
X319200D01*
Y329904D01*
D02*
G37*
G36*
X217504Y334600D02*
X217300D01*
Y334396D01*
X217422Y334478D01*
X217504Y334600D01*
D02*
G37*
G36*
X130300Y339800D02*
X128633D01*
X128743Y339535D01*
X129304Y338804D01*
X130035Y338243D01*
X130300Y338133D01*
Y339800D01*
D02*
G37*
G36*
X134967D02*
X133300D01*
Y338133D01*
X133565Y338243D01*
X134296Y338804D01*
X134857Y339535D01*
X134967Y339800D01*
D02*
G37*
G36*
X332253Y348053D02*
X325147D01*
Y340947D01*
X332253D01*
Y348053D01*
D02*
G37*
G36*
X214300Y337804D02*
X214178Y337722D01*
X214096Y337600D01*
X214300D01*
Y337804D01*
D02*
G37*
G36*
X217300D02*
Y337600D01*
X217504D01*
X217422Y337722D01*
X217300Y337804D01*
D02*
G37*
G36*
X303400Y352886D02*
X302678Y352743D01*
X302066Y352334D01*
X301657Y351722D01*
X301514Y351000D01*
X301657Y350278D01*
X302066Y349666D01*
X302380Y349456D01*
Y341144D01*
X302066Y340934D01*
X301657Y340322D01*
X301514Y339600D01*
X301657Y338878D01*
X302066Y338266D01*
X302678Y337857D01*
X303400Y337714D01*
X304122Y337857D01*
X304734Y338266D01*
X305143Y338878D01*
X305286Y339600D01*
X305143Y340322D01*
X304734Y340934D01*
X304420Y341144D01*
Y349456D01*
X304734Y349666D01*
X305143Y350278D01*
X305286Y351000D01*
X305143Y351722D01*
X304734Y352334D01*
X304122Y352743D01*
X303400Y352886D01*
D02*
G37*
G36*
X189000Y323767D02*
Y322100D01*
X190667D01*
X190557Y322365D01*
X189996Y323096D01*
X189265Y323657D01*
X189000Y323767D01*
D02*
G37*
G36*
X311600Y318500D02*
X311396D01*
X311478Y318378D01*
X311600Y318296D01*
Y318500D01*
D02*
G37*
G36*
X314804D02*
X314600D01*
Y318296D01*
X314722Y318378D01*
X314804Y318500D01*
D02*
G37*
G36*
X250500Y321304D02*
Y321100D01*
X250704D01*
X250622Y321222D01*
X250500Y321304D01*
D02*
G37*
G36*
X239300Y326786D02*
X238578Y326643D01*
X237966Y326234D01*
X237557Y325622D01*
X237414Y324900D01*
X237557Y324178D01*
X237966Y323566D01*
X238578Y323157D01*
X239225Y323029D01*
X244923Y317330D01*
Y303070D01*
X244557Y302522D01*
X244414Y301800D01*
X244557Y301078D01*
X244966Y300466D01*
X245578Y300057D01*
X246300Y299914D01*
X247022Y300057D01*
X247634Y300466D01*
X248043Y301078D01*
X248186Y301800D01*
X248043Y302522D01*
X247676Y303070D01*
Y317248D01*
X248117Y317484D01*
X248122Y317480D01*
X249000Y317306D01*
X249878Y317480D01*
X250622Y317978D01*
X250704Y318100D01*
X249000D01*
Y319600D01*
X247500D01*
Y321304D01*
X247378Y321222D01*
X246881Y320478D01*
X246783Y319987D01*
X246304Y319842D01*
X241171Y324975D01*
X241043Y325622D01*
X240634Y326234D01*
X240022Y326643D01*
X239300Y326786D01*
D02*
G37*
G36*
X186000Y319100D02*
X184333D01*
X184443Y318835D01*
X185004Y318104D01*
X185735Y317543D01*
X186000Y317433D01*
Y319100D01*
D02*
G37*
G36*
X190667D02*
X189000D01*
Y317433D01*
X189265Y317543D01*
X189996Y318104D01*
X190557Y318835D01*
X190667Y319100D01*
D02*
G37*
G36*
X216000Y323557D02*
X215507Y323353D01*
X214681Y322719D01*
X214047Y321893D01*
X213843Y321400D01*
X216000D01*
Y323557D01*
D02*
G37*
G36*
X119300Y323267D02*
X119035Y323157D01*
X118304Y322596D01*
X117743Y321865D01*
X117633Y321600D01*
X119300D01*
Y323267D01*
D02*
G37*
G36*
X122300D02*
Y321600D01*
X123967D01*
X123857Y321865D01*
X123296Y322596D01*
X122565Y323157D01*
X122300Y323267D01*
D02*
G37*
G36*
X186000Y323767D02*
X185735Y323657D01*
X185004Y323096D01*
X184443Y322365D01*
X184333Y322100D01*
X186000D01*
Y323767D01*
D02*
G37*
G36*
X219000Y323557D02*
Y321400D01*
X221157D01*
X220953Y321893D01*
X220319Y322719D01*
X219493Y323353D01*
X219000Y323557D01*
D02*
G37*
G36*
X311600Y321704D02*
X311478Y321622D01*
X311396Y321500D01*
X311600D01*
Y321704D01*
D02*
G37*
G36*
X314600D02*
Y321500D01*
X314804D01*
X314722Y321622D01*
X314600Y321704D01*
D02*
G37*
G36*
X328700Y368083D02*
X327773Y367961D01*
X326908Y367603D01*
X326166Y367034D01*
X325597Y366292D01*
X325239Y365427D01*
X325117Y364500D01*
X325239Y363573D01*
X325597Y362708D01*
X326166Y361966D01*
X326908Y361397D01*
X327773Y361039D01*
X328700Y360917D01*
X329627Y361039D01*
X330492Y361397D01*
X331234Y361966D01*
X331803Y362708D01*
X332161Y363573D01*
X332283Y364500D01*
X332161Y365427D01*
X331803Y366292D01*
X331234Y367034D01*
X330492Y367603D01*
X329627Y367961D01*
X328700Y368083D01*
D02*
G37*
G36*
X153800Y363200D02*
X152133D01*
X152243Y362935D01*
X152804Y362204D01*
X153535Y361643D01*
X153800Y361533D01*
Y363200D01*
D02*
G37*
G36*
X158467D02*
X156800D01*
Y361533D01*
X157065Y361643D01*
X157796Y362204D01*
X158357Y362935D01*
X158467Y363200D01*
D02*
G37*
G36*
X125667Y359800D02*
X124000D01*
Y358133D01*
X124265Y358243D01*
X124996Y358804D01*
X125557Y359535D01*
X125667Y359800D01*
D02*
G37*
G36*
X319000Y359704D02*
X318878Y359622D01*
X318796Y359500D01*
X319000D01*
Y359704D01*
D02*
G37*
G36*
X322000D02*
Y359500D01*
X322204D01*
X322122Y359622D01*
X322000Y359704D01*
D02*
G37*
G36*
X121000Y364467D02*
X120735Y364357D01*
X120004Y363796D01*
X119443Y363065D01*
X119333Y362800D01*
X121000D01*
Y364467D01*
D02*
G37*
G36*
X124200Y371200D02*
X122533D01*
X122643Y370935D01*
X123204Y370204D01*
X123935Y369643D01*
X124200Y369533D01*
Y371200D01*
D02*
G37*
G36*
X128867D02*
X127200D01*
Y369533D01*
X127465Y369643D01*
X128196Y370204D01*
X128757Y370935D01*
X128867Y371200D01*
D02*
G37*
G36*
X332253Y378053D02*
X325147D01*
Y370947D01*
X332253D01*
Y378053D01*
D02*
G37*
G36*
X124000Y364467D02*
Y362800D01*
X125667D01*
X125557Y363065D01*
X124996Y363796D01*
X124265Y364357D01*
X124000Y364467D01*
D02*
G37*
G36*
X153800Y367867D02*
X153535Y367757D01*
X152804Y367196D01*
X152243Y366465D01*
X152133Y366200D01*
X153800D01*
Y367867D01*
D02*
G37*
G36*
X156800D02*
Y366200D01*
X158467D01*
X158357Y366465D01*
X157796Y367196D01*
X157065Y367757D01*
X156800Y367867D01*
D02*
G37*
G36*
X121000Y359800D02*
X119333D01*
X119443Y359535D01*
X120004Y358804D01*
X120735Y358243D01*
X121000Y358133D01*
Y359800D01*
D02*
G37*
G36*
X197167Y348300D02*
X195500D01*
Y346633D01*
X195765Y346743D01*
X196496Y347304D01*
X197057Y348035D01*
X197167Y348300D01*
D02*
G37*
G36*
X311600Y348600D02*
X311396D01*
X311478Y348478D01*
X311600Y348396D01*
Y348600D01*
D02*
G37*
G36*
X314804D02*
X314600D01*
Y348396D01*
X314722Y348478D01*
X314804Y348600D01*
D02*
G37*
G36*
X130300Y344467D02*
X130035Y344357D01*
X129304Y343796D01*
X128743Y343065D01*
X128633Y342800D01*
X130300D01*
Y344467D01*
D02*
G37*
G36*
X133300D02*
Y342800D01*
X134967D01*
X134857Y343065D01*
X134296Y343796D01*
X133565Y344357D01*
X133300Y344467D01*
D02*
G37*
G36*
X192500Y348300D02*
X190833D01*
X190943Y348035D01*
X191504Y347304D01*
X192235Y346743D01*
X192500Y346633D01*
Y348300D01*
D02*
G37*
G36*
Y352967D02*
X192235Y352857D01*
X191504Y352296D01*
X190943Y351565D01*
X190833Y351300D01*
X192500D01*
Y352967D01*
D02*
G37*
G36*
X155400Y386927D02*
X154591Y386820D01*
X153837Y386508D01*
X153189Y386011D01*
X152692Y385363D01*
X152380Y384609D01*
X152273Y383800D01*
X152380Y382991D01*
X152692Y382237D01*
X153189Y381589D01*
X153597Y381276D01*
X153630Y380777D01*
X149027Y376173D01*
X148728Y375727D01*
X148624Y375200D01*
Y358170D01*
X146330Y355876D01*
X140400D01*
X139873Y355772D01*
X139694Y355652D01*
X139427Y355473D01*
X139427Y355473D01*
X138196Y354243D01*
X138009Y354320D01*
X137200Y354427D01*
X136391Y354320D01*
X135637Y354008D01*
X134989Y353511D01*
X134492Y352863D01*
X134180Y352109D01*
X134073Y351300D01*
X134180Y350491D01*
X134492Y349737D01*
X134989Y349089D01*
X135637Y348592D01*
X136391Y348280D01*
X137200Y348173D01*
X138009Y348280D01*
X138763Y348592D01*
X139411Y349089D01*
X139908Y349737D01*
X140220Y350491D01*
X140327Y351300D01*
X140220Y352109D01*
X140143Y352296D01*
X140970Y353123D01*
X146900D01*
X147427Y353228D01*
X147873Y353527D01*
X150973Y356627D01*
X151272Y357073D01*
X151376Y357600D01*
X151376Y357600D01*
X151376Y357600D01*
Y357600D01*
Y363865D01*
X151377Y363865D01*
Y365535D01*
X151376Y365535D01*
Y374630D01*
X156373Y379627D01*
X156373Y379627D01*
X156552Y379894D01*
X156672Y380073D01*
X156776Y380600D01*
X156776Y380600D01*
X156776Y380600D01*
Y380600D01*
Y381015D01*
X156963Y381092D01*
X157611Y381589D01*
X158108Y382237D01*
X158420Y382991D01*
X158527Y383800D01*
X158420Y384609D01*
X158108Y385363D01*
X157611Y386011D01*
X156963Y386508D01*
X156209Y386820D01*
X155400Y386927D01*
D02*
G37*
G36*
X319000Y356500D02*
X318796D01*
X318878Y356378D01*
X319000Y356296D01*
Y356500D01*
D02*
G37*
G36*
X322204D02*
X322000D01*
Y356296D01*
X322122Y356378D01*
X322204Y356500D01*
D02*
G37*
G36*
X195500Y352967D02*
Y351300D01*
X197167D01*
X197057Y351565D01*
X196496Y352296D01*
X195765Y352857D01*
X195500Y352967D01*
D02*
G37*
G36*
X311600Y351804D02*
X311478Y351722D01*
X311396Y351600D01*
X311600D01*
Y351804D01*
D02*
G37*
G36*
X314600D02*
Y351600D01*
X314804D01*
X314722Y351722D01*
X314600Y351804D01*
D02*
G37*
%LPD*%
D28*
X155400Y380600D02*
Y383800D01*
X150000Y375200D02*
X155400Y380600D01*
X150000Y357600D02*
Y375200D01*
X146900Y354500D02*
X150000Y357600D01*
X140400Y354500D02*
X146900D01*
X137200Y351300D02*
X140400Y354500D01*
X239300Y324900D02*
X246300Y317900D01*
Y301800D02*
Y317900D01*
D29*
X303400Y339600D02*
Y351000D01*
X303582Y309500D02*
Y322418D01*
Y279600D02*
Y291882D01*
D34*
X115500Y418100D02*
D03*
Y267000D02*
D03*
X321000Y418100D02*
D03*
D35*
X307800Y402400D02*
D03*
Y392400D02*
D03*
X297800Y402400D02*
D03*
Y392400D02*
D03*
X287800Y402400D02*
D03*
Y392400D02*
D03*
X277800Y402400D02*
D03*
Y392400D02*
D03*
X267800Y402400D02*
D03*
X217500Y261700D02*
D03*
X227500Y271700D02*
D03*
X217500D02*
D03*
X227500Y281700D02*
D03*
X217500D02*
D03*
X271900Y423000D02*
D03*
X261900D02*
D03*
X251900D02*
D03*
X241900D02*
D03*
X231900D02*
D03*
X221900D02*
D03*
X211900D02*
D03*
X201900D02*
D03*
X191900D02*
D03*
X181900D02*
D03*
X171900D02*
D03*
X161900D02*
D03*
X151900D02*
D03*
X141900D02*
D03*
X131900D02*
D03*
X217500Y299900D02*
D03*
X227500Y309900D02*
D03*
X217500D02*
D03*
X227500Y319900D02*
D03*
X217500D02*
D03*
X328700Y364500D02*
D03*
Y334500D02*
D03*
Y304500D02*
D03*
Y274500D02*
D03*
D36*
X267800Y392400D02*
D03*
X281900Y423000D02*
D03*
D37*
X227500Y261700D02*
D03*
Y299900D02*
D03*
X328700Y374500D02*
D03*
Y344500D02*
D03*
Y314500D02*
D03*
Y284500D02*
D03*
D38*
X184695Y292583D02*
D03*
X150900Y276900D02*
D03*
X187195Y265483D02*
D03*
X137700Y314400D02*
D03*
X187500Y320600D02*
D03*
X150500Y402100D02*
D03*
X238300Y402200D02*
D03*
X155400Y383800D02*
D03*
X187600Y307600D02*
D03*
X137200Y351300D02*
D03*
X120800Y320100D02*
D03*
X112700Y309100D02*
D03*
X122000Y281700D02*
D03*
X129400Y276500D02*
D03*
X135700Y266100D02*
D03*
X135800Y257800D02*
D03*
X125700Y372700D02*
D03*
X131800Y341300D02*
D03*
X122500Y361300D02*
D03*
X155300Y364700D02*
D03*
X194000Y349800D02*
D03*
D39*
X249400Y297500D02*
D03*
X265900Y376100D02*
D03*
X215800Y336100D02*
D03*
X303400Y351000D02*
D03*
Y339600D02*
D03*
X303582Y322418D02*
D03*
X303500Y309500D02*
D03*
X233100Y390100D02*
D03*
X249600D02*
D03*
X245751Y261827D02*
D03*
X242295Y293805D02*
D03*
X303582Y291882D02*
D03*
X303600Y279600D02*
D03*
X321500Y268400D02*
D03*
X313100Y290000D02*
D03*
X320300Y298200D02*
D03*
X313100Y320000D02*
D03*
X320700Y328200D02*
D03*
X313100Y350100D02*
D03*
X320500Y358000D02*
D03*
X313900Y380200D02*
D03*
X249000Y319600D02*
D03*
X268388Y311600D02*
D03*
X207795Y271295D02*
D03*
X204039Y305539D02*
D03*
X246300Y301800D02*
D03*
X239300Y324900D02*
D03*
M02*
