%FSLAX25Y25*%
%MOIN*%
G70*
G01*
G75*
G04 Layer_Color=16711935*
%ADD10R,0.11811X0.05512*%
%ADD11R,0.05906X0.03937*%
%ADD12R,0.03937X0.05906*%
%ADD13R,0.04331X0.06693*%
%ADD14R,0.06693X0.04331*%
%ADD15R,0.02362X0.04331*%
%ADD16R,0.11811X0.06299*%
%ADD17R,0.24410X0.22835*%
%ADD18R,0.09449X0.03937*%
%ADD19R,0.09449X0.12992*%
%ADD20R,0.03150X0.03543*%
%ADD21R,0.03543X0.03150*%
%ADD22O,0.08661X0.02362*%
%ADD23R,0.03543X0.02756*%
%ADD24R,0.09252X0.07284*%
%ADD25O,0.06693X0.01378*%
%ADD26C,0.01500*%
%ADD27C,0.03000*%
%ADD28C,0.01000*%
%ADD29C,0.00800*%
%ADD30C,0.02500*%
%ADD31C,0.15000*%
%ADD32C,0.05906*%
%ADD33R,0.05906X0.05906*%
%ADD34R,0.05906X0.05906*%
%ADD35C,0.05000*%
%ADD36C,0.02500*%
%ADD37C,0.00984*%
%ADD38C,0.02362*%
%ADD39C,0.00787*%
%ADD40C,0.00300*%
%ADD41C,0.00600*%
%ADD42R,0.13011X0.06712*%
%ADD43R,0.07106X0.05137*%
%ADD44R,0.05137X0.07106*%
%ADD45R,0.05531X0.07893*%
%ADD46R,0.07893X0.05531*%
%ADD47R,0.03562X0.05531*%
%ADD48R,0.13011X0.07499*%
%ADD49R,0.25609X0.24035*%
%ADD50R,0.10649X0.05137*%
%ADD51R,0.10649X0.14192*%
%ADD52R,0.04350X0.04743*%
%ADD53R,0.04743X0.04350*%
%ADD54O,0.09861X0.03562*%
%ADD55R,0.04743X0.03956*%
%ADD56R,0.10452X0.08483*%
%ADD57O,0.07893X0.02578*%
%ADD58C,0.16200*%
%ADD59C,0.07106*%
%ADD60R,0.07106X0.07106*%
%ADD61R,0.07106X0.07106*%
%ADD62C,0.06200*%
%ADD63C,0.03700*%
D58*
X200000Y170000D02*
D03*
X15000Y15000D02*
D03*
Y170000D02*
D03*
D59*
X200250Y22550D02*
D03*
Y52550D02*
D03*
Y82550D02*
D03*
Y112550D02*
D03*
X117000Y67900D02*
D03*
X127000D02*
D03*
X117000Y57900D02*
D03*
X127000D02*
D03*
X117000Y47900D02*
D03*
X31400Y171000D02*
D03*
X41400D02*
D03*
X51400D02*
D03*
X61400D02*
D03*
X71400D02*
D03*
X81400D02*
D03*
X91400D02*
D03*
X101400D02*
D03*
X111400D02*
D03*
X121400D02*
D03*
X131400D02*
D03*
X141400D02*
D03*
X151400D02*
D03*
X161400D02*
D03*
X171400D02*
D03*
X117000Y29700D02*
D03*
X127000D02*
D03*
X117000Y19700D02*
D03*
X127000D02*
D03*
X117000Y9700D02*
D03*
X150300Y152200D02*
D03*
X160300Y142200D02*
D03*
Y152200D02*
D03*
X170300Y142200D02*
D03*
Y152200D02*
D03*
X180300Y142200D02*
D03*
Y152200D02*
D03*
X190300Y142200D02*
D03*
Y152200D02*
D03*
D60*
X200250Y32550D02*
D03*
Y62550D02*
D03*
Y92550D02*
D03*
Y122550D02*
D03*
X127000Y47900D02*
D03*
Y9700D02*
D03*
D61*
X181400Y171000D02*
D03*
X150300Y142200D02*
D03*
D62*
X11100Y112300D02*
D03*
X10100Y135300D02*
D03*
X54800Y112700D02*
D03*
X35300Y5800D02*
D03*
X35200Y14100D02*
D03*
X28900Y24500D02*
D03*
X21500Y29700D02*
D03*
X12200Y57100D02*
D03*
X36700Y99300D02*
D03*
X87100Y55600D02*
D03*
X54900Y131800D02*
D03*
X137800Y150200D02*
D03*
X50000Y150100D02*
D03*
X87000Y68600D02*
D03*
X37200Y62400D02*
D03*
X86695Y13483D02*
D03*
X50400Y24900D02*
D03*
X84195Y40583D02*
D03*
X93500Y97800D02*
D03*
X20400Y57000D02*
D03*
D63*
X106700Y76200D02*
D03*
X145800Y49800D02*
D03*
X103539Y53539D02*
D03*
X107295Y19295D02*
D03*
X192050Y106050D02*
D03*
X184650Y98150D02*
D03*
X192250Y76250D02*
D03*
X184650Y68050D02*
D03*
X191850Y46250D02*
D03*
X184650Y38050D02*
D03*
X193050Y16450D02*
D03*
X175150Y27650D02*
D03*
X175132Y39932D02*
D03*
X141795Y41805D02*
D03*
X145251Y9827D02*
D03*
X175050Y57550D02*
D03*
X175132Y70468D02*
D03*
X174950Y87650D02*
D03*
Y99050D02*
D03*
X108343Y87657D02*
D03*
X180250Y110150D02*
D03*
X155243Y104957D02*
D03*
X155443Y99357D02*
D03*
X111343Y121957D02*
D03*
X170600Y131300D02*
D03*
M02*
