%FSLAX25Y25*%
%MOIN*%
G70*
G01*
G75*
%ADD10R,0.11811X0.05512*%
%ADD11R,0.05906X0.03937*%
%ADD12R,0.03937X0.05906*%
%ADD13R,0.04331X0.06693*%
%ADD14R,0.06693X0.04331*%
%ADD15R,0.02362X0.04331*%
%ADD16R,0.11811X0.06299*%
%ADD17R,0.24410X0.22835*%
%ADD18R,0.09449X0.03937*%
%ADD19R,0.09449X0.12992*%
%ADD20R,0.03150X0.03543*%
%ADD21R,0.03543X0.03150*%
%ADD22O,0.08661X0.02362*%
%ADD23R,0.03543X0.02756*%
%ADD24R,0.09252X0.07284*%
%ADD25O,0.06693X0.01378*%
%ADD26C,0.01500*%
%ADD27C,0.03000*%
%ADD28C,0.01000*%
%ADD29C,0.00800*%
%ADD30C,0.02500*%
%ADD31C,0.15000*%
%ADD32C,0.05906*%
%ADD33R,0.05906X0.05906*%
%ADD34R,0.05906X0.05906*%
%ADD35C,0.05000*%
%ADD36C,0.02500*%
D10*
X21145Y112400D02*
D03*
X39255D02*
D03*
X21045Y135100D02*
D03*
X39155D02*
D03*
D11*
X43700Y150169D02*
D03*
Y158831D02*
D03*
X54840Y102555D02*
D03*
Y93894D02*
D03*
X12400Y42869D02*
D03*
Y51531D02*
D03*
X137800Y164031D02*
D03*
Y155369D02*
D03*
D12*
X61510Y87224D02*
D03*
X70171D02*
D03*
X21439Y36050D02*
D03*
X12777D02*
D03*
X86739Y7150D02*
D03*
X78077D02*
D03*
X67731Y7300D02*
D03*
X59069D02*
D03*
D13*
X61025Y112724D02*
D03*
X71655D02*
D03*
X61385Y125200D02*
D03*
X72015D02*
D03*
X41585Y16800D02*
D03*
X52215D02*
D03*
D14*
X77823Y97845D02*
D03*
Y87215D02*
D03*
X12200Y62785D02*
D03*
Y73415D02*
D03*
X29505Y62232D02*
D03*
Y51602D02*
D03*
X20400Y62785D02*
D03*
Y73415D02*
D03*
X50400Y31485D02*
D03*
Y42115D02*
D03*
X39600Y31485D02*
D03*
Y42115D02*
D03*
D15*
X70080Y95000D02*
D03*
X62600D02*
D03*
Y104449D02*
D03*
X66340D02*
D03*
X70080D02*
D03*
D16*
X41505Y70972D02*
D03*
Y52862D02*
D03*
D17*
X69852Y61917D02*
D03*
D18*
X61483Y39355D02*
D03*
Y30300D02*
D03*
Y21245D02*
D03*
D19*
X84317Y30300D02*
D03*
D20*
X117899Y87657D02*
D03*
X112387D02*
D03*
X188506Y72050D02*
D03*
X182994D02*
D03*
X188506Y42050D02*
D03*
X182994D02*
D03*
X180256Y131300D02*
D03*
X174744D02*
D03*
X188506Y102050D02*
D03*
X182994D02*
D03*
D21*
X145543Y104913D02*
D03*
Y99401D02*
D03*
X141795Y51139D02*
D03*
Y45627D02*
D03*
X107395Y48027D02*
D03*
Y53539D02*
D03*
X141200Y15356D02*
D03*
Y9844D02*
D03*
X107295Y9927D02*
D03*
Y15439D02*
D03*
X150943Y104913D02*
D03*
Y99401D02*
D03*
D22*
X188699Y50050D02*
D03*
Y55050D02*
D03*
Y60050D02*
D03*
Y65050D02*
D03*
X169801Y50050D02*
D03*
Y55050D02*
D03*
Y60050D02*
D03*
Y65050D02*
D03*
X188699Y20050D02*
D03*
Y25050D02*
D03*
Y30050D02*
D03*
Y35050D02*
D03*
X169801Y20050D02*
D03*
Y25050D02*
D03*
Y30050D02*
D03*
Y35050D02*
D03*
X188699Y110050D02*
D03*
Y115050D02*
D03*
Y120050D02*
D03*
Y125050D02*
D03*
X169801Y110050D02*
D03*
Y115050D02*
D03*
Y120050D02*
D03*
Y125050D02*
D03*
X188699Y80050D02*
D03*
Y85050D02*
D03*
Y90050D02*
D03*
Y95050D02*
D03*
X169801Y80050D02*
D03*
Y85050D02*
D03*
Y90050D02*
D03*
Y95050D02*
D03*
D23*
X136595Y45430D02*
D03*
Y51336D02*
D03*
X136200Y9647D02*
D03*
Y15553D02*
D03*
D24*
X33485Y153700D02*
D03*
X19115D02*
D03*
D25*
X111323Y116072D02*
D03*
Y113513D02*
D03*
Y110954D02*
D03*
Y108395D02*
D03*
Y105836D02*
D03*
Y103277D02*
D03*
Y100718D02*
D03*
Y98159D02*
D03*
Y95600D02*
D03*
Y93041D02*
D03*
X133764Y116072D02*
D03*
Y113513D02*
D03*
Y110954D02*
D03*
Y108395D02*
D03*
Y105836D02*
D03*
Y103277D02*
D03*
Y100718D02*
D03*
Y98159D02*
D03*
Y95600D02*
D03*
Y93041D02*
D03*
D31*
X200000Y170000D02*
D03*
X15000Y15000D02*
D03*
Y170000D02*
D03*
D32*
X200250Y22550D02*
D03*
Y52550D02*
D03*
Y82550D02*
D03*
Y112550D02*
D03*
X117000Y67900D02*
D03*
X127000D02*
D03*
X117000Y57900D02*
D03*
X127000D02*
D03*
X117000Y47900D02*
D03*
X31400Y171000D02*
D03*
X41400D02*
D03*
X51400D02*
D03*
X61400D02*
D03*
X71400D02*
D03*
X81400D02*
D03*
X91400D02*
D03*
X101400D02*
D03*
X111400D02*
D03*
X121400D02*
D03*
X131400D02*
D03*
X141400D02*
D03*
X151400D02*
D03*
X161400D02*
D03*
X171400D02*
D03*
X117000Y29700D02*
D03*
X127000D02*
D03*
X117000Y19700D02*
D03*
X127000D02*
D03*
X117000Y9700D02*
D03*
X150300Y152200D02*
D03*
X160300Y142200D02*
D03*
Y152200D02*
D03*
X170300Y142200D02*
D03*
Y152200D02*
D03*
X180300Y142200D02*
D03*
Y152200D02*
D03*
X190300Y142200D02*
D03*
Y152200D02*
D03*
D33*
X200250Y32550D02*
D03*
Y62550D02*
D03*
Y92550D02*
D03*
Y122550D02*
D03*
X127000Y47900D02*
D03*
Y9700D02*
D03*
D34*
X181400Y171000D02*
D03*
X150300Y142200D02*
D03*
M02*
