%FSLAX25Y25*%
%MOIN*%
G70*
G01*
G75*
G04 Layer_Color=16711935*
%ADD10R,0.07284X0.09252*%
%ADD11R,0.03543X0.02756*%
%ADD12R,0.03543X0.03150*%
%ADD13R,0.09449X0.03937*%
%ADD14R,0.05906X0.03937*%
%ADD15O,0.08661X0.02362*%
%ADD16R,0.03150X0.03543*%
%ADD17O,0.06299X0.01378*%
%ADD18O,0.09055X0.03347*%
%ADD19R,0.09449X0.12992*%
%ADD20R,0.09449X0.03937*%
%ADD21R,0.03937X0.09449*%
%ADD22R,0.03937X0.05906*%
%ADD23R,0.04331X0.06693*%
%ADD24R,0.06693X0.04331*%
%ADD25R,0.24410X0.22835*%
%ADD26R,0.11811X0.06299*%
%ADD27R,0.02362X0.04331*%
%ADD28C,0.01500*%
%ADD29C,0.00800*%
%ADD30C,0.03000*%
%ADD31C,0.01000*%
%ADD32C,0.02500*%
%ADD33C,0.02000*%
%ADD34C,0.15000*%
%ADD35C,0.05906*%
%ADD36R,0.05906X0.05906*%
%ADD37R,0.05906X0.05906*%
%ADD38C,0.05000*%
%ADD39C,0.02500*%
%ADD40C,0.00984*%
%ADD41C,0.02362*%
%ADD42C,0.00787*%
%ADD43C,0.00300*%
%ADD44C,0.00600*%
%ADD45R,0.08083X0.10052*%
%ADD46R,0.04343X0.03556*%
%ADD47R,0.04343X0.03950*%
%ADD48R,0.10249X0.04737*%
%ADD49R,0.06706X0.04737*%
%ADD50O,0.09461X0.03162*%
%ADD51R,0.03950X0.04343*%
%ADD52O,0.07099X0.02178*%
%ADD53O,0.09855X0.04147*%
%ADD54R,0.10249X0.13792*%
%ADD55R,0.10249X0.04737*%
%ADD56R,0.04737X0.10249*%
%ADD57R,0.04737X0.06706*%
%ADD58R,0.05131X0.07493*%
%ADD59R,0.07493X0.05131*%
%ADD60R,0.25210X0.23635*%
%ADD61R,0.12611X0.07099*%
%ADD62R,0.03162X0.05131*%
%ADD63C,0.15800*%
%ADD64C,0.06706*%
%ADD65R,0.06706X0.06706*%
%ADD66R,0.06706X0.06706*%
%ADD67C,0.05800*%
%ADD68C,0.03300*%
%ADD69C,0.00394*%
%ADD70R,0.10630X0.02648*%
D69*
X313999Y333201D02*
G03*
X313999Y333201I-1969J0D01*
G01*
Y363201D02*
G03*
X313999Y363201I-1969J0D01*
G01*
Y273201D02*
G03*
X313999Y273201I-1969J0D01*
G01*
Y303201D02*
G03*
X313999Y303201I-1969J0D01*
G01*
X260422Y310144D02*
G03*
X260422Y310144I-1969J0D01*
G01*
X231651Y380647D02*
G03*
X231651Y380647I-1969J0D01*
G01*
X138515Y390458D02*
Y410143D01*
X127885Y390458D02*
Y410143D01*
X138515D01*
X127885Y390458D02*
X138515D01*
X234830Y267947D02*
X238570D01*
X234830Y261253D02*
X238570D01*
Y267947D01*
X234830Y261253D02*
Y267947D01*
X205925Y268128D02*
X209665D01*
X205925Y261238D02*
X209665D01*
Y268128D01*
X205925Y261238D02*
Y268128D01*
X239830Y261155D02*
X243570D01*
X239830Y268045D02*
X243570D01*
X239830Y261155D02*
Y268045D01*
X243570Y261155D02*
Y268045D01*
X235225Y303729D02*
X238965D01*
X235225Y297037D02*
X238965D01*
Y303729D01*
X235225Y297037D02*
Y303729D01*
X206025Y306228D02*
X209765D01*
X206025Y299338D02*
X209765D01*
Y306228D01*
X206025Y299338D02*
Y306228D01*
X240425Y296938D02*
X244165D01*
X240425Y303828D02*
X244165D01*
X240425Y296938D02*
Y303828D01*
X244165Y296938D02*
Y303828D01*
X299826Y349342D02*
X315574D01*
X299826Y329658D02*
X315574D01*
X299826D02*
Y349342D01*
X315574Y329658D02*
Y349342D01*
X299826Y379343D02*
X315574D01*
X299826Y359658D02*
X315574D01*
X299826D02*
Y379343D01*
X315574Y359658D02*
Y379343D01*
X310755Y352130D02*
Y355870D01*
X317645Y352130D02*
Y355870D01*
X310755D02*
X317645D01*
X310755Y352130D02*
X317645D01*
X310755Y382130D02*
Y385870D01*
X317645Y382130D02*
Y385870D01*
X310755D02*
X317645D01*
X310755Y382130D02*
X317645D01*
X299826Y289342D02*
X315574D01*
X299826Y269657D02*
X315574D01*
X299826D02*
Y289342D01*
X315574Y269657D02*
Y289342D01*
X299826Y319342D02*
X315574D01*
X299826Y299658D02*
X315574D01*
X299826D02*
Y319342D01*
X315574Y299658D02*
Y319342D01*
X310755Y292130D02*
Y295870D01*
X317645Y292130D02*
Y295870D01*
X310755D02*
X317645D01*
X310755Y292130D02*
X317645D01*
X310755Y322130D02*
Y325870D01*
X317645Y322130D02*
Y325870D01*
X310755D02*
X317645D01*
X310755Y322130D02*
X317645D01*
X250580Y319199D02*
X261997D01*
X250580Y306601D02*
X261997D01*
X250580D02*
Y319199D01*
X261997Y306601D02*
Y319199D01*
X226139Y333010D02*
Y384191D01*
X256061Y333010D02*
Y384191D01*
X226139D02*
X256061D01*
X226139Y333010D02*
X256061D01*
X251618Y296855D02*
X255358D01*
X251618Y303745D02*
X255358D01*
X251618Y296855D02*
Y303745D01*
X255358Y296855D02*
Y303745D01*
X256430Y296855D02*
X260170D01*
X256430Y303745D02*
X260170D01*
X256430Y296855D02*
Y303745D01*
X260170Y296855D02*
Y303745D01*
X251543Y326230D02*
Y329970D01*
X258433Y326230D02*
Y329970D01*
X251543D02*
X258433D01*
X251543Y326230D02*
X258433D01*
X251643Y321130D02*
Y324870D01*
X258533Y321130D02*
Y324870D01*
X251643D02*
X258533D01*
X251643Y321130D02*
X258533D01*
X229545Y388230D02*
Y391970D01*
X222655Y388230D02*
Y391970D01*
Y388230D02*
X229545D01*
X222655Y391970D02*
X229545D01*
X253155Y388230D02*
Y391970D01*
X260045Y388230D02*
Y391970D01*
X253155D02*
X260045D01*
X253155Y388230D02*
X260045D01*
X166116Y269111D02*
X180684D01*
X166116Y295489D02*
X180684D01*
Y269111D02*
Y295489D01*
X166116Y269111D02*
Y295489D01*
X140707Y256257D02*
X154093D01*
X140707Y263343D02*
X154093D01*
Y256257D02*
Y263343D01*
X140707Y256257D02*
Y263343D01*
Y265257D02*
X154093D01*
X140707Y272343D02*
X154093D01*
Y265257D02*
Y272343D01*
X140707Y265257D02*
Y272343D01*
X154443Y282107D02*
Y295493D01*
X147357Y282107D02*
Y295493D01*
X154443D01*
X147357Y282107D02*
X154443D01*
X117962Y302224D02*
Y315610D01*
X125049Y302224D02*
Y315610D01*
X117962Y302224D02*
X125049D01*
X117962Y315610D02*
X125049D01*
X126462Y302224D02*
Y315610D01*
X133549Y302224D02*
Y315610D01*
X126462Y302224D02*
X133549D01*
X126462Y315610D02*
X133549D01*
X116243Y313407D02*
Y326793D01*
X109157Y313407D02*
Y326793D01*
X116243D01*
X109157Y313407D02*
X116243D01*
X160836Y355169D02*
X172844D01*
X160836Y348280D02*
X172844D01*
Y355169D01*
X160836Y348280D02*
Y355169D01*
X183480Y337837D02*
Y351223D01*
X190566Y337837D02*
Y351223D01*
X183480Y337837D02*
X190566D01*
X183480Y351223D02*
X190566D01*
X174780Y337837D02*
Y351223D01*
X181866Y337837D02*
Y351223D01*
X174780Y337837D02*
X181866D01*
X174780Y351223D02*
X181866D01*
X160147Y361181D02*
X173533D01*
X160147Y368268D02*
X173533D01*
Y361181D02*
Y368268D01*
X160147Y361181D02*
Y368268D01*
D70*
X133202Y391804D02*
D03*
M02*
