%FSLAX25Y25*%
%MOIN*%
G70*
G01*
G75*
G04 Layer_Color=16711935*
%ADD10R,0.07284X0.09252*%
%ADD11R,0.03543X0.02756*%
%ADD12R,0.03543X0.03150*%
%ADD13R,0.09449X0.03937*%
%ADD14R,0.05906X0.03937*%
%ADD15O,0.08661X0.02362*%
%ADD16R,0.03150X0.03543*%
%ADD17O,0.06299X0.01378*%
%ADD18O,0.09055X0.03347*%
%ADD19R,0.09449X0.12992*%
%ADD20R,0.09449X0.03937*%
%ADD21R,0.03937X0.09449*%
%ADD22R,0.03937X0.05906*%
%ADD23R,0.04331X0.06693*%
%ADD24R,0.06693X0.04331*%
%ADD25R,0.24410X0.22835*%
%ADD26R,0.11811X0.06299*%
%ADD27R,0.02362X0.04331*%
%ADD28C,0.01500*%
%ADD29C,0.00800*%
%ADD30C,0.03000*%
%ADD31C,0.01000*%
%ADD32C,0.02500*%
%ADD33C,0.02000*%
%ADD34C,0.15000*%
%ADD35C,0.05906*%
%ADD36R,0.05906X0.05906*%
%ADD37R,0.05906X0.05906*%
%ADD38C,0.05000*%
%ADD39C,0.02500*%
%ADD40C,0.00984*%
%ADD41C,0.02362*%
%ADD42C,0.00787*%
%ADD43C,0.00300*%
%ADD44C,0.00600*%
%ADD45R,0.08083X0.10052*%
%ADD46R,0.04343X0.03556*%
%ADD47R,0.04343X0.03950*%
%ADD48R,0.10249X0.04737*%
%ADD49R,0.06706X0.04737*%
%ADD50O,0.09461X0.03162*%
%ADD51R,0.03950X0.04343*%
%ADD52O,0.07099X0.02178*%
%ADD53O,0.09855X0.04147*%
%ADD54R,0.10249X0.13792*%
%ADD55R,0.10249X0.04737*%
%ADD56R,0.04737X0.10249*%
%ADD57R,0.04737X0.06706*%
%ADD58R,0.05131X0.07493*%
%ADD59R,0.07493X0.05131*%
%ADD60R,0.25210X0.23635*%
%ADD61R,0.12611X0.07099*%
%ADD62R,0.03162X0.05131*%
%ADD63C,0.15800*%
%ADD64C,0.06706*%
%ADD65R,0.06706X0.06706*%
%ADD66R,0.06706X0.06706*%
%ADD67C,0.05800*%
%ADD68C,0.03300*%
D63*
X115500Y418100D02*
D03*
Y267000D02*
D03*
X321000Y418100D02*
D03*
D64*
X307800Y402400D02*
D03*
Y392400D02*
D03*
X297800Y402400D02*
D03*
Y392400D02*
D03*
X287800Y402400D02*
D03*
Y392400D02*
D03*
X277800Y402400D02*
D03*
Y392400D02*
D03*
X267800Y402400D02*
D03*
X217500Y261700D02*
D03*
X227500Y271700D02*
D03*
X217500D02*
D03*
X227500Y281700D02*
D03*
X217500D02*
D03*
X271900Y423000D02*
D03*
X261900D02*
D03*
X251900D02*
D03*
X241900D02*
D03*
X231900D02*
D03*
X221900D02*
D03*
X211900D02*
D03*
X201900D02*
D03*
X191900D02*
D03*
X181900D02*
D03*
X171900D02*
D03*
X161900D02*
D03*
X151900D02*
D03*
X141900D02*
D03*
X131900D02*
D03*
X217500Y299900D02*
D03*
X227500Y309900D02*
D03*
X217500D02*
D03*
X227500Y319900D02*
D03*
X217500D02*
D03*
X328700Y364500D02*
D03*
Y334500D02*
D03*
Y304500D02*
D03*
Y274500D02*
D03*
D65*
X267800Y392400D02*
D03*
X281900Y423000D02*
D03*
D66*
X227500Y261700D02*
D03*
Y299900D02*
D03*
X328700Y374500D02*
D03*
Y344500D02*
D03*
Y314500D02*
D03*
Y284500D02*
D03*
D67*
X184695Y292583D02*
D03*
X150900Y276900D02*
D03*
X187195Y265483D02*
D03*
X137700Y314400D02*
D03*
X187500Y320600D02*
D03*
X150500Y402100D02*
D03*
X238300Y402200D02*
D03*
X155400Y383800D02*
D03*
X187600Y307600D02*
D03*
X137200Y351300D02*
D03*
X120800Y320100D02*
D03*
X112700Y309100D02*
D03*
X122000Y281700D02*
D03*
X129400Y276500D02*
D03*
X135700Y266100D02*
D03*
X135800Y257800D02*
D03*
X125700Y372700D02*
D03*
X131800Y341300D02*
D03*
X122500Y361300D02*
D03*
X155300Y364700D02*
D03*
X194000Y349800D02*
D03*
D68*
X249400Y297500D02*
D03*
X265900Y376100D02*
D03*
X215800Y336100D02*
D03*
X303400Y351000D02*
D03*
Y339600D02*
D03*
X303582Y322418D02*
D03*
X303500Y309500D02*
D03*
X233100Y390100D02*
D03*
X249600D02*
D03*
X245751Y261827D02*
D03*
X242295Y293805D02*
D03*
X303582Y291882D02*
D03*
X303600Y279600D02*
D03*
X321500Y268400D02*
D03*
X313100Y290000D02*
D03*
X320300Y298200D02*
D03*
X313100Y320000D02*
D03*
X320700Y328200D02*
D03*
X313100Y350100D02*
D03*
X320500Y358000D02*
D03*
X313900Y380200D02*
D03*
X249000Y319600D02*
D03*
X268388Y311600D02*
D03*
X207795Y271295D02*
D03*
X204039Y305539D02*
D03*
X246300Y301800D02*
D03*
X239300Y324900D02*
D03*
M02*
