%FSLAX25Y25*%
%MOIN*%
G70*
G01*
G75*
G04 Layer_Color=32768*
%ADD10O,0.06693X0.01378*%
%ADD11R,0.03543X0.03150*%
%ADD12R,0.07284X0.09252*%
%ADD13R,0.03543X0.02756*%
%ADD14R,0.09449X0.03937*%
%ADD15R,0.05906X0.03937*%
%ADD16O,0.08661X0.02362*%
%ADD17R,0.03150X0.03543*%
%ADD18R,0.09449X0.12992*%
%ADD19R,0.09449X0.03937*%
%ADD20R,0.03937X0.05906*%
%ADD21R,0.06693X0.04331*%
%ADD22R,0.04331X0.06693*%
%ADD23R,0.24410X0.22835*%
%ADD24R,0.11811X0.06299*%
%ADD25R,0.02362X0.04331*%
%ADD26C,0.03000*%
%ADD27C,0.01500*%
%ADD28C,0.00800*%
%ADD29C,0.01000*%
%ADD30C,0.02500*%
%ADD31C,0.02000*%
%ADD32C,0.15000*%
%ADD33C,0.05906*%
%ADD34R,0.05906X0.05906*%
%ADD35R,0.05906X0.05906*%
%ADD36C,0.05000*%
%ADD37C,0.02500*%
%ADD38C,0.00984*%
%ADD39C,0.02362*%
%ADD40C,0.00787*%
%ADD41C,0.00300*%
%ADD42C,0.00600*%
%ADD43O,0.07893X0.02578*%
%ADD44R,0.04743X0.04350*%
%ADD45R,0.08483X0.10452*%
%ADD46R,0.04743X0.03956*%
%ADD47R,0.10649X0.05137*%
%ADD48R,0.07106X0.05137*%
%ADD49O,0.09861X0.03562*%
%ADD50R,0.04350X0.04743*%
%ADD51R,0.10649X0.14192*%
%ADD52R,0.10649X0.05137*%
%ADD53R,0.05137X0.07106*%
%ADD54R,0.07893X0.05531*%
%ADD55R,0.05531X0.07893*%
%ADD56R,0.25609X0.24035*%
%ADD57R,0.13011X0.07499*%
%ADD58R,0.03562X0.05531*%
%ADD59C,0.16200*%
%ADD60C,0.07106*%
%ADD61R,0.07106X0.07106*%
%ADD62R,0.07106X0.07106*%
%ADD63C,0.06200*%
%ADD64C,0.03700*%
%ADD65C,0.00394*%
%ADD66R,0.10630X0.02648*%
%ADD67C,0.00500*%
%ADD68C,0.00197*%
D65*
X120575Y104557D02*
X124512D01*
X122543Y102588D02*
Y106525D01*
X148778Y97432D02*
X153109D01*
X148778Y106881D02*
X153109D01*
X148778Y97432D02*
Y106881D01*
X153109Y97432D02*
Y106881D01*
X150943Y100287D02*
Y104027D01*
X149073Y102157D02*
X152813D01*
X30731Y148300D02*
X34668D01*
X32700Y146332D02*
Y150268D01*
X39196Y135505D02*
Y161095D01*
X26204Y135505D02*
Y161095D01*
X39196D01*
X26204Y135505D02*
X39196D01*
X134035Y17324D02*
X138365D01*
X134035Y7876D02*
X138365D01*
Y17324D01*
X134035Y7876D02*
Y17324D01*
X136200Y10730D02*
Y14470D01*
X134330Y12600D02*
X138070D01*
X105129Y17407D02*
X109460D01*
X105129Y7959D02*
X109460D01*
Y17407D01*
X105129Y7959D02*
Y17407D01*
X107295Y10813D02*
Y14553D01*
X105425Y12683D02*
X109165D01*
X139035Y7876D02*
X143365D01*
X139035Y17324D02*
X143365D01*
X139035Y7876D02*
Y17324D01*
X143365Y7876D02*
Y17324D01*
X141200Y10730D02*
Y14470D01*
X139330Y12600D02*
X143070D01*
X134429Y53107D02*
X138760D01*
X134429Y43659D02*
X138760D01*
Y53107D01*
X134429Y43659D02*
Y53107D01*
X136595Y46513D02*
Y50253D01*
X134725Y48383D02*
X138465D01*
X105229Y55507D02*
X109560D01*
X105229Y46058D02*
X109560D01*
Y55507D01*
X105229Y46058D02*
Y55507D01*
X107395Y48913D02*
Y52653D01*
X105525Y50783D02*
X109265D01*
X139629Y43659D02*
X143960D01*
X139629Y53107D02*
X143960D01*
X139629Y43659D02*
Y53107D01*
X143960Y43659D02*
Y53107D01*
X141795Y46513D02*
Y50253D01*
X139925Y48383D02*
X143665D01*
X179250Y85581D02*
Y89518D01*
X177281Y87550D02*
X181219D01*
X179250Y115582D02*
Y119518D01*
X177281Y117550D02*
X181219D01*
X181026Y99885D02*
Y104215D01*
X190474Y99885D02*
Y104215D01*
X181026D02*
X190474D01*
X181026Y99885D02*
X190474D01*
X183880Y102050D02*
X187620D01*
X185750Y100180D02*
Y103920D01*
X172776Y129135D02*
Y133465D01*
X182224Y129135D02*
Y133465D01*
X172776D02*
X182224D01*
X172776Y129135D02*
X182224D01*
X175630Y131300D02*
X179370D01*
X177500Y129430D02*
Y133170D01*
X179250Y25581D02*
Y29518D01*
X177281Y27550D02*
X181219D01*
X179250Y55581D02*
Y59518D01*
X177281Y57550D02*
X181219D01*
X181026Y39885D02*
Y44215D01*
X190474Y39885D02*
Y44215D01*
X181026D02*
X190474D01*
X181026Y39885D02*
X190474D01*
X183880Y42050D02*
X187620D01*
X185750Y40180D02*
Y43920D01*
X181026Y69885D02*
Y74215D01*
X190474Y69885D02*
Y74215D01*
X181026D02*
X190474D01*
X181026Y69885D02*
X190474D01*
X183880Y72050D02*
X187620D01*
X185750Y70180D02*
Y73920D01*
X143378Y97432D02*
X147709D01*
X143378Y106881D02*
X147709D01*
X143378Y97432D02*
Y106881D01*
X147709Y97432D02*
Y106881D01*
X145543Y100287D02*
Y104027D01*
X143673Y102157D02*
X147413D01*
X110419Y85491D02*
Y89822D01*
X119868Y85491D02*
Y89822D01*
X110419D02*
X119868D01*
X110419Y85491D02*
X119868D01*
X113273Y87657D02*
X117013D01*
X115143Y85787D02*
Y89527D01*
X72900Y28332D02*
Y32269D01*
X70932Y30300D02*
X74869D01*
X55872Y16127D02*
X89928D01*
X55872Y44473D02*
X89928D01*
Y16127D02*
Y44473D01*
X55872Y16127D02*
Y44473D01*
X37631Y36800D02*
X41568D01*
X39600Y34832D02*
Y38769D01*
X43340Y28926D02*
Y44674D01*
X35860Y28926D02*
Y44674D01*
X43340D01*
X35860Y28926D02*
X43340D01*
X46900Y14831D02*
Y18768D01*
X44932Y16800D02*
X48869D01*
X39026Y13060D02*
X54774D01*
X39026Y20540D02*
X54774D01*
Y13060D02*
Y20540D01*
X39026Y13060D02*
Y20540D01*
X48432Y36800D02*
X52368D01*
X50400Y34832D02*
Y38769D01*
X54140Y28926D02*
Y44674D01*
X46660Y28926D02*
Y44674D01*
X54140D01*
X46660Y28926D02*
X54140D01*
X18431Y68100D02*
X22368D01*
X20400Y66132D02*
Y70069D01*
X24140Y60226D02*
Y75974D01*
X16660Y60226D02*
Y75974D01*
X24140D01*
X16660Y60226D02*
X24140D01*
X27537Y56917D02*
X31474D01*
X29505Y54949D02*
Y58886D01*
X25765Y49043D02*
Y64791D01*
X33245Y49043D02*
Y64791D01*
X25765Y49043D02*
X33245D01*
X25765Y64791D02*
X33245D01*
X10232Y68100D02*
X14168D01*
X12200Y66132D02*
Y70069D01*
X15940Y60226D02*
Y75974D01*
X8460Y60226D02*
Y75974D01*
X15940D01*
X8460Y60226D02*
X15940D01*
X66340Y97756D02*
Y101693D01*
X64372Y99724D02*
X68309D01*
X66700Y123231D02*
Y127169D01*
X64732Y125200D02*
X68669D01*
X58826Y121460D02*
X74574D01*
X58826Y128940D02*
X74574D01*
Y121460D02*
Y128940D01*
X58826Y121460D02*
Y128940D01*
X75855Y92530D02*
X79792D01*
X77823Y90561D02*
Y94498D01*
X74083Y84656D02*
Y100404D01*
X81563Y84656D02*
Y100404D01*
X74083Y84656D02*
X81563D01*
X74083Y100404D02*
X81563D01*
X66340Y110756D02*
Y114693D01*
X64372Y112724D02*
X68309D01*
X58466Y108984D02*
X74214D01*
X58466Y116465D02*
X74214D01*
Y108984D02*
Y116465D01*
X58466Y108984D02*
Y116465D01*
D67*
X-82783Y-76410D02*
G03*
X-89083Y-82710I-1J-6300D01*
G01*
X-76484D02*
G03*
X-82783Y-76410I-6299J1D01*
G01*
Y-89009D02*
G03*
X-76484Y-82710I-1J6300D01*
G01*
X-89083D02*
G03*
X-82783Y-89009I6300J1D01*
G01*
X253832Y-76410D02*
G03*
X247531Y-82710I-1J-6300D01*
G01*
X260131D02*
G03*
X253832Y-76410I-6300J0D01*
G01*
Y-89009D02*
G03*
X260131Y-82710I-1J6300D01*
G01*
X247531D02*
G03*
X253832Y-89009I6301J2D01*
G01*
X0Y0D02*
X210600D01*
X0D02*
Y181070D01*
X210600D01*
Y0D02*
Y181070D01*
D68*
X138094Y90580D02*
Y118533D01*
X106992Y90580D02*
Y118533D01*
Y90580D02*
X138094D01*
X106992Y118533D02*
X138094D01*
X164486Y98377D02*
X194014D01*
X164486Y76723D02*
X194014D01*
X164486D02*
Y98377D01*
X194014Y76723D02*
Y98377D01*
X164486Y128377D02*
X194014D01*
X164486Y106723D02*
X194014D01*
X164486D02*
Y128377D01*
X194014Y106723D02*
Y128377D01*
X164486Y38377D02*
X194014D01*
X164486Y16723D02*
X194014D01*
X164486D02*
Y38377D01*
X194014Y16723D02*
Y38377D01*
X164486Y68377D02*
X194014D01*
X164486Y46723D02*
X194014D01*
X164486D02*
Y68377D01*
X194014Y46723D02*
Y68377D01*
X59254Y107598D02*
X73427D01*
X59254Y91850D02*
X73427D01*
Y107598D01*
X59254Y91850D02*
Y107598D01*
M02*
