%FSLAX25Y25*%
%MOIN*%
G70*
G01*
G75*
G04 Layer_Color=16711935*
%ADD10R,0.11811X0.05512*%
%ADD11R,0.05906X0.03937*%
%ADD12R,0.03937X0.05906*%
%ADD13R,0.04331X0.06693*%
%ADD14R,0.06693X0.04331*%
%ADD15R,0.02362X0.04331*%
%ADD16R,0.11811X0.06299*%
%ADD17R,0.24410X0.22835*%
%ADD18R,0.09449X0.03937*%
%ADD19R,0.09449X0.12992*%
%ADD20R,0.03150X0.03543*%
%ADD21R,0.03543X0.03150*%
%ADD22O,0.08661X0.02362*%
%ADD23R,0.03543X0.02756*%
%ADD24R,0.09252X0.07284*%
%ADD25O,0.06693X0.01378*%
%ADD26C,0.01500*%
%ADD27C,0.03000*%
%ADD28C,0.01000*%
%ADD29C,0.00800*%
%ADD30C,0.02500*%
%ADD31C,0.15000*%
%ADD32C,0.05906*%
%ADD33R,0.05906X0.05906*%
%ADD34R,0.05906X0.05906*%
%ADD35C,0.05000*%
%ADD36C,0.02500*%
%ADD37C,0.00984*%
%ADD38C,0.02362*%
%ADD39C,0.00787*%
%ADD40C,0.00300*%
%ADD41C,0.00600*%
%ADD42R,0.13011X0.06712*%
%ADD43R,0.07106X0.05137*%
%ADD44R,0.05137X0.07106*%
%ADD45R,0.05531X0.07893*%
%ADD46R,0.07893X0.05531*%
%ADD47R,0.03562X0.05531*%
%ADD48R,0.13011X0.07499*%
%ADD49R,0.25609X0.24035*%
%ADD50R,0.10649X0.05137*%
%ADD51R,0.10649X0.14192*%
%ADD52R,0.04350X0.04743*%
%ADD53R,0.04743X0.04350*%
%ADD54O,0.09861X0.03562*%
%ADD55R,0.04743X0.03956*%
%ADD56R,0.10452X0.08483*%
%ADD57O,0.07893X0.02578*%
%ADD58C,0.16200*%
%ADD59C,0.07106*%
%ADD60R,0.07106X0.07106*%
%ADD61R,0.07106X0.07106*%
%ADD62C,0.06200*%
%ADD63C,0.03700*%
%ADD64C,0.00394*%
%ADD65R,0.02648X0.10630*%
D64*
X185549Y51251D02*
G03*
X185549Y51251I-1969J0D01*
G01*
Y21251D02*
G03*
X185549Y21251I-1969J0D01*
G01*
Y111251D02*
G03*
X185549Y111251I-1969J0D01*
G01*
Y81251D02*
G03*
X185549Y81251I-1969J0D01*
G01*
X129827Y95108D02*
G03*
X129827Y95108I-1969J0D01*
G01*
X59647Y109181D02*
Y116268D01*
X73033Y109181D02*
Y116268D01*
X59647D02*
X73033D01*
X59647Y109181D02*
X73033D01*
X74280Y99223D02*
X81366D01*
X74280Y85837D02*
X81366D01*
Y99223D01*
X74280Y85837D02*
Y99223D01*
X60007Y121657D02*
Y128743D01*
X73393Y121657D02*
Y128743D01*
X60007D02*
X73393D01*
X60007Y121657D02*
X73393D01*
X60336Y96280D02*
Y103169D01*
X72344Y96280D02*
Y103169D01*
X60336Y96280D02*
X72344D01*
X60336Y103169D02*
X72344D01*
X8657Y61407D02*
X15743D01*
X8657Y74793D02*
X15743D01*
X8657Y61407D02*
Y74793D01*
X15743Y61407D02*
Y74793D01*
X25962Y63610D02*
X33049D01*
X25962Y50224D02*
X33049D01*
Y63610D01*
X25962Y50224D02*
Y63610D01*
X16857Y61407D02*
X23943D01*
X16857Y74793D02*
X23943D01*
X16857Y61407D02*
Y74793D01*
X23943Y61407D02*
Y74793D01*
X46857Y30107D02*
X53943D01*
X46857Y43493D02*
X53943D01*
X46857Y30107D02*
Y43493D01*
X53943Y30107D02*
Y43493D01*
X40207Y13257D02*
Y20343D01*
X53593Y13257D02*
Y20343D01*
X40207D02*
X53593D01*
X40207Y13257D02*
X53593D01*
X36057Y30107D02*
X43143D01*
X36057Y43493D02*
X43143D01*
X36057Y30107D02*
Y43493D01*
X43143Y30107D02*
Y43493D01*
X65617Y17111D02*
Y43489D01*
X80184Y17111D02*
Y43489D01*
X65617D02*
X80184D01*
X65617Y17111D02*
X80184D01*
X111698Y85787D02*
X118588D01*
X111698Y89527D02*
X118588D01*
Y85787D02*
Y89527D01*
X111698Y85787D02*
Y89527D01*
X147413Y98712D02*
Y105602D01*
X143673Y98712D02*
Y105602D01*
X147413D01*
X143673Y98712D02*
X147413D01*
X182305Y70180D02*
X189195D01*
X182305Y73920D02*
X189195D01*
Y70180D02*
Y73920D01*
X182305Y70180D02*
Y73920D01*
X182305Y40180D02*
X189195D01*
X182305Y43920D02*
X189195D01*
Y40180D02*
Y43920D01*
X182305Y40180D02*
Y43920D01*
X187124Y47708D02*
Y67392D01*
X171376Y47708D02*
Y67392D01*
Y47708D02*
X187124D01*
X171376Y67392D02*
X187124D01*
Y17707D02*
Y37393D01*
X171376Y17707D02*
Y37393D01*
Y17707D02*
X187124D01*
X171376Y37393D02*
X187124D01*
X174055Y129430D02*
X180945D01*
X174055Y133170D02*
X180945D01*
Y129430D02*
Y133170D01*
X174055Y129430D02*
Y133170D01*
X182305Y100180D02*
X189195D01*
X182305Y103920D02*
X189195D01*
Y100180D02*
Y103920D01*
X182305Y100180D02*
Y103920D01*
X187124Y107708D02*
Y127392D01*
X171376Y107708D02*
Y127392D01*
Y107708D02*
X187124D01*
X171376Y127392D02*
X187124D01*
Y77707D02*
Y97392D01*
X171376Y77707D02*
Y97392D01*
Y77707D02*
X187124D01*
X171376Y97392D02*
X187124D01*
X143665Y44938D02*
Y51828D01*
X139925Y44938D02*
Y51828D01*
X143665D01*
X139925Y44938D02*
X143665D01*
X105525Y47338D02*
Y54228D01*
X109265Y47338D02*
Y54228D01*
X105525Y47338D02*
X109265D01*
X105525Y54228D02*
X109265D01*
X134725Y45037D02*
Y51729D01*
X138465Y45037D02*
Y51729D01*
X134725Y45037D02*
X138465D01*
X134725Y51729D02*
X138465D01*
X143070Y9155D02*
Y16045D01*
X139330Y9155D02*
Y16045D01*
X143070D01*
X139330Y9155D02*
X143070D01*
X105425Y9238D02*
Y16128D01*
X109165Y9238D02*
Y16128D01*
X105425Y9238D02*
X109165D01*
X105425Y16128D02*
X109165D01*
X134330Y9253D02*
Y15946D01*
X138070Y9253D02*
Y15946D01*
X134330Y9253D02*
X138070D01*
X134330Y15946D02*
X138070D01*
X36143Y148385D02*
Y159015D01*
X16457Y148385D02*
Y159015D01*
Y148385D02*
X36143D01*
X16457Y159015D02*
X36143D01*
X152813Y98712D02*
Y105602D01*
X149073Y98712D02*
Y105602D01*
X152813D01*
X149073Y98712D02*
X152813D01*
X113685Y117549D02*
X131402D01*
X113685Y91565D02*
X131402D01*
X113685D02*
Y117549D01*
X131402Y91565D02*
Y117549D01*
D65*
X34795Y153702D02*
D03*
M02*
