%FSLAX25Y25*%
%MOIN*%
G70*
G01*
G75*
G04 Layer_Color=32896*
%ADD10R,0.07284X0.09252*%
%ADD11R,0.03543X0.02756*%
%ADD12R,0.03543X0.03150*%
%ADD13R,0.09449X0.03937*%
%ADD14R,0.05906X0.03937*%
%ADD15O,0.08661X0.02362*%
%ADD16R,0.03150X0.03543*%
%ADD17O,0.06299X0.01378*%
%ADD18O,0.09055X0.03347*%
%ADD19R,0.09449X0.12992*%
%ADD20R,0.09449X0.03937*%
%ADD21R,0.03937X0.09449*%
%ADD22R,0.03937X0.05906*%
%ADD23R,0.04331X0.06693*%
%ADD24R,0.06693X0.04331*%
%ADD25R,0.24410X0.22835*%
%ADD26R,0.11811X0.06299*%
%ADD27R,0.02362X0.04331*%
%ADD28C,0.01500*%
%ADD29C,0.00800*%
%ADD30C,0.03000*%
%ADD31C,0.01000*%
%ADD32C,0.02500*%
%ADD33C,0.02000*%
%ADD34C,0.15000*%
%ADD35C,0.05906*%
%ADD36R,0.05906X0.05906*%
%ADD37R,0.05906X0.05906*%
%ADD38C,0.05000*%
%ADD39C,0.02500*%
%ADD40C,0.00984*%
%ADD41C,0.02362*%
%ADD42C,0.00787*%
%ADD43C,0.00300*%
%ADD44C,0.00600*%
%ADD45R,0.08083X0.10052*%
%ADD46R,0.04343X0.03556*%
%ADD47R,0.04343X0.03950*%
%ADD48R,0.10249X0.04737*%
%ADD49R,0.06706X0.04737*%
%ADD50O,0.09461X0.03162*%
%ADD51R,0.03950X0.04343*%
%ADD52O,0.07099X0.02178*%
%ADD53O,0.09855X0.04147*%
%ADD54R,0.10249X0.13792*%
%ADD55R,0.10249X0.04737*%
%ADD56R,0.04737X0.10249*%
%ADD57R,0.04737X0.06706*%
%ADD58R,0.05131X0.07493*%
%ADD59R,0.07493X0.05131*%
%ADD60R,0.25210X0.23635*%
%ADD61R,0.12611X0.07099*%
%ADD62R,0.03162X0.05131*%
%ADD63C,0.15800*%
%ADD64C,0.06706*%
%ADD65R,0.06706X0.06706*%
%ADD66R,0.06706X0.06706*%
%ADD67C,0.05800*%
%ADD68C,0.03300*%
G36*
X288571Y379968D02*
X288756Y379783D01*
X288942Y379597D01*
Y379412D01*
Y377005D01*
X291349D01*
X291719Y376820D01*
X291905Y376635D01*
X292090Y376449D01*
Y376264D01*
Y355154D01*
X294312D01*
X294682Y354969D01*
X295053Y354783D01*
X295238Y354598D01*
Y354413D01*
Y352006D01*
X298201D01*
Y354413D01*
X298386Y354783D01*
X298571Y354969D01*
X298941Y355154D01*
X303756D01*
X304127Y354969D01*
X304312Y354783D01*
X304497Y354598D01*
Y354413D01*
Y352746D01*
X304312Y352376D01*
X304127Y352191D01*
X303941Y352006D01*
X301349D01*
Y348858D01*
X310793D01*
Y345709D01*
X313941D01*
Y348858D01*
X310793D01*
Y351265D01*
X310978Y351635D01*
X311163Y351820D01*
X311349Y352006D01*
X313941D01*
Y354413D01*
X314126Y354783D01*
X314311Y354969D01*
X314496Y355154D01*
X316348D01*
X316719Y354969D01*
X316904Y354783D01*
X317089Y354598D01*
Y354413D01*
Y352006D01*
X320237D01*
Y349598D01*
X320052Y349228D01*
X319682Y349043D01*
X319496Y348858D01*
X317089D01*
Y342562D01*
X320237D01*
Y344969D01*
X320422Y345339D01*
X320607Y345709D01*
X322459D01*
X322830Y345524D01*
X323015Y345339D01*
X323200Y345154D01*
Y344969D01*
Y330895D01*
X323015Y330525D01*
X322830Y330340D01*
X322644Y330154D01*
X320978D01*
X320607Y330340D01*
X320237Y330525D01*
Y330710D01*
Y330895D01*
Y333302D01*
X317089D01*
Y330895D01*
X316904Y330525D01*
X316719Y330340D01*
X316533Y330154D01*
X314682D01*
X314311Y330340D01*
X313941Y330525D01*
Y330710D01*
Y330895D01*
Y336451D01*
X311534D01*
X311163Y336636D01*
X310793Y336821D01*
Y337006D01*
Y337191D01*
Y339599D01*
X301349D01*
Y342562D01*
X298201D01*
Y339599D01*
X301349D01*
Y336451D01*
X303756D01*
X304127Y336265D01*
X304312Y336080D01*
X304497Y335710D01*
Y335525D01*
Y334043D01*
X304312Y333673D01*
X304127Y333488D01*
X303941Y333302D01*
X298201D01*
Y330154D01*
X310052D01*
X310423Y329969D01*
X310608Y329784D01*
X310793Y329599D01*
Y329414D01*
Y323858D01*
X313941D01*
Y326266D01*
X314126Y326636D01*
X314311Y326821D01*
X314496Y327006D01*
X316348D01*
X316719Y326821D01*
X316904Y326636D01*
X317089Y326451D01*
Y326266D01*
Y323858D01*
X322459D01*
X322830Y323673D01*
X323015Y323488D01*
X323200Y323303D01*
Y323118D01*
Y321451D01*
X323015Y321081D01*
X322830Y320895D01*
X322644Y320710D01*
X310793D01*
Y323858D01*
X308386D01*
X308015Y324043D01*
X307645Y324229D01*
Y324414D01*
Y324599D01*
Y327006D01*
X299127D01*
X298571Y327191D01*
X298386Y327377D01*
X298201Y327562D01*
Y327747D01*
Y330154D01*
X295978D01*
X295608Y330340D01*
X295238Y330525D01*
Y330710D01*
Y330895D01*
Y333302D01*
X286534D01*
X286164Y333488D01*
X285794Y333673D01*
Y333858D01*
Y334043D01*
Y335525D01*
X285979Y336080D01*
X286164Y336265D01*
X286349Y336451D01*
X292090D01*
Y338673D01*
X292275Y339228D01*
X292460Y339413D01*
X292645Y339599D01*
X295238D01*
Y336451D01*
X298201D01*
Y339599D01*
X295238D01*
Y342562D01*
X286534D01*
X286164Y342747D01*
X285794Y343117D01*
Y343302D01*
Y343487D01*
Y345709D01*
X279498D01*
Y342562D01*
X281905D01*
X282275Y342376D01*
X282460Y342191D01*
X282646Y342006D01*
Y341821D01*
Y337191D01*
X282460Y336821D01*
X282275Y336636D01*
X282090Y336451D01*
X276349D01*
Y342562D01*
X270979D01*
X270609Y342747D01*
X270238Y343117D01*
Y343302D01*
Y343487D01*
Y354413D01*
X270424Y354783D01*
X270609Y354969D01*
X270794Y355154D01*
X275609D01*
X275979Y354969D01*
X276164Y354783D01*
X276349Y354598D01*
Y354413D01*
Y352746D01*
X276164Y352376D01*
X275979Y352191D01*
X275794Y352006D01*
X273201D01*
Y345709D01*
X276349D01*
Y348117D01*
X276535Y348487D01*
X276720Y348858D01*
X282646D01*
Y352006D01*
X280238D01*
X279868Y352191D01*
X279498Y352376D01*
Y352561D01*
Y352746D01*
Y358302D01*
X277275D01*
X276720Y358487D01*
X276535Y358672D01*
X276349Y358857D01*
Y359043D01*
Y364598D01*
X273201D01*
Y359043D01*
X273016Y358672D01*
X272831Y358487D01*
X272646Y358302D01*
X270979D01*
X270609Y358487D01*
X270238Y358672D01*
Y358857D01*
Y359043D01*
Y361450D01*
X267091D01*
Y367561D01*
X264683D01*
X264313Y367746D01*
X263942Y368116D01*
Y368302D01*
Y368487D01*
Y369968D01*
X264128Y370339D01*
X264313Y370709D01*
X267091D01*
Y373857D01*
X264683D01*
X264313Y374042D01*
X263942Y374227D01*
Y374412D01*
Y374598D01*
Y379412D01*
X264128Y379783D01*
X264313Y379968D01*
X264498Y380153D01*
X269313D01*
X269683Y379968D01*
X270053Y379783D01*
X270238Y379597D01*
Y379412D01*
Y377746D01*
X270053Y377375D01*
X269683Y377190D01*
X269498Y377005D01*
X267091D01*
Y373857D01*
X269313D01*
X269683Y373672D01*
X270053Y373486D01*
X270238Y373301D01*
Y373116D01*
Y370709D01*
X275609D01*
X275979Y370524D01*
X276164Y370339D01*
X276349Y370153D01*
Y369968D01*
Y364598D01*
X282646D01*
Y361450D01*
X285794D01*
Y355154D01*
X288942D01*
Y352006D01*
X292090D01*
Y355154D01*
X288942D01*
Y361450D01*
X285794D01*
Y364598D01*
X282646D01*
Y370709D01*
X280238D01*
X279868Y370894D01*
X279498Y371079D01*
Y371264D01*
Y371450D01*
Y373116D01*
X279683Y373486D01*
X279868Y373857D01*
X288942D01*
Y377005D01*
X286534D01*
X286164Y377190D01*
X285794Y377375D01*
Y377560D01*
Y377746D01*
Y379412D01*
X285979Y379783D01*
X286164Y379968D01*
X286349Y380153D01*
X288201D01*
X288571Y379968D01*
D02*
G37*
G36*
X263942Y352006D02*
X266350D01*
X266720Y351820D01*
X266905Y351635D01*
X267091Y351450D01*
Y351265D01*
Y330154D01*
X275609D01*
X275979Y329969D01*
X276164Y329784D01*
X276349Y329599D01*
Y329414D01*
Y327747D01*
X276164Y327377D01*
X275979Y327191D01*
X275794Y327006D01*
X273201D01*
Y320710D01*
X276349D01*
Y323118D01*
X276535Y323488D01*
X276720Y323858D01*
X282646D01*
Y320710D01*
X285794D01*
Y317562D01*
X288942D01*
Y314599D01*
X291349D01*
X291719Y314414D01*
X291905Y314229D01*
X292090Y313859D01*
Y313673D01*
Y311451D01*
X295238D01*
Y317562D01*
X288942D01*
Y320710D01*
X285794D01*
Y323858D01*
X282646D01*
Y327006D01*
X280238D01*
X279868Y327191D01*
X279498Y327377D01*
Y327562D01*
Y327747D01*
Y332562D01*
X279683Y332932D01*
X279868Y333117D01*
X280053Y333302D01*
X281905D01*
X282275Y333117D01*
X282460Y332932D01*
X282646Y332747D01*
Y332562D01*
Y330154D01*
X291349D01*
X291719Y329969D01*
X291905Y329784D01*
X292090Y329599D01*
Y329414D01*
Y327006D01*
X294312D01*
X294682Y326821D01*
X295053Y326636D01*
X295238Y326451D01*
Y326266D01*
Y323858D01*
X297460D01*
X297830Y323673D01*
X298015Y323488D01*
X298201Y323303D01*
Y323118D01*
Y317562D01*
X304497D01*
Y320710D01*
X302275D01*
X301719Y320895D01*
X301534Y321081D01*
X301349Y321266D01*
Y321451D01*
Y323118D01*
X301534Y323488D01*
X301719Y323858D01*
X303756D01*
X304127Y323673D01*
X304312Y323488D01*
X304497Y323303D01*
Y323118D01*
Y320710D01*
X310793D01*
Y317562D01*
X322459D01*
X322830Y317377D01*
X323015Y317192D01*
X323200Y317007D01*
Y316822D01*
Y315340D01*
X323015Y314970D01*
X322830Y314785D01*
X322644Y314599D01*
X298201D01*
Y309044D01*
X298015Y308674D01*
X297830Y308488D01*
X297645Y308303D01*
X295238D01*
Y298859D01*
X297460D01*
X297830Y298674D01*
X298015Y298489D01*
X298201Y298304D01*
Y298118D01*
Y296452D01*
X298015Y296081D01*
X297830Y295896D01*
X297645Y295711D01*
X295978D01*
X295608Y295896D01*
X295238Y296081D01*
Y296267D01*
Y296452D01*
Y298859D01*
X292090D01*
Y296452D01*
X291905Y296081D01*
X291719Y295896D01*
X291534Y295711D01*
X289682D01*
X289312Y295896D01*
X288942Y296081D01*
Y296267D01*
Y296452D01*
Y301266D01*
X289127Y301637D01*
X289312Y301822D01*
X289497Y302007D01*
X292090D01*
Y305155D01*
X289682D01*
X289312Y305340D01*
X288942Y305525D01*
Y305711D01*
Y305896D01*
Y308303D01*
X282646D01*
Y311451D01*
X276349D01*
Y317562D01*
X270238D01*
Y320710D01*
X267831D01*
X267461Y320895D01*
X267091Y321081D01*
Y321266D01*
Y321451D01*
Y323118D01*
X267276Y323488D01*
X267461Y323858D01*
X270238D01*
Y327006D01*
X267831D01*
X267461Y327191D01*
X267091Y327377D01*
Y327562D01*
Y327747D01*
Y330154D01*
X260794D01*
Y327006D01*
X263202D01*
X263572Y326821D01*
X263757Y326636D01*
X263942Y326451D01*
Y326266D01*
Y321451D01*
X263757Y321081D01*
X263572Y320895D01*
X263387Y320710D01*
X260794D01*
Y327006D01*
X254498D01*
Y324599D01*
X254313Y324229D01*
X254128Y324043D01*
X253943Y323858D01*
X248202D01*
Y326266D01*
X248387Y326636D01*
X248572Y326821D01*
X248943Y327006D01*
X251350D01*
Y330154D01*
X249128D01*
X248572Y330340D01*
X248387Y330525D01*
X248202Y330710D01*
Y330895D01*
Y333302D01*
X245980D01*
X245610Y333488D01*
X245239Y333673D01*
Y333858D01*
Y334043D01*
Y335525D01*
X245424Y336080D01*
X245610Y336265D01*
X245795Y336451D01*
X248202D01*
Y342562D01*
X242832D01*
X242461Y342747D01*
X242091Y343117D01*
Y343302D01*
Y343487D01*
Y345709D01*
X239684D01*
X239314Y345895D01*
X238943Y346080D01*
Y346265D01*
Y346450D01*
Y348858D01*
X235795D01*
Y346450D01*
X235610Y346080D01*
X235425Y345895D01*
X235240Y345709D01*
X233388D01*
X233017Y345895D01*
X232647Y346080D01*
Y346265D01*
Y346450D01*
Y354413D01*
X232832Y354783D01*
X233017Y354969D01*
X233203Y355154D01*
X235054D01*
X235425Y354969D01*
X235610Y354783D01*
X235795Y354598D01*
Y354413D01*
Y352006D01*
X238943D01*
Y348858D01*
X248202D01*
Y354413D01*
X248387Y354783D01*
X248572Y354969D01*
X248943Y355154D01*
X250609D01*
X250980Y354969D01*
X251165Y354783D01*
X251350Y354598D01*
Y354413D01*
Y352006D01*
X260794D01*
Y354413D01*
X260980Y354783D01*
X261165Y354969D01*
X261350Y355154D01*
X263942D01*
Y352006D01*
D02*
G37*
G36*
X241721Y354969D02*
X241906Y354783D01*
X242091Y354598D01*
Y354413D01*
Y352746D01*
X241906Y352376D01*
X241721Y352191D01*
X241536Y352006D01*
X238943D01*
Y354413D01*
X239128Y354783D01*
X239314Y354969D01*
X239499Y355154D01*
X241350D01*
X241721Y354969D01*
D02*
G37*
G36*
X254128Y379968D02*
X254313Y379783D01*
X254498Y379597D01*
Y379412D01*
Y359043D01*
X254313Y358672D01*
X254128Y358487D01*
X253943Y358302D01*
X233388D01*
X233017Y358487D01*
X232647Y358672D01*
Y358857D01*
Y359043D01*
Y379412D01*
X232832Y379783D01*
X233017Y379968D01*
X233203Y380153D01*
X253758D01*
X254128Y379968D01*
D02*
G37*
G36*
X267091Y355894D02*
X266905Y355524D01*
X266720Y355339D01*
X266535Y355154D01*
X263942D01*
Y360524D01*
X264128Y361080D01*
X264313Y361265D01*
X264498Y361450D01*
X267091D01*
Y355894D01*
D02*
G37*
G36*
X322830Y354969D02*
X323015Y354783D01*
X323200Y354598D01*
Y354413D01*
Y352746D01*
X323015Y352376D01*
X322830Y352191D01*
X322644Y352006D01*
X320237D01*
Y354413D01*
X320422Y354783D01*
X320607Y354969D01*
X320793Y355154D01*
X322459D01*
X322830Y354969D01*
D02*
G37*
G36*
X235425Y342376D02*
X235610Y342191D01*
X235795Y342006D01*
Y341821D01*
Y339599D01*
X238202D01*
X238573Y339413D01*
X238758Y339228D01*
X238943Y338858D01*
Y338673D01*
Y337191D01*
X238758Y336821D01*
X238573Y336636D01*
X238388Y336451D01*
X235795D01*
Y334043D01*
X235610Y333673D01*
X235425Y333488D01*
X235240Y333302D01*
X233388D01*
X233017Y333488D01*
X232647Y333673D01*
Y333858D01*
Y334043D01*
Y341821D01*
X232832Y342191D01*
X233017Y342562D01*
X235054D01*
X235425Y342376D01*
D02*
G37*
G36*
X270238Y312192D02*
X270053Y311822D01*
X269683Y311636D01*
X269498Y311451D01*
X267831D01*
X267461Y311636D01*
X267091Y311822D01*
Y312007D01*
Y312192D01*
Y314599D01*
X264683D01*
X264313Y314785D01*
X263942Y314970D01*
Y315155D01*
Y315340D01*
Y316822D01*
X264128Y317192D01*
X264313Y317562D01*
X270238D01*
Y312192D01*
D02*
G37*
G36*
X235425Y329969D02*
X235610Y329784D01*
X235795Y329599D01*
Y329414D01*
Y327006D01*
X241350D01*
X241721Y326821D01*
X241906Y326636D01*
X242091Y326451D01*
Y326266D01*
Y323858D01*
X248202D01*
Y317562D01*
X251350D01*
Y319970D01*
X251535Y320340D01*
X251720Y320710D01*
X253758D01*
X254128Y320525D01*
X254313Y320340D01*
X254498Y320155D01*
Y319970D01*
Y317562D01*
X257646D01*
Y319970D01*
X257832Y320340D01*
X258017Y320710D01*
X260794D01*
Y308303D01*
X263202D01*
X263572Y308118D01*
X263757Y307933D01*
X263942Y307748D01*
Y307562D01*
Y298859D01*
X270238D01*
Y302007D01*
X267831D01*
X267461Y302192D01*
X267091Y302377D01*
Y302563D01*
Y302748D01*
Y307562D01*
X267276Y307933D01*
X267461Y308118D01*
X267646Y308303D01*
X269313D01*
X269683Y308118D01*
X270053Y307933D01*
X270238Y307748D01*
Y307562D01*
Y305155D01*
X275609D01*
X275979Y304970D01*
X276164Y304785D01*
X276349Y304600D01*
Y304414D01*
Y302748D01*
X276164Y302377D01*
X275979Y302192D01*
X275794Y302007D01*
X273201D01*
Y295711D01*
X276349D01*
Y292563D01*
X278757D01*
X279127Y292378D01*
X279312Y292193D01*
X279498Y292007D01*
Y291822D01*
Y290341D01*
X279312Y289970D01*
X279127Y289785D01*
X278942Y289600D01*
X277275D01*
X276720Y289785D01*
X276535Y289970D01*
X276349Y290156D01*
Y290341D01*
Y292563D01*
X270238D01*
Y295711D01*
X267091D01*
Y292563D01*
X270238D01*
Y290341D01*
X270053Y289970D01*
X269683Y289785D01*
X269498Y289600D01*
X264683D01*
X264313Y289785D01*
X263942Y289970D01*
Y290156D01*
Y290341D01*
Y298859D01*
X257646D01*
Y295711D01*
X260054D01*
X260424Y295526D01*
X260609Y295341D01*
X260794Y295155D01*
Y294970D01*
Y290341D01*
X260609Y289970D01*
X260424Y289785D01*
X260239Y289600D01*
X258387D01*
X258017Y289785D01*
X257646Y289970D01*
Y290156D01*
Y290341D01*
Y295711D01*
X255239D01*
X254869Y295896D01*
X254498Y296081D01*
Y296267D01*
Y296452D01*
Y302007D01*
X248202D01*
Y295711D01*
X250609D01*
X250980Y295526D01*
X251165Y295341D01*
X251350Y295155D01*
Y294970D01*
Y293489D01*
X251165Y292933D01*
X250980Y292748D01*
X250795Y292563D01*
X248202D01*
Y290341D01*
X248017Y289970D01*
X247832Y289785D01*
X247647Y289600D01*
X242832D01*
X242461Y289785D01*
X242091Y289970D01*
Y290156D01*
Y290341D01*
Y294970D01*
X242276Y295341D01*
X242461Y295711D01*
X245239D01*
Y298859D01*
X238943D01*
Y296452D01*
X238758Y296081D01*
X238573Y295896D01*
X238388Y295711D01*
X233388D01*
X233017Y295896D01*
X232647Y296081D01*
Y296267D01*
Y296452D01*
Y298118D01*
X232832Y298489D01*
X233017Y298859D01*
X235795D01*
Y305155D01*
X233388D01*
X233017Y305340D01*
X232647Y305525D01*
Y305711D01*
Y305896D01*
Y313673D01*
X232832Y314229D01*
X233017Y314414D01*
X233203Y314599D01*
X235795D01*
Y308303D01*
X238202D01*
X238573Y308118D01*
X238758Y307933D01*
X238943Y307748D01*
Y307562D01*
Y302007D01*
X242091D01*
Y304414D01*
X242276Y304785D01*
X242461Y304970D01*
X242647Y305155D01*
X245239D01*
Y311451D01*
X239684D01*
X239314Y311636D01*
X238943Y311822D01*
Y312007D01*
Y312192D01*
Y314599D01*
X235795D01*
Y316822D01*
X235980Y317192D01*
X236165Y317562D01*
X238202D01*
X238573Y317377D01*
X238758Y317192D01*
X238943Y317007D01*
Y316822D01*
Y314599D01*
X242091D01*
Y316822D01*
X242276Y317192D01*
X242461Y317562D01*
X245239D01*
Y320710D01*
X242832D01*
X242461Y320895D01*
X242091Y321081D01*
Y321266D01*
Y321451D01*
Y323858D01*
X235795D01*
Y321451D01*
X235610Y321081D01*
X235425Y320895D01*
X235240Y320710D01*
X233388D01*
X233017Y320895D01*
X232647Y321081D01*
Y321266D01*
Y321451D01*
Y329414D01*
X232832Y329784D01*
X233017Y329969D01*
X233203Y330154D01*
X235054D01*
X235425Y329969D01*
D02*
G37*
G36*
X282646Y305155D02*
X285053D01*
X285423Y304970D01*
X285609Y304785D01*
X285794Y304600D01*
Y304414D01*
Y296452D01*
X285609Y296081D01*
X285423Y295896D01*
X285238Y295711D01*
X276349D01*
Y298118D01*
X276535Y298489D01*
X276720Y298859D01*
X279498D01*
Y307562D01*
X279683Y307933D01*
X279868Y308118D01*
X280053Y308303D01*
X282646D01*
Y305155D01*
D02*
G37*
G36*
X276349Y309044D02*
X276164Y308674D01*
X275979Y308488D01*
X275794Y308303D01*
X274127D01*
X273572Y308488D01*
X273387Y308674D01*
X273201Y308859D01*
Y309044D01*
Y310525D01*
X273387Y311081D01*
X273572Y311266D01*
X273942Y311451D01*
X276349D01*
Y309044D01*
D02*
G37*
G36*
Y334043D02*
X276164Y333673D01*
X275979Y333488D01*
X275794Y333302D01*
X274127D01*
X273572Y333488D01*
X273387Y333673D01*
X273201Y333858D01*
Y334043D01*
Y335525D01*
X273387Y336080D01*
X273572Y336265D01*
X273942Y336451D01*
X276349D01*
Y334043D01*
D02*
G37*
G36*
X260424Y373672D02*
X260609Y373486D01*
X260794Y373301D01*
Y373116D01*
Y368487D01*
X260609Y367931D01*
X260424Y367746D01*
X260239Y367561D01*
X258387D01*
X258017Y367746D01*
X257646Y368116D01*
Y368302D01*
Y368487D01*
Y373116D01*
X257832Y373486D01*
X258017Y373857D01*
X260054D01*
X260424Y373672D01*
D02*
G37*
G36*
X235425Y292378D02*
X235610Y292193D01*
X235795Y292007D01*
Y291822D01*
Y290341D01*
X235610Y289970D01*
X235425Y289785D01*
X235240Y289600D01*
X233388D01*
X233017Y289785D01*
X232647Y289970D01*
Y290156D01*
Y290341D01*
Y291822D01*
X232832Y292193D01*
X233017Y292563D01*
X235054D01*
X235425Y292378D01*
D02*
G37*
G36*
X288571D02*
X288756Y292193D01*
X288942Y292007D01*
Y291822D01*
Y290341D01*
X288756Y289970D01*
X288571Y289785D01*
X288386Y289600D01*
X283386D01*
X283016Y289785D01*
X282646Y289970D01*
Y290156D01*
Y290341D01*
Y291822D01*
X282831Y292193D01*
X283016Y292563D01*
X288201D01*
X288571Y292378D01*
D02*
G37*
G36*
X297830Y379968D02*
X298015Y379783D01*
X298201Y379597D01*
Y379412D01*
Y377746D01*
X298015Y377375D01*
X297830Y377190D01*
X297645Y377005D01*
X295978D01*
X295608Y377190D01*
X295238Y377375D01*
Y377560D01*
Y377746D01*
Y379412D01*
X295423Y379783D01*
X295608Y379968D01*
X295793Y380153D01*
X297460D01*
X297830Y379968D01*
D02*
G37*
G36*
X282275D02*
X282460Y379783D01*
X282646Y379597D01*
Y379412D01*
Y377746D01*
X282460Y377375D01*
X282275Y377190D01*
X282090Y377005D01*
X276349D01*
Y374598D01*
X276164Y374227D01*
X275979Y374042D01*
X275794Y373857D01*
X274127D01*
X273572Y374042D01*
X273387Y374227D01*
X273201Y374412D01*
Y374598D01*
Y379412D01*
X273387Y379783D01*
X273572Y379968D01*
X273942Y380153D01*
X281905D01*
X282275Y379968D01*
D02*
G37*
G36*
X297830Y373672D02*
X298015Y373486D01*
X298201Y373301D01*
Y373116D01*
Y371450D01*
X298015Y371079D01*
X297830Y370894D01*
X297645Y370709D01*
X295978D01*
X295608Y370894D01*
X295238Y371079D01*
Y371264D01*
Y371450D01*
Y373116D01*
X295423Y373486D01*
X295608Y373857D01*
X297460D01*
X297830Y373672D01*
D02*
G37*
G36*
X322830Y379968D02*
X323015Y379783D01*
X323200Y379597D01*
Y379412D01*
Y359043D01*
X323015Y358672D01*
X322830Y358487D01*
X322644Y358302D01*
X302275D01*
X301719Y358487D01*
X301534Y358672D01*
X301349Y358857D01*
Y359043D01*
Y379412D01*
X301534Y379783D01*
X301719Y379968D01*
X302090Y380153D01*
X322459D01*
X322830Y379968D01*
D02*
G37*
G36*
X297830Y364413D02*
X298015Y364228D01*
X298201Y363857D01*
Y363672D01*
Y359043D01*
X298015Y358672D01*
X297830Y358487D01*
X297645Y358302D01*
X295978D01*
X295608Y358487D01*
X295238Y358672D01*
Y358857D01*
Y359043D01*
Y363672D01*
X295423Y364228D01*
X295608Y364413D01*
X295793Y364598D01*
X297460D01*
X297830Y364413D01*
D02*
G37*
G36*
X322830Y311266D02*
X323015Y311081D01*
X323200Y310711D01*
Y310525D01*
Y290341D01*
X323015Y289970D01*
X322830Y289785D01*
X322644Y289600D01*
X302275D01*
X301719Y289785D01*
X301534Y289970D01*
X301349Y290156D01*
Y290341D01*
Y310525D01*
X301534Y311081D01*
X301719Y311266D01*
X302090Y311451D01*
X322459D01*
X322830Y311266D01*
D02*
G37*
G36*
X297830Y292378D02*
X298015Y292193D01*
X298201Y292007D01*
Y291822D01*
Y290341D01*
X298015Y289970D01*
X297830Y289785D01*
X297645Y289600D01*
X292830D01*
X292460Y289785D01*
X292090Y289970D01*
Y290156D01*
Y290341D01*
Y291822D01*
X292275Y292193D01*
X292460Y292563D01*
X297460D01*
X297830Y292378D01*
D02*
G37*
G36*
X260424Y361265D02*
X260609Y361080D01*
X260794Y360709D01*
Y360524D01*
Y359043D01*
X260609Y358672D01*
X260424Y358487D01*
X260239Y358302D01*
X258387D01*
X258017Y358487D01*
X257646Y358672D01*
Y358857D01*
Y359043D01*
Y360524D01*
X257832Y361080D01*
X258017Y361265D01*
X258202Y361450D01*
X260054D01*
X260424Y361265D01*
D02*
G37*
%LPC*%
G36*
X320237Y308303D02*
X304497D01*
Y292563D01*
X320237D01*
Y308303D01*
D02*
G37*
G36*
X257646Y314599D02*
X248202D01*
Y305155D01*
X257646D01*
Y314599D01*
D02*
G37*
G36*
X292090Y311451D02*
X288942D01*
Y308303D01*
X292090D01*
Y311451D01*
D02*
G37*
G36*
X282646Y320710D02*
X279498D01*
Y317562D01*
X282646D01*
Y314599D01*
X285794D01*
Y317562D01*
X282646D01*
Y320710D01*
D02*
G37*
G36*
X285794Y355154D02*
X282646D01*
Y352006D01*
X285794D01*
Y345709D01*
X292090D01*
Y348858D01*
X289682D01*
X289312Y349043D01*
X288942Y349228D01*
Y349413D01*
Y349598D01*
Y352006D01*
X285794D01*
Y355154D01*
D02*
G37*
G36*
X301349Y348858D02*
X295238D01*
Y345709D01*
X301349D01*
Y342562D01*
X310793D01*
Y345709D01*
X301349D01*
Y348858D01*
D02*
G37*
G36*
X282646Y361450D02*
X279498D01*
Y358302D01*
X282646D01*
Y361450D01*
D02*
G37*
G36*
X320237Y377005D02*
X304497D01*
Y361450D01*
X320237D01*
Y377005D01*
D02*
G37*
G36*
X251350D02*
X235795D01*
Y361450D01*
X251350D01*
Y377005D01*
D02*
G37*
G36*
X320237Y339599D02*
X317089D01*
Y336451D01*
X320237D01*
Y339599D01*
D02*
G37*
G36*
X257646Y333302D02*
X254498D01*
Y330154D01*
X257646D01*
Y333302D01*
D02*
G37*
G36*
X292090Y327006D02*
X285794D01*
Y323858D01*
X288201D01*
X288571Y323673D01*
X288756Y323488D01*
X288942Y323303D01*
Y323118D01*
Y320710D01*
X292090D01*
Y327006D01*
D02*
G37*
G36*
X257646Y348858D02*
X254498D01*
Y345709D01*
X257646D01*
Y343487D01*
X257461Y342932D01*
X257276Y342747D01*
X257091Y342562D01*
X254498D01*
Y345709D01*
X248202D01*
Y342562D01*
X254498D01*
Y336451D01*
X257646D01*
Y333302D01*
X260794D01*
Y336451D01*
X257646D01*
Y338673D01*
X257832Y339228D01*
X258017Y339413D01*
X258202Y339599D01*
X260054D01*
X260424Y339413D01*
X260609Y339228D01*
X260794Y338858D01*
Y338673D01*
Y336451D01*
X263942D01*
Y342562D01*
X261535D01*
X261165Y342747D01*
X260794Y343117D01*
Y343302D01*
Y343487D01*
Y345709D01*
X257646D01*
Y348858D01*
D02*
G37*
%LPD*%
G36*
X316719Y373672D02*
X316904Y373486D01*
X317089Y373301D01*
Y373116D01*
Y365339D01*
X316904Y364968D01*
X316719Y364783D01*
X316533Y364598D01*
X308386D01*
X308015Y364783D01*
X307645Y364968D01*
Y365153D01*
Y365339D01*
Y373116D01*
X307830Y373486D01*
X308015Y373857D01*
X316348D01*
X316719Y373672D01*
D02*
G37*
G36*
X247832D02*
X248017Y373486D01*
X248202Y373301D01*
Y373116D01*
Y365339D01*
X248017Y364968D01*
X247832Y364783D01*
X247647Y364598D01*
X239684D01*
X239314Y364783D01*
X238943Y364968D01*
Y365153D01*
Y365339D01*
Y373116D01*
X239128Y373486D01*
X239314Y373857D01*
X247461D01*
X247832Y373672D01*
D02*
G37*
G36*
X254128Y311266D02*
X254313Y311081D01*
X254498Y310711D01*
Y310525D01*
Y309044D01*
X254313Y308674D01*
X254128Y308488D01*
X253943Y308303D01*
X252276D01*
X251720Y308488D01*
X251535Y308674D01*
X251350Y308859D01*
Y309044D01*
Y310525D01*
X251535Y311081D01*
X251720Y311266D01*
X252091Y311451D01*
X253758D01*
X254128Y311266D01*
D02*
G37*
G36*
X316719Y304970D02*
X316904Y304785D01*
X317089Y304600D01*
Y304414D01*
Y296452D01*
X316904Y296081D01*
X316719Y295896D01*
X316533Y295711D01*
X308386D01*
X308015Y295896D01*
X307645Y296081D01*
Y296267D01*
Y296452D01*
Y304414D01*
X307830Y304785D01*
X308015Y304970D01*
X308200Y305155D01*
X316348D01*
X316719Y304970D01*
D02*
G37*
M02*
